<svg xmlns="http://www.w3.org/2000/svg" viewBox="0 0 512 512" preserveAspectRatio="xMidYMid meet">
  <title>Afro Business Woman</title>
  <g id="afro-business-woman" data-name="Afro Business Woman">
    <path
       d="m 106.66667,128 c 0,-64 42.66666,-85.33333 85.33333,-85.33333 0,0 21.33333,-21.33334 64,-21.33334 64,0 76.49678,42.66667 106.66667,42.66667 21.33333,0 42.66666,21.33333 42.66666,42.66667 0,21.33334 21.33334,21.33333 21.33334,42.66666 0,21.33333 -21.33334,21.33334 -21.33334,42.66652 0,21.33348 21.33334,21.33348 21.33334,42.66682 0,21.33334 -21.33334,21.33333 -21.33334,42.66666 0,21.33333 21.33334,21.33334 21.33334,42.66667 h -320 z"
       style="fill:#4b3d44"
       id="path1" />
    <path
       d="m 426.66667,234.66667 c 0,-21.33334 -21.33334,-21.33334 -21.33334,-42.66667 0,-21.33333 21.33334,-21.33333 21.33334,-42.66667 0,-21.33334 -21.33334,-21.33333 -21.33334,-42.66666 C 405.33333,85.33334 384,64 362.66667,64 332.4974,64 320,21.33333 256,21.33333 c -42.66667,0 -64,21.33334 -64,21.33334 C 192,64 213.33333,64 213.33333,85.33333 213.33333,106.66666 192,106.66667 192,128 v 192 h 234.66667 c 0,-21.33333 -21.33334,-21.33333 -21.33334,-42.66667 0,-21.33334 21.33334,-21.33333 21.33334,-42.66666 z"
       style="fill:#4b3d44"
       id="path2" />
    <path
       d="m 426.66667,341.33333 h -21.33334 v -10.66666 c 0,-8.59375 -5.86458,-10.54167 -10.79166,-10.66667 -23.35417,0 -31.875,-19.13542 -31.875,-32 0,-15.08333 7.96875,-23.05208 13.79166,-28.875 C 381.6875,253.89583 384,251.33333 384,245.33333 V 224 h 21.33333 v 21.33333 c 0,15.08334 -7.96875,23.05209 -13.79166,28.875 C 386.3125,279.4375 384,282 384,288 c 0.125,4.80208 2.07292,10.66667 10.66667,10.66667 12.86458,0 32,8.52083 32,32 z"
       style="fill:#79444a;fill-opacity:1"
       id="path3" />
    <path
       d="m 106.66667,149.33333 c 0,21.33334 -21.33334,21.33334 -21.33334,42.66667 0,21.33333 21.33334,21.33333 21.33334,42.66667 0,21.33334 -21.33334,21.33333 -21.33334,42.66666 0,21.33333 21.33334,21.33334 21.33334,42.66667 H 256 V 149.33333 Z"
       style="fill:#4b3d44"
       id="path4" />
    <path
       d="M 117.33333,341.33333 H 106.66667 V 320 h 10.66666 C 118.85417,319.88542 128,318.30208 128,298.66667 c 0,-6 -2.3125,-8.5625 -7.54167,-13.79167 -5.82291,-5.82292 -13.79166,-13.79167 -13.79166,-28.875 0,-12.86458 8.52083,-32 32,-32 v 21.33333 c -8.59375,0 -10.54167,5.86459 -10.66667,10.79167 0,5.875 2.3125,8.4375 7.54167,13.66667 5.82291,5.82291 13.79166,13.79166 13.79166,28.875 0,33.75 -20.92708,42.66666 -32,42.66666 z"
       style="fill:#79444a;fill-opacity:1"
       id="path5" />
    <rect
       x="341.33334"
       y="192"
       width="42.666672"
       height="64"
       rx="21.333309"
       ry="21.333309"
       style="fill:#4b3d44"
       id="rect5" />
    <rect
       x="128"
       y="192"
       width="42.666672"
       height="64"
       rx="21.333309"
       ry="21.333309"
       style="fill:#4b3d44"
       id="rect6" />
    <path
       d="m 192,277.33333 v 64 a 21.33334,21.33334 0 0 1 -21.33333,21.33334 h -64 A 85.33333,85.33333 0 0 0 21.33333,448 v 42.66667 H 490.66667 V 448 a 85.33333,85.33333 0 0 0 -85.33334,-85.33333 h -64 A 21.33334,21.33334 0 0 1 320,341.33333 v -64 z"
       style="fill:#79444a;fill-opacity:1"
       id="path6" />
    <path
       d="M 362.66667,490.66667 H 149.33333 V 448 C 149.33333,448 192,469.33333 256,469.33333 320,469.33333 362.66667,448 362.66667,448 Z"
       style="fill:#ab9b8e;fill-opacity:1"
       id="path7" />
    <rect
       x="149.33333"
       y="405.33334"
       width="85.333328"
       height="42.666672"
       rx="21.333309"
       ry="21.333309"
       style="fill:#79444a;fill-opacity:1"
       id="rect7" />
    <circle
       cx="282.60764"
       cy="390.76999"
       r="21.33333"
       style="fill:#79444a;fill-opacity:1"
       id="circle7" />
    <path
       d="m 106.66667,362.66667 h 64 v 128 H 21.33333 V 448 a 85.33333,85.33333 0 0 1 85.33334,-85.33333 z"
       style="fill:#4b3d44;fill-opacity:1"
       id="path8" />
    <path
       d="m 192,341.33333 c 0,0 -64,21.33334 -85.33333,85.33334 L 149.33333,448 106.66667,490.66667 H 192 Z"
       style="fill:#4b3d44;fill-opacity:1"
       id="path9" />
    <path
       d="M 341.33333,362.66667 A 21.33356,21.33356 0 0 1 320,341.33333 v -64 h -85.33333 v 128 a 21.33333,21.33333 0 1 0 42.66666,0 h 85.33334 v -42.66666 z"
       style="fill:#79444a;fill-opacity:1"
       id="path10" />
    <path
       d="m 341.33333,362.66667 h 149.33334 v 128 h -64 a 85.33333,85.33333 0 0 1 -85.33333,-85.33333 v -42.66667 z"
       transform="rotate(180,416,426.66667)"
       style="fill:#4b3d44;fill-opacity:1"
       id="path11" />
    <path
       d="m 341.33333,362.66667 c 0,0 42.66667,21.33333 85.33334,64 32,32 42.66666,64 42.66666,64 h -128 z"
       style="fill:#574852;fill-opacity:1"
       id="path12" />
    <path
       d="M 64,490.66667 H 42.66667 V 448 a 64.07,64.07 0 0 1 64,-64 v 21.33333 A 42.70887,42.70887 0 0 0 64,448 Z"
       style="fill:#574852;fill-opacity:1"
       id="path13" />
    <rect
       x="149.33333"
       y="42.666672"
       width="213.33333"
       height="298.66656"
       rx="106.66656"
       ry="106.66656"
       style="fill:#ae5d40"
       id="rect13" />
    <path
       d="m 320,64.48307 v 84.85026 h -42.66667 v 21.33334 H 320 v 42.66659 a 21.33333,21.33333 0 0 1 21.33333,21.33333 v 8e-5 A 21.33333,21.33333 0 0 1 320,256 h -64 v 64 h 21.33333 v 19.18359 a 106.69065,106.69065 0 0 0 85.33334,-104.51692 v -85.33334 c 0,-34.78385 -16.90104,-65.3789 -42.66667,-84.85026 z"
       style="fill:#79444a;fill-opacity:1"
       id="path14" />
    <polygon
       points="320,192 320,170.667 256,170.667 256,234.667 234.667,234.667 234.667,256 277.333,256 277.333,192 "
       style="fill:#79444a;fill-opacity:1"
       id="polygon14" />
    <rect
       x="298.66666"
       y="192"
       width="21.33333"
       height="21.33333"
       style="fill:#4b3d44"
       id="rect14" />
    <rect
       x="192"
       y="192"
       width="21.33333"
       height="21.33333"
       style="fill:#4b3d44"
       id="rect15" />
    <rect
       x="234.66667"
       y="277.33334"
       width="42.666672"
       height="21.33333"
       style="fill:#4b3d44;fill-opacity:1"
       id="rect16" />
    <path
       d="m 320,341.33333 c 0,0 64,21.33334 85.33333,85.33334 L 362.66667,448 405.33333,490.66667 H 320 Z"
       style="fill:#4b3d44;fill-opacity:1"
       id="path16" />
    <rect
       x="170.66667"
       y="362.66666"
       width="21.33333"
       height="128"
       style="fill:#4b3d44;fill-opacity:1"
       id="rect17" />
    <rect
       x="320"
       y="362.66666"
       width="21.33333"
       height="128"
       style="fill:#4b3d44;fill-opacity:1"
       id="rect18" />
    <path
       d="m 192,462.04557 v 28.6211 h 21.33333 v -24.651 c -7.6302,-1.1615 -14.88411,-2.47921 -21.33333,-3.9701 z"
       style="fill:#ab9b8e;fill-opacity:1"
       id="path18" />
    <path
       d="m 149.33333,213.33333 v 21.33334 H 106.66667 V 192 A 149.33318,149.33318 0 0 1 255.99985,42.66682 h 3e-4 A 149.33318,149.33318 0 0 1 405.33333,192 v 42.66667 h -42.66666 c 0,0 -21.33334,0 -21.33334,-21.33334 0,0 0,-21.33333 -21.33333,-21.33333 0,0 -21.33333,0 -21.33333,-21.33333 0,0 0,-21.33334 -21.33334,-21.33334 -42.66666,0 -42.66666,-42.66666 -64,-42.66666 C 191.99999,106.66667 192,128 192,128 c 0,21.33333 -21.33333,21.33333 -21.33333,42.66667 0,21.33334 -21.33334,21.33333 -21.33334,42.66666 z"
       style="fill:#4b3d44"
       id="path19" />
    <path
       d="m 256,42.66667 a 148.62777,148.62777 0 0 0 -60.50651,12.88151 c 6.04427,9.83073 17.83984,13.91015 17.83984,29.78515 0,19.71745 -18.01692,21.418 -20.77734,38.375 1.23958,-6.21614 5.52474,-17.04166 20.77734,-17.04166 21.33334,0 21.33334,42.66666 64,42.66666 21.33334,0 21.33334,21.33334 21.33334,21.33334 C 298.66667,192 320,192 320,192 c 21.33333,0 21.33333,21.33333 21.33333,21.33333 0,21.33334 21.33334,21.33334 21.33334,21.33334 h 42.66666 V 192 A 149.33322,149.33322 0 0 0 256,42.66667 Z"
       style="fill:#4b3d44"
       id="path20" />
    <path
       d="M 405.33333,213.33333 H 384 a 32.035,32.035 0 0 1 -32,-32 10.67387,10.67387 0 0 0 -10.66667,-10.66666 32.035,32.035 0 0 1 -32,-32 A 10.67387,10.67387 0 0 0 298.66667,128 h -21.33334 a 32.035,32.035 0 0 1 -32,-32 10.67387,10.67387 0 0 0 -10.66666,-10.66667 H 213.33333 V 64 h 21.33334 a 32.035,32.035 0 0 1 32,32 10.67387,10.67387 0 0 0 10.66666,10.66667 h 21.33334 a 32.035,32.035 0 0 1 32,32 10.67387,10.67387 0 0 0 10.66666,10.66666 32.035,32.035 0 0 1 32,32 A 10.67387,10.67387 0 0 0 384,192 h 21.33333 z"
       style="fill:#79444a;fill-opacity:1"
       id="path21" />
    <path
       d="M 405.33333,170.66667 H 384 v -32 A 10.67387,10.67387 0 0 0 373.33333,128 a 32.035,32.035 0 0 1 -32,-32 10.67387,10.67387 0 0 0 -10.66666,-10.66667 h -21.33334 a 32.035,32.035 0 0 1 -32,-32 10.67387,10.67387 0 0 0 -10.66666,-10.66666 H 256 V 21.33333 h 10.66667 a 32.035,32.035 0 0 1 32,32 A 10.67387,10.67387 0 0 0 309.33333,64 h 21.33334 a 32.035,32.035 0 0 1 32,32 10.67387,10.67387 0 0 0 10.66666,10.66667 32.035,32.035 0 0 1 32,32 z"
       style="fill:#79444a;fill-opacity:1"
       id="path22" />
    <path
       d="M 128,213.33333 H 106.66667 V 160 a 32.035,32.035 0 0 1 32,-32 10.67387,10.67387 0 0 0 10.66666,-10.66667 32.035,32.035 0 0 1 32,-32 H 192 v 21.33334 h -10.66667 a 10.67387,10.67387 0 0 0 -10.66666,10.66666 32.035,32.035 0 0 1 -32,32 A 10.67387,10.67387 0 0 0 128,160 Z"
       style="fill:#79444a;fill-opacity:1"
       id="path23" />
    <rect
       x="128"
       y="85.333328"
       width="21.33333"
       height="21.33333"
       style="fill:#4b3d44;fill-opacity:1"
       id="rect23" />
    <rect
       x="234.66667"
       y="42.666672"
       width="21.33333"
       height="21.33333"
       style="fill:#4b3d44"
       id="rect24" />
  </g>
</svg>
