<svg xmlns="http://www.w3.org/2000/svg" viewBox="0 0 512 512" preserveAspectRatio="xMidYMid meet">
  <title>Afro Old Man</title>
  <g id="afro-old-man" data-name="Afro Old Man">
    <path
       d="M 341.33333,213.33333 H 384 V 149.33321 A 127.99987,127.99987 0 0 0 256.00013,21.33333 h -2.6e-4 A 127.99987,127.99987 0 0 0 128,149.33321 v 64.00012 h 42.66667 V 106.66667 A 21.33334,21.33334 0 0 0 192,85.33333 h 128 a 21.33334,21.33334 0 0 0 21.33333,21.33334 z"
       style="fill:#847875;fill-opacity:1"
       id="path1" />
    <path
       d="m 256,21.33333 v 64 h 64 a 21.33356,21.33356 0 0 0 21.33333,21.33334 V 213.33333 H 384 v -64 a 127.99966,127.99966 0 0 0 -128,-128 z"
       style="fill:#ab9b8e;fill-opacity:1"
       id="path2" />
    <rect
       x="341.33334"
       y="192"
       width="42.666672"
       height="64"
       rx="21.333309"
       ry="21.333309"
       style="fill:#79444a;fill-opacity:1"
       id="rect2" />
    <rect
       x="128"
       y="192"
       width="42.666672"
       height="64"
       rx="21.333309"
       ry="21.333309"
       style="fill:#79444a;fill-opacity:1"
       id="rect3" />
    <path
       d="m 192,277.33333 v 64 a 21.33334,21.33334 0 0 1 -21.33333,21.33334 h -64 A 85.33333,85.33333 0 0 0 21.33333,448 v 42.66667 H 490.66667 V 448 a 85.33333,85.33333 0 0 0 -85.33334,-85.33333 h -64 A 21.33334,21.33334 0 0 1 320,341.33333 v -64 z"
       style="fill:#4b3d44;fill-opacity:1"
       id="path3" />
    <path
       d="m 405.33333,362.66667 h -64 A 21.33356,21.33356 0 0 1 320,341.33333 v -64 H 256 V 490.66667 H 490.66667 V 448 a 85.33255,85.33255 0 0 0 -85.33334,-85.33333 z"
       style="fill:#4b3d44;fill-opacity:1"
       id="path4" />
    <path
       d="M 277.33333,426.66667 H 256 v -21.33334 h 21.33333 A 42.70886,42.70886 0 0 0 320,362.66667 h 21.33333 a 64.07,64.07 0 0 1 -64,64 z"
       style="fill:#b3a555;fill-opacity:1"
       id="path5" />
    <path
       d="M 277.33333,448 H 256 v -21.33333 h 21.33333 a 64.07,64.07 0 0 0 64,-64 h 21.33334 A 85.43111,85.43111 0 0 1 277.33333,448 Z"
       style="fill:#4b3d44;fill-opacity:1"
       id="path6" />
    <path
       d="m 256,426.66667 h -21.33333 a 64.07,64.07 0 0 1 -64,-64 H 192 a 42.70886,42.70886 0 0 0 42.66667,42.66666 H 256 Z"
       style="fill:#b3a555;fill-opacity:1"
       id="path7" />
    <path
       d="M 42.66667,490.66667 H 21.33333 V 448 a 85.43111,85.43111 0 0 1 85.33334,-85.33333 h 64 V 384 h -64 a 64.07,64.07 0 0 0 -64,64 z"
       style="fill:#b3a555;fill-opacity:1"
       id="path8" />
    <path
       d="M 85.33333,490.66667 H 64 v -32 a 53.39612,53.39612 0 0 1 53.33333,-53.33334 h 53.33334 v 21.33334 h -53.33334 a 32.035,32.035 0 0 0 -32,32 z"
       style="fill:#b3a555;fill-opacity:1"
       id="path9" />
    <path
       d="m 448,490.66667 h -21.33333 v -32 a 32.035,32.035 0 0 0 -32,-32 h -53.33334 v -21.33334 h 53.33334 A 53.39612,53.39612 0 0 1 448,458.66667 Z"
       style="fill:#b3a555;fill-opacity:1"
       id="path10" />
    <path
       d="M 490.66667,490.66667 H 469.33333 V 448 a 64.07,64.07 0 0 0 -64,-64 h -64 v -21.33333 h 64 A 85.43111,85.43111 0 0 1 490.66667,448 Z"
       style="fill:#b3a555;fill-opacity:1"
       id="path11" />
    <rect
       x="149.33333"
       y="64"
       width="213.33333"
       height="277.33322"
       rx="106.66656"
       ry="106.66656"
       style="fill:#ae5d40"
       id="rect11" />
    <path
       d="m 320,64.48307 v 84.85026 h -42.66667 v 21.33334 H 320 v 42.66659 a 21.33333,21.33333 0 0 1 21.33333,21.33333 v 8e-5 A 21.33333,21.33333 0 0 1 320,256 h -64 v 64 h 21.33333 v 19.18359 a 106.69065,106.69065 0 0 0 85.33334,-104.51692 v -85.33334 c 0,-34.78385 -16.90105,-65.3789 -42.66667,-84.85026 z"
       style="fill:#79444a;fill-opacity:1"
       id="path12" />
    <polygon
       points="277.333,256 277.333,192 320,192 320,170.667 256,170.667 256,234.667 234.667,234.667 234.667,256 "
       style="fill:#79444a;fill-opacity:1"
       id="polygon12" />
    <rect
       x="298.66666"
       y="192"
       width="21.33333"
       height="21.33333"
       style="fill:#4b3d44"
       id="rect12" />
    <rect
       x="192"
       y="192"
       width="21.33333"
       height="21.33333"
       style="fill:#4b3d44"
       id="rect13" />
    <rect
       x="234.66667"
       y="277.33334"
       width="42.666672"
       height="21.33333"
       style="fill:#4b3d44;fill-opacity:1"
       id="rect14" />
    <rect
       x="192"
       y="149.33333"
       width="64"
       height="21.33333"
       style="fill:#79444a;fill-opacity:1"
       id="rect15" />
    <rect
       x="213.33333"
       y="106.66667"
       width="85.333328"
       height="21.33333"
       style="fill:#79444a;fill-opacity:1"
       id="rect16" />
    <rect
       x="192"
       y="128"
       width="128"
       height="21.33333"
       style="fill:#ae5d40;fill-opacity:1"
       id="rect17" />
    <rect
       x="213.33333"
       y="277.33334"
       width="21.33333"
       height="21.33333"
       style="fill:#ab9b8e;fill-opacity:1"
       id="rect18" />
    <rect
       x="277.33334"
       y="277.33334"
       width="21.33333"
       height="21.33333"
       style="fill:#ab9b8e;fill-opacity:1"
       id="rect19" />
    <rect
       x="149.33333"
       y="170.66667"
       width="21.33333"
       height="64"
       style="fill:#8caba1"
       id="rect20" />
    <rect
       x="341.33334"
       y="170.66667"
       width="21.33333"
       height="64"
       transform="rotate(180,352,202.66666)"
       style="fill:#ab9b8e;fill-opacity:1"
       id="rect21" />
    <path
       d="m 362.66667,234.66667 c 0,0 21.33333,0 21.33333,42.66666 C 384,319.99999 362.66667,320 362.66667,320 c 0,21.33333 -21.33334,21.33333 -21.33334,21.33333 C 341.33333,362.66667 320,384 298.66667,384 c 0,0 0,21.33333 -42.66667,21.33333 C 213.33333,405.33333 213.33333,384 213.33333,384 192,384 170.66667,362.66667 170.66667,341.33333 c 0,0 -21.33334,0 -21.33334,-21.33333 0,0 -21.33333,0 -21.33333,-42.66667 0,-42.66667 21.33333,-42.66666 21.33333,-42.66666 h 21.33334 v 21.33342 a 85.33324,85.33324 0 0 0 85.33324,85.33324 h 1.8e-4 a 85.33324,85.33324 0 0 0 85.33324,-85.33324 v -21.33342 z"
       style="fill:#847875;fill-opacity:1"
       id="path21" />
    <rect
       x="213.33333"
       y="256"
       width="85.333328"
       height="21.33333"
       style="fill:#ab9b8e;fill-opacity:1"
       id="rect22" />
    <rect
       x="256"
       y="256"
       width="42.666672"
       height="21.33333"
       style="fill:#ab9b8e;fill-opacity:1"
       id="rect23" />
    <path
       d="M 341.33333,213.33333 V 128 A 42.66666,42.66666 0 0 1 298.66667,85.33333 H 213.33333 A 42.66666,42.66666 0 0 1 170.66667,128 v 85.33333 L 128,192 V 170.66654 A 127.99987,127.99987 0 0 1 255.99987,42.66667 h 2.6e-4 A 127.99987,127.99987 0 0 1 384,170.66654 V 192 Z"
       style="fill:#847875;fill-opacity:1"
       id="path23" />
    <path
       d="M 256,42.66667 V 85.33333 H 213.33333 A 42.6671,42.6671 0 0 1 170.66667,128 v 85.33333 L 128,192 v -21.33333 a 127.99966,127.99966 0 0 1 128,-128 z"
       style="fill:#847875;fill-opacity:1"
       id="path24" />
    <path
       d="M 42.66667,490.66667 H 21.33333 V 448 a 85.43111,85.43111 0 0 1 85.33334,-85.33333 V 384 a 64.07,64.07 0 0 0 -64,64 z"
       style="fill:#b3a555;fill-opacity:1"
       id="path25" />
    <path
       d="M 490.66667,490.66667 H 469.33333 V 448 a 64.07,64.07 0 0 0 -64,-64 V 362.66667 A 85.43111,85.43111 0 0 1 490.66667,448 Z"
       style="fill:#000000;fill-opacity:0"
       id="path26" />
    <path
       d="M 362.66667,234.66667 H 341.33333 V 256 a 67.53176,67.53176 0 0 1 -1.28906,12.79167 C 333.83073,309.80208 298.7474,341.33333 256,341.33333 V 384 h -42.66667 c 0,0 0,21.33333 42.66667,21.33333 42.66667,0 42.66667,-21.33333 42.66667,-21.33333 21.33333,0 42.66666,-21.33333 42.66666,-42.66667 0,0 21.33334,0 21.33334,-21.33333 0,0 21.33333,0 21.33333,-42.66667 0,-42.66667 -21.33333,-42.66666 -21.33333,-42.66666 z"
       style="fill:#847875;fill-opacity:1"
       id="path27" />
    <path
       d="M 256,362.66667 A 106.79223,106.79223 0 0 1 149.33333,256 V 128 h 21.33334 V 256 A 85.4311,85.4311 0 0 0 256,341.33333 Z"
       style="fill:#847875;fill-opacity:1"
       id="path28" />
    <rect
       x="341.33334"
       y="128"
       width="21.33333"
       height="21.33333"
       style="fill:#ab9b8e;fill-opacity:1"
       id="rect28" />
    <path
       d="M 341.33333,128 A 42.70886,42.70886 0 0 1 298.66667,85.33333 H 320 a 21.36113,21.36113 0 0 0 21.33333,21.33334 z"
       style="fill:#ab9b8e;fill-opacity:1"
       id="path29" />
    <rect
       x="341.33334"
       y="106.66667"
       width="21.33333"
       height="21.33333"
       style="fill:#ab9b8e;fill-opacity:1"
       id="rect29" />
    <rect
       x="256"
       y="64"
       width="64"
       height="21.33333"
       transform="rotate(180,288,74.666665)"
       style="fill:#ab9b8e;fill-opacity:1"
       id="rect30" />
    <path
       d="M 277.33333,64 H 256 a 21.33334,21.33334 0 0 0 -42.66667,0 H 192 a 42.666665,42.666665 0 1 1 85.33333,0 z"
       style="fill:#ab9b8e"
       id="path30" />
    <path
       d="M 170.66667,128 H 149.33333 V 117.33333 A 32.07357,32.07357 0 0 1 171.65625,86.82292 42.75259,42.75259 0 0 1 213.33333,53.33333 V 74.66667 A 21.36112,21.36112 0 0 0 192,96 v 10.66667 h -10.66667 a 10.67387,10.67387 0 0 0 -10.66666,10.66666 z"
       style="fill:#ab9b8e"
       id="path31" />
  </g>
</svg>
