<svg xmlns="http://www.w3.org/2000/svg" viewBox="0 0 512 512" preserveAspectRatio="xMidYMid meet">
  <title>Afro Old Sport Woman</title>
  <g id="afro-old-sport-woman" data-name="Afro Old Sport Woman">    <rect
       x="341.33334"
       y="192"
       width="42.666672"
       height="64"
       rx="21.333309"
       ry="21.333309"
       style="fill:#79444a;fill-opacity:1"
       id="rect1" />
    <rect
       x="128"
       y="192"
       width="42.666672"
       height="64"
       rx="21.333309"
       ry="21.333309"
       style="fill:#79444a;fill-opacity:1"
       id="rect2" />
    <path
       d="m 192,277.33333 v 64 a 21.33334,21.33334 0 0 1 -21.33333,21.33334 h -64 A 85.33333,85.33333 0 0 0 21.33333,448 v 42.66667 H 490.66667 V 448 a 85.33333,85.33333 0 0 0 -85.33334,-85.33333 h -64 A 21.33334,21.33334 0 0 1 320,341.33333 v -64 z"
       style="fill:#79444a;fill-opacity:1"
       id="path2" />
    <path
       d="m 362.66667,362.66667 h -21.33334 c 0,0 0,85.33333 -85.33333,85.33333 -85.33333,0 -85.33333,-85.33333 -85.33333,-85.33333 h -21.33334 c 0,0 0,85.33333 -42.66666,128 h 298.66666 c -42.66666,-42.66667 -42.66666,-128 -42.66666,-128 z"
       style="fill:#b3a555"
       id="path5" />
    <path
       d="M 266.66667,490.66667 H 256 v -21.33334 h 10.66667 a 95.26857,95.26857 0 0 0 77,-38.65625 l 17.08333,12.75 a 117.83973,117.83973 0 0 1 -94.08333,47.23959 z"
       style="fill:#77743b"
       id="path6" />
    <rect
       x="149.33333"
       y="42.666672"
       width="213.33333"
       height="298.66656"
       rx="106.66656"
       ry="106.66656"
       style="fill:#ae5d40"
       id="rect6" />
    <path
       d="m 320,64.48307 v 84.85026 h -42.66667 v 21.33334 H 320 v 42.66659 a 21.33333,21.33333 0 0 1 21.33333,21.33333 v 8e-5 A 21.33333,21.33333 0 0 1 320,256 h -64 v 64 h 21.33333 v 19.18359 a 106.69065,106.69065 0 0 0 85.33334,-104.51692 v -85.33334 c 0,-34.78385 -16.90105,-65.3789 -42.66667,-84.85026 z"
       style="fill:#79444a;fill-opacity:1"
       id="path7" />
    <path
       d="M 64,490.66667 H 42.66667 V 448 a 64.07,64.07 0 0 1 64,-64 v 21.33333 A 42.71555,42.71555 0 0 0 64,448 Z"
       style="fill:#4b3d44;fill-opacity:1"
       id="path8" />
    <polygon
       points="277.333,256 277.333,192 320,192 320,170.667 256,170.667 256,234.667 234.667,234.667 234.667,256 "
       style="fill:#79444a;fill-opacity:1"
       id="polygon8" />
    <rect
       x="298.66666"
       y="192"
       width="21.33333"
       height="21.33333"
       style="fill:#4b3d44"
       id="rect8" />
    <rect
       x="192"
       y="192"
       width="21.33333"
       height="21.33333"
       style="fill:#4b3d44"
       id="rect9" />
    <rect
       x="234.66667"
       y="277.33334"
       width="42.666672"
       height="21.33333"
       style="fill:#4b3d44;fill-opacity:1"
       id="rect10" />
    <rect
       x="192"
       y="149.33333"
       width="64"
       height="21.33333"
       style="fill:#79444a;fill-opacity:1"
       id="rect11" />
    <rect
       x="213.33333"
       y="106.66667"
       width="85.333328"
       height="21.33333"
       style="fill:#79444a;fill-opacity:1"
       id="rect12" />
    <path
       d="m 320,85.33333 -85.33333,64 L 213.33333,128 170.66667,192 149.33333,170.66667 v 42.66666 L 106.66667,170.66667 V 149.33333 H 85.33333 c 0,0 21.33334,-128 170.66667,-128 42.66667,0 64,21.33334 64,21.33334 h 9e-5 a 85.33324,85.33324 0 0 1 85.33324,85.33324 v 42.66676 l -42.66666,42.66666 V 170.66667 L 341.33333,192 Z"
       style="fill:#ab9b8e;fill-opacity:1"
       id="path15" />
    <path
       d="M 320,42.66667 V 85.33333 L 341.33333,192 362.66667,170.66667 v 42.66666 l 42.66666,-42.66666 V 128 A 85.33254,85.33254 0 0 0 320,42.66667 Z"
       style="fill:#847875;fill-opacity:1"
       id="path16" />
    <polygon
       points="362.667,213.333 384,192 384,106.667 362.667,106.667 "
       style="fill:#ab9b8e;fill-opacity:1"
       id="polygon16" />
    <path
       d="m 128,149.40625 -21.33333,-0.0729 c 0,-15.86458 23.875,-59.26041 69.54166,-85.61458 C 217.625,39.8021 275.35417,42.52085 277.89583,42.6771 l -1.10416,21.3125 C 276.27083,63.97917 222.72917,61.5 186.875,82.19792 147.72917,104.79167 128.45833,141.40625 128,149.40625 Z"
       style="fill:#847875;fill-opacity:1"
       id="path17" />
    <rect
       x="213.33333"
       y="74.67083"
       width="106.66667"
       height="21.325001"
       transform="rotate(-36.8587,266.66669,85.333341)"
       style="fill:#847875;fill-opacity:1"
       id="rect17" />
  </g>
</svg>
