<svg xmlns="http://www.w3.org/2000/svg" viewBox="0 0 512 512" preserveAspectRatio="xMidYMid meet">
  <title>Afro Male Graduated Student</title>
  <g id="afro-male-graduated-student" data-name="Afro Male Graduated Student">
  <path
       d="M 448,128 256,234.66667 64,128 C 64,69.08963 149.96133,21.33333 256,21.33333 c 106.03867,0 192,47.7563 192,106.66667 z"
       style="fill:#77743b;fill-opacity:1"
       id="path1" />
    <path
       d="m 384,149.33333 v -1.79166 A 104.38891,104.38891 0 0 0 354.97917,75.125 l 15.4375,-14.72917 a 125.67386,125.67386 0 0 1 34.91666,87.14584 z"
       style="fill:#000000;fill-opacity:0"
       id="path2" />
    <rect
       x="341.33334"
       y="192"
       width="42.666672"
       height="64"
       rx="21.333309"
       ry="21.333309"
       style="fill:#79444a;fill-opacity:1"
       id="rect2" />
    <rect
       x="128"
       y="192"
       width="42.666672"
       height="64"
       rx="21.333309"
       ry="21.333309"
       style="fill:#4b3d44"
       id="rect3" />
    <path
       d="m 192,277.33333 v 64 a 21.33334,21.33334 0 0 1 -21.33333,21.33334 h -64 A 85.33333,85.33333 0 0 0 21.33333,448 v 42.66667 H 490.66667 V 448 a 85.33333,85.33333 0 0 0 -85.33334,-85.33333 h -64 A 21.33334,21.33334 0 0 1 320,341.33333 v -64 z"
       style="fill:#79444a;fill-opacity:1"
       id="path3" />
    <rect
       x="149.33333"
       y="405.33334"
       width="85.333328"
       height="42.666672"
       rx="21.333309"
       ry="21.333309"
       style="fill:#d1b187"
       id="rect4" />
    <circle
       cx="213.33333"
       cy="426.66666"
       r="21.33333"
       style="fill:#d1b187"
       id="circle4" />
    <path
       d="M 341.33333,362.66667 A 21.33356,21.33356 0 0 1 320,341.33333 v -64 h -64 v 85.33334 h 21.33333 V 384 h -42.66666 v 21.33333 a 21.33333,21.33333 0 1 0 42.66666,0 h 85.33334 v -42.66666 z"
       style="fill:#79444a;fill-opacity:1"
       id="path4" />
    <path
       d="M 256,384 V 490.66667 H 490.66667 V 448 a 85.33333,85.33333 0 0 0 -85.33334,-85.33333 h -64 L 320,341.33333 Z"
       style="fill:#4b3d44;fill-opacity:1"
       id="path5" />
    <path
       d="M 192,341.33333 256,384 V 490.66667 H 21.33333 V 448 a 85.33333,85.33333 0 0 1 85.33334,-85.33333 h 64 z"
       style="fill:#847875;fill-opacity:1"
       id="path6" />
    <path
       d="m 341.33333,362.66667 h 149.33334 v 128 h -64 a 85.33333,85.33333 0 0 1 -85.33333,-85.33333 v -42.66667 z"
       transform="rotate(180,416,426.66667)"
       style="fill:#4b3d44;fill-opacity:1"
       id="path7" />
    <rect
       x="362.66666"
       y="384"
       width="42.666672"
       height="106.66667"
       style="fill:#b3a555;fill-opacity:1"
       id="rect7" />
    <rect
       x="341.33334"
       y="362.66666"
       width="42.666672"
       height="128"
       style="fill:#4b3d44;fill-opacity:1"
       id="rect8" />
    <polygon
       points="256,490.667 256,426.667 277.333,405.333 341.333,405.333 298.667,448 298.667,490.667 "
       style="fill:#847875;fill-opacity:1"
       id="polygon8" />
    <polygon
       points="213.333,490.667 298.667,490.667 277.333,426.667 301.334,406.667 256,384 213.333,405.333 234.667,426.667 "
       style="fill:#4b3d44;fill-opacity:1"
       id="polygon9" />
    <rect
       x="170.66667"
       y="405.33334"
       width="21.33333"
       height="85.333328"
       style="fill:#000000;fill-opacity:0"
       id="rect14" />
    <polygon
       points="170.667,426.667 256,384 192,341.333 170.667,362.667 "
       style="fill:#ab9b8e;fill-opacity:1"
       id="polygon14" />
    <polygon
       points="341.333,362.667 320,341.333 256,384 341.333,426.667 "
       style="fill:#ab9b8e;fill-opacity:1"
       id="polygon15" />
    <path
       d="m 106.66667,362.66667 h 64 v 128 H 21.33333 V 448 a 85.33333,85.33333 0 0 1 85.33334,-85.33333 z"
       style="fill:#4b3d44;fill-opacity:1"
       id="path15" />
    <rect
       x="128"
       y="362.66666"
       width="42.666672"
       height="128"
       style="fill:#4b3d44;fill-opacity:1"
       id="rect15" />
    <rect
       x="149.33333"
       y="42.666672"
       width="213.33333"
       height="298.66656"
       rx="106.66656"
       ry="106.66656"
       style="fill:#ae5d40"
       id="rect16" />
    <path
       d="m 320,64.48307 v 84.85026 h -42.66667 v 21.33334 H 320 v 42.66659 a 21.33333,21.33333 0 0 1 21.33333,21.33333 v 8e-5 A 21.33333,21.33333 0 0 1 320,256 h -64 v 64 h 21.33333 v 19.18359 a 106.69065,106.69065 0 0 0 85.33334,-104.51692 v -85.33334 c 0,-34.78385 -16.90105,-65.3789 -42.66667,-84.85026 z"
       style="fill:#79444a;fill-opacity:1"
       id="path16" />
    <polygon
       points="149.333,213.333 170.667,213.333 170.667,149.333 128,149.333 128,170.667 149.333,192 "
       style="fill:#8caba1;fill-opacity:1"
       id="polygon16" />
    <polygon
       points="362.667,213.333 362.667,192 384,170.667 384,149.333 341.333,149.333 341.333,213.333 "
       style="fill:#8caba1;fill-opacity:1"
       id="polygon17" />
    <path
       d="M 384.00011,170.66708 V 149.33321 A 127.99987,127.99987 0 0 0 256.00024,21.33333 H 256 A 127.99988,127.99988 0 0 0 128.00011,149.33321 v 21.33387 c 0,0 42.66649,-21.33375 127.99982,-21.33375 85.33333,0 128.00018,21.33375 128.00018,21.33375 z"
       style="fill:#77743b;fill-opacity:1"
       id="path17" />
    <path
       d="m 256,21.33333 v 128 c 85.33333,0 128,21.33334 128,21.33334 v -21.33334 a 127.99966,127.99966 0 0 0 -128,-128 z"
       style="fill:#77743b;fill-opacity:1"
       id="path18" />
    <path
       d="m 369.75,165.40625 c -0.44792,-0.16667 -46,-16.07292 -113.75,-16.07292 -67.75,0 -113.30208,15.90625 -113.75,16.07292 L 135.07292,145.3125 C 137.05208,144.60417 184.29167,128 256,128 c 71.70833,0 118.94792,16.60417 120.92708,17.3125 z"
       style="fill:#4b3d44;fill-opacity:1"
       id="path19" />
    <path
       d="m 142.25,144.07292 -7.17708,-20.09375 c 1.97916,-0.70834 49.21875,-17.3125 120.92708,-17.3125 a 450.1315,450.1315 0 0 1 65.55208,4.75 l -3.10416,21.10416 A 429.61252,429.61252 0 0 0 256,128 c -67.75,0 -113.30208,15.90625 -113.75,16.07292 z"
       style="fill:#b3a555;fill-opacity:1"
       id="path20" />
    <path
       d="m 259.1875,127.51042 -6.375,-20.35417 A 1041.8568,1041.8568 0 0 1 360.6875,80.875 l 3.95833,20.95833 A 1042.7894,1042.7894 0 0 0 259.1875,127.51042 Z"
       style="fill:#b3a555;fill-opacity:1"
       id="path21" />
    <polygon
       points="277.333,256 277.333,192 320,192 320,170.667 256,170.667 256,234.667 234.667,234.667 234.667,256 "
       style="fill:#79444a;fill-opacity:1"
       id="polygon21" />
    <rect
       x="298.66666"
       y="192"
       width="21.33333"
       height="21.33333"
       style="fill:#4b3d44"
       id="rect21" />
    <rect
       x="192"
       y="192"
       width="21.33333"
       height="21.33333"
       style="fill:#4b3d44"
       id="rect22" />
    <rect
       x="234.66667"
       y="277.33334"
       width="42.666672"
       height="21.33333"
       style="fill:#4b3d44;fill-opacity:1"
       id="rect23" />
    <path
       d="M 64,490.66667 H 42.66667 V 448 a 64.07,64.07 0 0 1 64,-64 v 21.33333 A 42.70887,42.70887 0 0 0 64,448 Z"
       style="fill:#b3a555;fill-opacity:1"
       id="path23" />
    <path
       d="m 89.89583,74.66667 c 102.10417,0 166.10417,32 166.10417,32 0,0 85.33333,-32 166.10417,-32 C 388.89193,42.8151 327.026,21.33333 256,21.33333 c -71.026,0 -132.89193,21.48177 -166.10417,53.33334 z"
       style="fill:#4b3d44;fill-opacity:1"
       id="path24" />
    <path
       d="m 256,107.26042 -3.42708,-1.15625 C 252.10417,105.94792 205.125,90.16667 126.15625,76.29167 l 3.6875,-21.02084 C 199.30208,67.48958 243.6875,80.85417 256,84.78125 268.3125,80.85417 312.69792,67.48958 382.15625,55.27083 l 3.6875,21.02084 c -78.96875,13.875 -125.94792,29.65625 -126.41667,29.8125 z"
       style="fill:#b3a555;fill-opacity:1"
       id="path25" />
    <rect
       x="149.33333"
       y="384"
       width="21.33333"
       height="106.66667"
       style="fill:#b3a555;fill-opacity:1"
       id="rect25" />
    <rect
       x="341.33334"
       y="384"
       width="21.33333"
       height="106.66667"
       style="fill:#b3a555;fill-opacity:1"
       id="rect26" />
    <rect
       x="106.66667"
       y="42.666672"
       width="21.33333"
       height="192"
       style="fill:#4b3d44;fill-opacity:1"
       id="rect27" />
    <path
       d="m 106.66667,192 c 0,0 -21.33334,0 -21.33334,21.33333 v 85.33334 h 21.33334 v -21.33334 l 21.33339,21.33339 h 21.33327 c 0,0 0,-64 0,-85.33339 C 149.33333,191.99994 128,192 128,192 Z"
       style="fill:#ab9b8e;fill-opacity:1"
       id="path27" />
    <rect
       x="85.333328"
       y="213.33333"
       width="21.33333"
       height="85.333328"
       style="fill:#ab9b8e;fill-opacity:1"
       id="rect28" />
    <path
       d="M 149.33333,298.66667 H 128 L 106.66667,277.33333 V 192 H 128 a 21.33333,21.33333 0 0 1 21.33333,21.33333 z"
       style="fill:#4b3d44;fill-opacity:1"
       id="path28" />
    <rect
       x="128"
       y="213.33333"
       width="21.33333"
       height="85.333328"
       style="fill:#4b3d44;fill-opacity:1"
       id="rect29" />
    <circle
       cx="117.33333"
       cy="160"
       r="32"
       style="fill:#4b3d44;fill-opacity:1"
       id="circle29" />
    <rect
       x="106.66667"
       y="106.66667"
       width="21.33333"
       height="21.33333"
       style="fill:#4b3d44;fill-opacity:1"
       id="rect30" />
    <circle
       cx="96"
       cy="160"
       r="10.66667"
       style="fill:#ab9b8e;fill-opacity:1"
       id="circle30" />
  </g>
</svg>
