<svg xmlns="http://www.w3.org/2000/svg" viewBox="0 0 512 512" preserveAspectRatio="xMidYMid meet">
  <title>Afro Male Farmer</title>
  <g id="afro-male-farmer" data-name="Afro Male Farmer">
    <rect
       x="341.33334"
       y="192"
       width="42.666672"
       height="64"
       rx="21.333309"
       ry="21.333309"
       style="fill:#79444a;fill-opacity:1"
       id="rect1" />
    <rect
       x="128"
       y="192"
       width="42.666672"
       height="64"
       rx="21.333309"
       ry="21.333309"
       style="fill:#79444a;fill-opacity:1"
       id="rect2" />
    <path
       d="m 192,277.33333 v 64 a 21.33334,21.33334 0 0 1 -21.33333,21.33334 h -64 A 85.33333,85.33333 0 0 0 21.33333,448 v 42.66667 H 490.66667 V 448 a 85.33333,85.33333 0 0 0 -85.33334,-85.33333 h -64 A 21.33334,21.33334 0 0 1 320,341.33333 v -64 z"
       style="fill:#79444a;fill-opacity:1"
       id="path2" />
    <rect
       x="149.33333"
       y="405.33334"
       width="85.333328"
       height="42.666672"
       rx="21.333309"
       ry="21.333309"
       style="fill:#d1b187"
       id="rect3" />
    <circle
       cx="213.33333"
       cy="426.66666"
       r="21.33333"
       style="fill:#d1b187"
       id="circle3" />
    <path
       d="M 341.33333,362.66667 A 21.33356,21.33356 0 0 1 320,341.33333 v -64 h -64 v 85.33334 h 21.33333 V 384 h -42.66666 v 21.33333 a 21.33333,21.33333 0 1 0 42.66666,0 h 85.33334 v -42.66666 z"
       style="fill:#79444a;fill-opacity:1"
       id="path3" />
    <path
       d="m 234.66667,426.66667 v 64 h 256 V 448 a 85.33333,85.33333 0 0 0 -85.33334,-85.33333 h -64 L 320,341.33333 298.66667,362.66667 Z"
       style="fill:#b3a555"
       id="path4" />
    <polygon
       points="277.333,384 277.333,405.333 405.333,405.333 405.333,362.667 298.667,362.667 "
       style="fill:#b3a555"
       id="polygon4" />
    <polygon
       points="256,490.667 256,405.333 298.667,362.667 362.667,362.667 362.667,426.667 277.333,490.667 "
       style="fill:#b3a555;fill-opacity:1"
       id="polygon5" />
    <polygon
       points="298.667,362.667 277.333,384 277.333,405.333 320,405.333 320,362.667 "
       style="fill:#b3a555"
       id="polygon6" />
    <path
       d="m 192,341.33333 21.33333,21.33334 64,64 v 64 h -256 V 448 a 85.33333,85.33333 0 0 1 85.33334,-85.33333 h 64 z"
       style="fill:#b3a555"
       id="path6" />
    <rect
       x="106.66667"
       y="362.66666"
       width="106.66667"
       height="42.666672"
       style="fill:#d2c9a5"
       id="rect6" />
    <polygon
       points="192,362.667 192,490.667 234.667,490.667 234.667,384 213.333,362.667 "
       style="fill:#d2c9a5"
       id="polygon7" />
    <rect
       x="64"
       y="405.33334"
       width="42.666672"
       height="42.666672"
       style="fill:#b3a555"
       id="rect7" />
    <rect
       x="21.33333"
       y="448"
       width="256"
       height="42.666672"
       style="fill:#000000;fill-opacity:0"
       id="rect8" />
    <polygon
       points="192,426.667 277.333,426.667 234.667,384 192,384 "
       style="fill:#b3a555"
       id="polygon8" />
    <polygon
       points="192,362.667 192,405.333 234.667,405.333 234.667,384 213.333,362.667 "
       style="fill:#b3a555"
       id="polygon9" />
    <rect
       x="106.66667"
       y="362.66666"
       width="64"
       height="21.33333"
       style="fill:#b3a555"
       id="rect9" />
    <polygon
       points="170.667,405.333 234.667,384 192,341.333 170.667,362.667 "
       style="fill:#d2c9a5"
       id="polygon10" />
    <circle
       cx="245.33333"
       cy="437.33334"
       r="10.66667"
       style="fill:#b3a555"
       id="circle10" />
    <polygon
       points="341.333,362.667 320,341.333 277.333,384 341.333,405.333 "
       style="fill:#d2c9a5;fill-opacity:1"
       id="polygon11" />
    <rect
       x="149.33333"
       y="42.666672"
       width="213.33333"
       height="298.66656"
       rx="106.66656"
       ry="106.66656"
       style="fill:#ae5d40"
       id="rect11" />
    <path
       d="m 320,64.48307 v 84.85026 h -42.66667 v 21.33334 H 320 v 42.66659 a 21.33333,21.33333 0 0 1 21.33333,21.33333 v 8e-5 A 21.33333,21.33333 0 0 1 320,256 h -64 v 64 h 21.33333 v 19.18359 a 106.69065,106.69065 0 0 0 85.33334,-104.51692 v -85.33334 c 0,-34.78385 -16.90105,-65.3789 -42.66667,-84.85026 z"
       style="fill:#79444a;fill-opacity:1"
       id="path11" />
    <path
       d="m 149.33333,213.33333 h 21.33334 V 106.66667 c 0,0 21.33333,-21.33334 85.33333,-21.33334 64,0 85.33333,21.33334 85.33333,21.33334 v 106.66666 h 21.33331 L 362.66669,192 384,170.66667 V 149.33321 A 127.99987,127.99987 0 0 0 256.00013,21.33333 h -2.6e-4 A 127.99987,127.99987 0 0 0 128,149.33321 v 21.33346 L 149.33331,192 Z"
       style="fill:#8caba1;fill-opacity:1"
       id="path12" />
    <path
       d="M 284.24349,24.5625 C 268.681,31.2474 256,47.57031 256,64 c 0,7.53906 2.76042,15.03255 7.14844,21.63021 58.11849,1.59114 78.18489,21.03646 78.18489,21.03646 v 106.66666 h 21.33334 V 192 L 384,170.66667 V 149.33333 A 127.97227,127.97227 0 0 0 284.24349,24.5625 Z"
       style="fill:#4b726e;fill-opacity:1"
       id="path13" />
    <path
       d="M 186.84375,82.29167 172.42708,66.5625 C 173.5,65.58333 199.05208,42.66667 245.33333,42.66667 V 64 C 207.25,64 187.04167,82.11458 186.84375,82.29167 Z"
       style="fill:#4b726e;fill-opacity:1"
       id="path14" />
    <path
       d="M 325.90625,81.22917 C 311.76042,64.16667 288.69792,64 288.13542,64 h -0.0104 l -0.30208,-21.33333 c 1.32291,0.03125 33.63541,-0.23959 54.5,24.95833 z"
       style="fill:#4b726e;fill-opacity:1"
       id="path15" />
    <rect
       x="149.33333"
       y="106.66667"
       width="21.33333"
       height="21.33333"
       style="fill:#8caba1;fill-opacity:1"
       id="rect15" />
    <rect
       x="149.33333"
       y="149.33333"
       width="21.33333"
       height="21.33333"
       style="fill:#8caba1;fill-opacity:1"
       id="rect16" />
    <rect
       x="341.33334"
       y="106.66667"
       width="21.33333"
       height="21.33333"
       style="fill:#4b726e;fill-opacity:1"
       id="rect17" />
    <rect
       x="341.33334"
       y="149.33333"
       width="21.33333"
       height="21.33333"
       style="fill:#4b726e;fill-opacity:1"
       id="rect18" />
    <polygon
       points="277.333,256 277.333,192 320,192 320,170.667 256,170.667 256,234.667 234.667,234.667 234.667,256 "
       style="fill:#79444a;fill-opacity:1"
       id="polygon18" />
    <rect
       x="298.66666"
       y="192"
       width="21.33333"
       height="21.33333"
       style="fill:#4b3d44"
       id="rect19" />
    <rect
       x="192"
       y="192"
       width="21.33333"
       height="21.33333"
       style="fill:#4b3d44"
       id="rect20" />
    <rect
       x="234.66667"
       y="277.33334"
       width="42.666672"
       height="21.33333"
       style="fill:#4b3d44;fill-opacity:1"
       id="rect21" />
    <rect
       x="106.66667"
       y="362.66666"
       width="42.666672"
       height="42.666672"
       style="fill:#b3a555"
       id="rect22" />
    <rect
       x="149.33333"
       y="405.33334"
       width="42.666672"
       height="42.666672"
       style="fill:#b3a555"
       id="rect23" />
    <rect
       x="106.66667"
       y="362.66666"
       width="42.666672"
       height="21.33333"
       style="fill:#b3a555"
       id="rect24" />
    <path
       d="M 64,490.66667 H 42.66667 V 448 a 64.07,64.07 0 0 1 64,-64 v 21.33333 A 42.70887,42.70887 0 0 0 64,448 Z"
       style="fill:#d2c9a5"
       id="path24" />
    <rect
       x="106.66667"
       y="448"
       width="42.666672"
       height="42.666672"
       style="fill:#b3a555"
       id="rect25" />
    <rect
       x="192"
       y="448"
       width="42.666672"
       height="42.666672"
       style="fill:#b3a555"
       id="rect26" />
    <rect
       x="21.33333"
       y="448"
       width="42.666672"
       height="42.666672"
       style="fill:#b3a555"
       id="rect27" />
    <rect
       x="277.33334"
       y="448"
       width="213.33333"
       height="42.666672"
       style="fill:#b3a555"
       id="rect28" />
    <rect
       x="320"
       y="448"
       width="42.666672"
       height="42.666672"
       style="fill:#77743b"
       id="rect29" />
    <rect
       x="405.33334"
       y="448"
       width="42.666672"
       height="42.666672"
       style="fill:#b3a555;fill-opacity:1"
       id="rect30" />
    <rect
       x="362.66666"
       y="405.33334"
       width="42.666672"
       height="42.666672"
       style="fill:#77743b"
       id="rect31" />
    <rect
       x="42.666672"
       y="448"
       width="21.33333"
       height="42.666672"
       style="fill:#b3a555"
       id="rect32" />
    <rect
       x="405.33334"
       y="405.33334"
       width="42.666672"
       height="42.666672"
       style="fill:#b3a555"
       id="rect33" />
    <rect
       x="320"
       y="405.33334"
       width="42.666672"
       height="42.666672"
       style="fill:#b3a555"
       id="rect34" />
    <polygon
       points="426.667,490.667 405.333,362.667 362.667,362.667 362.667,448 149.653,448 149.333,362.667 106.667,362.667 85.333,490.667 "
       style="fill:#4b726e"
       id="polygon34" />
    <rect
       x="106.66667"
       y="362.66666"
       width="42.666672"
       height="21.33333"
       style="fill:#4b726e"
       id="rect35" />
    <rect
       x="149.33333"
       y="448"
       width="213.33333"
       height="21.33333"
       style="fill:#4b726e"
       id="rect36" />
    <rect
       x="128"
       y="384"
       width="21.33333"
       height="64"
       style="fill:#4b726e"
       id="rect37" />
    <rect
       x="362.66666"
       y="362.66666"
       width="21.33333"
       height="85.333328"
       style="fill:#4b726e;fill-opacity:1"
       id="rect38" />
  </g>
</svg>
