<svg xmlns="http://www.w3.org/2000/svg" viewBox="0 0 512 512" preserveAspectRatio="xMidYMid meet">
  <title>Afro Old Male Farmer</title>
  <g id="afro-old-male-farmer" data-name="Afro Old Male Farmer">
    <ellipse
       cx="256"
       cy="213.33333"
       rx="192"
       ry="106.66667"
       style="fill:#4b3d44"
       id="ellipse1" />
    <path
       d="m 256,128 c 100.57292,0 170.66667,44.96875 170.66667,85.33333 0,40.36458 -70.09375,85.33334 -170.66667,85.33334 z"
       style="fill:#4b3d44"
       id="path1" />
    <path
       d="m 256,298.66667 c -90.91667,0 -170.66667,-39.875 -170.66667,-85.33334 h 21.33334 c 0,25.47917 59.5625,64 149.33333,64 89.77083,0 149.33333,-38.52083 149.33333,-64 h 21.33334 c 0,45.45834 -79.75,85.33334 -170.66667,85.33334 z"
       style="fill:#4b3d44"
       id="path2" />
    <rect
       x="341.33334"
       y="192"
       width="42.666672"
       height="64"
       rx="21.333309"
       ry="21.333309"
       style="fill:#4b3d44"
       id="rect2" />
    <rect
       x="128"
       y="192"
       width="42.666672"
       height="64"
       rx="21.333309"
       ry="21.333309"
       style="fill:#4b3d44"
       id="rect3" />
    <path
       d="m 192,277.33333 v 64 a 21.33334,21.33334 0 0 1 -21.33333,21.33334 h -64 A 85.33333,85.33333 0 0 0 21.33333,448 v 42.66667 H 490.66667 V 448 a 85.33333,85.33333 0 0 0 -85.33334,-85.33333 h -64 A 21.33334,21.33334 0 0 1 320,341.33333 v -64 z"
       style="fill:#79444a;fill-opacity:1"
       id="path3" />
    <path
       d="M 341.33333,362.66667 A 21.33356,21.33356 0 0 1 320,341.33333 v -64 h -64 v 85.33334 h 21.33333 V 384 h -42.66666 v 21.33333 a 21.33333,21.33333 0 1 0 42.66666,0 h 85.33334 v -42.66666 z"
       style="fill:#79444a;fill-opacity:1"
       id="path4" />
    <path
       d="m 405.33333,362.66667 h -64 a 85.33333,85.33333 0 1 1 -170.66666,0 h -64 A 85.33255,85.33255 0 0 0 21.33333,448 v 42.66667 H 490.66667 V 448 a 85.33255,85.33255 0 0 0 -85.33334,-85.33333 z"
       style="fill:#d2c9a5;fill-opacity:1"
       id="path5" />
    <path
       d="M 64,490.66667 H 42.66667 V 448 a 64.07,64.07 0 0 1 64,-64 v 21.33333 A 42.71555,42.71555 0 0 0 64,448 Z"
       style="fill:#b3a555;fill-opacity:1"
       id="path6" />
    <path
       d="M 256,490.66667 V 469.33333 A 106.79223,106.79223 0 0 0 362.66667,362.66667 H 384 a 128.14,128.14 0 0 1 -128,128 z"
       style="fill:#b3a555;fill-opacity:1"
       id="path7" />
    <rect
       x="149.33333"
       y="42.666672"
       width="213.33333"
       height="298.66656"
       rx="106.66656"
       ry="106.66656"
       style="fill:#ae5d40"
       id="rect7" />
    <path
       d="m 320,64.48307 v 84.85026 h -42.66667 v 21.33334 H 320 v 42.66659 a 21.33333,21.33333 0 0 1 21.33333,21.33333 v 8e-5 A 21.33333,21.33333 0 0 1 320,256 h -64 v 64 h 21.33333 v 19.18359 a 106.69065,106.69065 0 0 0 85.33334,-104.51692 v -85.33334 c 0,-34.78385 -16.90104,-65.3789 -42.66667,-84.85026 z"
       style="fill:#79444a;fill-opacity:1"
       id="path8" />
    <polygon
       points="277.333,256 277.333,192 320,192 320,170.667 256,170.667 256,234.667 234.667,234.667 234.667,256 "
       style="fill:#4b3d44"
       id="polygon8" />
    <rect
       x="192"
       y="149.33333"
       width="64"
       height="21.33333"
       style="fill:#4b3d44"
       id="rect8" />
    <rect
       x="213.33333"
       y="106.66667"
       width="85.333328"
       height="21.33333"
       style="fill:#4b3d44"
       id="rect9" />
    <rect
       x="192"
       y="128"
       width="128"
       height="21.33333"
       style="fill:#c77b58"
       id="rect10" />
    <path
       d="m 128,192 c 0,21.33333 21.33333,21.33333 21.33333,21.33333 V 256 h 21.33334 V 149.33333 H 128 Z"
       style="fill:#ab9b8e;fill-opacity:1"
       id="path10" />
    <path
       d="M 341.33333,149.33333 V 256 h 21.33334 v -42.66667 c 0,0 21.33333,0 21.33333,-21.33333 v -42.66667 z"
       style="fill:#ab9b8e;fill-opacity:1"
       id="path11" />
    <rect
       x="234.66667"
       y="277.33334"
       width="42.666672"
       height="21.33333"
       style="fill:#4b3d44;fill-opacity:1"
       id="rect11" />
    <rect
       x="298.66666"
       y="192"
       width="21.33333"
       height="21.33333"
       style="fill:#4b3d44"
       id="rect14" />
    <rect
       x="192"
       y="192"
       width="21.33333"
       height="21.33333"
       style="fill:#4b3d44"
       id="rect15" />
    <polygon
       points="426.667,490.667 405.333,362.667 362.667,362.667 362.667,448 149.653,448 149.333,362.667 106.667,362.667 85.333,490.667 "
       style="fill:#ae5d40;fill-opacity:1"
       id="polygon15" />
    <rect
       x="106.66667"
       y="362.66666"
       width="42.666672"
       height="21.33333"
       style="fill:#c77b58;fill-opacity:1"
       id="rect16" />
    <rect
       x="149.33333"
       y="448"
       width="213.33333"
       height="21.33333"
       style="fill:#c77b58;fill-opacity:1"
       id="rect17" />
    <rect
       x="128"
       y="384"
       width="21.33333"
       height="64"
       style="fill:#c77b58;fill-opacity:1"
       id="rect18" />
    <rect
       x="362.66666"
       y="362.66666"
       width="21.33333"
       height="85.333328"
       style="fill:#c77b58;fill-opacity:1"
       id="rect19" />
    <path
       d="M 384,149.33321 C 384,78.64083 320,21.33333 298.66679,21.33333 H 213.33333 C 192,21.33333 128,78.64083 128,149.33321 Z"
       style="fill:#4b3d44"
       id="path19" />
    <path
       d="M 213.33333,21.33333 H 256 c 21.33333,0 42.66667,57.3073 42.66667,128 H 128 c 0,-70.69271 64,-128 85.33333,-128 z"
       style="fill:#ae5d40"
       id="path20" />
    <path
       d="m 348.72917,119.25 a 270.22957,270.22957 0 0 0 -82.0625,-12.58333 h -32 V 85.33333 h 32 a 291.88677,291.88677 0 0 1 88.60416,13.60417 z"
       style="fill:#4b3d44"
       id="path21" />
    <path
       d="M 89.89583,160 C 123.10807,179.11068 184.974,192 256,192 327.026,192 388.89193,179.11068 422.10417,160 388.89193,128.14844 327.026,106.66667 256,106.66667 184.974,106.66667 123.10807,128.14844 89.89583,160 Z"
       style="fill:#c77b58"
       id="path22" />
    <path
       d="m 256,192 c -59.33333,0 -114.35417,-8.9375 -150.9375,-24.51042 l 8.375,-19.625 c 33.52083,14.28125 86.83333,22.80209 142.5625,22.80209 55.72917,0 109.04167,-8.52084 142.5625,-22.80209 l 8.375,19.625 C 370.35417,183.0625 315.33333,192 256,192 Z"
       style="fill:#ae5d40"
       id="path23" />
    <path
       d="m 153.33333,146.01042 -7.79166,-19.85417 c 32.54166,-12.75 70.75,-19.48958 110.45833,-19.48958 V 128 c -37.08333,0 -72.58333,6.22917 -102.66667,18.01042 z"
       style="fill:#c77b58"
       id="path24" />
    <path
       d="m 173.8125,110.61458 -19.83333,-7.89583 c 23.47916,-58.83333 63.5625,-79.41667 65.25,-80.26042 l 9.58333,19.0625 c -0.33333,0.17709 -34.72917,18.25 -55,69.09375 z"
       style="fill:#c77b58"
       id="path25" />
    <rect
       x="234.66667"
       y="298.66666"
       width="42.666672"
       height="64"
       rx="21.333309"
       ry="21.333309"
       style="fill:#ab9b8e;fill-opacity:1"
       id="rect25" />
    <path
       d="M 256,362.66667 A 117.47279,117.47279 0 0 1 138.66667,245.33333 H 160 a 96,96 0 0 0 192,0 h 21.33333 A 117.47279,117.47279 0 0 1 256,362.66667 Z"
       style="fill:#ab9b8e;fill-opacity:1"
       id="path26" />
    <path
       d="m 279.45833,360.32292 -4.25,-20.91667 A 96.24163,96.24163 0 0 0 352,245.33333 h 21.33333 a 117.66408,117.66408 0 0 1 -93.875,114.98959 z"
       style="fill:#ab9b8e;fill-opacity:1"
       id="path27" />
    <path
       d="m 149.33331,234.66667 v 0 c 0,0 21.33336,-0.47683 21.33336,21.33333 C 192,277.33333 192,298.66667 192,298.66667 c 0,0 21.33333,0 21.33333,21.33333 0,0 0,21.33333 -21.33333,21.33333 l -3.28423,-1.09474 A 88.79535,88.79535 0 0 1 128,256 v -6e-5 c 0,-21.33338 21.33331,-21.33327 21.33331,-21.33327 z"
       style="fill:#847875;fill-opacity:1"
       id="path28" />
    <path
       d="m 362.66667,234.66667 v 0 c 0,0 -21.33334,-0.47683 -21.33334,21.33333 C 320,277.33333 320,298.66667 320,298.66667 c 0,0 -21.33333,0 -21.33333,21.33333 0,0 0,21.33333 21.33333,21.33333 l 3.28423,-1.09474 A 88.79535,88.79535 0 0 0 384,256 v -6e-5 c 0,-21.33338 -21.33333,-21.33327 -21.33333,-21.33327 z"
       style="fill:#847875;fill-opacity:1"
       id="path29" />
    <rect
       x="320"
       y="298.66666"
       width="21.33333"
       height="21.33333"
       style="fill:#000000;fill-opacity:0"
       id="rect30" />
    <rect
       x="341.33334"
       y="256"
       width="21.33333"
       height="21.33333"
       style="fill:#000000;fill-opacity:0"
       id="rect31" />
  </g>
</svg>
