<svg xmlns="http://www.w3.org/2000/svg" viewBox="0 0 512 512" preserveAspectRatio="xMidYMid meet">
  <title>Afro Young Man</title>
  <g id="afro-young-man" data-name="Afro Young Man">

    <rect
       x="298.66666"
       y="341.33334"
       width="85.333328"
       height="21.33333"
       style="fill:#79444a"
       id="rect1" />
    <rect
       x="128"
       y="341.33334"
       width="256"
       height="64"
       style="fill:#4b3d44;fill-opacity:1"
       id="rect2" />
    <rect
       x="277.33334"
       y="341.33334"
       width="106.66667"
       height="64"
       style="fill:#4b3d44;fill-opacity:1"
       id="rect3" />
    <rect
       x="341.33334"
       y="192"
       width="42.666672"
       height="64"
       rx="21.333309"
       ry="21.333309"
       style="fill:#79444a;fill-opacity:1"
       id="rect4" />
    <rect
       x="128"
       y="192"
       width="42.666672"
       height="64"
       rx="21.333309"
       ry="21.333309"
       style="fill:#79444a;fill-opacity:1"
       id="rect5" />
    <path
       d="m 192,277.33333 v 64 a 21.33334,21.33334 0 0 1 -21.33333,21.33334 h -64 A 85.33333,85.33333 0 0 0 21.33333,448 v 42.66667 H 490.66667 V 448 a 85.33333,85.33333 0 0 0 -85.33334,-85.33333 h -64 A 21.33334,21.33334 0 0 1 320,341.33333 v -64 z"
       style="fill:#79444a;fill-opacity:1"
       id="path5" />
    <rect
       x="149.33333"
       y="42.666672"
       width="213.33333"
       height="298.66656"
       rx="106.66656"
       ry="106.66656"
       style="fill:#ae5d40"
       id="rect7" />
    <path
       d="m 320,64.48307 v 84.85026 h -42.66667 v 21.33334 H 320 v 42.66659 a 21.33333,21.33333 0 0 1 21.33333,21.33333 v 8e-5 A 21.33333,21.33333 0 0 1 320,256 h -64 v 64 h 21.33333 v 19.18359 a 106.69065,106.69065 0 0 0 85.33334,-104.51692 v -85.33334 c 0,-34.78385 -16.90105,-65.3789 -42.66667,-84.85026 z"
       style="fill:#79444a;fill-opacity:1"
       id="path7" />
    <path
       d="M 170.66667,85.33333 H 192 c 0,0 21.33333,42.66667 64,42.66667 42.66667,0 64,-42.66667 64,-42.66667 h 21.33333 v 128 h 21.33334 V 192 L 384,170.66667 V 149.33321 A 127.99987,127.99987 0 0 0 256.00013,21.33333 h -2.6e-4 A 127.99987,127.99987 0 0 0 128,149.33321 v 21.33346 L 149.33333,192 v 21.33333 h 21.33334 z"
       style="fill:#4b726e;fill-opacity:1"
       id="path8" />
    <polygon
       points="277.333,256 277.333,192 320,192 320,170.667 256,170.667 256,234.667 234.667,234.667 234.667,256 "
       style="fill:#79444a;fill-opacity:1"
       id="polygon8" />
    <rect
       x="298.66666"
       y="192"
       width="21.33333"
       height="21.33333"
       style="fill:#4b3d44"
       id="rect8" />
    <rect
       x="192"
       y="192"
       width="21.33333"
       height="21.33333"
       style="fill:#4b3d44"
       id="rect9" />
    <rect
       x="234.66667"
       y="277.33334"
       width="42.666672"
       height="21.33333"
       style="fill:#4b3d44;fill-opacity:1"
       id="rect10" />
    <path
       d="m 405.33333,362.66667 h -64 a 85.33333,85.33333 0 1 1 -170.66666,0 h -64 A 85.33255,85.33255 0 0 0 21.33333,448 v 42.66667 H 490.66667 V 448 a 85.33255,85.33255 0 0 0 -85.33334,-85.33333 z"
       style="fill:#b3a555;fill-opacity:1"
       id="path10" />
    <path
       d="m 192,405.33333 v 85.33334 H 21.33333 V 448 a 85.33333,85.33333 0 0 1 85.33334,-85.33333 h 42.66666 z"
       style="fill:#4b3d44;fill-opacity:1"
       id="path11" />
    <path
       d="m 21.33333,448 v 42.66667 H 42.66667 V 392.09635 A 84.62309,84.62309 0 0 0 21.33333,448 Z"
       style="fill:#b3a555;fill-opacity:1"
       id="path12" />
    <path
       d="M 170.66667,384 149.33333,362.66667 H 106.66667 A 84.62308,84.62308 0 0 0 50.763,384 Z"
       style="fill:#4b3d44;fill-opacity:1"
       id="path13" />
    <path
       d="m 106.66667,362.66667 a 84.60519,84.60519 0 0 0 -21.33334,3.01692 V 490.66667 H 128 v -128 z"
       style="fill:#4b3d44;fill-opacity:1"
       id="path14" />
    <path
       d="m 21.33333,448 v 21.33333 H 192 V 426.66667 H 24.35026 A 84.60511,84.60511 0 0 0 21.33333,448 Z"
       style="fill:#4b3d44;fill-opacity:1"
       id="path16" />
    <path
       d="M 42.66667,426.66667 H 24.35026 A 84.60511,84.60511 0 0 0 21.33333,448 v 21.33333 h 21.33334 z"
       style="fill:#b3a555;fill-opacity:1"
       id="path17" />
    <path
       d="M 64,490.66667 H 42.66667 V 448 a 64.07,64.07 0 0 1 64,-64 v 21.33333 A 42.71555,42.71555 0 0 0 64,448 Z"
       style="fill:#4b3d44;fill-opacity:1"
       id="path18" />
    <rect
       x="85.333328"
       y="426.66666"
       width="42.666672"
       height="42.666672"
       transform="rotate(-90,106.66667,448)"
       style="fill:#4b3d44;fill-opacity:1"
       id="rect18" />
    <path
       d="m 320,405.33333 v 85.33334 H 490.66667 V 448 a 85.33333,85.33333 0 0 0 -85.33334,-85.33333 h -42.66666 z"
       style="fill:#4b3d44;fill-opacity:1"
       id="path20" />
    <path
       d="m 469.33333,490.66667 h 21.33334 V 448 a 84.62309,84.62309 0 0 0 -21.33334,-55.90365 z"
       style="fill:#b3a555;fill-opacity:1"
       id="path21" />
    <path
       d="M 461.237,384 A 84.62308,84.62308 0 0 0 405.33335,362.66667 H 362.66667 L 341.33333,384 Z"
       style="fill:#4b3d44;fill-opacity:1"
       id="path22" />
    <path
       d="m 320,426.66667 v 42.66666 H 490.66667 V 448 a 84.60511,84.60511 0 0 0 -3.01693,-21.33333 z"
       style="fill:#4b3d44;fill-opacity:1"
       id="path23" />
    <path
       d="M 426.66667,490.66667 V 365.68359 a 84.60519,84.60519 0 0 0 -21.33334,-3.01692 H 384 v 128 z"
       style="fill:#b3a555;fill-opacity:1"
       id="path24" />
    <path
       d="m 426.66667,365.68359 a 84.60519,84.60519 0 0 0 -21.33334,-3.01692 H 384 V 384 h 42.66667 z"
       style="fill:#b3a555;fill-opacity:1"
       id="path25" />
    <rect
       x="384"
       y="426.66666"
       width="42.666672"
       height="42.666672"
       style="fill:#b3a555;fill-opacity:1"
       id="rect25" />
    <polygon
       points="320,490.667 320,405.333 362.667,362.667 405.333,362.667 405.333,426.667 341.333,490.667 "
       style="fill:#4b3d44;fill-opacity:1"
       id="polygon25" />
    <polygon
       points="405.333,405.333 341.333,384 384,341.333 405.333,362.667 "
       style="fill:#4b3d44;fill-opacity:1"
       id="polygon26" />
    <rect
       x="128"
       y="341.33334"
       width="21.33333"
       height="21.33333"
       style="fill:#4b3d44;fill-opacity:1"
       id="rect26" />
    <circle
       cx="160"
       cy="437.33334"
       r="10.66667"
       style="fill:#b3a555;fill-opacity:1"
       id="circle26" />
    <circle
       cx="160"
       cy="480"
       r="10.66667"
       style="fill:#b3a555;fill-opacity:1"
       id="circle27" />
    <polygon
       points="106.667,405.333 170.667,384 128,341.333 106.667,362.667 "
       style="fill:#4b3d44;fill-opacity:1"
       id="polygon27" />
    <polygon
       points="170.667,490.667 192,490.667 192,405.333 170.667,384 "
       style="fill:#4b3d44;fill-opacity:1"
       id="polygon28" />
    <rect
       x="170.66667"
       y="426.66666"
       width="21.33333"
       height="42.666672"
       style="fill:#4b3d44;fill-opacity:1"
       id="rect28" />
    <path
       d="m 469.33333,426.66667 v 42.66666 h 21.33334 V 448 a 84.60511,84.60511 0 0 0 -3.01693,-21.33333 z"
       style="fill:#b3a555;fill-opacity:1"
       id="path28" />
    <rect
       x="320"
       y="426.66666"
       width="21.33333"
       height="42.666672"
       style="fill:#4b3d44;fill-opacity:1"
       id="rect29" />
    <path
       d="m 256,21.33333 a 128.25252,128.25252 0 0 0 -27.1849,2.957 c 21.75391,6.99219 48.51823,27.18881 48.51823,61.043 0,17.9336 -7.70052,31.86589 -18.02343,42.26172 C 299.65625,125.36849 320,85.33333 320,85.33333 h 21.33333 v 128 h 21.33334 V 192 L 384,170.66667 v -21.33334 a 127.99966,127.99966 0 0 0 -128,-128 z"
       style="fill:#4b726e;fill-opacity:1"
       id="path29" />
  </g>
</svg>
