<?xml version="1.0" encoding="UTF-8" standalone="no"?>
<svg xmlns="http://www.w3.org/2000/svg" viewBox="0 0 512 512" preserveAspectRatio="xMidYMid meet">
  <title>Afro Female Farmer</title>
  <g id="afro-female-farmer" data-name="Afro Female Farmer">    <path
       d="m 405.33333,170.66667 c 0,-85.33334 -64,-149.33334 -149.33333,-149.33334 -85.33333,0 -149.33333,64 -149.33333,149.33334 0,64 -21.33334,42.66666 -21.33334,85.33333 0,42.66667 42.66667,42.66667 42.66667,85.33333 0,63.79167 42.41406,68.44662 127.595,68.47657 v 0.004 c 0.13933,0 0.26563,-10e-4 0.405,-10e-4 0.13937,0 0.26562,10e-4 0.40495,10e-4 v -0.004 C 341.58594,409.78 384,405.125 384,341.33333 384,298.66667 426.66667,298.66667 426.66667,256 c 0,-42.66667 -21.33334,-21.33333 -21.33334,-85.33333 z"
       style="fill:#4b726e"
       id="path1" />
    <path
       d="m 405.33333,170.66667 c 0,-85.33334 -64,-149.33334 -149.33333,-149.33334 A 163.73142,163.73142 0 0 0 234.66667,22.875 v 211.79167 h 189 c -5.86459,-15.95313 -18.33334,-15.02474 -18.33334,-64 z"
       style="fill:#4b726e"
       id="path2" />
    <path
       d="M 256,234.66667 V 384 H 372.57552 C 380.13672,374.04818 384,360.36719 384,341.33333 384,298.66667 426.66667,298.66667 426.66667,256 c 0,-10.01562 -1.20052,-16.4388 -3,-21.33333 z"
       style="fill:#4b726e"
       id="path3" />
    <rect
       x="341.33334"
       y="192"
       width="42.666672"
       height="64"
       rx="21.333309"
       ry="21.333309"
       style="fill:#4b3d44"
       id="rect3" />
    <rect
       x="128"
       y="192"
       width="42.666672"
       height="64"
       rx="21.333309"
       ry="21.333309"
       style="fill:#4b3d44"
       id="rect4" />
    <path
       d="m 192,277.33333 v 64 a 21.33334,21.33334 0 0 1 -21.33333,21.33334 h -64 A 85.33333,85.33333 0 0 0 21.33333,448 v 42.66667 H 490.66667 V 448 a 85.33333,85.33333 0 0 0 -85.33334,-85.33333 h -64 A 21.33334,21.33334 0 0 1 320,341.33333 v -64 z"
       style="fill:#79444a;fill-opacity:1"
       id="path4" />
    <rect
       x="149.33333"
       y="405.33334"
       width="85.333328"
       height="42.666672"
       rx="21.333309"
       ry="21.333309"
       style="fill:#d1b187"
       id="rect5" />
    <circle
       cx="213.33333"
       cy="426.66666"
       r="21.33333"
       style="fill:#d1b187"
       id="circle5" />
    <path
       d="M 341.33333,362.66667 A 21.33356,21.33356 0 0 1 320,341.33333 v -64 H 256 V 384 h -21.33333 v 21.33333 a 21.33333,21.33333 0 1 0 42.66666,0 h 85.33334 v -42.66666 z"
       style="fill:#79444a;fill-opacity:1"
       id="path5" />
    <path
       d="m 234.66667,426.66667 v 64 h 256 V 448 a 85.33333,85.33333 0 0 0 -85.33334,-85.33333 h -64 L 320,341.33333 298.66667,362.66667 Z"
       style="fill:#b3a555"
       id="path6" />
    <polygon
       points="277.333,384 277.333,405.333 405.333,405.333 405.333,362.667 298.667,362.667 "
       style="fill:#b3a555"
       id="polygon6" />
    <polygon
       points="256,490.667 256,405.333 298.667,362.667 362.667,362.667 362.667,426.667 277.333,490.667 "
       style="fill:#77743b"
       id="polygon7" />
    <polygon
       points="298.667,362.667 277.333,384 277.333,405.333 320,405.333 320,362.667 "
       style="fill:#b3a555"
       id="polygon8" />
    <path
       d="m 192,341.33333 21.33333,21.33334 64,64 v 64 h -256 V 448 a 85.33333,85.33333 0 0 1 85.33334,-85.33333 h 64 z"
       style="fill:#b3a555"
       id="path8" />
    <rect
       x="106.66667"
       y="362.66666"
       width="106.66667"
       height="42.666672"
       style="fill:#d2c9a5"
       id="rect8" />
    <polygon
       points="192,362.667 192,490.667 234.667,490.667 234.667,384 213.333,362.667 "
       style="fill:#d2c9a5"
       id="polygon9" />
    <rect
       x="64"
       y="405.33334"
       width="42.666672"
       height="42.666672"
       style="fill:#b3a555"
       id="rect9" />
    <rect
       x="21.33333"
       y="448"
       width="256"
       height="42.666672"
       style="fill:#d2c9a5"
       id="rect10" />
    <polygon
       points="192,426.667 277.333,426.667 234.667,384 192,384 "
       style="fill:#b3a555"
       id="polygon10" />
    <polygon
       points="192,362.667 192,405.333 234.667,405.333 234.667,384 213.333,362.667 "
       style="fill:#b3a555"
       id="polygon11" />
    <rect
       x="106.66667"
       y="362.66666"
       width="64"
       height="21.33333"
       style="fill:#b3a555"
       id="rect11" />
    <polygon
       points="170.667,405.333 234.667,384 192,341.333 170.667,362.667 "
       style="fill:#d2c9a5"
       id="polygon12" />
    <circle
       cx="245.33333"
       cy="437.33334"
       r="10.66667"
       style="fill:#b3a555"
       id="circle12" />
    <polygon
       points="341.333,362.667 320,341.333 277.333,384 341.333,405.333 "
       style="fill:#b3a555"
       id="polygon13" />
    <rect
       x="149.33333"
       y="42.666672"
       width="213.33333"
       height="298.66656"
       rx="106.66656"
       ry="106.66656"
       style="fill:#ae5d40"
       id="rect13" />
    <path
       d="m 320,64.48307 v 84.85026 h -42.66667 v 21.33334 H 320 v 42.66659 a 21.33333,21.33333 0 0 1 21.33333,21.33333 v 8e-5 A 21.33333,21.33333 0 0 1 320,256 h -64 v 64 h 21.33333 v 19.18359 a 106.69065,106.69065 0 0 0 85.33334,-104.51692 v -85.33334 c 0,-34.78385 -16.90105,-65.3789 -42.66667,-84.85026 z"
       style="fill:#79444a;fill-opacity:1"
       id="path13" />
    <polygon
       points="277.333,256 277.333,192 320,192 320,170.667 256,170.667 256,234.667 234.667,234.667 234.667,256 "
       style="fill:#79444a;fill-opacity:1"
       id="polygon14" />
    <rect
       x="298.66666"
       y="192"
       width="21.33333"
       height="21.33333"
       style="fill:#4b3d44"
       id="rect14" />
    <rect
       x="192"
       y="192"
       width="21.33333"
       height="21.33333"
       style="fill:#4b3d44"
       id="rect15" />
    <rect
       x="234.66667"
       y="277.33334"
       width="42.666672"
       height="21.33333"
       style="fill:#4b3d44;fill-opacity:1"
       id="rect16" />
    <rect
       x="106.66667"
       y="362.66666"
       width="42.666672"
       height="42.666672"
       style="fill:#b3a555"
       id="rect17" />
    <rect
       x="149.33333"
       y="405.33334"
       width="42.666672"
       height="42.666672"
       style="fill:#b3a555"
       id="rect18" />
    <rect
       x="106.66667"
       y="362.66666"
       width="42.666672"
       height="21.33333"
       style="fill:#b3a555"
       id="rect19" />
    <path
       d="M 64,490.66667 H 42.66667 V 448 a 64.07,64.07 0 0 1 64,-64 v 21.33333 A 42.70887,42.70887 0 0 0 64,448 Z"
       style="fill:#d2c9a5"
       id="path19" />
    <rect
       x="106.66667"
       y="448"
       width="42.666672"
       height="42.666672"
       style="fill:#b3a555"
       id="rect20" />
    <rect
       x="192"
       y="448"
       width="42.666672"
       height="42.666672"
       style="fill:#b3a555"
       id="rect21" />
    <rect
       x="21.33333"
       y="448"
       width="42.666672"
       height="42.666672"
       style="fill:#b3a555"
       id="rect22" />
    <rect
       x="277.33334"
       y="448"
       width="213.33333"
       height="42.666672"
       style="fill:#b3a555"
       id="rect23" />
    <rect
       x="320"
       y="448"
       width="42.666672"
       height="42.666672"
       style="fill:#77743b"
       id="rect24" />
    <rect
       x="405.33334"
       y="448"
       width="42.666672"
       height="42.666672"
       style="fill:#77743b"
       id="rect25" />
    <rect
       x="362.66666"
       y="405.33334"
       width="42.666672"
       height="42.666672"
       style="fill:#77743b"
       id="rect26" />
    <rect
       x="42.666672"
       y="448"
       width="21.33333"
       height="42.666672"
       style="fill:#b3a555"
       id="rect27" />
    <rect
       x="405.33334"
       y="405.33334"
       width="42.666672"
       height="42.666672"
       style="fill:#b3a555"
       id="rect28" />
    <rect
       x="320"
       y="405.33334"
       width="42.666672"
       height="42.666672"
       style="fill:#b3a555"
       id="rect29" />
    <polygon
       points="426.667,490.667 405.333,362.667 362.667,362.667 362.667,448 149.653,448 149.333,362.667 106.667,362.667 85.333,490.667 "
       style="fill:#4b3d44"
       id="polygon29" />
    <rect
       x="106.66667"
       y="362.66666"
       width="42.666672"
       height="21.33333"
       style="fill:#4b3d44;fill-opacity:1"
       id="rect30" />
    <rect
       x="149.33333"
       y="448"
       width="213.33333"
       height="21.33333"
       style="fill:#4b3d44;fill-opacity:1"
       id="rect31" />
    <rect
       x="128"
       y="384"
       width="21.33333"
       height="64"
       style="fill:#4b3d44"
       id="rect32" />
    <rect
       x="362.66666"
       y="362.66666"
       width="21.33333"
       height="85.333328"
       style="fill:#4b3d44;fill-opacity:1"
       id="rect33" />
    <path
       d="m 234.66667,106.66667 c 0,0 0,42.66666 42.66666,42.66666 C 319.99999,149.33333 320,192 320,192 c 0,42.66667 42.66667,42.66667 42.66667,42.66667 H 384 V 170.66654 A 127.99987,127.99987 0 0 0 256.00013,42.66667 h -2.6e-4 A 127.99987,127.99987 0 0 0 128,170.66654 V 192 l 21.33333,21.33338 V 192 C 170.66667,192 192,170.66667 192,149.33333 v -42.66666 z"
       style="fill:#4b726e"
       id="path33" />
    <path
       d="m 256,42.66667 a 128.25257,128.25257 0 0 0 -21.33333,1.91927 v 62.08073 c 0,0 0,42.66666 42.66666,42.66666 C 319.99999,149.33333 320,192 320,192 c 0,42.66667 42.66667,42.66667 42.66667,42.66667 H 384 v -64 a 127.99966,127.99966 0 0 0 -128,-128 z"
       style="fill:#4b726e"
       id="path34" />
    <rect
       x="192"
       y="85.333328"
       width="42.666672"
       height="21.33333"
       style="fill:#8caba1;fill-opacity:1"
       id="rect34" />
    <path
       d="M 405.33333,213.33333 H 394.66667 A 53.39612,53.39612 0 0 1 341.33333,160 a 32.035,32.035 0 0 0 -32,-32 A 53.39611,53.39611 0 0 1 256,74.66667 V 64 h 21.33333 v 10.66667 a 32.035,32.035 0 0 0 32,32 53.39612,53.39612 0 0 1 53.33334,53.33333 32.035,32.035 0 0 0 32,32 h 10.66666 z"
       style="fill:#8caba1;fill-opacity:1"
       id="path35" />
    <path
       d="M 352,85.33333 A 53.10247,53.10247 0 0 1 302.55208,52 l 19.77084,-8 A 31.881,31.881 0 0 0 352,64 Z"
       style="fill:#8caba1;fill-opacity:1"
       id="path36" />
    <path
       d="m 117.33333,170.66667 v -21.33334 a 32.035,32.035 0 0 0 32,-32 v -32 h 21.33334 v 32 a 53.39613,53.39613 0 0 1 -53.33334,53.33334 z"
       style="fill:#8caba1;fill-opacity:1"
       id="path37" />
    <rect
       x="213.33333"
       y="42.666672"
       width="21.33333"
       height="42.666672"
       style="fill:#8caba1;fill-opacity:1"
       id="rect37" />
    <path
       d="M 362.66667,362.66667 H 341.33333 V 336 A 64.32873,64.32873 0 0 1 366.92708,284.80208 42.89235,42.89235 0 0 0 384,250.66667 v -16 h 21.33333 v 16 A 64.32867,64.32867 0 0 1 379.73958,301.86458 42.89236,42.89236 0 0 0 362.66667,336 Z"
       style="fill:#8caba1;fill-opacity:1"
       id="path38" />
    <path
       d="M 170.66667,362.66667 H 149.33333 V 336 A 42.89236,42.89236 0 0 0 132.26042,301.86458 64.32867,64.32867 0 0 1 106.66667,250.66667 V 213.33333 H 128 v 37.33334 A 42.89235,42.89235 0 0 0 145.07292,284.80208 64.32873,64.32873 0 0 1 170.66667,336 Z"
       style="fill:#8caba1;fill-opacity:1"
       id="path39" />
  </g>
</svg>
