<svg xmlns="http://www.w3.org/2000/svg" viewBox="0 0 512 512" preserveAspectRatio="xMidYMid meet">
  <title>Afro Female Scientist</title>
  <g id="afro-female-scientist" data-name="Afro Female Scientist">
<path
       d="m 128,170.66667 v 64 c 0,21.33333 0,64 21.33333,85.33333 0,0 42.66667,-21.33333 106.66667,-21.33333 v -128 z"
       style="fill:#ab9b8e;fill-opacity:1"
       id="path1" />
    <path
       d="m 384,170.66667 v 64 C 384,256 384,298.66667 362.66667,320 362.66667,320 320,298.66667 256,298.66667 v -128 z"
       style="fill:#ab9b8e;fill-opacity:1"
       id="path2" />
    <rect
       x="341.33334"
       y="192"
       width="42.666672"
       height="64"
       rx="21.333309"
       ry="21.333309"
       style="fill:#79444a;fill-opacity:1"
       id="rect2" />
    <rect
       x="128"
       y="192"
       width="42.666672"
       height="64"
       rx="21.333309"
       ry="21.333309"
       style="fill:#79444a;fill-opacity:1"
       id="rect3" />
    <path
       d="m 192,277.33333 v 64 a 21.33334,21.33334 0 0 1 -21.33333,21.33334 h -64 A 85.33333,85.33333 0 0 0 21.33333,448 v 42.66667 H 490.66667 V 448 a 85.33333,85.33333 0 0 0 -85.33334,-85.33333 h -64 A 21.33334,21.33334 0 0 1 320,341.33333 v -64 z"
       style="fill:#79444a;fill-opacity:1"
       id="path3" />
    <path
       d="M 341.33333,362.66667 A 21.33356,21.33356 0 0 1 320,341.33333 v -64 H 256 V 384 h -21.33333 v 21.33331 a 21.33333,21.33333 0 1 0 42.66666,0 h 85.33334 v -42.66664 z"
       style="fill:#79444a;fill-opacity:1"
       id="path4" />
    <path
       d="m 234.66667,426.66667 v 64 h 256 V 448 a 85.33333,85.33333 0 0 0 -85.33334,-85.33333 h -64 L 320,341.33333 298.66667,362.66667 Z"
       style="fill:#b3a555"
       id="path5" />
    <polygon
       points="298.667,362.667 362.667,362.667 362.667,426.667 277.333,490.667 256,490.667 256,405.333 "
       style="fill:#b3a555"
       id="polygon5" />
    <path
       d="m 192,341.33333 21.33333,21.33334 64,64 v 64 h -256 V 448 a 85.33333,85.33333 0 0 1 85.33334,-85.33333 h 64 z"
       style="fill:#b3a555"
       id="path6" />
    <path
       d="M 170.66667,341.33333 H 192 l -21.33333,21.33334 v 128 H 21.33333 V 448 a 85.33333,85.33333 0 0 1 85.33334,-85.33333 h 42.66669 z"
       style="fill:#4b726e;fill-opacity:1"
       id="path7" />
    <path
       d="m 320,341.33333 21.33333,21.33329 v 128 H 490.66667 V 448 a 85.33333,85.33333 0 0 0 -85.33334,-85.33333 h -42.66669 l -21.33331,-21.33334 z"
       style="fill:#4b726e;fill-opacity:1"
       id="path8" />
    <path
       d="m 362.66664,362.66667 c 0,0 85.33336,21.33333 106.66669,128 H 362.66666 Z"
       style="fill:#4b726e;fill-opacity:1"
       id="path9" />
    <path
       d="m 341.33333,341.33333 c 0,0 64,21.33334 85.33334,85.33334 L 384,448 l 42.66667,42.66667 h -85.33334 z"
       style="fill:#8caba1;fill-opacity:1"
       id="path10" />
    <path
       d="m 170.66667,341.33333 c 0,0 -64,21.33334 -85.33334,85.33334 L 128,448 85.33333,490.66667 h 85.33334 z"
       style="fill:#8caba1;fill-opacity:1"
       id="path11" />
    <polygon
       points="149.333,384 170.667,362.667 170.667,490.667 149.333,490.667 "
       style="fill:#8caba1;fill-opacity:1"
       id="polygon11" />
    <polygon
       points="341.333,362.667 362.667,384 362.667,490.667 341.333,490.667 "
       style="fill:#8caba1"
       id="polygon12" />
    <path
       d="M 64,490.66667 H 42.66667 V 448 a 64.07,64.07 0 0 1 64,-64 v 21.33333 A 42.71555,42.71555 0 0 0 64,448 Z"
       style="fill:#8caba1;fill-opacity:1"
       id="path12" />
    <polygon
       points="234.667,384 192,384 192,426.667 277.333,426.667 "
       style="fill:#b3a555"
       id="polygon13" />
    <rect
       x="149.33333"
       y="42.666672"
       width="213.33333"
       height="298.66656"
       rx="106.66656"
       ry="106.66656"
       style="fill:#ae5d40"
       id="rect13" />
    <path
       d="m 320,64.48307 v 84.85026 h -42.66667 v 21.33334 H 320 v 42.66659 a 21.33333,21.33333 0 0 1 21.33333,21.33333 v 8e-5 A 21.33333,21.33333 0 0 1 320,256 h -64 v 64 h 21.33333 v 19.18359 a 106.69065,106.69065 0 0 0 85.33334,-104.51692 v -85.33334 c 0,-34.78385 -16.90105,-65.3789 -42.66667,-84.85026 z"
       style="fill:#79444a;fill-opacity:1"
       id="path13" />
    <rect
       x="273.55475"
       y="174.68143"
       width="70.455139"
       height="91.158661"
       style="fill:#79444a;fill-opacity:1"
       id="rect22" />
    <circle
       cx="202.66667"
       cy="224"
       r="32"
       style="fill:#8caba1"
       id="circle13" />
    <circle
       cx="309.33334"
       cy="224"
       r="32"
       style="fill:#8caba1"
       id="circle14" />
    <polygon
       points="320,192 320,170.667 256,170.667 256,234.667 234.667,234.667 234.667,256 277.333,256 277.333,192 "
       style="fill:#79444a;fill-opacity:1"
       id="polygon14" />
    <rect
       x="234.66667"
       y="277.33334"
       width="42.666672"
       height="21.333349"
       style="fill:#4b3d44;fill-opacity:1"
       id="rect16" />
    <rect
       x="192"
       y="149.33333"
       width="146.38272"
       height="23.114576"
       style="fill:#79444a;fill-opacity:1"
       id="rect17" />
    <rect
       x="213.33333"
       y="106.66667"
       width="85.333328"
       height="21.33333"
       style="fill:#79444a;fill-opacity:1"
       id="rect18" />
    <rect
       x="192"
       y="128"
       width="128"
       height="21.33333"
       style="fill:#000000;fill-opacity:0"
       id="rect19" />
    <path
       d="m 149.33333,213.33333 c 0,-42.66666 85.33334,-42.66666 106.66667,-128 106.66667,21.33334 106.66667,128 106.66667,128 v 0 A 72.83647,72.83647 0 0 0 384,161.83014 V 149.33321 A 127.99987,127.99987 0 0 0 256.00013,21.33333 h -2.6e-4 A 127.99987,127.99987 0 0 0 128,149.33321 V 192 Z"
       style="fill:#847871;fill-opacity:1"
       id="path19" />
    <path
       d="M 362.97917,141.25 C 343.89583,64.88542 267.4375,64 266.66667,64 V 42.66667 c 0.9375,0 93.9375,1.07291 117.02083,93.41666 z"
       style="fill:#ab9b8e;fill-opacity:1"
       id="path20" />
    <path
       d="M 226.95182,24.76953 A 127.9599,127.9599 0 0 0 128,149.33333 V 192 l 21.33333,21.33333 c 0,-42.66666 85.33334,-42.66666 106.66667,-128 C 256,45.457 239.4388,30.4349 226.95182,24.76953 Z"
       style="fill:#847871;fill-opacity:1"
       id="path21" />
    <rect
       x="213.33333"
       y="277.33334"
       width="21.33333"
       height="42.666672"
       style="fill:#ae5d40;fill-opacity:1"
       id="rect21" />
    <path
       d="m 141.25,170.34375 -5.1875,-20.6875 c 0.77083,-0.19792 77.27083,-20.16667 77.27083,-74.98958 V 64 h 21.33334 v 10.66667 c 0,71.51041 -89.60417,94.72916 -93.41667,95.67708 z"
       style="fill:#ab9b8e"
       id="path22" />
    <polygon
       points="192,341.333 170.667,362.667 170.667,405.333 234.667,384 "
       style="fill:#d2c9a5"
       id="polygon22" />
    <circle
       cx="245.33333"
       cy="437.33334"
       r="10.66667"
       style="fill:#77743b"
       id="circle22" />
    <polygon
       points="277.333,384 341.333,405.333 341.333,362.667 320,341.333 "
       style="fill:#d2c9a5;fill-opacity:1"
       id="polygon23" />
    <rect
       x="256"
       y="448"
       width="21.33333"
       height="42.666672"
       style="fill:#d2c9a5"
       id="rect23" />
  </g>
</svg>
