<svg xmlns="http://www.w3.org/2000/svg" viewBox="0 0 512 512" preserveAspectRatio="xMidYMid meet">
  <title>Afro Sport Man</title>
  <g id="afro-sport-man" data-name="Afro Sport Man">    <rect
       x="341.33334"
       y="192"
       width="42.666672"
       height="64"
       rx="21.333309"
       ry="21.333309"
       style="fill:#4b3d44;fill-opacity:1"
       id="rect1" />
    <rect
       x="128"
       y="192"
       width="42.666672"
       height="64"
       rx="21.333309"
       ry="21.333309"
       style="fill:#4b3d44;fill-opacity:1"
       id="rect2" />
    <path
       d="m 192,277.33333 v 64 a 21.33334,21.33334 0 0 1 -21.33333,21.33334 h -64 A 85.33333,85.33333 0 0 0 21.33333,448 v 42.66667 H 490.66667 V 448 a 85.33333,85.33333 0 0 0 -85.33334,-85.33333 h -64 A 21.33334,21.33334 0 0 1 320,341.33333 v -64 z"
       style="fill:#79444a;fill-opacity:1"
       id="path2" />
    <path
       d="m 405.33334,362.66667 h -62.64077 c 0.0171,47.14126 -41.94361,85.36642 -85.94209,85.36642 -43.99849,0 -90.36755,-38.22516 -90.35047,-85.36642 h -59.73334 v 128 h 298.66667 z"
       style="fill:#b3a555;stroke-width:0.966092"
       id="path5"
       />
    <path
       d="M 256,490.66667 V 469.33333 A 106.79223,106.79223 0 0 0 362.66667,362.66667 H 384 a 128.14,128.14 0 0 1 -128,128 z"
       style="fill:#77743b"
       id="path6" />
    <path
       d="M 64,490.66667 H 42.66667 V 448 a 64.07,64.07 0 0 1 64,-64 v 21.33333 A 42.70887,42.70887 0 0 0 64,448 Z"
       style="fill:#ae5d40;fill-opacity:1"
       id="path7" />
    <rect
       x="149.33333"
       y="42.666672"
       width="213.33333"
       height="298.66656"
       rx="106.66656"
       ry="106.66656"
       style="fill:#ae5d40"
       id="rect7" />
    <path
       d="m 320,64.48307 v 84.85026 h -42.66667 v 21.33334 H 320 v 42.66659 a 21.33333,21.33333 0 0 1 21.33333,21.33333 v 8e-5 A 21.33333,21.33333 0 0 1 320,256 h -64 v 64 h 21.33333 v 19.18359 a 106.69065,106.69065 0 0 0 85.33334,-104.51692 v -85.33334 c 0,-34.78385 -16.90105,-65.3789 -42.66667,-84.85026 z"
       style="fill:#79444a;fill-opacity:1"
       id="path8" />
    <polygon
       points="341.333,85.333 341.333,170.667 362.667,170.667 362.667,21.333 149.333,21.333 149.333,170.667 170.667,170.667 170.667,85.333 "
       style="fill:#4b726e"
       id="polygon8" />
    <polygon
       points="341.333,85.333 341.333,170.667 362.667,170.667 362.667,21.333 256,21.333 256,85.333 "
       style="fill:#4b726e"
       id="polygon9" />
    <rect
       x="149.33333"
       y="106.66667"
       width="213.33333"
       height="42.666672"
       style="fill:#d2c9a5"
       id="rect9" />
    <rect
       x="256"
       y="106.66667"
       width="106.66667"
       height="42.666672"
       style="fill:#b3a555"
       id="rect10" />
    <rect
       x="341.33334"
       y="106.66667"
       width="21.33333"
       height="42.666672"
       style="fill:#b3a555"
       id="rect11" />
    <rect
       x="170.66667"
       y="106.66667"
       width="21.33333"
       height="42.666672"
       style="fill:#d2c9a5"
       id="rect12" />
    <rect
       x="341.33334"
       y="64"
       width="21.33333"
       height="21.33333"
       style="fill:#4b726e"
       id="rect13" />
    <rect
       x="149.33333"
       y="64"
       width="21.33333"
       height="21.33333"
       style="fill:#4b726e"
       id="rect14" />
    <polygon
       points="277.333,256 277.333,192 320,192 320,170.667 256,170.667 256,234.667 234.667,234.667 234.667,256 "
       style="fill:#79444a;fill-opacity:1"
       id="polygon14" />
    <rect
       x="298.66666"
       y="192"
       width="21.33333"
       height="21.33333"
       style="fill:#4b3d44"
       id="rect15" />
    <rect
       x="192"
       y="192"
       width="21.33333"
       height="21.33333"
       style="fill:#4b3d44"
       id="rect16" />
    <rect
       x="234.66667"
       y="277.33334"
       width="42.666672"
       height="21.33333"
       style="fill:#4b3d44;fill-opacity:1"
       id="rect17" />
    <rect
       x="192"
       y="149.33333"
       width="42.666672"
       height="21.33333"
       style="fill:#79444a;fill-opacity:1"
       id="rect18" />
  </g>
</svg>
