<svg xmlns="http://www.w3.org/2000/svg" viewBox="0 0 512 512" preserveAspectRatio="xMidYMid meet">
  <title>Afro Man</title>
  <g id="afro-man" data-name="Afro Man"> 
    <rect
       x="341.33334"
       y="192"
       width="42.666672"
       height="64"
       rx="21.333309"
       ry="21.333309"
       style="fill:#79444a;fill-opacity:1"
       id="rect1" />
    <rect
       x="128"
       y="192"
       width="42.666672"
       height="64"
       rx="21.333309"
       ry="21.333309"
       style="fill:#79444a;fill-opacity:1"
       id="rect2" />
    <path
       d="m 192,277.33333 v 64 a 21.33334,21.33334 0 0 1 -21.33333,21.33334 h -64 A 85.33333,85.33333 0 0 0 21.33333,448 v 42.66667 H 490.66667 V 448 a 85.33333,85.33333 0 0 0 -85.33334,-85.33333 h -64 A 21.33334,21.33334 0 0 1 320,341.33333 v -64 z"
       style="fill:#79444a;fill-opacity:1"
       id="path2" />
    <path
       d="M 341.33333,362.66667 A 21.33356,21.33356 0 0 1 320,341.33333 v -64 h -64 v 85.33334 h 21.33333 V 384 h -42.66666 v 21.33331 a 21.33333,21.33333 0 1 0 42.66666,0 h 85.33334 v -42.66664 z"
       style="fill:#79444a;fill-opacity:1"
       id="path3" />
    <path
       d="M 256,384 V 490.66667 H 490.66667 V 448 a 85.33333,85.33333 0 0 0 -85.33334,-85.33333 h -64 L 320,341.33333 Z"
       style="fill:#d2c9a5;fill-opacity:1"
       id="path4" />
    <rect
       x="234.66667"
       y="405.33334"
       width="42.666672"
       height="85.333328"
       style="fill:#77743b;fill-opacity:1"
       id="rect4" />
    <polygon
       points="320,384 253.595,426.667 320,469.333 "
       style="fill:#77743b;fill-opacity:1"
       id="polygon4" />
    <rect
       x="405.33334"
       y="448"
       width="42.666672"
       height="42.666672"
       style="fill:#b3a555;fill-opacity:1"
       id="rect5" />
    <path
       d="M 192,341.33333 256,384 V 490.66667 H 21.33333 V 448 a 85.33333,85.33333 0 0 1 85.33334,-85.33333 h 64 z"
       style="fill:#d2c9a5;fill-opacity:1"
       id="path5" />
    <path
       d="M 64,490.66667 H 42.66667 V 448 a 64.07,64.07 0 0 1 64,-64 v 21.33333 A 42.71555,42.71555 0 0 0 64,448 Z"
       style="fill:#77743b;fill-opacity:1"
       id="path6" />
    <polygon
       points="256,384 192,341.333 192,384 "
       style="fill:#d2c9a5;fill-opacity:1"
       id="polygon6" />
    <polygon
       points="320,341.333 256,384 320,384 "
       style="fill:#d2c9a5;fill-opacity:1"
       id="polygon7" />
    <polygon
       points="85.333,490.667 85.333,362.667 170.667,362.667 192,490.667 "
       style="fill:#77743b;fill-opacity:1"
       id="polygon8" />
    <rect
       x="41.026997"
       y="425.30835"
       width="21.3342"
       height="75.698883"
       transform="rotate(-9.47269)"
       style="fill:#77743b;fill-opacity:1"
       id="rect8" />
    <polygon
       points="426.667,490.667 426.667,362.667 341.333,362.667 320,490.667 "
       style="fill:#77743b;fill-opacity:1"
       id="polygon9" />
    <circle
       cx="245.33333"
       cy="458.66666"
       r="10.66667"
       style="fill:#77743b;fill-opacity:1"
       id="circle9" />
    <rect
       x="362.66666"
       y="362.66666"
       width="42.666672"
       height="21.33333"
       style="fill:#77743b;fill-opacity:1"
       id="rect9" />
    <rect
       x="106.66667"
       y="362.66666"
       width="42.666672"
       height="21.33333"
       style="fill:#77743b;fill-opacity:1"
       id="rect10" />
    <rect
       x="300.96307"
       y="431.99957"
       width="75.698883"
       height="21.3342"
       transform="rotate(-80.50088,338.81254,442.66668)"
       style="fill:#77743b;fill-opacity:1"
       id="rect11" />
    <rect
       x="149.33333"
       y="42.666672"
       width="213.33333"
       height="298.66656"
       rx="106.66656"
       ry="106.66656"
       style="fill:#ae5d40"
       id="rect12" />
    <path
       d="m 320,64.48307 v 84.85026 h -42.66667 v 21.33334 H 320 v 42.66659 a 21.33333,21.33333 0 0 1 21.33333,21.33333 v 8e-5 A 21.33333,21.33333 0 0 1 320,256 h -64 v 64 h 21.33333 v 19.18359 a 106.69065,106.69065 0 0 0 85.33334,-104.51692 v -85.33334 c 0,-34.78385 -16.90105,-65.3789 -42.66667,-84.85026 z"
       style="fill:#79444a;fill-opacity:1"
       id="path12" />
    <path
       d="M 170.66667,85.33333 H 192 c 0,0 21.33333,42.66667 64,42.66667 42.66667,0 64,-42.66667 64,-42.66667 h 21.33333 v 128 h 21.33334 V 192 L 384,170.66667 V 149.33321 A 127.99987,127.99987 0 0 0 256.00013,21.33333 h -2.6e-4 A 127.99987,127.99987 0 0 0 128,149.33321 v 21.33346 L 149.33333,192 v 21.33333 h 21.33334 z"
       style="fill:#4b726e"
       id="path13" />
    <path
       d="m 256,21.33333 a 128.25252,128.25252 0 0 0 -27.1849,2.957 c 21.75391,6.99219 48.51823,27.18881 48.51823,61.043 0,17.9336 -7.70052,31.86589 -18.02343,42.26172 C 299.65625,125.36849 320,85.33333 320,85.33333 h 21.33333 v 128 h 21.33334 V 192 L 384,170.66667 v -21.33334 a 127.99966,127.99966 0 0 0 -128,-128 z"
       style="fill:#8caba1;fill-opacity:1"
       id="path14" />
    <rect
       x="149.33333"
       y="85.333328"
       width="21.33333"
       height="21.33333"
       style="fill:#4b726e"
       id="rect14" />
    <rect
       x="149.33333"
       y="128"
       width="21.33333"
       height="21.33333"
       style="fill:#4b726e"
       id="rect15" />
    <rect
       x="341.33334"
       y="85.333328"
       width="21.33333"
       height="21.33333"
       style="fill:#4b726e"
       id="rect16" />
    <rect
       x="341.33334"
       y="128"
       width="21.33333"
       height="21.33333"
       style="fill:#4b726e"
       id="rect17" />
    <path
       d="M 206.16667,80.09375 193.70833,62.78125 A 105.89883,105.89883 0 0 1 256,42.66667 V 64 a 84.68707,84.68707 0 0 0 -49.83333,16.09375 z"
       style="fill:#8caba1;fill-opacity:1"
       id="path17" />
    <rect
       x="234.66667"
       y="256"
       width="42.666672"
       height="21.33333"
       style="fill:#8caba1;fill-opacity:1"
       id="rect18" />
    <rect
       x="256"
       y="256"
       width="21.33333"
       height="21.33333"
       style="fill:#8caba1;fill-opacity:1"
       id="rect19" />
    <rect
       x="213.33333"
       y="277.33334"
       width="21.33333"
       height="21.33333"
       style="fill:#8caba1;fill-opacity:1"
       id="rect20" />
    <rect
       x="213.33333"
       y="256"
       width="21.33333"
       height="21.33333"
       style="fill:#8caba1;fill-opacity:1"
       id="rect21" />
    <rect
       x="277.33334"
       y="277.33334"
       width="21.33333"
       height="21.33333"
       style="fill:#8caba1;fill-opacity:1"
       id="rect22" />
    <rect
       x="277.33334"
       y="256"
       width="21.33333"
       height="21.33333"
       style="fill:#8caba1;fill-opacity:1"
       id="rect23" />
    <polygon
       points="277.333,256 277.333,192 320,192 320,170.667 256,170.667 256,234.667 234.667,234.667 234.667,256 "
       style="fill:#79444a;fill-opacity:1"
       id="polygon23" />
    <rect
       x="298.66666"
       y="192"
       width="21.33333"
       height="21.33333"
       style="fill:#4b3d44"
       id="rect24" />
    <rect
       x="192"
       y="192"
       width="21.33333"
       height="21.33333"
       style="fill:#4b3d44"
       id="rect25" />
    <rect
       x="234.66667"
       y="277.33334"
       width="42.666672"
       height="21.33333"
       style="fill:#4b3d44;fill-opacity:1"
       id="rect26" />
    <polygon
       points="192,448 256,405.333 192,362.667 "
       style="fill:#b3a555;fill-opacity:1"
       id="polygon26" />
    <polygon
       points="192,384 240,416 256,405.333 192,362.667 "
       style="fill:#b3a555;fill-opacity:1"
       id="polygon27" />
    <polygon
       points="320,448 256,405.333 320,362.667 "
       style="fill:#b3a555;fill-opacity:1"
       id="polygon28" />
    <polygon
       points="272,394.667 320,426.667 320,362.667 "
       style="fill:#b3a555;fill-opacity:1"
       id="polygon29" />
    <rect
       x="234.66667"
       y="384"
       width="42.666672"
       height="42.666672"
       style="fill:#b3a555;fill-opacity:1"
       id="rect29" />
    <rect
       x="234.66667"
       y="384"
       width="42.666672"
       height="21.33333"
       style="fill:#b3a555;fill-opacity:1"
       id="rect30" />
    <rect
       x="256"
       y="405.33334"
       width="21.33333"
       height="21.33333"
       style="fill:#b3a555;fill-opacity:1"
       id="rect31" />
  </g>
</svg>
