<svg xmlns="http://www.w3.org/2000/svg" viewBox="0 0 512 512" preserveAspectRatio="xMidYMid meet">
  <title>Afro Old Business Woman</title>
  <g id="afro-old-business-woman" data-name="Afro Old Business Woman">    <rect
       x="341.33334"
       y="192"
       width="42.666672"
       height="64"
       rx="21.333309"
       ry="21.333309"
       style="fill:#79444a;fill-opacity:1"
       id="rect1" />
    <rect
       x="128"
       y="192"
       width="42.666672"
       height="64"
       rx="21.333309"
       ry="21.333309"
       style="fill:#79444a;fill-opacity:1"
       id="rect2" />
    <path
       d="m 192,277.33333 v 64 a 21.33334,21.33334 0 0 1 -21.33333,21.33334 h -64 A 85.33333,85.33333 0 0 0 21.33333,448 v 42.66667 H 490.66667 V 448 a 85.33333,85.33333 0 0 0 -85.33334,-85.33333 h -64 A 21.33334,21.33334 0 0 1 320,341.33333 v -64 z"
       style="fill:#79444a;fill-opacity:1"
       id="path2" />
    <path
       d="M 341.33333,362.66667 A 21.33356,21.33356 0 0 1 320,341.33333 v -64 h -85.33333 v 128 a 21.33333,21.33333 0 1 0 42.66666,0 h 85.33334 v -42.66666 z"
       style="fill:#79444a;fill-opacity:1"
       id="path3" />
    <rect
       x="149.33333"
       y="42.666672"
       width="213.33333"
       height="298.66656"
       rx="106.66656"
       ry="106.66656"
       style="fill:#ae5d40"
       id="rect4" />
    <path
       d="m 320,64.48307 v 84.85026 h -42.66667 v 21.33334 H 320 v 42.66659 a 21.33333,21.33333 0 0 1 21.33333,21.33333 v 8e-5 A 21.33333,21.33333 0 0 1 320,256 h -64 v 64 h 21.33333 v 19.18359 a 106.69065,106.69065 0 0 0 85.33334,-104.51692 v -85.33334 c 0,-34.78385 -16.90104,-65.3789 -42.66667,-84.85026 z"
       style="fill:#79444a;fill-opacity:1"
       id="path4" />
    <circle
       cx="202.66667"
       cy="224"
       r="32"
       style="fill:#8caba1"
       id="circle4" />
    <path
       d="M 362.66667,490.66667 H 149.33333 V 448 C 149.33333,448 192,469.33333 256,469.33333 320,469.33333 362.66667,448 362.66667,448 Z"
       style="fill:#d2c9a5;fill-opacity:1"
       id="path5" />
    <path
       d="m 192,462.04557 v 28.6211 h 21.33333 v -24.651 c -7.6302,-1.1615 -14.88411,-2.47921 -21.33333,-3.9701 z"
       style="fill:#d2c9a5;fill-opacity:1"
       id="path6" />
    <path
       d="m 106.66667,362.66667 h 64 v 128 H 21.33333 V 448 a 85.33333,85.33333 0 0 1 85.33334,-85.33333 z"
       style="fill:#4b3d44;fill-opacity:1"
       id="path7" />
    <path
       d="m 192,341.33333 c 0,0 -64,21.33334 -85.33333,85.33334 L 149.33333,448 106.66667,490.66667 H 192 Z"
       style="fill:#4b3d44;fill-opacity:1"
       id="path8" />
    <path
       d="m 341.33333,362.66667 h 149.33334 v 128 h -64 a 85.33333,85.33333 0 0 1 -85.33333,-85.33333 v -42.66667 z"
       transform="rotate(180,416,426.66667)"
       style="fill:#4b3d44;fill-opacity:1"
       id="path9" />
    <path
       d="m 341.33333,362.66667 c 0,0 42.66667,21.33333 85.33334,64 32,32 42.66666,64 42.66666,64 h -128 z"
       style="fill:#b3a555;fill-opacity:1"
       id="path10" />
    <path
       d="M 64,490.66667 H 42.66667 V 448 a 64.07,64.07 0 0 1 64,-64 v 21.33333 A 42.71555,42.71555 0 0 0 64,448 Z"
       style="fill:#b3a555;fill-opacity:1"
       id="path11" />
    <path
       d="m 320,341.33333 c 0,0 64,21.33334 85.33333,85.33334 L 362.66667,448 405.33333,490.66667 H 320 Z"
       style="fill:#4b3d44;fill-opacity:1"
       id="path12" />
    <rect
       x="170.66667"
       y="362.66666"
       width="21.33333"
       height="128"
       style="fill:#b3a555;fill-opacity:1"
       id="rect12" />
    <rect
       x="320"
       y="362.66666"
       width="21.33333"
       height="128"
       style="fill:#b3a555;fill-opacity:1"
       id="rect13" />
    <rect
       x="276.58951"
       y="186.36206"
       width="66.671875"
       height="72.863724"
       style="fill:#79444a;fill-opacity:1;stroke-width:1.88629"
       id="rect17-6" />
    <circle
       cx="309.33334"
       cy="224"
       r="32"
       style="fill:#8caba1"
       id="circle13" />
    <polygon
       points="277.333,256 277.333,192 320,192 320,170.667 256,170.667 256,234.667 234.667,234.667 234.667,256 "
       style="fill:#79444a;fill-opacity:1"
       id="polygon13" />
    <rect
       x="234.66667"
       y="277.33334"
       width="42.666672"
       height="21.33333"
       style="fill:#4b3d44;fill-opacity:1"
       id="rect16" />
    <rect
       x="192"
       y="149.33333"
       width="64"
       height="21.33333"
       style="fill:#79444a;fill-opacity:1"
       id="rect17" />
    <rect
       x="213.33333"
       y="106.66667"
       width="85.333328"
       height="21.33333"
       style="fill:#79444a;fill-opacity:1"
       id="rect18" />
    <rect
       x="192"
       y="128"
       width="128"
       height="21.33333"
       style="fill:#ae5d40;fill-opacity:1"
       id="rect19" />
    <path
       d="m 320,85.33333 -85.33333,64 L 213.33333,128 170.66667,192 149.33333,170.66667 v 42.66666 L 106.66667,170.66667 V 149.33333 H 85.33333 c 0,0 21.33334,-128 170.66667,-128 42.66667,0 64,21.33334 64,21.33334 h 9e-5 a 85.33324,85.33324 0 0 1 85.33324,85.33324 v 42.66676 l -42.66666,42.66666 V 170.66667 L 341.33333,192 Z"
       style="fill:#ab9b8e;fill-opacity:1"
       id="path21" />
    <path
       d="M 320,42.66667 V 85.33333 L 341.33333,192 362.66667,170.66667 v 42.66666 l 42.66666,-42.66666 V 128 A 85.33254,85.33254 0 0 0 320,42.66667 Z"
       style="fill:#847875;fill-opacity:1"
       id="path22" />
    <polygon
       points="362.667,213.333 384,192 384,106.667 362.667,106.667 "
       style="fill:#ab9b8e;fill-opacity:1"
       id="polygon22" />
    <rect
       x="341.33334"
       y="64"
       width="21.33333"
       height="74.666672"
       style="fill:#ab9b8e;fill-opacity:1"
       id="rect22" />
    <path
       d="m 128,149.40625 -21.33333,-0.0729 c 0,-15.86458 23.875,-59.26041 69.54166,-85.61458 C 217.625,39.80208 275.375,42.57292 277.89583,42.67708 l -1.10416,21.3125 C 276.29167,63.96875 222.75,61.5 186.875,82.19792 147.72917,104.79167 128.45833,141.40625 128,149.40625 Z"
       style="fill:#847875;fill-opacity:1"
       id="path23" />
    <rect
       x="213.33333"
       y="74.67083"
       width="106.66667"
       height="21.325001"
       transform="rotate(-36.8587,266.66669,85.333341)"
       style="fill:#847875;fill-opacity:1"
       id="rect23" />
  </g>
</svg>
