<svg xmlns="http://www.w3.org/2000/svg" viewBox="0 0 512 512" preserveAspectRatio="xMidYMid meet">
  <title>Afro Young Woman</title>
  <g id="afro-young-woman" data-name="Afro Young Woman">

    <path
       d="m 414.29167,165.11458 a 32.85262,32.85262 0 0 0 5.125,-17.28125 35.81983,35.81983 0 0 0 -1.70834,-10.44791 32.00971,32.00971 0 0 0 -19.41666,-19.84375 33.48591,33.48591 0 0 0 1.0625,-8.10417 31.925,31.925 0 0 0 -6.39584,-19.19792 31.33449,31.33449 0 0 0 -24.54166,-12.80208 32.24478,32.24478 0 0 0 -13.4375,-24.53125 32.671,32.671 0 0 0 -27.52084,-4.69792 31.97587,31.97587 0 0 0 -47.79166,-14.92708 31.91481,31.91481 0 0 0 -50.125,0.41667 31.20736,31.20736 0 0 0 -27.52084,-3.625 31.81124,31.81124 0 0 0 -20.04166,19.41666 32.28451,32.28451 0 0 0 -27.3125,5.125 33.01138,33.01138 0 0 0 -13.02084,24.73959 31.07917,31.07917 0 0 0 -24.3125,13.22916 33.204,33.204 0 0 0 -6.1875,18.5625 32.4783,32.4783 0 0 0 1.27084,8.95834 31.81669,31.81669 0 0 0 -19.1875,20.26041 37.42521,37.42521 0 0 0 -1.5,9.39584 31.91627,31.91627 0 0 0 5.54166,18.125 32.11291,32.11291 0 0 0 0.20834,50.13541 32.86062,32.86062 0 0 0 -5.10417,17.28125 28.14392,28.14392 0 0 0 1.47917,10.23959 32.34976,32.34976 0 0 0 19.41666,20.05208 34.54707,34.54707 0 0 0 -1.0625,8.10417 30.41573,30.41573 0 0 0 6.1875,19.20833 31.0179,31.0179 0 0 0 24.54167,13.01042 32.41028,32.41028 0 0 0 13.20833,24.53125 32.04263,32.04263 0 0 0 27.52084,4.90625 32.046,32.046 0 0 0 20.0625,19.19791 33.04844,33.04844 0 0 0 27.72916,-3.83333 32.03683,32.03683 0 0 0 24.95834,11.94792 A 31.20486,31.20486 0 0 0 281.375,350.5 a 33.16953,33.16953 0 0 0 27.75,3.84375 32.33231,32.33231 0 0 0 20.04167,-19.41667 32.199,32.199 0 0 0 27.3125,-4.90625 32.60744,32.60744 0 0 0 13.22916,-24.73958 31.50214,31.50214 0 0 0 30.5,-31.58333 42.49587,42.49587 0 0 0 -1.0625,-8.95834 31.46386,31.46386 0 0 0 19.1875,-20.05208 36.90014,36.90014 0 0 0 1.70834,-9.59375 A 32.41733,32.41733 0 0 0 414.5,216.95833 31.20478,31.20478 0 0 0 426.66667,192 v -1.92708 a 32.0655,32.0655 0 0 0 -12.375,-24.95834 z"
       style="fill:#4b726e"
       id="path1" />
    <path
       d="m 414.29167,165.11458 a 32.85262,32.85262 0 0 0 5.125,-17.28125 35.81983,35.81983 0 0 0 -1.70834,-10.44791 32.00971,32.00971 0 0 0 -19.41666,-19.84375 33.48591,33.48591 0 0 0 1.0625,-8.10417 A 31.925,31.925 0 0 0 392.95833,90.23958 31.33449,31.33449 0 0 0 368.41667,77.4375 32.24478,32.24478 0 0 0 354.97917,52.90625 32.671,32.671 0 0 0 327.45833,48.20833 31.97587,31.97587 0 0 0 279.66667,33.28125 31.4637,31.4637 0 0 0 271.97005,26.56901 C 263.388,39.95443 256,58.8112 256,85.33333 c 0,64 42.66667,85.33334 42.66667,85.33334 v 184.944 a 30.48657,30.48657 0 0 0 30.5,-20.6836 32.199,32.199 0 0 0 27.3125,-4.90625 32.60744,32.60744 0 0 0 13.22916,-24.73958 31.50214,31.50214 0 0 0 30.5,-31.58333 42.49587,42.49587 0 0 0 -1.0625,-8.95834 31.46386,31.46386 0 0 0 19.1875,-20.05208 36.90014,36.90014 0 0 0 1.70834,-9.59375 A 32.41733,32.41733 0 0 0 414.5,216.95833 31.20478,31.20478 0 0 0 426.66667,192 v -1.92708 a 32.0655,32.0655 0 0 0 -12.375,-24.95834 z"
       style="fill:#4b726e"
       id="path2" />
    <circle
       cx="362.66666"
       cy="277.33334"
       r="21.33333"
       style="fill:#4b726e"
       id="circle2" />
    <circle
       cx="362.66666"
       cy="234.66667"
       r="42.666672"
       style="fill:#4b726e"
       id="circle3" />
    <circle
       cx="341.33334"
       cy="298.66666"
       r="21.33333"
       style="fill:#4b726e"
       id="circle4" />
    <circle
       cx="170.66667"
       cy="298.66666"
       r="21.33333"
       style="fill:#4b726e"
       id="circle5" />
    <circle
       cx="160"
       cy="266.66666"
       r="32"
       style="fill:#4b726e"
       id="circle6" />
    <rect
       x="341.33334"
       y="192"
       width="42.666672"
       height="64"
       rx="21.333309"
       ry="21.333309"
       style="fill:#4b3d44"
       id="rect6" />
    <rect
       x="128"
       y="192"
       width="42.666672"
       height="64"
       rx="21.333309"
       ry="21.333309"
       style="fill:#4b3d44"
       id="rect7" />
    <path
       d="m 192,277.33333 v 64 a 21.33334,21.33334 0 0 1 -21.33333,21.33334 h -64 A 85.33333,85.33333 0 0 0 21.33333,448 v 42.66667 H 490.66667 V 448 a 85.33333,85.33333 0 0 0 -85.33334,-85.33333 h -64 A 21.33334,21.33334 0 0 1 320,341.33333 v -64 z"
       style="fill:#79444a;fill-opacity:1"
       id="path7" />
    <path
       d="M 64,490.66667 H 42.66667 V 448 a 64.07,64.07 0 0 1 64,-64 v 21.33333 A 42.71555,42.71555 0 0 0 64,448 Z"
       style="fill:#ae5d40"
       id="path9" />
    <rect
       x="149.33333"
       y="42.666672"
       width="213.33333"
       height="298.66656"
       rx="106.66656"
       ry="106.66656"
       style="fill:#ae5d40"
       id="rect9" />
    <path
       d="m 320,64.48307 v 84.85026 h -42.66667 v 21.33334 H 320 v 42.66659 a 21.33333,21.33333 0 0 1 21.33333,21.33333 v 8e-5 A 21.33333,21.33333 0 0 1 320,256 h -64 v 64 h 21.33333 v 19.18359 a 106.69065,106.69065 0 0 0 85.33334,-104.51692 v -85.33334 c 0,-34.78385 -16.90104,-65.3789 -42.66667,-84.85026 z"
       style="fill:#79444a;fill-opacity:1"
       id="path10" />
    <circle
       cx="202.66667"
       cy="117.33333"
       r="32"
       style="fill:#4b726e"
       id="circle10" />
    <circle
       cx="245.33333"
       cy="117.33333"
       r="32"
       style="fill:#4b726e"
       id="circle11" />
    <circle
       cx="288"
       cy="117.33333"
       r="32"
       style="fill:#4b726e"
       id="circle12" />
    <circle
       cx="330.66666"
       cy="117.33333"
       r="32"
       style="fill:#4b726e"
       id="circle13" />
    <path
       d="m 362.66667,191.99977 c 0,0 -21.33328,0 -21.33328,-21.33328 v -21.33312 c 0,0 -21.33339,-1.6e-4 -21.33339,-21.3335 0,-21.33334 -9e-5,-21.33333 -9e-5,-21.33333 h -128 c 0,0 7e-5,0 7e-5,21.33333 0,21.33333 -21.33333,21.33336 -21.33333,21.33336 v 21.33331 c 0,21.33333 -21.33334,21.33333 -21.33334,21.33333 l -42.66634,-0.002 A 149.333,149.333 0 0 1 256,42.66667 h 3e-4 a 149.333,149.333 0 0 1 149.333,149.333 z"
       style="fill:#4b726e"
       id="path13" />
    <path
       d="M 263.56771,43.04818 A 114.71852,114.71852 0 0 0 256,85.33333 a 127.9223,127.9223 0 0 0 1.77474,21.33334 H 320 V 128 c 0,21.33333 21.33333,21.33333 21.33333,21.33333 v 21.33334 C 341.33333,192 362.66667,192 362.66667,192 h 42.66666 c 0,-79.92057 -62.83073,-144.98438 -141.76562,-148.95182 z"
       style="fill:#4b726e"
       id="path14" />
    <rect
       x="341.33334"
       y="149.33333"
       width="21.33333"
       height="21.33333"
       style="fill:#4b726e"
       id="rect14" />
    <rect
       x="362.66666"
       y="170.66667"
       width="21.33333"
       height="21.33333"
       style="fill:#4b726e"
       id="rect15" />
    <polygon
       points="277.333,256 277.333,192 320,192 320,170.667 256,170.667 256,234.667 234.667,234.667 234.667,256 "
       style="fill:#79444a;fill-opacity:1"
       id="polygon15" />
    <rect
       x="298.66666"
       y="192"
       width="21.33333"
       height="21.33333"
       style="fill:#4b3d44"
       id="rect16" />
    <rect
       x="192"
       y="192"
       width="21.33333"
       height="21.33333"
       style="fill:#4b3d44"
       id="rect17" />
    <rect
       x="234.66667"
       y="277.33334"
       width="42.666672"
       height="21.33333"
       style="fill:#4b3d44;fill-opacity:1"
       id="rect18" />
    <path
       d="m 405.33333,362.66667 h -64 v 8e-5 A 85.33324,85.33324 0 0 1 256.00009,448 H 21.33333 v 42.66667 H 490.66667 V 448 a 85.33333,85.33333 0 0 0 -85.33334,-85.33333 z"
       style="fill:#4b3d44;fill-opacity:1"
       id="path18" />
    <rect
       x="42.666672"
       y="448"
       width="21.33333"
       height="42.666672"
       style="fill:#4b3d44;fill-opacity:1"
       id="rect19" />
    <path
       d="M 128,149.33333 H 106.66667 V 128 A 42.71555,42.71555 0 0 1 149.33333,85.33333 42.71555,42.71555 0 0 1 192,42.66667 V 64 a 21.35443,21.35443 0 0 0 -21.33333,21.33333 v 21.33334 H 149.33333 A 21.35442,21.35442 0 0 0 128,128 Z"
       style="fill:#4b726e"
       id="path19" />
    <rect
       x="192"
       y="64"
       width="42.666672"
       height="21.33333"
       style="fill:#4b726e"
       id="rect20" />
    <path
       d="m 128,192 h -10.66667 a 32,32 0 1 1 0,-64 v 21.33333 a 10.66667,10.66667 0 0 0 0,21.33334 H 128 Z"
       style="fill:#4b726e"
       id="path20" />
    <rect
       x="149.33333"
       y="149.33333"
       width="21.33333"
       height="21.33333"
       style="fill:#4b726e"
       id="rect21" />
    <path
       d="M 362.66667,149.33333 V 128 a 21.333335,21.333335 0 0 0 0,-42.66667 V 64 a 42.666665,42.666665 0 0 1 0,85.33333 z"
       style="fill:#4b726e"
       id="path21" />
    <path
       d="m 394.66667,170.66667 v -21.33334 a 10.666665,10.666665 0 0 0 0,-21.33333 v -21.33333 a 32,32 0 0 1 0,64 z"
       style="fill:#4b726e"
       id="path22" />
    <path
       d="M 256,490.66667 H 64 V 469.33333 H 256 A 106.79223,106.79223 0 0 0 362.66667,362.66667 H 384 a 128.14,128.14 0 0 1 -128,128 z"
       style="fill:#b3a555;fill-opacity:1"
       id="path23" />
    <path
       d="m 288,149.33333 a 32.035,32.035 0 0 1 -32,-32 h 21.33333 a 10.66667,10.66667 0 0 0 21.33334,0 H 320 a 32.035,32.035 0 0 1 -32,32 z"
       style="fill:#4b726e"
       id="path24" />
    <path
       d="m 245.33333,149.33333 a 32.035,32.035 0 0 1 -32,-32 h 21.33334 a 10.66667,10.66667 0 1 0 10.66666,-10.66666 V 85.33333 a 32,32 0 1 1 0,64 z"
       style="fill:#4b726e"
       id="path25" />
    <path
       d="m 288,106.66667 a 32,32 0 0 1 0,-64 V 64 a 10.666665,10.666665 0 1 0 0,21.33333 z"
       style="fill:#4b726e"
       id="path26" />
    <path
       d="m 202.66667,149.33333 a 32.035,32.035 0 0 1 -32,-32 H 192 a 10.66667,10.66667 0 1 0 21.33333,0 h 21.33334 a 32.035,32.035 0 0 1 -32,32 z"
       style="fill:#4b726e"
       id="path27" />
    <rect
       x="149.33333"
       y="106.66667"
       width="21.33333"
       height="21.33333"
       style="fill:#4b726e"
       id="rect27" />
    <path
       d="m 341.33333,149.33333 h -10.66666 a 32,32 0 0 1 0,-64 v 21.33334 a 10.666665,10.666665 0 1 0 0,21.33333 h 10.66666 z"
       style="fill:#4b726e"
       id="path28" />
  </g>
</svg>
