<svg xmlns="http://www.w3.org/2000/svg" viewBox="0 0 512 512" preserveAspectRatio="xMidYMid meet">
  <title>Afro Sport Woman</title>
  <g id="afro-sport-woman" data-name="Afro Sport Woman">    <path
       d="m 256.10417,21.33333 c 10.22916,0 20.6875,4.90625 26.45833,12.36459 a 31.20734,31.20734 0 0 1 27.52083,-3.625 31.81126,31.81126 0 0 1 20.04167,19.41666 c 40.44986,-15.96206 64.39649,33.47615 32.64583,57.17709 h -213.4375 c -31.75066,-23.70094 -7.804,-73.13915 32.64584,-57.17709 a 31.81124,31.81124 0 0 1 20.04166,-19.41666 31.20736,31.20736 0 0 1 27.52084,3.625 C 235.3125,26.23958 245.77083,21.33333 256,21.33333 Z"
       style="fill:#4b726e"
       id="path1" />
    <path
       d="m 255.79167,362.66667 a 32.03681,32.03681 0 0 0 24.95833,-11.94792 33.04846,33.04846 0 0 0 27.72917,3.83333 32.046,32.046 0 0 0 20.0625,-19.19791 32.04261,32.04261 0 0 0 27.52083,-4.90625 32.41022,32.41022 0 0 0 13.20833,-24.53125 31.01788,31.01788 0 0 0 24.54167,-13.01042 30.41573,30.41573 0 0 0 6.1875,-19.20833 34.54707,34.54707 0 0 0 -1.0625,-8.10417 32.3498,32.3498 0 0 0 19.41667,-20.05208 28.14391,28.14391 0 0 0 1.47916,-10.23959 32.86061,32.86061 0 0 0 -5.10416,-17.28125 c 0,0 12.14583,-6.71037 12.14583,-22.87759 0,-21.40583 -21.33333,-24.47657 -21.33333,-24.47657 0,0 0,-21.33334 -21.33334,-21.33334 H 128 c -21.33333,0 -21.33333,21.33334 -21.33333,21.33334 0,0 -21.33334,3.07074 -21.33334,24.47657 0,16.16722 12.14584,22.87759 12.14584,22.87759 a 32.86062,32.86062 0 0 0 -5.10417,17.28125 28.14392,28.14392 0 0 0 1.47917,10.23959 32.34976,32.34976 0 0 0 19.41666,20.05208 34.54707,34.54707 0 0 0 -1.0625,8.10417 30.41573,30.41573 0 0 0 6.1875,19.20833 31.0179,31.0179 0 0 0 24.54167,13.01042 32.41028,32.41028 0 0 0 13.20833,24.53125 32.04263,32.04263 0 0 0 27.52084,4.90625 32.046,32.046 0 0 0 20.0625,19.19791 33.04844,33.04844 0 0 0 27.72916,-3.83333 32.03683,32.03683 0 0 0 24.95834,11.94792 z"
       style="fill:#4b726e"
       id="path2" />
    <circle
       cx="362.66666"
       cy="277.33334"
       r="21.33333"
       style="fill:#8caba1;fill-opacity:1"
       id="circle2" />
    <circle
       cx="362.66666"
       cy="234.66667"
       r="42.666672"
       style="fill:#4b726e"
       id="circle3" />
    <circle
       cx="341.33334"
       cy="298.66666"
       r="21.33333"
       style="fill:#8caba1;fill-opacity:1"
       id="circle4" />
    <circle
       cx="170.66667"
       cy="298.66666"
       r="21.33333"
       style="fill:#4b726e"
       id="circle5" />
    <circle
       cx="160"
       cy="266.66666"
       r="32"
       style="fill:#8caba1;fill-opacity:1"
       id="circle6" />
    <rect
       x="341.33334"
       y="192"
       width="42.666672"
       height="64"
       rx="21.333309"
       ry="21.333309"
       style="fill:#79444a;fill-opacity:1"
       id="rect6" />
    <rect
       x="128"
       y="192"
       width="42.666672"
       height="64"
       rx="21.333309"
       ry="21.333309"
       style="fill:#79444a;fill-opacity:1"
       id="rect7" />
    <path
       d="m 192,277.33333 v 64 a 21.33334,21.33334 0 0 1 -21.33333,21.33334 h -64 A 85.33333,85.33333 0 0 0 21.33333,448 v 42.66667 H 490.66667 V 448 a 85.33333,85.33333 0 0 0 -85.33334,-85.33333 h -64 A 21.33334,21.33334 0 0 1 320,341.33333 v -64 z"
       style="fill:#79444a;fill-opacity:1"
       id="path7" />
    <path
       d="m 362.66667,362.66667 h -21.33334 c 0,0 0,85.33333 -85.33333,85.33333 -85.33333,0 -85.33333,-85.33333 -85.33333,-85.33333 h -21.33334 c 0,0 0,85.33333 -42.66666,128 h 298.66666 c -42.66666,-42.66667 -42.66666,-128 -42.66666,-128 z"
       style="fill:#b3a555"
       id="path10" />
    <path
       d="M 266.66667,490.66667 H 256 v -21.33334 h 10.66667 a 95.23965,95.23965 0 0 0 77,-38.65625 l 17.10416,12.75 a 117.9239,117.9239 0 0 1 -94.10416,47.23959 z"
       style="fill:#77743b"
       id="path11" />
    <path
       d="M 64,490.66667 H 42.66667 V 448 a 64.07,64.07 0 0 1 64,-64 v 21.33333 A 42.70887,42.70887 0 0 0 64,448 Z"
       style="fill:#ae5d40"
       id="path12" />
    <rect
       x="149.33333"
       y="42.666672"
       width="213.33333"
       height="298.66656"
       rx="106.66656"
       ry="106.66656"
       style="fill:#ae5d40"
       id="rect12" />
    <path
       d="m 320,64.48307 v 84.85026 h -42.66667 v 21.33334 H 320 v 42.66659 a 21.33333,21.33333 0 0 1 21.33333,21.33333 v 8e-5 A 21.33333,21.33333 0 0 1 320,256 h -64 v 64 h 21.33333 v 19.18359 a 106.69065,106.69065 0 0 0 85.33334,-104.51692 v -85.33334 c 0,-34.78385 -16.90105,-65.3789 -42.66667,-84.85026 z"
       style="fill:#79444a;fill-opacity:1"
       id="path13" />
    <path
       d="m 128,192 c 21.33333,0 42.66667,-21.33333 42.66667,-42.66667 H 128 Z"
       style="fill:#8caba1;fill-opacity:1"
       id="path14" />
    <circle
       cx="213.33333"
       cy="106.66667"
       r="21.33333"
       style="fill:#4b726e"
       id="circle14" />
    <circle
       cx="256"
       cy="106.66667"
       r="21.33333"
       style="fill:#4b726e"
       id="circle15" />
    <circle
       cx="298.66666"
       cy="106.66667"
       r="21.33333"
       style="fill:#4b726e"
       id="circle16" />
    <path
       d="m 384,192 c -21.33333,0 -42.66667,-21.33333 -42.66667,-42.66667 H 384 Z"
       style="fill:#8caba1;fill-opacity:1"
       id="path16" />
    <path
       d="m 362.66667,106.66667 v -7e-5 A 63.99993,63.99993 0 0 0 298.66673,42.66667 h -85.33346 a 63.99993,63.99993 0 0 0 -63.99994,63.99993 v 7e-5"
       style="fill:#4b726e"
       id="path17" />
    <rect
       x="320"
       y="85.333328"
       width="21.33333"
       height="42.666672"
       style="fill:#4b726e"
       id="rect17" />
    <polygon
       points="277.333,256 277.333,192 320,192 320,170.667 256,170.667 256,234.667 234.667,234.667 234.667,256 "
       style="fill:#79444a;fill-opacity:1"
       id="polygon17" />
    <rect
       x="298.66666"
       y="192"
       width="21.33333"
       height="21.33333"
       style="fill:#4b3d44"
       id="rect18" />
    <rect
       x="192"
       y="192"
       width="21.33333"
       height="21.33333"
       style="fill:#4b3d44"
       id="rect19" />
    <rect
       x="234.66667"
       y="277.33334"
       width="42.666672"
       height="21.33333"
       style="fill:#4b3d44;fill-opacity:1"
       id="rect20" />
    <rect
       x="234.66667"
       y="64"
       width="64"
       height="21.33333"
       style="fill:#8caba1;fill-opacity:1"
       id="rect21" />
    <rect
       x="170.66667"
       y="106.66667"
       width="21.33333"
       height="21.33333"
       style="fill:#4b726e"
       id="rect22" />
    <rect
       x="192"
       y="149.33333"
       width="42.666672"
       height="21.33333"
       style="fill:#79444a;fill-opacity:1"
       id="rect23" />
    <rect
       x="256"
       y="85.333328"
       width="21.33333"
       height="21.33333"
       style="fill:#4b726e"
       id="rect24" />
    <path
       d="M 362.66667,213.33333 V 192 A 21.36113,21.36113 0 0 0 384,170.66667 h 21.33333 a 42.70885,42.70885 0 0 1 -42.66666,42.66666 z"
       style="fill:#4b726e"
       id="path24" />
    <path
       d="M 149.33333,213.33333 A 42.70885,42.70885 0 0 1 106.66667,170.66667 H 128 A 21.36113,21.36113 0 0 0 149.33333,192 Z"
       style="fill:#4b726e"
       id="path25" />
    <path
       d="m 128,234.66667 h -10.66667 a 32,32 0 1 1 0,-64 V 192 a 10.66667,10.66667 0 0 0 0,21.33333 H 128 Z"
       style="fill:#8caba1;fill-opacity:1"
       id="path26" />
    <path
       d="m 394.66667,234.66667 v -21.33334 a 10.666665,10.666665 0 0 0 0,-21.33333 v -21.33333 a 32,32 0 0 1 0,64 z"
       style="fill:#8caba1;fill-opacity:1"
       id="path27" />
    <rect
       x="149.33333"
       y="106.66667"
       width="213.33333"
       height="42.666672"
       style="fill:#d2c9a5"
       id="rect27" />
    <rect
       x="256"
       y="106.66667"
       width="106.66667"
       height="42.666672"
       style="fill:#b3a555"
       id="rect28" />
    <path
       d="M 330.66667,149.33333 A 53.51084,53.51084 0 0 1 284.5,122.67708 l 18.45833,-10.6875 c 7.9375,13.71875 26.05209,19.63542 40.5,13.34375 l 8.52084,19.5625 a 52.951,52.951 0 0 1 -21.3125,4.4375 z"
       style="fill:#b3a555"
       id="path28" />
    <rect
       x="341.33334"
       y="106.66667"
       width="21.33333"
       height="42.666672"
       style="fill:#77743b"
       id="rect29" />
    <rect
       x="170.66667"
       y="106.66667"
       width="21.33333"
       height="42.666672"
       style="fill:#d2c9a5"
       id="rect30" />
    <circle
       cx="149.33333"
       cy="106.66667"
       r="21.33333"
       style="fill:#4b726e"
       id="circle30" />
    <circle
       cx="181.33333"
       cy="96"
       r="32"
       style="fill:#8caba1;fill-opacity:1"
       id="circle31" />
    <path
       d="m 181.33333,128 a 32.035,32.035 0 0 1 -32,-32 h 21.33334 A 10.666665,10.666665 0 1 0 192,96 h 21.33333 a 32.035,32.035 0 0 1 -32,32 z"
       style="fill:#8caba1;fill-opacity:1"
       id="path31" />
    <circle
       cx="362.66666"
       cy="106.66667"
       r="21.33333"
       style="fill:#4b726e"
       id="circle32" />
    <circle
       cx="330.66666"
       cy="96"
       r="32"
       style="fill:#4b726e"
       id="circle33" />
    <path
       d="m 330.66667,128 a 32.035,32.035 0 0 1 -32,-32 H 320 A 10.66667,10.66667 0 1 0 330.66667,85.33333 V 64 a 32,32 0 0 1 0,64 z"
       style="fill:#8caba1;fill-opacity:1"
       id="path33" />
    <rect
       x="128"
       y="149.33333"
       width="21.33333"
       height="21.33333"
       style="fill:#8caba1;fill-opacity:1"
       id="rect33" />
    <rect
       x="362.66666"
       y="149.33333"
       width="21.33333"
       height="21.33333"
       style="fill:#8caba1;fill-opacity:1"
       id="rect34" />
    <rect
       x="192"
       y="85.333328"
       width="64"
       height="21.33333"
       style="fill:#4b726e"
       id="rect35" />
    <rect
       x="213.33333"
       y="42.666672"
       width="21.33333"
       height="21.33333"
       style="fill:#4b726e"
       id="rect36" />
  </g>
</svg>
