<svg xmlns="http://www.w3.org/2000/svg" viewBox="0 0 512 512" preserveAspectRatio="xMidYMid meet">
<title>Afro Male Scientist</title>
<g id="afro-male-scientist" data-name="Afro Male Scientist">
    <rect
       x="298.66666"
       y="192"
       width="21.33333"
       height="21.33333"
       style="fill:#4b3d44"
       id="rect18" />
    <rect
       x="341.33334"
       y="192"
       width="42.666672"
       height="64"
       rx="21.333309"
       ry="21.333309"
       style="fill:#79444a;fill-opacity:1"
       id="rect1" />
    <rect
       x="128"
       y="192"
       width="42.666672"
       height="64"
       rx="21.333309"
       ry="21.333309"
       style="fill:#79444a;fill-opacity:1"
       id="rect2" />
    <path
       d="m 192,277.33333 v 64 a 21.33334,21.33334 0 0 1 -21.33333,21.33334 h -64 A 85.33333,85.33333 0 0 0 21.33333,448 v 42.66667 H 490.66667 V 448 a 85.33333,85.33333 0 0 0 -85.33334,-85.33333 h -64 A 21.33334,21.33334 0 0 1 320,341.33333 v -64 z"
       style="fill:#79444a;fill-opacity:1"
       id="path2" />
    <path
       d="M 341.33333,362.66667 A 21.33356,21.33356 0 0 1 320,341.33333 v -64 h -64 v 85.33334 h 21.33333 V 384 h -42.66666 v 21.33331 a 21.33333,21.33333 0 1 0 42.66666,0 h 85.33334 v -42.66664 z"
       style="fill:#79444a;fill-opacity:1"
       id="path3" />
    <path
       d="m 234.66667,426.66667 v 64 h 256 V 448 a 85.33333,85.33333 0 0 0 -85.33334,-85.33333 h -64 L 320,341.33333 298.66667,362.66667 Z"
       style="fill:#b3a555"
       id="path4" />
    <polygon
       points="256,490.667 256,405.333 298.667,362.667 362.667,362.667 362.667,426.667 277.333,490.667 "
       style="fill:#b3a555"
       id="polygon4" />
    <path
       d="m 192,341.33333 21.33333,21.33334 64,64 v 64 h -256 V 448 a 85.33333,85.33333 0 0 1 85.33334,-85.33333 h 64 z"
       style="fill:#b3a555"
       id="path5" />
    <path
       d="M 170.66667,341.33333 H 192 l -21.33333,21.33334 v 128 H 21.33333 V 448 a 85.33333,85.33333 0 0 1 85.33334,-85.33333 h 42.66669 z"
       style="fill:#4b726e;fill-opacity:1"
       id="path6" />
    <path
       d="m 320,341.33333 21.33333,21.33329 v 128 H 490.66667 V 448 a 85.33333,85.33333 0 0 0 -85.33334,-85.33333 h -42.66669 l -21.33331,-21.33334 z"
       style="fill:#4b726e;fill-opacity:1"
       id="path7" />
    <path
       d="m 362.66664,362.66667 c 0,0 85.33336,21.33333 106.66669,128 H 362.66666 Z"
       style="fill:#4b726e"
       id="path8" />
    <path
       d="m 341.33333,341.33333 c 0,0 64,21.33334 85.33334,85.33334 L 384,448 l 42.66667,42.66667 h -85.33334 z"
       style="fill:#8caba1"
       id="path9" />
    <path
       d="m 170.66667,341.33333 c 0,0 -64,21.33334 -85.33334,85.33334 L 128,448 85.33333,490.66667 h 85.33334 z"
       style="fill:#8caba1"
       id="path10" />
    <polygon
       points="170.667,490.667 149.333,490.667 149.333,384 170.667,362.667 "
       style="fill:#8caba1"
       id="polygon10" />
    <polygon
       points="362.667,490.667 341.333,490.667 341.333,362.667 362.667,384 "
       style="fill:#8caba1"
       id="polygon11" />
    <path
       d="M 64,490.66667 H 42.66667 V 448 a 64.07,64.07 0 0 1 64,-64 v 21.33333 A 42.70887,42.70887 0 0 0 64,448 Z"
       style="fill:#8caba1;fill-opacity:1"
       id="path11" />
    <polygon
       points="192,426.667 277.333,426.667 234.667,384 192,384 "
       style="fill:#b3a555"
       id="polygon12" />
    <rect
       x="149.33333"
       y="42.666672"
       width="213.33333"
       height="298.66656"
       rx="106.66656"
       ry="106.66656"
       style="fill:#ae5d40"
       id="rect12" />
    <path
       d="m 320,64.48307 v 84.85026 h -42.66667 v 21.33334 H 320 v 42.66659 a 21.33333,21.33333 0 0 1 21.33333,21.33333 v 8e-5 A 21.33333,21.33333 0 0 1 320,256 h -64 v 64 h 21.33333 v 19.18359 a 106.69065,106.69065 0 0 0 85.33334,-104.51692 v -85.33334 c 0,-34.78385 -16.90104,-65.3789 -42.66667,-84.85026 z"
       style="fill:#79444a;fill-opacity:1"
       id="path12" />
    <path
       d="m 149.33333,213.33333 h 21.33334 v -128 C 170.66667,85.33333 192,64 256,64 c 64,0 85.33333,21.33333 85.33333,21.33333 v 128 h 21.33331 L 362.66669,192 384,170.66667 V 149.33321 A 127.99987,127.99987 0 0 0 256.00013,21.33333 h -2.6e-4 A 127.99987,127.99987 0 0 0 128,149.33321 v 21.33346 L 149.33331,192 Z"
       style="fill:#ab9b8e;fill-opacity:1"
       id="path13" />
    <path
       d="m 256,21.33333 a 128.80171,128.80171 0 0 0 -15.50651,1.02995 c -3.27344,6.7487 -5.82682,14.4336 -5.82682,22.444 a 44.113,44.113 0 0 0 5.1302,19.86719 C 244.974,64.34766 250.11979,64 256,64 c 64,0 85.33333,21.33333 85.33333,21.33333 v 128 h 21.33334 V 192 L 384,170.66667 v -21.33334 a 127.99966,127.99966 0 0 0 -128,-128 z"
       style="fill:#847875;fill-opacity:1"
       id="path14" />
    <rect
       x="149.33333"
       y="85.333328"
       width="21.33333"
       height="21.33333"
       style="fill:#ab9b8e"
       id="rect14" />
    <rect
       x="149.33333"
       y="128"
       width="21.33333"
       height="21.33333"
       style="fill:#ab9b8e"
       id="rect15" />
    <rect
       x="341.33334"
       y="85.333328"
       width="21.33333"
       height="21.33333"
       style="fill:#ab9b8e;fill-opacity:1"
       id="rect16" />
    <rect
       x="341.33334"
       y="128"
       width="21.33333"
       height="21.33333"
       style="fill:#ab9b8e;fill-opacity:1"
       id="rect17" />
    <rect
       x="276.07382"
       y="188.5363"
       width="65.416969"
       height="81.712181"
       style="fill:#79444a;fill-opacity:1;stroke-width:2.42334"
       id="rect25" />
    <circle
       cx="202.66667"
       cy="224"
       r="32"
       style="fill:#8caba1"
       id="circle17" />
    <polygon
       points="277.333,192 320,192 320,170.667 256,170.667 256,234.667 234.667,234.667 234.667,256 277.333,256 "
       style="fill:#79444a;fill-opacity:1"
       id="polygon18"
       transform="matrix(1.0391389,0,0,1.0078278,-9.1846093,-2.0039119)" />
    <circle
       cx="309.33334"
       cy="224"
       r="32"
       style="fill:#8caba1"
       id="circle18" />
    <rect
       x="234.66667"
       y="277.33334"
       width="42.666672"
       height="21.333349"
       style="fill:#4b3d44;fill-opacity:1"
       id="rect20" />
    <rect
       x="192"
       y="149.33333"
       width="132.13274"
       height="21.33333"
       style="fill:#79444a;fill-opacity:1;stroke-width:1.43686"
       id="rect21" />
    <rect
       x="213.33333"
       y="106.66667"
       width="85.333328"
       height="21.33333"
       style="fill:#79444a;fill-opacity:1"
       id="rect22" />
    <rect
       x="192"
       y="128"
       width="128"
       height="21.33333"
       style="fill:#ae5d40;fill-opacity:1"
       id="rect23" />
    <polygon
       points="170.667,405.333 234.667,384 192,341.333 170.667,362.667 "
       style="fill:#d2c9a5"
       id="polygon25" />
    <circle
       cx="245.33333"
       cy="437.33334"
       r="10.66667"
       style="fill:#77743b"
       id="circle25" />
    <polygon
       points="341.333,362.667 320,341.333 277.333,384 341.333,405.333 "
       style="fill:#d2c9a5;fill-opacity:1"
       id="polygon26" />
    <rect
       x="256"
       y="448"
       width="21.33333"
       height="42.666672"
       style="fill:#d2c9a5"
       id="rect26" />
  </g>
</svg>
