<svg xmlns="http://www.w3.org/2000/svg" viewBox="0 0 512 512" preserveAspectRatio="xMidYMid meet">
  <title>Asian Old Man</title>
  <g id="asian-old-man" data-name="Asian Old Man">
    <rect
       x="128"
       y="149.33333"
       width="256"
       height="277.33334"
       style="fill:#ab9b8e"
       id="rect1" />
    <rect
       x="256"
       y="149.33333"
       width="128"
       height="277.33334"
       style="fill:#ab9b8e;fill-opacity:1"
       id="rect2" />
    <rect
       x="128"
       y="192"
       width="21.33333"
       height="106.66667"
       style="fill:#ab9b8e"
       id="rect3" />
    <rect
       x="149.33333"
       y="298.66666"
       width="21.33333"
       height="106.66667"
       style="fill:#ab9b8e;fill-opacity:1"
       id="rect4" />
    <rect
       x="170.66667"
       y="192"
       width="21.33333"
       height="192"
       style="fill:#847875;fill-opacity:1"
       id="rect5" />
    <rect
       x="320"
       y="192"
       width="21.33333"
       height="192"
       style="fill:#847875;fill-opacity:1"
       id="rect6" />
    <rect
       x="362.66666"
       y="277.33334"
       width="21.33333"
       height="106.66667"
       style="fill:#ab9b8e"
       id="rect7" />
    <rect
       x="341.33334"
       y="192"
       width="42.666672"
       height="64"
       rx="21.333309"
       ry="21.333309"
       style="fill:#c77b58"
       id="rect8" />
    <rect
       x="128"
       y="192"
       width="42.666672"
       height="64"
       rx="21.333309"
       ry="21.333309"
       style="fill:#c77b58"
       id="rect9" />
    <path
       d="m 192,277.33333 v 64 a 21.33334,21.33334 0 0 1 -21.33333,21.33334 h -64 A 85.33333,85.33333 0 0 0 21.33333,448 v 42.66667 H 490.66667 V 448 a 85.33333,85.33333 0 0 0 -85.33334,-85.33333 h -64 A 21.33334,21.33334 0 0 1 320,341.33333 v -64 z"
       style="fill:#c77b58"
       id="path9" />
    <path
       d="M 341.33333,362.66667 A 21.33356,21.33356 0 0 1 320,341.33333 v -64 h -64 v 85.33334 h 21.33333 V 384 h -42.66666 v 21.33331 a 21.33333,21.33333 0 1 0 42.66666,0 h 85.33334 v -42.66664 z"
       style="fill:#c77b58"
       id="path10" />
    <path
       d="m 170.66667,490.66667 h 320 V 448 a 85.33333,85.33333 0 0 0 -85.33334,-85.33333 h -64 L 320,341.33333 298.66667,362.66667 Z"
       style="fill:#ae5d40"
       id="path11" />
    <polygon
       points="384,490.667 341.333,490.667 256,405.333 277.333,384 "
       style="fill:#79444a"
       id="polygon11" />
    <polygon
       points="277.333,490.667 405.333,362.667 341.333,362.667 213.333,490.667 "
       style="fill:#79444a"
       id="polygon12" />
    <path
       d="m 192,341.33333 21.33333,21.33334 128,128 h -320 V 448 a 85.33333,85.33333 0 0 1 85.33334,-85.33333 h 64 z"
       style="fill:#ab9b8e"
       id="path12" />
    <polygon
       points="234.667,490.667 106.667,362.667 170.667,362.667 298.667,490.667 "
       style="fill:#ae5d40"
       id="polygon13" />
    <path
       d="M 64,490.66667 H 42.66667 V 448 a 64.07,64.07 0 0 1 64,-64 v 21.33333 A 42.71555,42.71555 0 0 0 64,448 Z"
       style="fill:#ae5d40;fill-opacity:1"
       id="path13" />
    <rect
       x="149.33333"
       y="42.666672"
       width="213.33333"
       height="298.66656"
       rx="106.66656"
       ry="106.66656"
       style="fill:#d1b187"
       id="rect13" />
    <path
       d="m 320,64.48307 v 84.85026 h -42.66667 v 21.33334 H 320 v 42.66659 a 21.33333,21.33333 0 0 1 21.33333,21.33333 v 8e-5 A 21.33333,21.33333 0 0 1 320,256 h -64 v 64 h 21.33333 v 19.18359 a 106.69065,106.69065 0 0 0 85.33334,-104.51692 v -85.33334 c 0,-34.78385 -16.90105,-65.3789 -42.66667,-84.85026 z"
       style="fill:#c77b58"
       id="path14" />
    <rect
       x="213.33333"
       y="277.33334"
       width="21.33333"
       height="42.666672"
       style="fill:#c77b58"
       id="rect14" />
    <rect
       x="277.33334"
       y="277.33334"
       width="21.33333"
       height="42.666672"
       style="fill:#c77b58"
       id="rect15" />
    <polygon
       points="277.333,256 277.333,192 320,192 320,170.667 256,170.667 256,234.667 234.667,234.667 234.667,256 "
       style="fill:#c77b58"
       id="polygon15" />
    <rect
       x="298.66666"
       y="192"
       width="21.33333"
       height="21.33333"
       style="fill:#4d4539"
       id="rect16" />
    <rect
       x="192"
       y="192"
       width="21.33333"
       height="21.33333"
       style="fill:#4d4539"
       id="rect17" />
    <rect
       x="234.66667"
       y="277.33334"
       width="42.666672"
       height="21.33333"
       style="fill:#79444a"
       id="rect18" />
    <rect
       x="192"
       y="149.33333"
       width="64"
       height="21.33333"
       style="fill:#c77b58"
       id="rect19" />
    <rect
       x="213.33333"
       y="106.66667"
       width="85.333328"
       height="21.33333"
       style="fill:#c77b58"
       id="rect20" />
    <rect
       x="192"
       y="128"
       width="128"
       height="21.33333"
       style="fill:#d1b187"
       id="rect21" />
    <rect
       x="192"
       y="277.33334"
       width="21.33333"
       height="149.33333"
       style="fill:#ab9b8e"
       id="rect22" />
    <rect
       x="298.66666"
       y="277.33334"
       width="21.33333"
       height="149.33333"
       style="fill:#ab9b8e"
       id="rect23" />
    <rect
       x="213.33333"
       y="256"
       width="85.333328"
       height="21.33333"
       style="fill:#ab9b8e"
       id="rect24" />
    <rect
       x="256"
       y="256"
       width="42.666672"
       height="21.33333"
       style="fill:#ab9b8e"
       id="rect25" />
    <path
       d="m 341.33333,213.33333 v -128 c 0,0 -42.66666,21.33334 -85.33333,21.33334 -42.66667,0 -85.33333,-21.33334 -85.33333,-21.33334 v 128 L 128,192 V 149.33333 A 127.99987,127.99987 0 0 1 255.99987,21.33346 h 2.6e-4 A 127.99987,127.99987 0 0 1 384,149.33333 V 192 Z"
       style="fill:#ab9b8e"
       id="path25" />
    <path
       d="M 256,21.33333 A 128.31776,128.31776 0 0 0 228.73438,24.3112 42.4902,42.4902 0 0 1 228.12891,103.8763 156.559,156.559 0 0 0 256,106.66667 c 42.66667,0 85.33333,-21.33334 85.33333,-21.33334 v 128 L 384,192 v -42.66667 a 127.99966,127.99966 0 0 0 -128,-128 z"
       style="fill:#ab9b8e"
       id="path26" />
    <rect
       x="341.33334"
       y="106.66667"
       width="21.33333"
       height="85.333328"
       style="fill:#ab9b8e"
       id="rect26" />
    <rect
       x="149.33333"
       y="106.66667"
       width="21.33333"
       height="85.333328"
       style="fill:#ab9b8e"
       id="rect27" />
    <rect
       x="192"
       y="64"
       width="64"
       height="21.33333"
       style="fill:#ab9b8e"
       id="rect28" />
    <rect
       x="277.33334"
       y="64"
       width="42.666672"
       height="21.33333"
       style="fill:#ab9b8e"
       id="rect29" />
  </g>
</svg>
