<svg xmlns="http://www.w3.org/2000/svg" viewBox="0 0 512 512" preserveAspectRatio="xMidYMid meet">
  <title>Asian Old Woman</title>
  <g id="asian-old-woman" data-name="Asian Old Woman">
    <circle
       cx="384"
       cy="106.66667"
       r="64"
       style="fill:#ab9b8e"
       id="circle1" />
    <path
       d="M 437.33333,106.66667 H 416 a 32.035,32.035 0 0 0 -32,-32 V 53.33333 a 53.39612,53.39612 0 0 1 53.33333,53.33334 z"
       style="fill:#ab9b8e"
       id="path1" />
    <circle
       cx="128"
       cy="106.66667"
       r="64"
       style="fill:#ab9b8e"
       id="circle2" />
    <path
       d="M 96,106.66667 H 74.66667 A 53.39612,53.39612 0 0 1 128,53.33333 v 21.33334 a 32.035,32.035 0 0 0 -32,32 z"
       style="fill:#ab9b8e"
       id="path2" />
    <circle
       cx="341.33334"
       cy="106.66667"
       r="64"
       style="fill:#79444a"
       id="circle3" />
    <circle
       cx="170.66667"
       cy="106.66667"
       r="64"
       style="fill:#79444a"
       id="circle4" />
    <rect
       x="341.33334"
       y="192"
       width="42.666672"
       height="64"
       rx="21.333309"
       ry="21.333309"
       style="fill:#c77b58"
       id="rect4" />
    <rect
       x="128"
       y="192"
       width="42.666672"
       height="64"
       rx="21.333309"
       ry="21.333309"
       style="fill:#c77b58"
       id="rect5" />
    <path
       d="m 192,277.33333 v 64 a 21.33334,21.33334 0 0 1 -21.33333,21.33334 h -64 A 85.33333,85.33333 0 0 0 21.33333,448 v 42.66667 H 490.66667 V 448 a 85.33333,85.33333 0 0 0 -85.33334,-85.33333 h -64 A 21.33334,21.33334 0 0 1 320,341.33333 v -64 z"
       style="fill:#c77b58"
       id="path5" />
    <path
       d="M 341.33333,362.66667 A 21.33356,21.33356 0 0 1 320,341.33333 v -64 h -85.33333 v 128 a 21.33333,21.33333 0 1 0 42.66666,0 h 85.33334 v -42.66666 z"
       style="fill:#c77b58"
       id="path6" />
    <path
       d="m 170.66667,341.33333 h 64 V 384 h 42.66666 v -42.66667 h 64 v 21.33334 h 64 A 85.33333,85.33333 0 0 1 490.66667,448 v 42.66667 H 21.33333 V 448 a 85.33333,85.33333 0 0 1 85.33334,-85.33333 h 64 z"
       style="fill:#79444a"
       id="path7" />
    <path
       d="m 384,362.66667 v 0 A 21.33331,21.33331 0 0 1 405.33333,384 v 21.33335 H 384 A 21.33331,21.33331 0 0 1 362.66667,384 v 0 A 21.33331,21.33331 0 0 1 384,362.66667 Z"
       style="fill:#79444a"
       id="path8" />
    <rect
       x="341.33334"
       y="384"
       width="85.333328"
       height="106.66667"
       style="fill:#79444a"
       id="rect8" />
    <rect
       x="149.33333"
       y="42.666672"
       width="213.33333"
       height="298.66656"
       rx="106.66656"
       ry="106.66656"
       style="fill:#d1b187"
       id="rect9" />
    <path
       d="m 320,64.48307 v 84.85026 h -42.66667 v 21.33334 H 320 v 42.66659 a 21.33333,21.33333 0 0 1 21.33333,21.33333 v 8e-5 A 21.33333,21.33333 0 0 1 320,256 h -64 v 64 h 21.33333 v 19.18359 a 106.69065,106.69065 0 0 0 85.33334,-104.51692 v -85.33334 c 0,-34.78385 -16.90104,-65.3789 -42.66667,-84.85026 z"
       style="fill:#c77b58"
       id="path9" />
    <polygon
       points="277.333,256 277.333,192 320,192 320,170.667 256,170.667 256,234.667 234.667,234.667 234.667,256 "
       style="fill:#c77b58"
       id="polygon9" />
    <rect
       x="298.66666"
       y="192"
       width="21.33333"
       height="21.33333"
       style="fill:#4d4539"
       id="rect10" />
    <rect
       x="192"
       y="192"
       width="21.33333"
       height="21.33333"
       style="fill:#4d4539"
       id="rect11" />
    <rect
       x="234.66667"
       y="277.33334"
       width="42.666672"
       height="21.33333"
       style="fill:#79444a"
       id="rect12" />
    <rect
       x="192"
       y="149.33333"
       width="64"
       height="21.33333"
       style="fill:#c77b58"
       id="rect13" />
    <rect
       x="213.33333"
       y="106.66667"
       width="85.333328"
       height="21.33333"
       style="fill:#c77b58"
       id="rect14" />
    <rect
       x="192"
       y="128"
       width="128"
       height="21.33333"
       style="fill:#d1b187"
       id="rect15" />
    <rect
       x="213.33333"
       y="277.33334"
       width="21.33333"
       height="42.666672"
       style="fill:#c77b58"
       id="rect16" />
    <rect
       x="277.33334"
       y="277.33334"
       width="21.33333"
       height="42.666672"
       style="fill:#c77b58"
       id="rect17" />
    <path
       d="m 106.66667,192 42.66666,21.33333 v -42.66677 l 21.33328,-21.33328 6e-5,-63.99995 h 42.66666 l 1.80325,1.80325 a 317.56177,317.56177 0 0 0 147.53,83.53007 h 9e-5 v 42.66666 L 405.33333,192 V 170.66652 A 149.33319,149.33319 0 0 0 256.00015,21.33333 h -3e-4 A 149.33319,149.33319 0 0 0 106.66667,170.66652 Z"
       style="fill:#ab9b8e"
       id="path17" />
    <path
       d="M 381.90625,159.79167 C 272.5,137.91667 207.51042,52.6875 204.80208,49.0625 l 17.0625,-12.80208 c 0.61459,0.82291 63.02084,82.375 164.22917,102.61458 z"
       style="fill:#ab9b8e"
       id="path18" />
    <path
       d="m 384,384 21.33333,106.66667 h -384 V 448 a 85.33333,85.33333 0 0 1 85.33334,-85.33333 h 64 v -21.33334 h 64 V 384 Z"
       style="fill:#79444a"
       id="path19" />
    <path
       d="m 448,448 h 21.33335 a 21.33331,21.33331 0 0 1 21.33331,21.33331 v 0 a 21.33331,21.33331 0 0 1 -21.33331,21.33331 v 0 A 21.33331,21.33331 0 0 1 448,469.33335 Z"
       transform="rotate(-90,469.33333,469.33333)"
       style="fill:#79444a"
       id="path20" />
    <path
       d="m 234.66667,469.33333 a 21.33272,21.33272 0 0 0 -21.33334,21.33334 H 256 a 21.33272,21.33272 0 0 0 -21.33333,-21.33334 z"
       style="fill:#ab9b8e"
       id="path21" />
    <path
       d="M 64,490.66667 H 42.66667 V 448 a 64.07,64.07 0 0 1 64,-64 v 21.33333 A 42.70887,42.70887 0 0 0 64,448 Z"
       style="fill:#79444a"
       id="path22" />
    <rect
       x="149.33333"
       y="85.333328"
       width="21.33333"
       height="21.33333"
       style="fill:#ab9b8e"
       id="rect22" />
    <rect
       x="149.33333"
       y="128"
       width="21.33333"
       height="21.33333"
       style="fill:#ab9b8e"
       id="rect23" />
    <rect
       x="128"
       y="170.66667"
       width="21.33333"
       height="21.33333"
       style="fill:#ab9b8e"
       id="rect24" />
    <rect
       x="362.66666"
       y="170.66667"
       width="21.33333"
       height="21.33333"
       style="fill:#ab9b8e"
       id="rect25" />
    <rect
       x="213.33333"
       y="341.33334"
       width="21.33333"
       height="42.666672"
       style="fill:#79444a"
       id="rect26" />
    <rect
       x="213.33333"
       y="362.66666"
       width="21.33333"
       height="21.33333"
       style="fill:#79444a"
       id="rect27" />
    <rect
       x="277.33334"
       y="341.33334"
       width="42.666672"
       height="21.33333"
       style="fill:#79444a"
       id="rect28" />
    <rect
       x="277.33334"
       y="341.33334"
       width="21.33333"
       height="42.666672"
       style="fill:#79444a"
       id="rect29" />
    <rect
       x="213.33333"
       y="384"
       width="149.33333"
       height="21.33333"
       style="fill:#ae5d40"
       id="rect30" />
    <rect
       x="128"
       y="362.66666"
       width="64"
       height="21.33333"
       style="fill:#79444a"
       id="rect31" />
    <rect
       x="362.66666"
       y="426.66666"
       width="64"
       height="21.33333"
       style="fill:#79444a"
       id="rect32" />
    <rect
       x="362.66666"
       y="469.33334"
       width="64"
       height="21.33333"
       style="fill:#79444a"
       id="rect33" />
    <rect
       x="384"
       y="426.66666"
       width="42.666672"
       height="21.33333"
       style="fill:#ab9b8e;fill-opacity:1"
       id="rect34" />
    <rect
       x="384"
       y="469.33334"
       width="42.666672"
       height="21.33333"
       style="fill:#ab9b8e;fill-opacity:1"
       id="rect35" />
    <path
       d="m 128,426.66667 v 0 A 21.33331,21.33331 0 0 1 149.33333,448 v 21.33335 H 128 A 21.33331,21.33331 0 0 1 106.66667,448 v 0 A 21.33331,21.33331 0 0 1 128,426.66667 Z"
       style="fill:#ab9b8e"
       id="path35" />
    <path
       d="m 320,384 v 0 a 21.33331,21.33331 0 0 1 21.33331,21.33331 v 0 A 21.33331,21.33331 0 0 1 320,426.66667 H 298.66667 V 405.33331 A 21.33331,21.33331 0 0 1 320,384 Z"
       style="fill:#ab9b8e"
       id="path36" />
  </g>
</svg>
