<svg xmlns="http://www.w3.org/2000/svg" viewBox="0 0 512 512" preserveAspectRatio="xMidYMid meet">
  <title>Asian Young Woman</title>
  <g id="asian-young-woman" data-name="Asian Young Woman">
    <rect
       x="106.66667"
       y="170.66667"
       width="298.66666"
       height="256"
       style="fill:#4d4539;fill-opacity:1"
       id="rect1" />
    <rect
       x="320"
       y="298.66666"
       width="21.33333"
       height="42.666672"
       style="fill:#4d4539;fill-opacity:1"
       id="rect2" />
    <rect
       x="341.33334"
       y="256"
       width="21.33333"
       height="106.66667"
       style="fill:#4d4539;fill-opacity:1"
       id="rect3" />
    <rect
       x="362.66666"
       y="213.33333"
       width="21.33333"
       height="149.33333"
       style="fill:#4d4539;fill-opacity:1"
       id="rect4" />
    <rect
       x="106.66667"
       y="170.66667"
       width="149.33333"
       height="213.33333"
       style="fill:#4d4539;fill-opacity:1"
       id="rect5" />
    <rect
       x="149.33333"
       y="256"
       width="21.33333"
       height="64"
       style="fill:#4d4539;fill-opacity:1"
       id="rect6" />
    <rect
       x="149.33333"
       y="341.33334"
       width="21.33333"
       height="64"
       style="fill:#4d4539;fill-opacity:1"
       id="rect7" />
    <rect
       x="341.33334"
       y="192"
       width="42.666672"
       height="64"
       rx="21.333309"
       ry="21.333309"
       style="fill:#c77b58"
       id="rect8" />
    <rect
       x="128"
       y="192"
       width="42.666672"
       height="64"
       rx="21.333309"
       ry="21.333309"
       style="fill:#c77b58"
       id="rect9" />
    <path
       d="m 192,277.33333 v 64 a 21.33334,21.33334 0 0 1 -21.33333,21.33334 h -64 A 85.33333,85.33333 0 0 0 21.33333,448 v 42.66667 H 490.66667 V 448 a 85.33333,85.33333 0 0 0 -85.33334,-85.33333 h -64 A 21.33334,21.33334 0 0 1 320,341.33333 v -64 z"
       style="fill:#c77b58"
       id="path9" />
    <path
       d="M 341.33333,362.66667 A 21.33356,21.33356 0 0 1 320,341.33333 v -64 h -85.33333 v 128 a 21.33333,21.33333 0 1 0 42.66666,0 h 85.33334 v -42.66666 z"
       style="fill:#c77b58"
       id="path10" />
    <path
       d="M 405.33333,362.66667 H 106.66667 A 85.33255,85.33255 0 0 0 21.33333,448 v 42.66667 H 490.66667 V 448 a 85.33255,85.33255 0 0 0 -85.33334,-85.33333 z"
       style="fill:#b3a555"
       id="path11" />
    <circle
       cx="362.66666"
       cy="469.33334"
       r="21.33333"
       style="fill:#77743b;fill-opacity:1"
       id="circle11" />
    <circle
       cx="234.66667"
       cy="426.66666"
       r="21.33333"
       style="fill:#77743b;fill-opacity:1"
       id="circle12" />
    <path
       d="m 426.66667,490.66667 a 21.33333,21.33333 0 1 1 42.66666,0 z"
       style="fill:#77743b;fill-opacity:1"
       id="path12" />
    <path
       d="M 64,490.66667 H 42.66667 V 448 a 64.07,64.07 0 0 1 64,-64 v 21.33333 A 42.70887,42.70887 0 0 0 64,448 Z"
       style="fill:#77743b;fill-opacity:1"
       id="path13" />
    <rect
       x="170.66667"
       y="362.66666"
       width="170.66667"
       height="42.666672"
       style="fill:#b3a555;fill-opacity:1"
       id="rect13" />
    <rect
       x="256"
       y="362.66666"
       width="85.333328"
       height="42.666672"
       style="fill:#b3a555;fill-opacity:1"
       id="rect14" />
    <rect
       x="170.66667"
       y="362.66666"
       width="64"
       height="21.33333"
       style="fill:#b3a555"
       id="rect15" />
    <rect
       x="149.33333"
       y="42.666672"
       width="213.33333"
       height="298.66656"
       rx="106.66656"
       ry="106.66656"
       style="fill:#d1b187"
       id="rect16" />
    <path
       d="m 320,64.48307 v 84.85026 h -42.66667 v 21.33334 H 320 v 42.66659 a 21.33333,21.33333 0 0 1 21.33333,21.33333 v 8e-5 A 21.33333,21.33333 0 0 1 320,256 h -64 v 64 h 21.33333 v 19.18359 a 106.69065,106.69065 0 0 0 85.33334,-104.51692 v -85.33334 c 0,-34.78385 -16.90105,-65.3789 -42.66667,-84.85026 z"
       style="fill:#c77b58"
       id="path16" />
    <polygon
       points="277.333,256 277.333,192 320,192 320,170.667 256,170.667 256,234.667 234.667,234.667 234.667,256 "
       style="fill:#c77b58"
       id="polygon16" />
    <rect
       x="298.66666"
       y="192"
       width="21.33333"
       height="21.33333"
       style="fill:#4d4539"
       id="rect17" />
    <rect
       x="192"
       y="192"
       width="21.33333"
       height="21.33333"
       style="fill:#4d4539"
       id="rect18" />
    <rect
       x="234.66667"
       y="277.33334"
       width="42.666672"
       height="21.33333"
       style="fill:#79444a"
       id="rect19" />
    <path
       d="m 405.33333,405.33333 v -64 h -42.66666 v 21.33334 H 341.3333 V 341.33333 H 320 v 85.33334 A 21.33333,21.33333 0 0 1 298.66667,448 h -21.33334 a 42.69585,42.69585 0 0 0 49.83257,42.08251 c 20.9781,-3.41275 35.5008,-23.11239 35.50078,-44.36627 v -19.04957 a 42.66667,42.66667 0 0 0 85.33333,0 h -21.33334 a 21.33334,21.33334 0 0 1 -21.33334,-21.33334 z"
       style="fill:#4d4539;fill-opacity:1"
       id="path19" />
    <rect
       x="362.66666"
       y="277.33334"
       width="21.33333"
       height="149.33333"
       style="fill:#4d4539;fill-opacity:1"
       id="rect20" />
    <rect
       x="333.80936"
       y="342.10947"
       width="48.305214"
       height="50.098904"
       style="fill:#4d4539;fill-opacity:1"
       id="rect20-5" />
    <path
       d="M 106.66656,176.92928 C 106.666,95.16151 169.67369,23.85654 251.40464,21.40273 A 149.33525,149.33525 0 0 1 405.33333,170.66667 V 192 l -42.66666,21.33333 V 170.66667 H 298.6666 a 63.99993,63.99993 0 0 1 -63.99993,-63.99994 v -6e-5 h -21.33334 a 64,64 0 0 1 -64,64 v 42.66666 L 106.66667,192 Z"
       style="fill:#4d4539;fill-opacity:1"
       id="path20" />
    <rect
       x="213.33333"
       y="85.333328"
       width="21.33333"
       height="25.269369"
       style="fill:#d1b187;fill-opacity:1;stroke-width:1.08835"
       id="rect21" />
    <path
       d="m 384,149.33333 h -64 a 64.07,64.07 0 0 1 -64,-64 V 64 h 21.33333 V 85.33333 A 42.70887,42.70887 0 0 0 320,128 h 64 z"
       style="fill:#4d4539;fill-opacity:1"
       id="path21" />
    <path
       d="M 106.66667,176.92708 V 192 l 42.66666,21.33333 v -42.66666 a 63.99983,63.99983 0 0 0 64,-64 V 27.96224 C 150.94531,47.457 106.66667,108.4375 106.66667,176.92708 Z"
       style="fill:#4d4539;fill-opacity:1"
       id="path22" />
    <circle
       cx="266.66666"
       cy="394.66666"
       r="10.66667"
       style="fill:#b3a555"
       id="circle22" />
    <rect
       x="106.66667"
       y="170.66667"
       width="21.33333"
       height="192"
       style="fill:#4d4539;fill-opacity:1"
       id="rect22" />
    <rect
       x="106.66667"
       y="192"
       width="21.33333"
       height="64"
       style="fill:#4d4539;fill-opacity:1"
       id="rect23" />
    <circle
       cx="149.33333"
       cy="469.33334"
       r="21.33333"
       style="fill:#77743b;fill-opacity:1"
       id="circle23" />
    <circle
       cx="448"
       cy="405.33334"
       r="21.33333"
       style="fill:#77743b;fill-opacity:1"
       id="circle24" />
    <circle
       cx="64"
       cy="469.33334"
       r="21.33333"
       style="fill:#77743b;fill-opacity:1"
       id="circle25" />
    <rect
       x="42.666672"
       y="448"
       width="21.33333"
       height="42.666672"
       style="fill:#77743b;fill-opacity:1"
       id="rect25" />
    <path
       d="m 149.33333,362.66667 a 21.33333,21.33333 0 1 1 -42.66666,0 z"
       style="fill:#77743b;fill-opacity:1"
       id="path25" />
    <rect
       x="320"
       y="320"
       width="21.33333"
       height="85.333328"
       style="fill:#4d4539;fill-opacity:1"
       id="rect26" />
    <path
       d="M 405.33333,469.33333 A 42.70885,42.70885 0 0 1 362.66667,426.66667 H 384 a 21.33334,21.33334 0 0 0 42.66667,0 H 448 a 42.70886,42.70886 0 0 1 -42.66667,42.66666 z"
       style="fill:#4d4539;fill-opacity:1"
       id="path26" />
    <path
       d="M 298.66667,469.33333 V 448 A 21.36113,21.36113 0 0 0 320,426.66667 v -32 h 21.33333 v 32 a 42.70885,42.70885 0 0 1 -42.66666,42.66666 z"
       style="fill:#4d4539;fill-opacity:1"
       id="path27" />
    <path
       d="M 149.33333,170.66667 H 128 A 127.63827,127.63827 0 0 1 197.78125,56.6875 l 9.72917,18.97917 a 106.39917,106.39917 0 0 0 -58.17709,95 z"
       style="fill:#4d4539;fill-opacity:1"
       id="path28" />
  </g>
</svg>
