<svg xmlns="http://www.w3.org/2000/svg" viewBox="0 0 512 512" preserveAspectRatio="xMidYMid meet">
  <title>Business Woman</title>
  <g id="business-woman" data-name="Business Woman">
    <circle
       cx="192"
       cy="362.66666"
       r="64"
       style="fill:#4b3d44;fill-opacity:1"
       id="circle1" />
    <path
       d="M 170.66667,362.66667 H 149.33333 A 42.70887,42.70887 0 0 1 192,320 v 21.33333 a 21.36112,21.36112 0 0 0 -21.33333,21.33334 z"
       style="fill:#4b3d44;fill-opacity:1"
       id="path1" />
    <rect
       x="128"
       y="21.33333"
       width="256"
       height="319.99988"
       rx="127.99987"
       ry="127.99987"
       style="fill:#4b3d44;fill-opacity:1"
       id="rect1" />
    <rect
       x="128"
       y="192"
       width="21.33333"
       height="21.33333"
       style="fill:#79444a;fill-opacity:1"
       id="rect2" />
    <rect
       x="341.33334"
       y="192"
       width="42.666672"
       height="64"
       rx="21.333309"
       ry="21.333309"
       style="fill:#c77b58"
       id="rect3" />
    <rect
       x="128"
       y="192"
       width="42.666672"
       height="64"
       rx="21.333309"
       ry="21.333309"
       style="fill:#c77b58"
       id="rect4" />
    <path
       d="m 192,277.33333 v 64 a 21.33334,21.33334 0 0 1 -21.33333,21.33334 h -64 A 85.33333,85.33333 0 0 0 21.33333,448 v 42.66667 H 490.66667 V 448 a 85.33333,85.33333 0 0 0 -85.33334,-85.33333 h -64 A 21.33334,21.33334 0 0 1 320,341.33333 v -64 z"
       style="fill:#c77b58"
       id="path4" />
    <path
       d="M 362.66667,490.66667 H 149.33333 V 448 C 149.33333,448 192,469.33333 256,469.33333 320,469.33333 362.66667,448 362.66667,448 Z"
       style="fill:#8caba1"
       id="path5" />
    <path
       d="m 106.66667,362.66667 h 64 v 128 H 21.33333 V 448 a 85.33333,85.33333 0 0 1 85.33334,-85.33333 z"
       style="fill:#4b726e"
       id="path6" />
    <path
       d="m 192,341.33333 c 0,0 -64,21.33334 -85.33333,85.33334 L 149.33333,448 106.66667,490.66667 H 192 Z"
       style="fill:#4b726e"
       id="path7" />
    <path
       d="M 341.33333,362.66667 A 21.33356,21.33356 0 0 1 320,341.33333 v -64 h -85.33333 v 128 a 21.33333,21.33333 0 1 0 42.66666,0 h 85.33334 v -42.66666 z"
       style="fill:#c77b58"
       id="path8" />
    <path
       d="m 341.33333,362.66667 h 149.33334 v 128 h -64 a 85.33333,85.33333 0 0 1 -85.33333,-85.33333 v -42.66667 z"
       transform="rotate(180,416,426.66667)"
       style="fill:#4b726e"
       id="path9" />
    <path
       d="m 341.33333,362.66667 c 0,0 42.66667,21.33333 85.33334,64 32,32 42.66666,64 42.66666,64 h -128 z"
       style="fill:#4b726e"
       id="path10" />
    <path
       d="M 64,490.66667 H 42.66667 V 448 a 64.07,64.07 0 0 1 64,-64 v 21.33333 A 42.70887,42.70887 0 0 0 64,448 Z"
       style="fill:#8caba1"
       id="path11" />
    <rect
       x="149.33333"
       y="42.666672"
       width="213.33333"
       height="298.66656"
       rx="106.66656"
       ry="106.66656"
       style="fill:#d1b187"
       id="rect11" />
    <path
       d="m 320,64.48307 v 84.85026 h -42.66667 v 21.33334 H 320 v 42.66659 a 21.33333,21.33333 0 0 1 21.33333,21.33333 v 8e-5 A 21.33333,21.33333 0 0 1 320,256 h -64 v 64 h 21.33333 v 19.18359 a 106.69065,106.69065 0 0 0 85.33334,-104.51692 v -85.33334 c 0,-34.78385 -16.90105,-65.3789 -42.66667,-84.85026 z"
       style="fill:#c77b58"
       id="path12" />
    <polygon
       points="277.333,256 277.333,192 320,192 320,170.667 256,170.667 256,234.667 234.667,234.667 234.667,256 "
       style="fill:#c77b58"
       id="polygon12" />
    <rect
       x="298.66666"
       y="191.77734"
       width="21.33333"
       height="21.33333"
       style="fill:#4d4539"
       id="rect12" />
    <rect
       x="192"
       y="192"
       width="21.33333"
       height="21.33333"
       style="fill:#4d4539"
       id="rect13" />
    <rect
       x="234.66667"
       y="277.33334"
       width="42.666672"
       height="21.33333"
       style="fill:#79444a"
       id="rect14" />
    <path
       d="m 320,341.33333 c 0,0 64,21.33334 85.33333,85.33334 L 362.66667,448 405.33333,490.66667 H 320 Z"
       style="fill:#4b726e"
       id="path14" />
    <path
       d="m 256.00013,21.33333 h -2.6e-4 A 127.99987,127.99987 0 0 0 128,149.33321 V 192 h 85.3335 a 85.33312,85.33312 0 0 0 85.33312,-85.33316 v -9e-5 -8e-5 H 320 c 0,0 0,26.87629 21.33092,48.63249 a 79.19065,79.19065 0 0 0 21.33575,15.36751 V 192 H 384 V 149.33321 A 127.99987,127.99987 0 0 0 256.00013,21.33333 Z"
       style="fill:#4b3d44;fill-opacity:1"
       id="path15" />
    <path
       d="M 228.459,24.38708 C 168.77266,37.65634 128,93.31858 128,154.4621 V 192 h 85.3336 a 85.33307,85.33307 0 0 0 85.33307,-85.33307 V 28.77344 A 126.06565,126.06565 0 0 0 228.459,24.38708 Z"
       style="fill:#79444a;fill-opacity:1"
       id="path16" />
    <rect
       x="170.66667"
       y="362.66666"
       width="21.33333"
       height="128"
       style="fill:#4b726e"
       id="rect16" />
    <rect
       x="320"
       y="362.66666"
       width="21.33333"
       height="128"
       style="fill:#4b726e"
       id="rect17" />
    <path
       d="m 192,462.04557 v 28.6211 h 21.33333 v -24.651 c -7.6302,-1.1615 -14.88411,-2.47921 -21.33333,-3.9701 z"
       style="fill:#8caba1"
       id="path17" />
    <path
       d="M 170.66667,149.33333 H 149.33333 A 106.79223,106.79223 0 0 1 256,42.66667 V 64 a 85.4311,85.4311 0 0 0 -85.33333,85.33333 z"
       style="fill:#4b3d44;fill-opacity:1"
       id="path18" />
    <path
       d="m 213.33333,192 h -64 v -21.33333 h 64 a 64.07,64.07 0 0 0 64,-64 V 85.33333 h 21.33334 v 21.33334 A 85.43111,85.43111 0 0 1 213.33333,192 Z"
       style="fill:#4b3d44"
       id="path19" />
    <rect
       x="294.41602"
       y="85.333038"
       width="27.011059"
       height="21.33333"
       style="fill:#4b3d44;fill-opacity:1;stroke-width:1.12523"
       id="rect12-5" />
  </g>
</svg>
