<svg xmlns="http://www.w3.org/2000/svg" viewBox="0 0 512 512" preserveAspectRatio="xMidYMid meet">
  <title>Business Man</title>
  <g id="business-man" data-name="Business Man">

    <rect
       x="341.33334"
       y="192"
       width="42.666672"
       height="64"
       rx="21.333309"
       ry="21.333309"
       style="fill:#c77b58"
       id="rect1" />
    <rect
       x="128"
       y="192"
       width="42.666672"
       height="64"
       rx="21.333309"
       ry="21.333309"
       style="fill:#c77b58"
       id="rect2" />
    <path
       d="m 192,277.33333 v 64 a 21.33334,21.33334 0 0 1 -21.33333,21.33334 h -64 A 85.33333,85.33333 0 0 0 21.33333,448 v 42.66667 H 490.66667 V 448 a 85.33333,85.33333 0 0 0 -85.33334,-85.33333 h -64 A 21.33334,21.33334 0 0 1 320,341.33333 v -64 z"
       style="fill:#c77b58"
       id="path2" />
    <path
       d="M 341.33333,362.66667 A 21.33356,21.33356 0 0 1 320,341.33333 v -64 h -64 v 85.33334 h 21.33333 V 384 h -42.66666 v 21.33331 a 21.33333,21.33333 0 1 0 42.66666,0 h 85.33334 v -42.66664 z"
       style="fill:#c77b58"
       id="path3" />
    <path
       d="M 256,384 V 490.66667 H 490.66667 V 448 a 85.33333,85.33333 0 0 0 -85.33334,-85.33333 h -64 L 320,341.33333 Z"
       style="fill:#8caba1"
       id="path4" />
    <polygon
       points="256,490.667 256,426.667 277.333,405.333 341.333,405.333 298.667,448 298.667,490.667 "
       style="fill:#4b726e"
       id="polygon4" />
    <path
       d="M 192,341.33333 256,384 V 490.66667 H 21.33333 V 448 a 85.33333,85.33333 0 0 1 85.33334,-85.33333 h 64 z"
       style="fill:#8caba1"
       id="path5" />
    <rect
       x="170.66667"
       y="405.33334"
       width="21.33333"
       height="85.333328"
       style="fill:#8caba1"
       id="rect5" />
    <polygon
       points="213.333,490.667 298.667,490.667 277.333,426.667 301.334,406.667 256,384 213.333,405.333 234.667,426.667 "
       style="fill:#79444a"
       id="polygon5" />
    <rect
       x="234.66667"
       y="384"
       width="42.666672"
       height="21.33333"
       style="fill:#79444a"
       id="rect6" />
    <rect
       x="234.66667"
       y="448"
       width="21.33333"
       height="42.666672"
       style="fill:#79444a"
       id="rect7" />
    <rect
       x="234.66667"
       y="426.66666"
       width="42.666672"
       height="21.33333"
       style="fill:#79444a"
       id="rect9" />
    <rect
       x="256"
       y="405.33334"
       width="21.33333"
       height="21.33333"
       style="fill:#79444a"
       id="rect10" />
    <path
       d="M 170.66667,341.33333 H 192 l -21.33333,21.33334 v 128 H 21.33333 V 448 a 85.33333,85.33333 0 0 1 85.33334,-85.33333 h 42.66669 z"
       style="fill:#4b726e"
       id="path10" />
    <path
       d="m 320,341.33333 21.33333,21.33329 v 128 H 490.66667 V 448 a 85.33333,85.33333 0 0 0 -85.33334,-85.33333 h -42.66669 l -21.33331,-21.33334 z"
       style="fill:#4b726e"
       id="path11" />
    <path
       d="m 362.66664,362.66667 c 0,0 85.33336,21.33333 106.66669,128 H 362.66666 Z"
       style="fill:#4b726e"
       id="path12" />
    <path
       d="M 64,490.66667 H 42.66667 V 448 a 64.07,64.07 0 0 1 64,-64 v 21.33333 A 42.70887,42.70887 0 0 0 64,448 Z"
       style="fill:#8caba1"
       id="path13" />
    <rect
       x="149.33333"
       y="42.666672"
       width="213.33333"
       height="298.66656"
       rx="106.66656"
       ry="106.66656"
       style="fill:#d1b187"
       id="rect13" />
    <path
       d="m 320,64.48307 v 84.85026 h -42.66667 v 21.33334 H 320 v 42.66659 a 21.33333,21.33333 0 0 1 21.33333,21.33333 v 8e-5 A 21.33333,21.33333 0 0 1 320,256 h -64 v 64 h 21.33333 v 19.18359 a 106.69065,106.69065 0 0 0 85.33334,-104.51692 v -85.33334 c 0,-34.78385 -16.90105,-65.3789 -42.66667,-84.85026 z"
       style="fill:#c77b58"
       id="path14" />
    <polygon
       points="277.333,256 277.333,192 320,192 320,170.667 256,170.667 256,234.667 234.667,234.667 234.667,256 "
       style="fill:#c77b58"
       id="polygon14" />
    <rect
       x="298.66666"
       y="192"
       width="21.33333"
       height="21.33333"
       style="fill:#4d4539"
       id="rect14" />
    <rect
       x="192"
       y="192"
       width="21.33333"
       height="21.33333"
       style="fill:#4d4539"
       id="rect15" />
    <rect
       x="234.66667"
       y="277.33334"
       width="42.666672"
       height="21.33333"
       style="fill:#79444a"
       id="rect16" />
    <polygon
       points="170.667,426.667 256,384 192,341.333 170.667,362.667 "
       style="fill:#8caba1"
       id="polygon16" />
    <polygon
       points="341.333,362.667 320,341.333 256,384 341.333,426.667 "
       style="fill:#8caba1"
       id="polygon17" />
    <path
       d="m 170.66667,341.33333 c 0,0 -64,21.33334 -85.33334,85.33334 L 128,448 85.33333,490.66667 h 85.33334 z"
       style="fill:#4b726e"
       id="path17" />
    <path
       d="m 341.33333,341.33333 c 0,0 64,21.33334 85.33334,85.33334 L 384,448 l 42.66667,42.66667 h -85.33334 z"
       style="fill:#4b726e"
       id="path18" />
    <polygon
       points="170.667,490.667 149.333,490.667 149.333,384 170.667,362.667 "
       style="fill:#4b726e"
       id="polygon18" />
    <polygon
       points="362.667,490.667 341.333,490.667 341.333,362.667 362.667,384 "
       style="fill:#4b726e"
       id="polygon19" />
    <path
       d="m 170.66667,64 c 0,0 -21.33334,0 -21.33334,-21.33333 0,-21.33333 21.33334,-21.33334 21.33334,-21.33334 0,0 0,21.33334 21.33333,21.33334 21.33333,0 42.66667,-21.33334 85.33333,-21.33334 64,0 85.33334,42.66667 85.33334,64 0,0 42.66666,21.33334 42.66666,64 0,42.66666 -42.66666,42.66667 -42.66666,42.66667 v 21.33333 H 341.33333 V 106.66667 L 320,85.98824 c 0,0 -32,10.01176 -64,42.01176 0,0 -42.66667,0 -64,-42.66667 l -21.33333,21.33334 V 213.33331 H 149.33333 V 192 c 0,0 -42.66666,0 -42.66666,-42.66667 0,-64 64,-85.33333 64,-85.33333 z"
       style="fill:#4b3d44"
       id="path19" />
    <path
       d="m 248.35417,108.8125 -7.14584,-2.97917 c -28.5625,-11.97916 -47.15625,-46 -47.92708,-47.4375 l 18.77083,-10.13541 c 0.13542,0.26041 12.84375,23.375 31.0625,34.61458 11.73959,-11.5625 39.95834,-35.59375 75.54167,-40.125 l 2.6875,21.16667 c -37.9375,4.83333 -67.63542,38.70833 -67.9375,39.05208 z"
       style="fill:#79444a;fill-opacity:1"
       id="path20" />
    <path
       d="M 106.66667,149.33333 C 106.66667,192 149.33333,192 149.33333,192 v 21.33333 h 21.33334 V 106.66667 L 192,85.33333 170.66667,64 c 0,0 -64,21.33333 -64,85.33333 z"
       style="fill:#79444a;fill-opacity:1"
       id="path21" />
    <rect
       x="149.33333"
       y="106.66667"
       width="21.33333"
       height="21.33333"
       style="fill:#79444a;fill-opacity:1"
       id="rect21" />
    <rect
       x="149.33333"
       y="149.33333"
       width="21.33333"
       height="21.33333"
       style="fill:#79444a;fill-opacity:1"
       id="rect22" />
    <rect
       x="341.33334"
       y="149.33333"
       width="21.33333"
       height="21.33333"
       style="fill:#4b3d44;fill-opacity:1"
       id="rect23" />
    <rect
       x="341.33334"
       y="106.66667"
       width="21.33333"
       height="21.33333"
       style="fill:#4b3d44;fill-opacity:1"
       id="rect24" />
  </g>
</svg>
