<svg xmlns="http://www.w3.org/2000/svg" viewBox="0 0 512 512" preserveAspectRatio="xMidYMid meet">
  <title>Clown</title>
  <g id="clown" data-name="Clown">
    <path
       d="M 149.33333,128 C 128,128 128,149.33333 128,149.33333 c 0,0 -21.33333,0 -21.33333,21.33334 0,0 -21.33334,0 -21.33334,21.33333 0,21.33333 21.33334,21.33333 21.33334,21.33333 0,0 -21.33334,0 -21.33334,21.33334 0,21.33334 21.33334,21.33333 21.33334,21.33333 0,0 0,21.33333 21.33333,21.33333 v 0 c 0,0 0,21.33334 21.33333,21.33334 0,0 0,21.33333 21.33334,21.33333 0,0 0,21.334 21.33333,21.334 h 42.66667 V 128 Z"
       style="fill:#79444a"
       id="path1" />
    <path
       d="M 362.66667,128 C 384,128 384,149.33333 384,149.33333 c 0,0 21.33333,0 21.33333,21.33334 0,0 21.33334,0 21.33334,21.33333 0,21.33333 -21.33334,21.33333 -21.33334,21.33333 0,0 21.33334,0 21.33334,21.33334 0,21.33334 -21.33334,21.33333 -21.33334,21.33333 0,0 0,21.33333 -21.33333,21.33333 v 0 c 0,0 0,21.33334 -21.33333,21.33334 0,0 0,21.33333 -21.33334,21.33333 0,0 0,21.334 -21.33333,21.334 H 277.33333 V 128 Z"
       style="fill:#79444a"
       id="path2" />
    <circle
       cx="373.33334"
       cy="245.33333"
       r="32"
       style="fill:#79444a"
       id="circle2" />
    <circle
       cx="341.33334"
       cy="277.33334"
       r="21.33333"
       style="fill:#79444a"
       id="circle3" />
    <rect
       x="341.33334"
       y="192"
       width="42.666672"
       height="64"
       rx="21.333309"
       ry="21.333309"
       style="fill:#c77b58"
       id="rect3" />
    <rect
       x="128"
       y="192"
       width="42.666672"
       height="64"
       rx="21.333309"
       ry="21.333309"
       style="fill:#c77b58"
       id="rect4" />
    <path
       d="m 192,277.33333 v 64 a 21.33334,21.33334 0 0 1 -21.33333,21.33334 h -64 A 85.33333,85.33333 0 0 0 21.33333,448 v 42.66667 H 490.66667 V 448 a 85.33333,85.33333 0 0 0 -85.33334,-85.33333 h -64 A 21.33334,21.33334 0 0 1 320,341.33333 v -64 z"
       style="fill:#c77b58"
       id="path4" />
    <rect
       x="149.33333"
       y="405.33334"
       width="85.333328"
       height="42.666672"
       rx="21.333309"
       ry="21.333309"
       style="fill:#d1b187"
       id="rect5" />
    <circle
       cx="213.33333"
       cy="426.66666"
       r="21.33333"
       style="fill:#d1b187"
       id="circle5" />
    <path
       d="M 341.33333,362.66667 A 21.33334,21.33334 0 0 1 320,341.33333 v -64 h -85.33333 v 128 a 21.33333,21.33333 0 1 0 42.66666,0 H 384 A 21.33331,21.33331 0 0 0 405.33333,384 v 0 A 21.33331,21.33331 0 0 0 384,362.66667 Z"
       style="fill:#c77b58"
       id="path5" />
    <path
       d="m 405.33333,362.66667 h -64 a 85.33333,85.33333 0 1 1 -170.66666,0 h -64 A 85.33255,85.33255 0 0 0 21.33333,448 v 42.66667 H 490.66667 V 448 a 85.33255,85.33255 0 0 0 -85.33334,-85.33333 z"
       style="fill:#8caba1"
       id="path6" />
    <path
       d="M 64,490.66667 H 42.66667 V 448 a 64.07,64.07 0 0 1 64,-64 v 21.33333 A 42.72225,42.72225 0 0 0 64,448 Z"
       style="fill:#8caba1"
       id="path7" />
    <circle
       cx="74.666672"
       cy="416"
       r="32"
       style="fill:#b3a555"
       id="circle7" />
    <circle
       cx="170.66667"
       cy="448"
       r="21.33333"
       style="fill:#b3a555"
       id="circle8" />
    <circle
       cx="416"
       cy="458.66666"
       r="32"
       style="fill:#b3a555"
       id="circle9" />
    <path
       d="M 42.66667,469.33333 A 21.33272,21.33272 0 0 0 21.33333,490.66667 H 64 A 21.33272,21.33272 0 0 0 42.66667,469.33333 Z"
       style="fill:#b3a555"
       id="path9" />
    <circle
       cx="437.33334"
       cy="394.66666"
       r="10.66667"
       style="fill:#b3a555"
       id="circle10" />
    <rect
       x="128"
       y="362.66666"
       width="42.666672"
       height="21.33333"
       style="fill:#8caba1"
       id="rect10" />
    <path
       d="m 65.4375,436.97917 -20.625,-5.5 a 64.05511,64.05511 0 0 1 46.04167,-45.5 l 5.25,20.66666 A 42.71341,42.71341 0 0 0 65.4375,436.97917 Z"
       style="fill:#d2c9a5"
       id="path10" />
    <path
       d="M 256,490.66667 V 469.33333 A 106.79223,106.79223 0 0 0 362.66667,362.66667 H 384 a 128.14,128.14 0 0 1 -128,128 z"
       style="fill:#8caba1"
       id="path11" />
    <rect
       x="149.33333"
       y="42.666672"
       width="213.33333"
       height="298.66656"
       rx="106.66656"
       ry="106.66656"
       style="fill:#d1b187"
       id="rect11" />
    <path
       d="m 320,64.48307 v 84.85026 h -42.66667 v 21.33334 H 320 v 42.66659 a 21.33333,21.33333 0 0 1 21.33333,21.33333 v 8e-5 A 21.33333,21.33333 0 0 1 320,256 h -64 v 64 h 21.33333 v 19.18359 a 106.69065,106.69065 0 0 0 85.33334,-104.51692 v -85.33334 c 0,-34.78385 -16.90104,-65.3789 -42.66667,-84.85026 z"
       style="fill:#d1b187"
       id="path12" />
    <rect
       x="170.66667"
       y="149.33333"
       width="64"
       height="106.66667"
       rx="31.999969"
       ry="31.999969"
       style="fill:#8caba1"
       id="rect12" />
    <ellipse
       cx="298.66666"
       cy="85.333328"
       rx="49.159599"
       ry="75.98278"
       transform="rotate(-45,298.66667,85.333337)"
       style="fill:#b3a555;fill-opacity:1"
       id="ellipse12" />
    <ellipse
       cx="320"
       cy="85.333328"
       rx="30.679819"
       ry="51.946991"
       transform="rotate(-45,319.99999,85.333333)"
       style="fill:#b3a555;fill-opacity:1"
       id="ellipse13" />
    <path
       d="m 277.33333,42.61478 8.07852,-8.07851 a 45.25477,45.25477 0 0 1 63.99993,0 l 7e-5,6e-5 a 45.2548,45.2548 0 0 1 0,63.99994 l -8.07852,8.07851 h -6e-5 A 63.99994,63.99994 0 0 1 277.33333,42.61484 Z"
       style="fill:#79444a"
       id="path13" />
    <path
       d="m 349.41146,98.53646 a 44.84183,44.84183 0 0 0 12.85807,-27.85677 v 0 a 45.18267,45.18267 0 0 0 -55.52474,6.52343 l -10.66667,10.66667 a 63.79713,63.79713 0 0 0 45.25521,18.74479 z"
       style="fill:#79444a"
       id="path14" />
    <ellipse
       cx="320"
       cy="42.666672"
       rx="19.246429"
       ry="23.232491"
       transform="rotate(-45,320,42.666669)"
       style="fill:#79444a"
       id="ellipse14" />
    <path
       d="m 324.9375,149.33333 c -19.625,0 -43.02083,-11.20833 -61.04167,-29.22916 -29.625,-29.64584 -38.125,-69.33334 -18.95833,-88.5 l 15.08333,15.08333 c -9.10416,9.10417 -2.79166,36.5625 18.95834,58.33333 13.95833,13.95834 32,22.97917 45.95833,22.97917 z"
       style="fill:#b3a555;fill-opacity:1"
       id="path15" />
    <polygon
       points="320,192 320,170.667 256,170.667 256,213.333 277.333,213.333 277.333,192 "
       style="fill:#c77b58"
       id="polygon15" />
    <rect
       x="277.33334"
       y="149.33333"
       width="64"
       height="106.66667"
       rx="31.999969"
       ry="31.999969"
       style="fill:#8caba1"
       id="rect15" />
    <rect
       x="277.33334"
       y="170.66667"
       width="42.666672"
       height="21.33333"
       style="fill:#8caba1"
       id="rect16" />
    <rect
       x="298.66666"
       y="192"
       width="21.33333"
       height="21.33333"
       style="fill:#4d4539"
       id="rect17" />
    <rect
       x="192"
       y="192"
       width="21.33333"
       height="21.33333"
       style="fill:#4d4539"
       id="rect18" />
    <path
       d="M 256,277.33333 C 256,277.33333 234.66667,256 213.33333,256 191.99999,256 192,277.33333 192,277.33333 c 0,0 0,21.33334 21.33333,21.33334 h 85.33334 C 320,298.66667 320,277.33333 320,277.33333 320,256 298.66667,256 298.66667,256 277.33333,256 256,277.33333 256,277.33333 Z"
       style="fill:#79444a"
       id="path18" />
    <circle
       cx="256"
       cy="234.66667"
       r="21.33333"
       style="fill:#79444a"
       id="circle18" />
    <polygon
       points="426.667,490.667 405.333,362.667 362.667,362.667 362.667,448 149.653,448 149.333,362.667 106.667,362.667 85.333,490.667 "
       style="fill:#79444a"
       id="polygon18" />
    <rect
       x="106.66667"
       y="362.66666"
       width="42.666672"
       height="21.33333"
       style="fill:#79444a"
       id="rect19" />
    <rect
       x="149.33333"
       y="448"
       width="213.33333"
       height="21.33333"
       style="fill:#79444a"
       id="rect20" />
    <rect
       x="128"
       y="384"
       width="21.33333"
       height="64"
       style="fill:#79444a"
       id="rect21" />
    <rect
       x="362.66666"
       y="362.66666"
       width="21.33333"
       height="85.333328"
       style="fill:#79444a"
       id="rect22" />
    <path
       d="m 42.66667,469.33333 v 21.33334 H 64 A 21.33272,21.33272 0 0 0 42.66667,469.33333 Z"
       style="fill:#d2c9a5"
       id="path22" />
    <rect
       x="234.66667"
       y="277.33334"
       width="42.666672"
       height="21.33333"
       style="fill:#8caba1"
       id="rect23" />
    <path
       d="m 128,192 c 0,0 0,21.33333 21.33333,21.33333 21.33333,0 21.33334,-21.33333 21.33334,-21.33333 V 149.33333 C 170.66667,128 149.33333,128 149.33333,128 c 0,0 -21.33333,0 -21.33333,21.33333 0,0 -21.33333,0 -21.33333,21.33334 C 106.66667,192.00001 128,192 128,192 Z"
       style="fill:#79444a"
       id="path23" />
    <path
       d="m 384,192 c 0,0 0,21.33333 -21.33333,21.33333 C 341.33334,213.33333 341.33333,192 341.33333,192 V 149.33333 C 341.33333,128 362.66667,128 362.66667,128 c 0,0 21.33333,0 21.33333,21.33333 0,0 21.33333,0 21.33333,21.33334 C 405.33333,192.00001 384,192 384,192 Z"
       style="fill:#79444a"
       id="path24" />
    <rect
       x="341.33334"
       y="149.33333"
       width="21.33333"
       height="42.666672"
       style="fill:#79444a"
       id="rect24" />
    <rect
       x="149.33333"
       y="149.33333"
       width="21.33333"
       height="42.666672"
       style="fill:#79444a"
       id="rect25" />
    <path
       d="m 469.33333,469.33333 a 21.33356,21.33356 0 0 0 21.33334,21.33334 V 448 a 21.33272,21.33272 0 0 0 -21.33334,21.33333 z"
       style="fill:#b3a555"
       id="path25" />
  </g>
</svg>
