<svg xmlns="http://www.w3.org/2000/svg" viewBox="0 0 512 512" preserveAspectRatio="xMidYMid meet">
  <title>Criminal</title>
  <g id="criminal" data-name="Criminal">
<rect
       x="341.33334"
       y="192"
       width="42.666672"
       height="64"
       rx="21.333309"
       ry="21.333309"
       style="fill:#79444a;fill-opacity:1"
       id="rect1" />
    <rect
       x="128"
       y="192"
       width="42.666672"
       height="64"
       rx="21.333309"
       ry="21.333309"
       style="fill:#79444a;fill-opacity:1"
       id="rect2" />
    <path
       d="m 192,277.33333 v 64 a 21.33334,21.33334 0 0 1 -21.33333,21.33334 h -64 A 85.33333,85.33333 0 0 0 21.33333,448 v 42.66667 H 490.66667 V 448 a 85.33333,85.33333 0 0 0 -85.33334,-85.33333 h -64 A 21.33334,21.33334 0 0 1 320,341.33333 v -64 z"
       style="fill:#4b3d44"
       id="path2" />
    <path
       d="M 341.33333,362.66667 A 21.33356,21.33356 0 0 1 320,341.33333 v -64 h -64 v 85.33334 h 21.33333 V 384 h -42.66666 v 21.33333 a 21.33333,21.33333 0 1 0 42.66666,0 h 85.33334 v -42.66666 z"
       style="fill:#4b3d44"
       id="path3" />
    <path
       d="m 192,320 h 128 a 21.33333,21.33333 0 0 1 21.33333,21.33333 v 21.33334 h 64 A 85.33333,85.33333 0 0 1 490.66667,448 v 42.66667 H 21.33333 V 448 a 85.33333,85.33333 0 0 1 85.33334,-85.33333 h 64 V 341.33333 A 21.33333,21.33333 0 0 1 192,320 Z"
       style="fill:#574852;fill-opacity:1"
       id="path4" />
    <path
       d="m 256,362.66667 a 106.39486,106.39486 0 0 1 -71.13542,-27.1875 l 14.22917,-15.875 c 31.32292,28 82.52083,28.02083 113.83333,-0.0208 l 14.22917,15.875 A 106.42809,106.42809 0 0 1 256,362.66667 Z"
       style="fill:#ab9b8e;fill-opacity:1"
       id="path5" />
    <path
       d="m 256,362.66667 a 106.39486,106.39486 0 0 1 -71.13542,-27.1875 l 14.22917,-15.875 A 85.2673,85.2673 0 0 0 256,341.33333 Z"
       style="fill:#ab9b8e;fill-opacity:1"
       id="path6" />
    <rect
       x="149.33333"
       y="42.666672"
       width="213.33333"
       height="298.66656"
       rx="106.66656"
       ry="106.66656"
       style="fill:#ae5d40"
       id="rect6" />
    <path
       d="m 320,64.48307 v 84.85026 h -42.66667 v 21.33334 H 320 v 42.66659 a 21.33333,21.33333 0 0 1 21.33333,21.33333 v 8e-5 A 21.33333,21.33333 0 0 1 320,256 h -64 v 64 h 21.33333 v 19.18359 a 106.69065,106.69065 0 0 0 85.33334,-104.51692 v -85.33334 c 0,-34.78385 -16.90105,-65.3789 -42.66667,-84.85026 z"
       style="fill:#79444a;fill-opacity:1"
       id="path7" />
    <path
       d="M 186.625,185.10417 176.04167,166.5625 C 196.36458,154.97917 222.52083,149.33333 256,149.33333 h 21.33333 v 21.33334 H 256 c -29.67708,0 -52.36458,4.72916 -69.375,14.4375 z"
       style="fill:#79444a;fill-opacity:1"
       id="path8" />
    <path
       d="m 128,149.33333 v -1.2e-4 A 127.99987,127.99987 0 0 1 255.99987,21.33333 h 2.6e-4 A 127.99987,127.99987 0 0 1 384,149.33321 v 1.2e-4 z"
       style="fill:#574852;fill-opacity:1"
       id="path9" />
    <rect
       x="234.66667"
       y="21.33333"
       width="21.33333"
       height="85.333328"
       style="fill:#574852;fill-opacity:1"
       id="rect9" />
    <rect
       x="256"
       y="21.33333"
       width="21.33333"
       height="85.333328"
       style="fill:#574852;fill-opacity:1"
       id="rect10" />
    <rect
       x="256"
       y="64"
       width="21.33333"
       height="42.666672"
       style="fill:#574852;fill-opacity:1"
       id="rect11" />
    <rect
       x="277.33334"
       y="42.666672"
       width="21.33333"
       height="85.333328"
       style="fill:#574852;fill-opacity:1"
       id="rect12" />
    <rect
       x="277.33334"
       y="64"
       width="21.33333"
       height="64"
       style="fill:#574852;fill-opacity:1"
       id="rect13" />
    <rect
       x="298.66666"
       y="42.666672"
       width="21.33333"
       height="85.333328"
       style="fill:#574852;fill-opacity:1"
       id="rect14" />
    <rect
       x="298.66666"
       y="64"
       width="21.33333"
       height="64"
       style="fill:#574852;fill-opacity:1"
       id="rect15" />
    <rect
       x="341.33334"
       y="85.333328"
       width="21.33333"
       height="64"
       style="fill:#4b726e"
       id="rect16" />
    <rect
       x="320"
       y="64"
       width="21.33333"
       height="85.333328"
       style="fill:#574852;fill-opacity:1"
       id="rect17" />
    <rect
       x="341.33334"
       y="85.333328"
       width="21.33333"
       height="64"
       style="fill:#574852;fill-opacity:1"
       id="rect18" />
    <rect
       x="192"
       y="42.666672"
       width="21.33333"
       height="64"
       style="fill:#574852;fill-opacity:1"
       id="rect19" />
    <rect
       x="213.33333"
       y="42.666672"
       width="21.33333"
       height="64"
       style="fill:#574852;fill-opacity:1"
       id="rect20" />
    <rect
       x="149.33333"
       y="85.333328"
       width="21.33333"
       height="42.666672"
       style="fill:#574852;fill-opacity:1"
       id="rect21" />
    <rect
       x="170.66667"
       y="64"
       width="21.33333"
       height="64"
       style="fill:#574852;fill-opacity:1"
       id="rect22" />
    <rect
       x="341.33334"
       y="170.66667"
       width="21.33333"
       height="42.666649"
       style="fill:#4b3d44;fill-opacity:1"
       id="rect23" />
    <rect
       x="149.33333"
       y="170.6666"
       width="21.33333"
       height="42.666729"
       style="fill:#4b3d44;fill-opacity:1"
       id="rect24" />
    <polygon
       points="277.333,256 277.333,192 320,192 320,170.667 256,170.667 256,234.667 234.667,234.667 234.667,256 "
       style="fill:#79444a;fill-opacity:1"
       id="polygon24" />
    <rect
       x="298.66666"
       y="192"
       width="21.33333"
       height="21.33333"
       style="fill:#4b3d44"
       id="rect25" />
    <rect
       x="192"
       y="192"
       width="21.33333"
       height="21.33333"
       style="fill:#4b3d44"
       id="rect26" />
    <rect
       x="234.66667"
       y="277.33334"
       width="42.666672"
       height="21.33333"
       style="fill:#4b3d44;fill-opacity:1"
       id="rect27" />
    <path
       d="M 64,490.66667 H 42.66667 V 448 a 64.07,64.07 0 0 1 64,-64 v 21.33333 A 42.71556,42.71556 0 0 0 64,448 Z"
       style="fill:#4b3d44;fill-opacity:1"
       id="path27" />
    <path
       d="M 128,170.66666 149.33331,192 c 0,0 21.33336,-42.66667 106.66669,-42.66667 85.33333,0 106.66665,42.66667 106.66665,42.66667 L 384,170.66666 V 128 C 384,128 341.33333,85.33333 256,85.33333 170.66667,85.33333 128,128 128,128 Z"
       style="fill:#574852;fill-opacity:1"
       id="path28" />
    <path
       d="M 360.28125,187.35417 C 324.375,147.45833 257.0625,149.39583 256.375,149.33333 L 255.625,128 c 3.16667,0.0208 77.98958,-2.16667 120.51042,45.10417 z"
       style="fill:#574852;fill-opacity:1"
       id="path31" />
    <rect
       x="341.33334"
       y="128"
       width="21.33333"
       height="42.666672"
       style="fill:#574852;fill-opacity:1"
       id="rect31" />
    <rect
       x="320"
       y="106.66667"
       width="21.33333"
       height="42.666672"
       style="fill:#000000;fill-opacity:0"
       id="rect32" />
    <rect
       x="298.66666"
       y="106.66667"
       width="21.33333"
       height="42.666672"
       style="fill:#574852;fill-opacity:1"
       id="rect33" />
    <rect
       x="277.33334"
       y="106.66667"
       width="21.33333"
       height="42.666672"
       style="fill:#574852;fill-opacity:1"
       id="rect34" />
    <rect
       x="256"
       y="106.66667"
       width="21.33333"
       height="42.666672"
       style="fill:#574852;fill-opacity:1"
       id="rect35" />
    <rect
       x="234.66667"
       y="106.66667"
       width="21.33333"
       height="42.666672"
       style="fill:#574852;fill-opacity:1"
       id="rect36" />
    <rect
       x="213.33333"
       y="106.66667"
       width="21.33333"
       height="42.666672"
       style="fill:#574852;fill-opacity:1"
       id="rect37" />
    <rect
       x="192"
       y="106.66667"
       width="21.33333"
       height="42.666672"
       style="fill:#574852;fill-opacity:1"
       id="rect38" />
    <rect
       x="170.66667"
       y="106.66667"
       width="21.33333"
       height="42.666672"
       style="fill:#574852;fill-opacity:1"
       id="rect39" />
    <rect
       x="149.33333"
       y="128"
       width="21.33333"
       height="42.666672"
       style="fill:#574852;fill-opacity:1"
       id="rect40" />
    <rect
       x="298.66666"
       y="405.33334"
       width="21.33333"
       height="85.333328"
       style="fill:#4b3d44;fill-opacity:1"
       id="rect41" />
    <path
       d="M 142.79167,143.77083 127.89583,128.47917 C 171.66667,85.83333 252.57292,85.33333 256,85.33333 l 0.0104,21.33334 c -0.76042,0 -75.70834,0.54166 -113.21875,37.10416 z"
       style="fill:#4b3d44;fill-opacity:1"
       id="path30" />
    <path
       d="M 369.20833,143.77083 C 331.58333,107.08333 256.75,106.66667 256,106.66667 V 85.33333 c 3.42708,0 84.33333,0.5 128.10417,43.14584 z"
       style="fill:#4b3d44;fill-opacity:1"
       id="path29" />
    <rect
       x="234.66667"
       y="405.33334"
       width="21.33333"
       height="85.333328"
       style="fill:#4b3d44;fill-opacity:1"
       id="rect44" />
    <rect
       x="149.33333"
       y="362.66666"
       width="21.33333"
       height="128"
       style="fill:#4b3d44;fill-opacity:1"
       id="rect48" />
    <rect
       x="341.33334"
       y="362.66666"
       width="21.33333"
       height="128"
       style="fill:#4b3d44;fill-opacity:1"
       id="rect53" />
    <rect
       x="384"
       y="384"
       width="21.33333"
       height="106.66667"
       style="fill:#4b3d44;fill-opacity:1"
       id="rect55" />
    <rect
       x="426.66666"
       y="384"
       width="21.33333"
       height="106.66667"
       style="fill:#4b3d44;fill-opacity:1"
       id="rect57" />
    <path
       d="M 298.66667,426.66667 H 256 v -21.33334 h 42.66667 a 42.71554,42.71554 0 0 0 42.66666,-42.66666 h 21.33334 a 64.07,64.07 0 0 1 -64,64 z"
       style="fill:#4b3d44;fill-opacity:1"
       id="path60" />
    <path
       d="m 256,426.66667 h -42.66667 a 64.07,64.07 0 0 1 -64,-64 h 21.33334 a 42.71554,42.71554 0 0 0 42.66666,42.66666 H 256 Z"
       style="fill:#4b3d44;fill-opacity:1"
       id="path61" />
  </g>
</svg>
