<svg xmlns="http://www.w3.org/2000/svg" viewBox="0 0 512 512" preserveAspectRatio="xMidYMid meet">
  <title>Female Scientist</title>
  <g id="female-scientist" data-name="Female Scientist">
    <path
       d="M 128,149.33321 C 128,191.99987 106.66667,234.66667 64,256 c 0,0 42.66667,106.66667 192,85.33333 v -192 z"
       style="fill:#ab9b8e"
       id="path1" />
    <path
       d="m 124.875,295.54167 -15.09375,-15.07292 c 0.19792,-0.19792 20.5,-20.89583 40.67708,-61.23958 l 19.08334,9.54166 C 147.6875,272.47917 125.80208,294.625 124.875,295.54167 Z"
       style="fill:#84787e;fill-opacity:1"
       id="path2" />
    <path
       d="m 167.54167,316.875 -15.09375,-15.07292 c 0.19791,-0.19791 20.5,-20.89583 40.67708,-61.23958 l 19.08333,9.54167 c -21.85416,43.70833 -43.73958,65.85416 -44.66666,66.77083 z"
       style="fill:#84787e;fill-opacity:1"
       id="path3" />
    <path
       d="m 384,149.33321 c 0,42.66666 21.33333,85.33346 64,106.66679 0,0 -42.66667,106.66667 -192,85.33333 v -192 z"
       style="fill:#84787e;fill-opacity:1"
       id="path4" />
    <path
       d="m 387.125,295.54167 c -0.92708,-0.91667 -22.8125,-23.0625 -44.66667,-66.77084 l 19.08334,-9.54166 c 20.17708,40.34375 40.47916,61.04166 40.67708,61.23958 z"
       style="fill:#ab9b8e;fill-opacity:1"
       id="path5" />
    <path
       d="m 344.45833,316.875 c -0.92708,-0.91667 -22.8125,-23.0625 -44.66666,-66.77083 L 318.875,240.5625 c 20.17708,40.34375 40.47917,61.04167 40.67708,61.23958 z"
       style="fill:#ab9b8e;fill-opacity:1"
       id="path6" />
    <rect
       x="341.33334"
       y="192"
       width="42.666672"
       height="64"
       rx="21.333309"
       ry="21.333309"
       style="fill:#c77b58"
       id="rect6" />
    <rect
       x="128"
       y="192"
       width="42.666672"
       height="64"
       rx="21.333309"
       ry="21.333309"
       style="fill:#c77b58"
       id="rect7" />
    <path
       d="m 192,277.33333 v 64 a 21.33334,21.33334 0 0 1 -21.33333,21.33334 h -64 A 85.33333,85.33333 0 0 0 21.33333,448 v 42.66667 H 490.66667 V 448 a 85.33333,85.33333 0 0 0 -85.33334,-85.33333 h -64 A 21.33334,21.33334 0 0 1 320,341.33333 v -64 z"
       style="fill:#c77b58"
       id="path7" />
    <path
       d="M 341.33333,362.66667 A 21.33356,21.33356 0 0 1 320,341.33333 v -64 H 256 V 384 h -21.33333 v 21.33331 a 21.33333,21.33333 0 1 0 42.66666,0 h 85.33334 v -42.66664 z"
       style="fill:#c77b58"
       id="path8" />
    <path
       d="m 234.66667,426.66667 v 64 h 256 V 448 a 85.33333,85.33333 0 0 0 -85.33334,-85.33333 h -64 L 320,341.33333 298.66667,362.66667 Z"
       style="fill:#ab9b8e;fill-opacity:1"
       id="path9" />
    <path
       d="M 362.66667,362.66675 A 85.33325,85.33325 0 0 1 277.33342,448 H 256 v -42.66667 l 42.66667,-42.66666 h 64 z"
       style="fill:#ab9b8e;fill-opacity:1"
       id="path10" />
    <path
       d="m 234.66667,426.66667 h 42.66673 a 63.99993,63.99993 0 0 0 63.99993,-63.99994 v -6e-5 L 320,341.33333 Z"
       style="fill:#574852;fill-opacity:1"
       id="path11" />
    <path
       d="m 192,341.33333 21.33333,21.33334 64,64 v 64 h -256 V 448 a 85.33333,85.33333 0 0 1 85.33334,-85.33333 h 64 z"
       style="fill:#ab9b8e;fill-opacity:1"
       id="path12" />
    <path
       d="M 170.66667,341.33333 H 192 l -21.33333,21.33334 v 128 H 21.33333 V 448 a 85.33333,85.33333 0 0 1 85.33334,-85.33333 h 42.66669 z"
       style="fill:#4b726e;fill-opacity:1"
       id="path13" />
    <path
       d="m 320,341.33333 21.33333,21.33329 v 128 H 490.66667 V 448 a 85.33333,85.33333 0 0 0 -85.33334,-85.33333 h -42.66669 l -21.33331,-21.33334 z"
       style="fill:#4b726e;fill-opacity:1"
       id="path14" />
    <path
       d="m 362.66664,362.66667 c 0,0 85.33336,21.33333 106.66669,128 H 362.66666 Z"
       style="fill:#4b726e"
       id="path15" />
    <path
       d="m 341.33333,341.33333 c 0,0 64,21.33334 85.33334,85.33334 L 384,448 l 42.66667,42.66667 h -85.33334 z"
       style="fill:#8caba1"
       id="path16" />
    <path
       d="m 170.66667,341.33333 c 0,0 -64,21.33334 -85.33334,85.33334 L 128,448 85.33333,490.66667 h 85.33334 z"
       style="fill:#8caba1"
       id="path17" />
    <polygon
       points="170.667,490.667 149.333,490.667 149.333,384 170.667,362.667 "
       style="fill:#8caba1"
       id="polygon17" />
    <polygon
       points="362.667,490.667 341.333,490.667 341.333,362.667 362.667,384 "
       style="fill:#8caba1"
       id="polygon18" />
    <path
       d="m 192,341.33333 -21.33333,21.33334 v 8e-5 A 85.33324,85.33324 0 0 0 255.99991,448 h 21.3334 v -21.33333 z"
       style="fill:#574852;fill-opacity:1"
       id="path19" />
    <rect
       x="149.33333"
       y="42.666672"
       width="213.33333"
       height="298.66656"
       rx="106.66656"
       ry="106.66656"
       style="fill:#d1b187"
       id="rect19" />
    <path
       d="m 320,64.48307 v 84.85026 h -42.66667 v 21.33334 H 320 v 42.66659 a 21.33333,21.33333 0 0 1 21.33333,21.33333 v 8e-5 A 21.33333,21.33333 0 0 1 320,256 h -64 v 64 h 21.33333 v 19.18359 a 106.69065,106.69065 0 0 0 85.33334,-104.51692 v -85.33334 c 0,-34.78385 -16.90105,-65.3789 -42.66667,-84.85026 z"
       style="fill:#c77b58"
       id="path20" />
    <rect
       x="276.07382"
       y="190.4256"
       width="66.361633"
       height="83.916367"
       style="fill:#c77b58"
       id="rect28" />
    <circle
       cx="202.66667"
       cy="224"
       r="32"
       style="fill:#8caba1"
       id="circle20" />
    <circle
       cx="309.33334"
       cy="224"
       r="32"
       style="fill:#8caba1"
       id="circle21" />
    <polygon
       points="277.333,256 277.333,192 320,192 320,170.667 256,170.667 256,234.667 234.667,234.667 234.667,256 "
       style="fill:#c77b58"
       id="polygon21" />
    <rect
       x="234.66667"
       y="277.33334"
       width="42.666672"
       height="21.333349"
       style="fill:#79444a"
       id="rect23" />
    <rect
       x="192"
       y="149.33333"
       width="64"
       height="21.33333"
       style="fill:#c77b58"
       id="rect24" />
    <rect
       x="213.33333"
       y="106.66667"
       width="85.333328"
       height="21.33333"
       style="fill:#c77b58"
       id="rect25" />
    <rect
       x="192"
       y="128"
       width="128"
       height="21.33333"
       style="fill:#d1b187"
       id="rect26" />
    <path
       d="m 192,341.33333 -21.33333,21.33334 v 6e-5 a 63.99993,63.99993 0 0 0 63.99993,63.99994 h 42.66673 z"
       style="fill:#574852;fill-opacity:1"
       id="path28" />
    <circle
       cx="245.33333"
       cy="458.66666"
       r="10.66667"
       style="fill:#574852;fill-opacity:1"
       id="circle28" />
    <rect
       x="256"
       y="448"
       width="21.33333"
       height="42.666672"
       style="fill:#574852;fill-opacity:1"
       id="rect29" />
    <path
       d="m 149.33333,213.33333 21.33334,-42.66666 v -64 H 192 v 6e-5 a 63.99994,63.99994 0 0 0 63.99994,63.99994 h 37.63066 a 77.18465,77.18465 0 0 1 69.036,42.66662 v 0 H 384 V 149.33321 A 127.99987,127.99987 0 0 0 256.00013,21.33333 h -2.6e-4 A 127.99987,127.99987 0 0 0 128,149.33321 v 64.00012 z"
       style="fill:#ab9b8e"
       id="path29" />
    <path
       d="m 192,106.66667 a 63.99984,63.99984 0 0 0 64,64 h 37.63021 a 77.18322,77.18322 0 0 1 69.03646,42.66666 H 384 v -64 A 127.84252,127.84252 0 0 0 192,38.59766 Z"
       style="fill:#84787e;fill-opacity:1"
       id="path30" />
    <path
       d="m 344.45833,188.875 c -0.0625,-0.0521 -20.1875,-18.20833 -77.79166,-18.20833 -46.75,0 -74.66667,-23.92709 -74.66667,-64 h 21.33333 c 0,35.26041 29,42.66666 53.33334,42.66666 66.5,0 90.375,21.95834 92.875,24.45834 z"
       style="fill:#ab9b8e;fill-opacity:1"
       id="path31" />
    <path
       d="M 341.33333,117.33333 H 320 C 320,80.39583 281.35417,64 266.66667,64 h -32 V 42.66667 h 32 c 26.80208,0 74.66666,24.94791 74.66666,74.66666 z"
       style="fill:#ab9b8e"
       id="path32" />
    <rect
       x="149.33333"
       y="106.66667"
       width="21.33333"
       height="64"
       style="fill:#ab9b8e"
       id="rect32" />
  </g>
</svg>
