<svg xmlns="http://www.w3.org/2000/svg" viewBox="0 0 512 512" preserveAspectRatio="xMidYMid meet">
  <title>Female Graduated Student</title>
  <g id="female-graduated-student" data-name="Female Graduated Student">
    <path
       d="m 85.33333,320 c 21.33334,0 21.33334,-21.33333 21.33334,-21.33333 V 270.0343 c 0,-17.44544 10.15118,-32.35731 24.66666,-42.0343 18,-12 18,-36 18,-36 H 256 V 405.33333 H 85.33333 Z"
       style="fill:#ae5d40"
       id="path1" />
    <path
       d="M 106.66667,405.33333 A 42.66671,42.66671 0 0 1 106.66667,320 21.3078,21.3078 0 0 0 128,298.72917 V 240.75 h 21.33333 v 57.97917 A 42.64884,42.64884 0 0 1 106.72917,341.33333 21.33336,21.33336 0 1 0 106.66667,384 Z"
       style="fill:#c77b58"
       id="path2" />
    <path
       d="M 384,149.33333 V 192 c 0,0 0,21.33333 21.33333,21.33333 21.33333,0 21.33334,21.33334 21.33334,21.33334 C 426.66667,256 405.33333,256 405.33333,256 c -21.33333,0 -21.334,21.33333 -21.334,21.33333 0,21.33334 21.334,21.33334 21.334,21.33334 21.33334,0 64,21.33333 64,64 0,42.66667 -21.33333,64 -64,64 H 256 V 149.33333"
       style="fill:#ae5d40;fill-opacity:1"
       id="path3" />
    <path
       d="m 362.66667,234.66667 v 42.66666 C 362.66667,320 405.33333,320 405.33333,320 426.66667,320 448,341.33333 448,362.66667 c 0,21.33334 -21.33333,42.66666 -42.66667,42.66666 H 298.66667 V 234.66667 Z"
       style="fill:#ae5d40;fill-opacity:1"
       id="path4" />
    <path
       d="M 448,128 256,234.66667 64,128 C 64,69.08963 149.96133,21.33333 256,21.33333 c 106.03867,0 192,47.7563 192,106.66667 z"
       style="fill:#79444a"
       id="path5" />
    <path
       d="m 384,149.33333 v -1.79166 A 104.41675,104.41675 0 0 0 354.97917,75.125 l 15.41666,-14.72917 a 125.536,125.536 0 0 1 34.9375,87.14584 z"
       style="fill:#79444a"
       id="path6" />
    <rect
       x="341.33334"
       y="192"
       width="42.666672"
       height="64"
       rx="21.333309"
       ry="21.333309"
       style="fill:#c77b58"
       id="rect6" />
    <rect
       x="128"
       y="192"
       width="42.666672"
       height="64"
       rx="21.333309"
       ry="21.333309"
       style="fill:#c77b58"
       id="rect7" />
    <path
       d="m 192,277.33333 v 64 a 21.33334,21.33334 0 0 1 -21.33333,21.33334 h -64 A 85.33333,85.33333 0 0 0 21.33333,448 v 42.66667 H 490.66667 V 448 a 85.33333,85.33333 0 0 0 -85.33334,-85.33333 h -64 A 21.33334,21.33334 0 0 1 320,341.33333 v -64 z"
       style="fill:#c77b58"
       id="path7" />
    <rect
       x="149.33333"
       y="405.33334"
       width="85.333328"
       height="42.666672"
       rx="21.333309"
       ry="21.333309"
       style="fill:#d1b187"
       id="rect8" />
    <circle
       cx="213.33333"
       cy="426.66666"
       r="21.33333"
       style="fill:#d1b187"
       id="circle8" />
    <path
       d="M 341.33333,362.66667 A 21.33356,21.33356 0 0 1 320,341.33333 v -64 H 256 V 384 h -21.33333 v 21.33333 a 21.33333,21.33333 0 1 0 42.66666,0 h 85.33334 v -42.66666 z"
       style="fill:#c77b58"
       id="path8" />
    <path
       d="M 256,384 V 490.66667 H 490.66667 V 448 a 85.33333,85.33333 0 0 0 -85.33334,-85.33333 h -64 L 320,341.33333 Z"
       style="fill:#4b3d44;fill-opacity:1"
       id="path9" />
    <path
       d="M 192,341.33333 256,384 V 490.66667 H 21.33333 V 448 a 85.33333,85.33333 0 0 1 85.33334,-85.33333 h 64 z"
       style="fill:#4b3d44;fill-opacity:1"
       id="path10" />
    <path
       d="m 341.33333,362.66667 h 149.33334 v 128 h -64 a 85.33333,85.33333 0 0 1 -85.33333,-85.33333 v -42.66667 z"
       transform="rotate(180,416,426.66667)"
       style="fill:#79444a"
       id="path11" />
    <rect
       x="362.66666"
       y="384"
       width="42.666672"
       height="106.66667"
       style="fill:#79444a"
       id="rect11" />
    <polygon
       points="256,384 320,341.333 341.333,362.667 341.333,405.333 341.333,469.333 256,426.667 "
       style="fill:#4b3d44;fill-opacity:1"
       id="polygon11" />
    <polygon
       points="170.667,426.667 256,384 192,341.333 170.667,362.667 "
       style="fill:#ab9b8e;fill-opacity:1"
       id="polygon12" />
    <polygon
       points="341.333,362.667 320,341.333 256,384 341.333,426.667 "
       style="fill:#ab9b8e;fill-opacity:1"
       id="polygon13" />
    <path
       d="m 106.66667,362.66667 h 64 v 128 H 21.33333 V 448 a 85.33333,85.33333 0 0 1 85.33334,-85.33333 z"
       style="fill:#79444a"
       id="path13" />
    <rect
       x="106.66667"
       y="362.66666"
       width="64"
       height="21.33333"
       style="fill:#79444a"
       id="rect13" />
    <rect
       x="149.33333"
       y="42.666672"
       width="213.33333"
       height="298.66656"
       rx="106.66656"
       ry="106.66656"
       style="fill:#d1b187"
       id="rect14" />
    <path
       d="m 320,64.48307 v 84.85026 h -42.66667 v 21.33334 H 320 v 42.66659 a 21.33333,21.33333 0 0 1 21.33333,21.33333 v 8e-5 A 21.33333,21.33333 0 0 1 320,256 h -64 v 64 h 21.33333 v 19.18359 a 106.69065,106.69065 0 0 0 85.33334,-104.51692 v -85.33334 c 0,-34.78385 -16.90105,-65.3789 -42.66667,-84.85026 z"
       style="fill:#c77b58"
       id="path14" />
    <polygon
       points="128,149.333 128,192 149.333,213.333 149.333,149.333 "
       style="fill:#c77b58;fill-opacity:1"
       id="polygon14" />
    <polygon
       points="384,192 384,149.333 362.667,149.333 362.667,213.333 "
       style="fill:#ae5d40;fill-opacity:1"
       id="polygon15" />
    <path
       d="M 384.00011,170.66708 V 149.33321 A 127.99987,127.99987 0 0 0 256.00024,21.33333 H 256 A 127.99988,127.99988 0 0 0 128.00011,149.33321 v 21.33387 c 0,0 42.66649,-21.33375 127.99982,-21.33375 85.33333,0 128.00018,21.33375 128.00018,21.33375 z"
       style="fill:#79444a"
       id="path15" />
    <path
       d="m 256,21.33333 v 128 c 85.33333,0 128,21.33334 128,21.33334 v -21.33334 a 127.99966,127.99966 0 0 0 -128,-128 z"
       style="fill:#79444a"
       id="path16" />
    <path
       d="m 369.75,165.40625 c -0.45833,-0.16667 -46,-16.07292 -113.75,-16.07292 -67.75,0 -113.29167,15.90625 -113.75,16.07292 L 135.08333,145.3125 C 137.04167,144.60417 184.29167,128 256,128 c 71.70833,0 118.95833,16.60417 120.91667,17.3125 z"
       style="fill:#4b3d44;fill-opacity:1"
       id="path17" />
    <path
       d="m 142.25,144.07292 -7.16667,-20.09375 c 1.95834,-0.70834 49.20834,-17.3125 120.91667,-17.3125 a 450.16844,450.16844 0 0 1 65.5625,4.75 l -3.125,21.10416 A 429.1499,429.1499 0 0 0 256,128 c -67.75,0 -113.29167,15.90625 -113.75,16.07292 z"
       style="fill:#ab9b8e;fill-opacity:1"
       id="path18" />
    <path
       d="m 259.1875,127.51042 -6.375,-20.35417 A 1041.8568,1041.8568 0 0 1 360.6875,80.875 l 3.95833,20.95833 A 1041.9018,1041.9018 0 0 0 259.1875,127.51042 Z"
       style="fill:#ab9b8e;fill-opacity:1"
       id="path19" />
    <polygon
       points="277.333,256 277.333,192 320,192 320,170.667 256,170.667 256,234.667 234.667,234.667 234.667,256 "
       style="fill:#c77b58"
       id="polygon19" />
    <rect
       x="298.66666"
       y="192"
       width="21.33333"
       height="21.33333"
       style="fill:#4d4539"
       id="rect19" />
    <rect
       x="192"
       y="192"
       width="21.33333"
       height="21.33333"
       style="fill:#4d4539"
       id="rect20" />
    <rect
       x="234.66667"
       y="277.33334"
       width="42.666672"
       height="21.33333"
       style="fill:#79444a"
       id="rect21" />
    <path
       d="M 64,490.66667 H 42.66667 V 448 a 64.07,64.07 0 0 1 64,-64 v 21.33333 A 42.71555,42.71555 0 0 0 64,448 Z"
       style="fill:#79444a"
       id="path21" />
    <path
       d="m 89.89583,74.66667 c 102.10417,0 166.10417,32 166.10417,32 0,0 85.33333,-32 166.10417,-32 C 388.89193,42.8151 327.026,21.33333 256,21.33333 c -71.026,0 -132.89193,21.48177 -166.10417,53.33334 z"
       style="fill:#4b3d44;fill-opacity:1"
       id="path22" />
    <path
       d="m 256,107.26042 -3.41667,-1.15625 c -0.47916,-0.15625 -47.45833,-15.9375 -126.4375,-29.8125 l 3.70834,-21.02084 C 199.29167,67.48958 243.6875,80.85417 256,84.78125 268.3125,80.85417 312.70833,67.48958 382.14583,55.27083 l 3.70834,21.02084 c -78.97917,13.875 -125.95834,29.65625 -126.4375,29.8125 z"
       style="fill:#ab9b8e;fill-opacity:1"
       id="path23" />
    <rect
       x="341.33334"
       y="362.66666"
       width="42.666672"
       height="128"
       style="fill:#79444a"
       id="rect23" />
    <rect
       x="341.33334"
       y="384"
       width="21.33333"
       height="106.66667"
       style="fill:#79444a"
       id="rect24" />
    <rect
       x="128"
       y="384"
       width="42.666672"
       height="106.66667"
       style="fill:#79444a"
       id="rect25" />
    <rect
       x="106.66667"
       y="42.666672"
       width="21.33333"
       height="192"
       style="fill:#4b3d44;fill-opacity:1"
       id="rect26" />
    <path
       d="m 106.66667,192 c 0,0 -21.33334,0 -21.33334,21.33333 v 85.33334 h 21.33334 v -21.33334 l 21.33339,21.33339 h 21.33327 c 0,0 0,-64 0,-85.33339 C 149.33333,191.99994 128,192 128,192 Z"
       style="fill:#ab9b8e;fill-opacity:1"
       id="path26" />
    <rect
       x="85.333328"
       y="213.33333"
       width="21.33333"
       height="85.333328"
       style="fill:#ab9b8e;fill-opacity:1"
       id="rect27" />
    <path
       d="M 149.33333,298.66667 H 128 L 106.66667,277.33333 V 192 H 128 a 21.33333,21.33333 0 0 1 21.33333,21.33333 z"
       style="fill:#4b3d44;fill-opacity:1"
       id="path27" />
    <rect
       x="128"
       y="213.33333"
       width="21.33333"
       height="85.333328"
       style="fill:#4b3d44;fill-opacity:1"
       id="rect28" />
    <circle
       cx="117.33333"
       cy="160"
       r="32"
       style="fill:#4b3d44;fill-opacity:1"
       id="circle28" />
    <rect
       x="106.66667"
       y="106.66667"
       width="21.33333"
       height="21.33333"
       style="fill:#4b3d44;fill-opacity:1"
       id="rect29" />
    <circle
       cx="96"
       cy="160"
       r="10.66667"
       style="fill:#ab9b8e;fill-opacity:1"
       id="circle29" />
    <path
       d="M 170.66667,490.66667 C 192,490.66667 213.33333,469.33333 213.33333,448 213.33333,426.66667 192,405.33333 170.66667,405.33333 149.33334,405.33333 149.33333,384 149.33333,384 c 0,-21.33333 21.33334,-21.33333 21.33334,-21.33333 0,0 21.33333,0 21.33333,-21.33334 C 192,319.99999 170.66667,320 170.66667,320 H 85.33333 c 0,0 -42.66666,0 -42.66666,42.66667 0,42.66667 42.66666,42.66666 42.66666,42.66666 21.33334,0 21.33334,21.33334 21.33334,21.33334 C 106.66667,448 85.33333,448 85.33333,448 64,448 64,469.33333 64,469.33333 c 0,21.33334 21.33333,21.33334 21.33333,21.33334 z"
       style="fill:#ae5d40"
       id="path29" />
    <path
       d="M 106.66667,405.33333 A 42.66671,42.66671 0 0 1 106.66667,320 21.3078,21.3078 0 0 0 128,298.72917 h 21.33333 A 42.64884,42.64884 0 0 1 106.72917,341.33333 21.33336,21.33336 0 1 0 106.66667,384 Z"
       style="fill:#c77b58"
       id="path30" />
    <path
       d="M 170.66667,490.66667 H 128 v -21.33334 h 42.66667 a 21.33333,21.33333 0 1 0 0,-42.66666 42.66667,42.66667 0 0 1 0,-85.33334 V 320 H 192 v 21.33333 a 21.35443,21.35443 0 0 1 -21.33333,21.33334 21.33333,21.33333 0 1 0 0,42.66666 42.66667,42.66667 0 0 1 0,85.33334 z"
       style="fill:#ae5d40;fill-opacity:1"
       id="path31" />
  </g>
</svg>
