<svg xmlns="http://www.w3.org/2000/svg" viewBox="0 0 512 512" preserveAspectRatio="xMidYMid meet">
  <title>Fire Fighter</title>
  <g id="fire-fighter" data-name="Fire Fighter">
    <rect
       x="170.66667"
       y="341.33334"
       width="170.66667"
       height="21.33333"
       style="fill:#79444a"
       id="rect1" />
    <rect
       x="170.66667"
       y="341.33334"
       width="85.333328"
       height="21.33333"
       style="fill:#79444a"
       id="rect2" />
    <rect
       x="170.66667"
       y="341.33334"
       width="85.333328"
       height="21.33333"
       style="fill:#79444a"
       id="rect3" />
    <path
       d="M 256,128 C 149.96094,128 64,166.20443 64,213.33333 v 21.33334 C 64,281.79427 149.96094,320 256,320 362.03906,320 448,281.79427 448,234.66667 V 213.33333 C 448,166.20443 362.03906,128 256,128 Z"
       style="fill:#79444a"
       id="path3" />
    <ellipse
       cx="256"
       cy="213.33333"
       rx="170.66667"
       ry="85.333328"
       style="fill:#4b3d44;fill-opacity:1"
       id="ellipse3" />
    <path
       d="m 256,298.66667 c -94.2566,0 -170.66667,-38.205 -170.66667,-85.33334 C 85.33333,166.20499 161.7434,128 256,128 Z"
       style="fill:#4b3d44;fill-opacity:1"
       id="path4" />
    <rect
       x="341.33334"
       y="192"
       width="42.666672"
       height="64"
       rx="21.333309"
       ry="21.333309"
       style="fill:#c77b58"
       id="rect4" />
    <rect
       x="128"
       y="192"
       width="42.666672"
       height="64"
       rx="21.333309"
       ry="21.333309"
       style="fill:#c77b58"
       id="rect5" />
    <path
       d="m 192,277.33333 v 64 a 21.33334,21.33334 0 0 1 -21.33333,21.33334 h -64 A 85.33333,85.33333 0 0 0 21.33333,448 v 42.66667 H 490.66667 V 448 a 85.33333,85.33333 0 0 0 -85.33334,-85.33333 h -64 A 21.33334,21.33334 0 0 1 320,341.33333 v -64 z"
       style="fill:#c77b58"
       id="path5" />
    <path
       d="M 341.33333,362.66667 A 21.33356,21.33356 0 0 1 320,341.33333 v -64 h -64 v 85.33334 h 21.33333 V 384 h -42.66666 v 21.33333 a 21.33333,21.33333 0 1 0 42.66666,0 h 85.33334 v -42.66666 z"
       style="fill:#c77b58"
       id="path6" />
    <path
       d="m 405.33333,362.66667 h -64 a 85.33333,85.33333 0 1 1 -170.66666,0 h -64 A 85.33255,85.33255 0 0 0 21.33333,448 v 42.66667 H 490.66667 V 448 a 85.33255,85.33255 0 0 0 -85.33334,-85.33333 z"
       style="fill:#4b726e"
       id="path7" />
    <rect
       x="149.33333"
       y="426.66666"
       width="42.666672"
       height="64"
       style="fill:#8caba1;fill-opacity:1"
       id="rect7" />
    <path
       d="M 64,490.66667 H 42.66667 V 448 a 64.07,64.07 0 0 1 64,-64 v 21.33333 A 42.72225,42.72225 0 0 0 64,448 Z"
       style="fill:#4b726e"
       id="path8" />
    <path
       d="M 256,490.66667 V 469.33333 A 106.79223,106.79223 0 0 0 362.66667,362.66667 H 384 a 128.14,128.14 0 0 1 -128,128 z"
       style="fill:#4b726e"
       id="path9" />
    <path
       d="M 170.66667,341.33333 H 192 l -21.33333,21.33334 v 128 H 21.33333 V 448 a 85.33333,85.33333 0 0 1 85.33334,-85.33333 h 42.66669 z"
       style="fill:#4b3d44;fill-opacity:1"
       id="path10" />
    <rect
       x="21.33333"
       y="448"
       width="149.33333"
       height="42.666672"
       style="fill:#4b3d44;fill-opacity:1"
       id="rect10" />
    <path
       d="m 320,341.33333 21.33333,21.33329 v 128 H 490.66667 V 448 a 85.33333,85.33333 0 0 0 -85.33334,-85.33333 h -42.66669 l -21.33331,-21.33334 z"
       style="fill:#4b3d44;fill-opacity:1"
       id="path11" />
    <path
       d="m 362.66664,362.66667 c 85.33334,0 106.66669,85.33333 106.66669,128 H 362.66666 Z"
       style="fill:#4b3d44;fill-opacity:1"
       id="path12" />
    <rect
       x="341.33334"
       y="448"
       width="149.33333"
       height="42.666672"
       style="fill:#4b3d44;fill-opacity:1"
       id="rect12" />
    <path
       d="m 362.66667,448 v 42.66667 H 469.33333 A 170.15028,170.15028 0 0 0 463.39583,448 Z"
       style="fill:#4b3d44;fill-opacity:1"
       id="path13" />
    <path
       d="m 170.66667,341.33333 c 0,0 -106.66667,0 -106.66667,128 l 21.33333,21.33334 h 85.33334 z"
       style="fill:#79444a"
       id="path14" />
    <path
       d="m 341.33333,341.33333 c 0,0 106.66667,0 106.66667,128 l -21.33333,21.33334 h -85.33334 z"
       style="fill:#79444a"
       id="path15" />
    <polygon
       points="170.667,490.667 149.333,490.667 149.333,384 170.667,362.667 "
       style="fill:#79444a"
       id="polygon15" />
    <polygon
       points="362.667,490.667 341.333,490.667 341.333,362.667 362.667,384 "
       style="fill:#79444a"
       id="polygon16" />
    <rect
       x="149.33333"
       y="42.666672"
       width="213.33333"
       height="298.66656"
       rx="106.66656"
       ry="106.66656"
       style="fill:#d1b187"
       id="rect16" />
    <path
       d="m 320,64.48307 v 84.85026 h -42.66667 v 21.33334 H 320 v 42.66659 a 21.33333,21.33333 0 0 1 21.33333,21.33333 v 8e-5 A 21.33333,21.33333 0 0 1 320,256 h -64 v 64 h 21.33333 v 19.18359 a 106.69065,106.69065 0 0 0 85.33334,-104.51692 v -85.33334 c 0,-34.78385 -16.90105,-65.3789 -42.66667,-84.85026 z"
       style="fill:#c77b58"
       id="path16" />
    <path
       d="m 149.33333,192 v 21.33333 h 21.33334 v -42.66666 c 0,0 21.33333,0 21.33333,-21.33334 H 128 C 128,192 149.33333,192 149.33333,192 Z"
       style="fill:#ae5d40"
       id="path17" />
    <path
       d="m 341.33333,170.66667 v 42.66666 h 21.33334 V 192 c 0,0 21.33333,0 21.33333,-21.33333 v -21.33334 h -64 c 0,0 21.33333,0 21.33333,21.33334 z"
       style="fill:#ae5d40;fill-opacity:1"
       id="path18" />
    <path
       d="m 256,42.66667 a 127.99966,127.99966 0 0 0 -128,128 c 0,0 42.66667,-21.33334 128,-21.33334 85.33333,0 128,21.33334 128,21.33334 a 127.99966,127.99966 0 0 0 -128,-128 z"
       style="fill:#79444a"
       id="path19" />
    <path
       d="m 182.14583,112.75 -17.5,-12.20833 a 85.73987,85.73987 0 0 1 45.625,-33 L 216.35417,88 a 64.23815,64.23815 0 0 0 -34.20834,24.75 z"
       style="fill:#79444a;fill-opacity:1"
       id="path20" />
    <path
       d="m 256,42.66667 v 106.66666 c 85.33333,0 128,21.33334 128,21.33334 a 127.99966,127.99966 0 0 0 -128,-128 z"
       style="fill:#79444a"
       id="path21" />
    <rect
       x="256"
       y="64"
       width="42.666672"
       height="64"
       style="fill:#79444a"
       id="rect21" />
    <path
       d="m 256,106.66667 c -59.00781,0 -98.35156,13.05208 -121.79948,24.72005 A 127.79955,127.79955 0 0 0 128,170.66667 c 0,0 42.66667,-21.33334 128,-21.33334 85.33333,0 128,21.33334 128,21.33334 a 127.79955,127.79955 0 0 0 -6.20052,-39.28 C 354.35156,119.71875 315.00781,106.66667 256,106.66667 Z"
       style="fill:#8caba1"
       id="path22" />
    <path
       d="m 256,106.66667 v 42.66666 c 85.33333,0 128,21.33334 128,21.33334 a 127.79955,127.79955 0 0 0 -6.20052,-39.28 C 354.35156,119.71875 315.00781,106.66667 256,106.66667 Z"
       style="fill:#8caba1"
       id="path23" />
    <path
       d="m 320,112.57161 v 41.33724 c 42.35807,6.25782 64,16.75782 64,16.75782 a 127.79955,127.79955 0 0 0 -6.20052,-39.28 C 364.194,124.61719 345.04427,117.45443 320,112.57161 Z"
       style="fill:#4b726e"
       id="path24" />
    <polygon
       points="277.333,256 277.333,192 320,192 320,170.667 256,170.667 256,234.667 234.667,234.667 234.667,256 "
       style="fill:#c77b58"
       id="polygon24" />
    <rect
       x="298.66666"
       y="192"
       width="21.33333"
       height="21.33333"
       style="fill:#4d4539"
       id="rect24" />
    <rect
       x="192"
       y="192"
       width="21.33333"
       height="21.33333"
       style="fill:#4d4539"
       id="rect25" />
    <rect
       x="234.66667"
       y="277.33334"
       width="42.666672"
       height="21.33333"
       style="fill:#79444a"
       id="rect26" />
    <path
       d="m 256,128 c 106.03906,0 192,38.20443 192,85.33333 v 21.33334 c 0,-47.12891 -85.96094,-85.33334 -192,-85.33334 -106.03906,0 -192,38.20443 -192,85.33334 V 213.33333 C 64,166.20443 149.96094,128 256,128 Z"
       style="fill:#79444a"
       id="path26" />
    <path
       d="m 256,128 v 21.33333 c -106.03906,0 -192,38.20443 -192,85.33334 V 213.33333 C 64,166.20443 149.96094,128 256,128 Z"
       style="fill:#79444a"
       id="path27" />
    <rect
       x="234.66667"
       y="21.33333"
       width="42.666672"
       height="85.333328"
       style="fill:#4b3d44;fill-opacity:1"
       id="rect27" />
    <rect
       x="234.66667"
       y="21.33333"
       width="42.666672"
       height="64"
       style="fill:#4b3d44;fill-opacity:1"
       id="rect28" />
    <rect
       x="234.66667"
       y="21.33333"
       width="21.33333"
       height="64"
       style="fill:#000000;fill-opacity:0"
       id="rect29" />
    <path
       d="M 192,154.293 V 132.95964 A 412.56418,412.56418 0 0 1 256,128 v 21.33333 a 412.56418,412.56418 0 0 0 -64,4.95967 z"
       style="fill:#79444a"
       id="path29" />
  </g>
</svg>
