<svg xmlns="http://www.w3.org/2000/svg" viewBox="0 0 512 512" preserveAspectRatio="xMidYMid meet">
  <title>Hoodie</title>
  <g id="hoodie" data-name="Hoodie">
  <defs
     id="defs20" />
  <title
     id="title1">Artboard 159</title>
  <rect
     x="149.33333"
     y="106.66667"
     width="213.33333"
     height="277.33334"
     style="fill:#4b3d44;fill-opacity:1"
     id="rect1" />
  <rect
     x="256"
     y="106.66667"
     width="106.66667"
     height="277.33334"
     style="fill:#4b3d44;fill-opacity:1"
     id="rect2" />
  <rect
     x="341.33334"
     y="192"
     width="42.666672"
     height="64"
     rx="21.333309"
     ry="21.333309"
     style="fill:#c77b58"
     id="rect3" />
  <rect
     x="128"
     y="192"
     width="42.666672"
     height="64"
     rx="21.333309"
     ry="21.333309"
     style="fill:#c77b58"
     id="rect4" />
  <path
     d="m 192,277.33333 v 64 a 21.33334,21.33334 0 0 1 -21.33333,21.33334 h -64 A 85.33333,85.33333 0 0 0 21.33333,448 v 42.66667 H 490.66667 V 448 a 85.33333,85.33333 0 0 0 -85.33334,-85.33333 h -64 A 21.33334,21.33334 0 0 1 320,341.33333 v -64 z"
     style="fill:#c77b58"
     id="path4" />
  <path
     d="m 405.33333,362.66667 h -64 a 85.33333,85.33333 0 1 1 -170.66666,0 h -64 A 85.33255,85.33255 0 0 0 21.33333,448 v 42.66667 H 490.66667 V 448 a 85.33255,85.33255 0 0 0 -85.33334,-85.33333 z"
     style="fill:#4b3d44;fill-opacity:1"
     id="path6" />
  <path
     d="M 256,490.66667 V 469.33333 A 106.79223,106.79223 0 0 0 362.66667,362.66667 H 384 a 128.14,128.14 0 0 1 -128,128 z"
     style="fill:#4b3d44;fill-opacity:1"
     id="path7" />
  <path
     d="m 149.33333,490.66667 h -128 V 448 a 85.33333,85.33333 0 0 1 85.33334,-85.33333 h 42.66666 V 384 v 0 a 42.66662,42.66662 0 0 0 -42.66662,42.66662 v 9e-5 a 42.66662,42.66662 0 0 0 42.66662,42.66662 v 0 z"
     style="fill:#847875;fill-opacity:1"
     id="path8" />
  <path
     d="m 362.66667,490.66667 h 128 V 448 A 85.33333,85.33333 0 0 0 405.33333,362.66667 H 362.66667 V 384 v 0 a 42.66662,42.66662 0 0 1 42.66662,42.66662 v 9e-5 a 42.66662,42.66662 0 0 1 -42.66662,42.66662 v 0 z"
     style="fill:#ab9b8e;fill-opacity:1"
     id="path9" />
  <path
     d="M 384,490.66667 H 362.66667 A 21.34774,21.34774 0 0 1 384,469.33333 42.66667,42.66667 0 1 0 384,384 v -21.33333 a 64,64 0 0 1 0,128 z"
     style="fill:#ab9b8e;fill-opacity:1"
     id="path10" />
  <path
     d="M 64,490.66667 H 42.66667 V 448 a 64.07,64.07 0 0 1 64,-64 v 21.33333 A 42.72225,42.72225 0 0 0 64,448 Z"
     style="fill:#ab9b8e;fill-opacity:1"
     id="path11" />
  <rect
     x="149.33333"
     y="42.666672"
     width="213.33333"
     height="298.66656"
     rx="106.66656"
     ry="106.66656"
     style="fill:#d1b187"
     id="rect11" />
  <path
     d="m 320,64.48307 v 84.85026 h -42.66667 v 21.33334 H 320 v 42.66659 a 21.33333,21.33333 0 0 1 21.33333,21.33333 v 8e-5 A 21.33333,21.33333 0 0 1 320,256 h -64 v 64 h 21.33333 v 19.18359 a 106.69065,106.69065 0 0 0 85.33334,-104.51692 v -85.33334 c 0,-34.78385 -16.90105,-65.3789 -42.66667,-84.85026 z"
     style="fill:#c77b58"
     id="path12" />
  <polygon
     points="277.333,170.667 341.333,256 341.333,106.667 170.667,106.667 170.667,256 234.667,170.667 "
     style="fill:#c77b58"
     id="polygon12" />
  <polygon
     points="277.333,256 277.333,192 320,192 320,170.667 256,170.667 256,234.667 234.667,234.667 234.667,256 "
     style="fill:#c77b58"
     id="polygon13" />
  <rect
     x="298.66666"
     y="192"
     width="21.33333"
     height="21.33333"
     style="fill:#4d4539"
     id="rect13" />
  <rect
     x="192"
     y="192"
     width="21.33333"
     height="21.33333"
     style="fill:#4d4539"
     id="rect14" />
  <rect
     x="234.66667"
     y="277.33334"
     width="42.666672"
     height="21.33333"
     style="fill:#79444a"
     id="rect15" />
  <path
     d="m 384,384 c -21.33333,0 -21.33333,-42.66667 -21.33333,-42.66667 0,-21.33333 0,-21.33333 21.33333,-42.66666 21.33333,-21.33333 21.33333,-42.66667 21.33333,-64 v -64 C 405.33333,85.33333 320,21.33333 256,21.33333 c -64,0 -149.33333,64 -149.33333,149.33334 v 64 c 0,21.33333 0,42.66666 21.33333,64 21.33333,21.33334 21.33333,21.33333 21.33333,42.66666 0,0 0,42.66667 -21.33333,42.66667 0,0 -42.66667,0 -42.66667,42.66667 0,42.66667 42.66667,42.66666 42.66667,42.66666 0,0 21.33333,0 21.33333,21.33334 h 21.33334 c 0,0 0,-21.33334 -21.33334,-21.33334 -21.33334,0 -42.66666,-21.33333 -42.66666,-42.66666 C 106.66667,405.33334 128,384 149.33333,384 c 0,0 21.33334,0 21.33334,-42.66667 V 234.66667 c 0,-45.93817 64,-106.66667 64,-106.66667 h 42.66666 c 0,0 64,64 64,106.66667 V 341.33333 C 341.33333,384 362.66667,384 362.66667,384 c 21.33333,0 42.66666,21.33333 42.66666,42.66667 0,21.33334 -21.33333,42.66666 -42.66666,42.66666 -21.33333,0 -21.33334,21.33334 -21.33334,21.33334 h 21.33334 c 0,-21.33334 21.33333,-21.33334 21.33333,-21.33334 0,0 42.66667,0 42.66667,-42.66666 C 426.66667,384.00001 384,384 384,384 Z"
     style="fill:#ab9b8e;fill-opacity:1"
     id="path15" />
  <path
     d="m 384,384 c -21.33333,0 -21.33333,-42.66667 -21.33333,-42.66667 0,-21.33333 0,-21.33333 21.33333,-42.66666 21.33333,-21.33333 21.33333,-42.66667 21.33333,-64 v -64 C 405.33333,85.33333 320,21.33333 256,21.33333 V 128 h 21.33333 c 0,0 64,64 64,106.66667 V 341.33333 C 341.33333,384 362.66667,384 362.66667,384 c 21.33333,0 42.66666,21.33333 42.66666,42.66667 0,21.33334 -21.33333,42.66666 -42.66666,42.66666 -21.33333,0 -21.33334,21.33334 -21.33334,21.33334 h 21.33334 c 0,-21.33334 21.33333,-21.33334 21.33333,-21.33334 0,0 42.66667,0 42.66667,-42.66666 C 426.66667,384.00001 384,384 384,384 Z"
     style="fill:#847875;fill-opacity:1"
     id="path16" />
  <path
     d="M 362.66667,341.33333 H 341.33333 V 235.29167 a 53.62753,53.62753 0 0 0 -11.22916,-32.75 L 272.125,128 h -37.45833 v -21.33333 h 47.875 l 64.39583,82.79166 a 74.98482,74.98482 0 0 1 15.72917,45.83334 z"
     style="fill:#847875;fill-opacity:1"
     id="path17" />
  <rect
     x="234.66667"
     y="42.666672"
     width="42.666672"
     height="64"
     style="fill:#ab9b8e;fill-opacity:1"
     id="rect17" />
  <path
     d="M 170.66667,341.33333 H 149.33333 V 235.29167 a 74.98482,74.98482 0 0 1 15.72917,-45.83334 l 64.39583,-82.79166 h 47.875 V 128 H 239.875 l -57.97917,74.54167 a 53.62753,53.62753 0 0 0 -11.22916,32.75 z"
     style="fill:#847875;fill-opacity:1"
     id="path18" />
  <path
     d="M 149.33333,298.66667 H 128 v -58.58334 a 117.68371,117.68371 0 0 1 25.70833,-73.29166 L 215.66667,89.33333 232.33333,102.66667 170.375,180.125 a 96.31085,96.31085 0 0 0 -21.04167,59.95833 z"
     style="fill:#ab9b8e;fill-opacity:1"
     id="path19" />
  <path
     d="m 192,490.66667 h -21.33333 a 21.34775,21.34775 0 0 0 -21.33334,-21.33334 42.666665,42.666665 0 0 1 0,-85.33333 h 21.33334 v 21.33333 h -21.33334 a 21.333335,21.333335 0 0 0 0,42.66667 A 42.72225,42.72225 0 0 1 192,490.66667 Z"
     style="fill:#4b3d44;fill-opacity:1"
     id="path20" />
</g>
</svg>
