<svg xmlns="http://www.w3.org/2000/svg" viewBox="0 0 512 512" preserveAspectRatio="xMidYMid meet">
  <title>Indian Woman</title>
  <g id="indian-woman" data-name="Indian Woman">

    <path
       d="m 106.66667,213.33333 c 0,24.88891 21.33354,149.33334 149.33344,149.33334 127.9999,0 149.33322,-124.44443 149.33322,-149.33334 z"
       style="fill:#4b3d44;fill-opacity:1"
       id="path1" />
    <path
       d="M 256.00011,362.66667 C 384,362.66667 405.33333,238.22224 405.33333,213.33333 H 256 Z"
       style="fill:#4b3d44;fill-opacity:1"
       id="path2" />
    <rect
       x="341.33334"
       y="192"
       width="42.666672"
       height="64"
       rx="21.333309"
       ry="21.333309"
       style="fill:#79444a;fill-opacity:1"
       id="rect2" />
    <rect
       x="128"
       y="192"
       width="42.666672"
       height="64"
       rx="21.333309"
       ry="21.333309"
       style="fill:#79444a;fill-opacity:1"
       id="rect3" />
    <path
       d="m 192,277.33333 v 64 a 21.33334,21.33334 0 0 1 -21.33333,21.33334 h -64 A 85.33333,85.33333 0 0 0 21.33333,448 v 42.66667 H 490.66667 V 448 a 85.33333,85.33333 0 0 0 -85.33334,-85.33333 h -64 A 21.33334,21.33334 0 0 1 320,341.33333 v -64 z"
       style="fill:#79444a;fill-opacity:1"
       id="path3" />
    <path
       d="m 405.33333,362.66667 h -64 a 85.33333,85.33333 0 1 1 -170.66666,0 h -64 A 85.33255,85.33255 0 0 0 21.33333,448 v 42.66667 H 490.66667 V 448 a 85.33255,85.33255 0 0 0 -85.33334,-85.33333 z"
       style="fill:#d1b187"
       id="path4" />
    <polygon
       points="192,490.667 234.667,490.667 256,469.333 213.333,469.333 "
       style="fill:#c77b58"
       id="polygon4" />
    <rect
       x="106.66667"
       y="362.66666"
       width="42.666672"
       height="21.33333"
       style="fill:#d1b187"
       id="rect5" />
    <path
       d="M 64,490.66667 H 42.66667 V 448 a 64.07,64.07 0 0 1 64,-64 v 21.33333 A 42.72225,42.72225 0 0 0 64,448 Z"
       style="fill:#d1b187"
       id="path5" />
    <path
       d="M 256,490.66667 V 469.33333 A 106.79223,106.79223 0 0 0 362.66667,362.66667 H 384 a 128.14,128.14 0 0 1 -128,128 z"
       style="fill:#8caba1"
       id="path6" />
    <path
       d="m 213.33333,490.66667 128,-128 h 64 A 85.33333,85.33333 0 0 1 490.66667,448 v 42.66667 z"
       style="fill:#77743b;fill-opacity:1"
       id="path7" />
    <polygon
       points="426.667,384 320,490.667 256,490.667 362.667,384 "
       style="fill:#77743b;fill-opacity:1"
       id="polygon7" />
    <path
       d="M 341.33333,362.66667 A 21.33356,21.33356 0 0 1 320,341.33333 v -64 h -85.33333 v 128 a 21.33333,21.33333 0 1 0 42.66666,0 h 85.33334 v -42.66666 z"
       style="fill:#79444a;fill-opacity:1"
       id="path8" />
    <rect
       x="149.33333"
       y="42.666672"
       width="213.33333"
       height="298.66656"
       rx="106.66656"
       ry="106.66656"
       style="fill:#ae5d40"
       id="rect8" />
    <path
       d="m 320,64.48307 v 84.85026 h -42.66667 v 21.33334 H 320 v 42.66659 a 21.33333,21.33333 0 0 1 21.33333,21.33333 v 8e-5 A 21.33333,21.33333 0 0 1 320,256 h -64 v 64 h 21.33333 v 19.18359 a 106.69065,106.69065 0 0 0 85.33334,-104.51692 v -85.33334 c 0,-34.78385 -16.90105,-65.3789 -42.66667,-84.85026 z"
       style="fill:#79444a;fill-opacity:1"
       id="path9" />
    <polygon
       points="277.333,256 277.333,192 320,192 320,170.667 256,170.667 256,234.667 234.667,234.667 234.667,256 "
       style="fill:#79444a;fill-opacity:1"
       id="polygon9" />
    <rect
       x="298.66666"
       y="192"
       width="21.33333"
       height="21.33333"
       style="fill:#4b3d44"
       id="rect9" />
    <rect
       x="192"
       y="192"
       width="21.33333"
       height="21.33333"
       style="fill:#4b3d44"
       id="rect10" />
    <rect
       x="234.66667"
       y="277.33334"
       width="42.666672"
       height="21.33333"
       style="fill:#4b3d44;fill-opacity:1"
       id="rect11" />
    <path
       d="m 256,21.33333 h -1.5e-4 A 149.33319,149.33319 0 0 0 106.66667,170.66652 v 64.00015 l 42.66666,-21.33334 C 170.66667,192 170.66667,128 170.66667,128 c 0,0 0,-21.33333 21.33333,-21.33333 21.33333,0 21.33333,21.33333 64,21.33333 42.66667,0 42.66667,-21.33333 64,-21.33333 21.33333,0 21.33333,21.33333 21.33333,21.33333 0,0 0,64 21.33334,85.33333 l 42.66666,21.33334 V 170.66652 A 149.33319,149.33319 0 0 0 256.00015,21.33333 Z"
       style="fill:#4b726e"
       id="path11" />
    <path
       d="m 266.66667,128 c -38.5625,0 -49.9375,-7.85417 -59.08334,-14.16667 -6.04166,-4.16666 -10.39583,-7.16666 -26.25,-7.16666 V 85.33333 c 22.5,0 30.9375,5.8125 38.35417,10.9375 7.41667,5.10417 15.0625,10.39584 46.97917,10.39584 z"
       style="fill:#4b726e"
       id="path12" />
    <path
       d="M 256,21.33333 V 128 c 42.66667,0 42.66667,-21.33333 64,-21.33333 21.33333,0 21.33333,21.33333 21.33333,21.33333 0,0 0,64 21.33334,85.33333 l 42.66666,21.33334 v -64 A 149.33322,149.33322 0 0 0 256,21.33333 Z"
       style="fill:#4b726e"
       id="path13" />
    <rect
       x="277.33334"
       y="42.666672"
       width="21.33333"
       height="42.666672"
       style="fill:#4b726e"
       id="rect13" />
    <circle
       cx="256"
       cy="42.666672"
       r="21.33333"
       style="fill:#c77b58"
       id="circle13" />
    <circle
       cx="256"
       cy="85.333328"
       r="21.33333"
       style="fill:#c77b58"
       id="circle14" />
    <circle
       cx="256"
       cy="128"
       r="21.33333"
       style="fill:#c77b58"
       id="circle15" />
    <circle
       cx="245.33333"
       cy="117.33333"
       r="10.66667"
       style="fill:#d1b187"
       id="circle16" />
    <circle
       cx="245.33333"
       cy="74.666672"
       r="10.66667"
       style="fill:#d1b187"
       id="circle17" />
    <circle
       cx="245.33333"
       cy="32"
       r="10.66667"
       style="fill:#d1b187"
       id="circle18" />
    <polygon
       points="405.333,362.667 277.333,490.667 213.333,490.667 341.333,362.667 "
       style="fill:#4b726e"
       id="polygon18" />
    <polygon
       points="234.667,490.667 341.333,384 320,384 213.333,490.667 "
       style="fill:#8caba1"
       id="polygon19" />
    <path
       d="M 149.33333,149.33333 H 128 A 106.79223,106.79223 0 0 1 234.66667,42.66667 V 64 a 85.41772,85.41772 0 0 0 -85.33334,85.33333 z"
       style="fill:#8caba1"
       id="path19" />
    <path
       d="M 384,191.91667 H 362.66667 V 149.33333 A 85.41772,85.41772 0 0 0 277.33333,64 V 42.66667 A 106.79223,106.79223 0 0 1 384,149.33333 Z"
       style="fill:#4b726e"
       id="path20" />
    <rect
       x="128"
       y="170.66667"
       width="21.33333"
       height="21.33333"
       style="fill:#8caba1"
       id="rect20" />
    <rect
       x="384"
       y="170.66667"
       width="21.33333"
       height="21.33333"
       style="fill:#4b726e"
       id="rect21" />
    <rect
       x="362.66666"
       y="192"
       width="21.33333"
       height="21.33333"
       style="fill:#4b726e"
       id="rect22" />
  </g>
</svg>
