<svg xmlns="http://www.w3.org/2000/svg" viewBox="0 0 512 512" preserveAspectRatio="xMidYMid meet">
  <title>Male Artist</title>
  <g id="male-artist" data-name="Male Artist">
    <rect
       x="341.33334"
       y="192"
       width="42.666672"
       height="64"
       rx="21.333309"
       ry="21.333309"
       style="fill:#4b3d44;fill-opacity:1"
       id="rect1" />
    <rect
       x="128"
       y="192"
       width="42.666672"
       height="64"
       rx="21.333309"
       ry="21.333309"
       style="fill:#79444a;fill-opacity:1"
       id="rect2" />
    <path
       d="m 192,277.33333 v 64 a 21.33334,21.33334 0 0 1 -21.33333,21.33334 h -64 A 85.33333,85.33333 0 0 0 21.33333,448 v 42.66667 H 490.66667 V 448 a 85.33333,85.33333 0 0 0 -85.33334,-85.33333 h -64 A 21.33334,21.33334 0 0 1 320,341.33333 v -64 z"
       style="fill:#4b3d44"
       id="path2" />
    <rect
       x="213.33333"
       y="469.33334"
       width="42.666672"
       height="21.33333"
       style="fill:#4b3d44"
       id="rect3" />
    <path
       d="M 341.33333,362.66667 A 21.33356,21.33356 0 0 1 320,341.33333 v -64 h -64 v 85.33334 h 21.33333 V 384 h -42.66666 v 21.33333 a 21.33333,21.33333 0 1 0 42.66666,0 h 85.33334 v -42.66666 z"
       style="fill:#4b3d44"
       id="path4" />
    <path
       d="m 277.33333,448 v 42.66667 H 490.66667 V 448 a 85.33333,85.33333 0 0 0 -85.33334,-85.33333 h -42.66666 v 6e-5 a 81.96961,81.96961 0 0 1 -62.08906,79.5222 z"
       style="fill:#79444a"
       id="path5" />
    <path
       d="m 277.33333,490.66667 v -21.33334 a 106.07075,106.07075 0 0 0 99.39584,-67.875 l 19.875,7.75 a 127.28914,127.28914 0 0 1 -119.27084,81.45834 z"
       style="fill:#79444a"
       id="path6" />
    <path
       d="M 211.42239,442.18893 234.66667,448 v 42.66667 H 21.33333 V 448 a 85.33333,85.33333 0 0 1 85.33334,-85.33333 h 42.66666 v 6e-5 a 81.96961,81.96961 0 0 0 62.08906,79.5222 z"
       style="fill:#79444a"
       id="path7" />
    <rect
       x="149.33333"
       y="42.666672"
       width="213.33333"
       height="298.66656"
       rx="106.66656"
       ry="106.66656"
       style="fill:#ae5d40"
       id="rect7" />
    <path
       d="m 320,64.48307 v 84.85026 h -42.66667 v 21.33334 H 320 v 42.66659 a 21.33333,21.33333 0 0 1 21.33333,21.33333 v 8e-5 A 21.33333,21.33333 0 0 1 320,256 h -64 v 64 h 21.33333 v 19.18359 a 106.69065,106.69065 0 0 0 85.33334,-104.51692 v -85.33334 c 0,-34.78385 -16.90105,-65.3789 -42.66667,-84.85026 z"
       style="fill:#79444a;fill-opacity:1"
       id="path8" />
    <rect
       x="234.66667"
       y="256"
       width="42.666672"
       height="21.33333"
       style="fill:#4b726e"
       id="rect8" />
    <rect
       x="256"
       y="256"
       width="21.33333"
       height="21.33333"
       style="fill:#4b726e"
       id="rect9" />
    <rect
       x="213.33333"
       y="277.33334"
       width="21.33333"
       height="21.33333"
       style="fill:#4b726e"
       id="rect10" />
    <rect
       x="213.33333"
       y="256"
       width="21.33333"
       height="21.33333"
       style="fill:#ae5d40;fill-opacity:1"
       id="rect11" />
    <rect
       x="277.33334"
       y="277.33334"
       width="21.33333"
       height="21.33333"
       style="fill:#4b726e"
       id="rect12" />
    <rect
       x="277.33334"
       y="256"
       width="21.33333"
       height="21.33333"
       style="fill:#79444a;fill-opacity:1"
       id="rect13" />
    <path
       d="m 128,174.32691 a 42.66661,42.66661 0 0 0 12.49676,30.16985 l 8.83657,8.83657 h 21.33334 V 128 h -5e-5 A 42.66662,42.66662 0 0 0 128,170.66662 Z"
       style="fill:#4b726e"
       id="path13" />
    <path
       d="m 341.33333,128 v 85.33331 h 21.33334 l 8.83657,-8.83657 A 42.66661,42.66661 0 0 0 384,174.32691 v -3.66029 A 42.66662,42.66662 0 0 0 341.33338,128 Z"
       style="fill:#4b726e"
       id="path14" />
    <rect
       x="341.33334"
       y="149.33333"
       width="21.33333"
       height="42.666672"
       style="fill:#4b726e"
       id="rect14" />
    <rect
       x="149.33333"
       y="149.33333"
       width="21.33333"
       height="21.33333"
       style="fill:#4b726e"
       id="rect15" />
    <rect
       x="192"
       y="149.33333"
       width="42.666672"
       height="21.33333"
       style="fill:#79444a;fill-opacity:1"
       id="rect16" />
    <polygon
       points="277.333,256 277.333,192 320,192 320,170.667 256,170.667 256,234.667 234.667,234.667 234.667,256 "
       style="fill:#79444a;fill-opacity:1"
       id="polygon16" />
    <rect
       x="298.66666"
       y="192"
       width="21.33333"
       height="21.33333"
       style="fill:#4b3d44"
       id="rect17" />
    <rect
       x="192"
       y="192"
       width="21.33333"
       height="21.33333"
       style="fill:#4b3d44"
       id="rect18" />
    <rect
       x="234.66667"
       y="277.33334"
       width="42.666672"
       height="21.33333"
       style="fill:#4b3d44;fill-opacity:1"
       id="rect19" />
    <path
       d="M 64,490.66667 H 42.66667 V 448 a 64.07,64.07 0 0 1 64,-64 v 21.33333 A 42.71556,42.71556 0 0 0 64,448 Z"
       style="fill:#79444a"
       id="path19" />
    <rect
       x="362.66666"
       y="362.66666"
       width="42.666672"
       height="21.33333"
       style="fill:#79444a"
       id="rect20" />
    <rect
       x="106.66667"
       y="362.66666"
       width="42.666672"
       height="21.33333"
       style="fill:#79444a"
       id="rect21" />
    <path
       d="m 106.66667,85.33333 c 0,85.33334 170.66666,85.33334 213.33333,85.33334 42.66667,0 106.66667,0 106.66667,-42.66667 0,-21.33333 -21.33334,-42.66667 -42.66667,-42.66667 0,0 -21.33333,-42.66666 -85.33333,-42.66666 0,0 -21.33334,-21.33334 -85.33334,-21.33334 -64,0 -106.66666,21.33334 -106.66666,64 z"
       style="fill:#79444a"
       id="path21" />
    <path
       d="m 341.33333,128 c 0,17.1888 -7.638,31.21224 -18.63932,42.66276 42.61328,-0.0182 103.97266,-0.86976 103.97266,-42.66276 0,-21.33333 -21.33334,-42.66667 -42.66667,-42.66667 0,0 -21.33333,-42.66666 -85.33333,-42.66666 0,0 42.66666,21.39192 42.66666,85.33333 z"
       style="fill:#4b3d44;fill-opacity:1"
       id="path22" />
    <path
       d="M 347.15625,102.375 A 46.55591,46.55591 0 0 0 329.22917,88.14583 c -38.4375,-17.8125 -64.52084,7.95834 -65.61459,9.0625 l -15.27083,-14.875 c 12.75,-13.1875 47.96875,-32.9375 89.83333,-13.5625 a 67.60715,67.60715 0 0 1 26.02084,20.77084 z"
       style="fill:#4b3d44;fill-opacity:1"
       id="path23" />
    <path
       d="M 149.33333,85.22917 H 128 c 0,-40.89584 76.54167,-42.5625 85.26042,-42.625 l 0.14583,21.33333 c -26.86458,0.20833 -64.07292,7.70833 -64.07292,21.29167 z"
       style="fill:#4b3d44;fill-opacity:1"
       id="path24" />
    <path
       d="m 366.85417,145.85417 -3.29167,-21.08334 c 14.8125,-2.3125 27.52083,-5.60416 37.73958,-9.77083 l 8.0625,19.75 c -11.76041,4.79167 -26.0625,8.52083 -42.51041,11.10417 z"
       style="fill:#79444a"
       id="path25" />
    <path
       d="m 320,149.72917 c -97.28125,0 -141.04167,-20.25 -142.85417,-21.125 l 9.11459,-19.27084 c 0.40625,0.1875 41.97916,19.0625 133.73958,19.0625 z"
       style="fill:#4b3d44;fill-opacity:1"
       id="path26" />
  </g>
</svg>
