<svg xmlns="http://www.w3.org/2000/svg" viewBox="0 0 512 512" preserveAspectRatio="xMidYMid meet">
  <title>Male Farmer</title>
  <g id="male-farmer" data-name="Male Farmer">
    <ellipse
       cx="256"
       cy="213.33333"
       rx="192"
       ry="106.66667"
       style="fill:#4b3d44;fill-opacity:1"
       id="ellipse1" />
    <path
       d="m 256,128 c 100.57292,0 170.66667,44.96875 170.66667,85.33333 0,40.36458 -70.09375,85.33334 -170.66667,85.33334 z"
       style="fill:#4b3d44;fill-opacity:1"
       id="path1" />
    <path
       d="m 256,298.66667 c -90.91667,0 -170.66667,-39.875 -170.66667,-85.33334 h 21.33334 c 0,25.47917 59.5625,64 149.33333,64 89.77083,0 149.33333,-38.52083 149.33333,-64 h 21.33334 c 0,45.45834 -79.75,85.33334 -170.66667,85.33334 z"
       style="fill:#4b3d44;fill-opacity:1"
       id="path2" />
    <rect
       x="341.33334"
       y="192"
       width="42.666672"
       height="64"
       rx="21.333309"
       ry="21.333309"
       style="fill:#c77b58"
       id="rect2" />
    <rect
       x="128"
       y="192"
       width="42.666672"
       height="64"
       rx="21.333309"
       ry="21.333309"
       style="fill:#c77b58"
       id="rect3" />
    <path
       d="m 192,277.33333 v 64 a 21.33334,21.33334 0 0 1 -21.33333,21.33334 h -64 A 85.33333,85.33333 0 0 0 21.33333,448 v 42.66667 H 490.66667 V 448 a 85.33333,85.33333 0 0 0 -85.33334,-85.33333 h -64 A 21.33334,21.33334 0 0 1 320,341.33333 v -64 z"
       style="fill:#c77b58"
       id="path3" />
    <rect
       x="149.33333"
       y="405.33334"
       width="85.333328"
       height="42.666672"
       rx="21.333309"
       ry="21.333309"
       style="fill:#d1b187"
       id="rect4" />
    <circle
       cx="213.33333"
       cy="426.66666"
       r="21.33333"
       style="fill:#d1b187"
       id="circle4" />
    <path
       d="M 341.33333,362.66667 A 21.33356,21.33356 0 0 1 320,341.33333 v -64 h -64 v 85.33334 h 21.33333 V 384 h -42.66666 v 21.33333 a 21.33333,21.33333 0 1 0 42.66666,0 h 85.33334 v -42.66666 z"
       style="fill:#c77b58"
       id="path4" />
    <path
       d="m 234.66667,426.66667 v 64 h 256 V 448 a 85.33333,85.33333 0 0 0 -85.33334,-85.33333 h -64 L 320,341.33333 298.66667,362.66667 Z"
       style="fill:#b3a555"
       id="path5" />
    <polygon
       points="277.333,384 277.333,405.333 405.333,405.333 405.333,362.667 298.667,362.667 "
       style="fill:#b3a555"
       id="polygon5" />
    <polygon
       points="256,490.667 256,405.333 298.667,362.667 362.667,362.667 362.667,426.667 277.333,490.667 "
       style="fill:#77743b"
       id="polygon6" />
    <polygon
       points="298.667,362.667 277.333,384 277.333,405.333 320,405.333 320,362.667 "
       style="fill:#b3a555"
       id="polygon7" />
    <path
       d="m 192,341.33333 21.33333,21.33334 64,64 v 64 h -256 V 448 a 85.33333,85.33333 0 0 1 85.33334,-85.33333 h 64 z"
       style="fill:#b3a555"
       id="path7" />
    <polygon
       points="192,362.667 192,490.667 234.667,490.667 234.667,384 213.333,362.667 "
       style="fill:#d2c9a5"
       id="polygon8" />
    <rect
       x="64"
       y="405.33334"
       width="42.666672"
       height="42.666672"
       style="fill:#b3a555"
       id="rect8" />
    <rect
       x="21.33333"
       y="448"
       width="256"
       height="42.666672"
       style="fill:#d2c9a5"
       id="rect9" />
    <polygon
       points="192,426.667 277.333,426.667 234.667,384 192,384 "
       style="fill:#b3a555"
       id="polygon9" />
    <polygon
       points="192,362.667 192,405.333 234.667,405.333 234.667,384 213.333,362.667 "
       style="fill:#b3a555"
       id="polygon10" />
    <rect
       x="106.66667"
       y="362.66666"
       width="64"
       height="21.33333"
       style="fill:#b3a555"
       id="rect10" />
    <polygon
       points="170.667,405.333 234.667,384 192,341.333 170.667,362.667 "
       style="fill:#d2c9a5"
       id="polygon11" />
    <circle
       cx="245.33333"
       cy="437.33334"
       r="10.66667"
       style="fill:#b3a555"
       id="circle11" />
    <polygon
       points="341.333,362.667 320,341.333 277.333,384 341.333,405.333 "
       style="fill:#d2c9a5;fill-opacity:1"
       id="polygon12" />
    <rect
       x="149.33333"
       y="42.666672"
       width="213.33333"
       height="298.66656"
       rx="106.66656"
       ry="106.66656"
       style="fill:#d1b187"
       id="rect12" />
    <path
       d="m 320,64.48307 v 84.85026 h -42.66667 v 21.33334 H 320 v 42.66659 a 21.33333,21.33333 0 0 1 21.33333,21.33333 v 8e-5 A 21.33333,21.33333 0 0 1 320,256 h -64 v 64 h 21.33333 v 19.18359 a 106.69065,106.69065 0 0 0 85.33334,-104.51692 v -85.33334 c 0,-34.78385 -16.90105,-65.3789 -42.66667,-84.85026 z"
       style="fill:#c77b58"
       id="path12" />
    <path
       d="M 128,170.66667 C 128,192 149.33333,192 149.33333,192 v 21.33333 h 21.33334 v -64 H 128 Z"
       style="fill:#ae5d40"
       id="path13" />
    <path
       d="m 341.33333,149.33333 v 64 h 21.33334 V 192 c 0,0 21.33333,0 21.33333,-21.33333 v -21.33334 z"
       style="fill:#ae5d40;fill-opacity:1"
       id="path14" />
    <path
       d="M 384,149.33321 C 384,78.64083 320,21.33333 298.66679,21.33333 H 213.33333 C 192,21.33333 128,78.64083 128,149.33321 Z"
       style="fill:#4b726e"
       id="path15" />
    <path
       d="M 213.33333,21.33333 H 256 c 21.33333,0 42.66667,57.3073 42.66667,128 H 128 c 0,-70.69271 64,-128 85.33333,-128 z"
       style="fill:#4b726e"
       id="path16" />
    <path
       d="m 348.72917,119.25 a 270.17155,270.17155 0 0 0 -82.0625,-12.58333 h -32 V 85.33333 h 32 a 291.82876,291.82876 0 0 1 88.60416,13.60417 z"
       style="fill:#4b726e"
       id="path17" />
    <polygon
       points="277.333,256 277.333,192 320,192 320,170.667 256,170.667 256,234.667 234.667,234.667 234.667,256 "
       style="fill:#c77b58"
       id="polygon17" />
    <rect
       x="298.66666"
       y="192"
       width="21.33333"
       height="21.33333"
       style="fill:#4d4539"
       id="rect17" />
    <rect
       x="192"
       y="192"
       width="21.33333"
       height="21.33333"
       style="fill:#4d4539"
       id="rect18" />
    <rect
       x="234.66667"
       y="277.33334"
       width="42.666672"
       height="21.33333"
       style="fill:#79444a"
       id="rect19" />
    <rect
       x="106.66667"
       y="362.66666"
       width="42.666672"
       height="42.666672"
       style="fill:#b3a555"
       id="rect20" />
    <rect
       x="149.33333"
       y="405.33334"
       width="42.666672"
       height="42.666672"
       style="fill:#b3a555"
       id="rect21" />
    <rect
       x="106.66667"
       y="362.66666"
       width="42.666672"
       height="21.33333"
       style="fill:#b3a555"
       id="rect22" />
    <path
       d="M 64,490.66667 H 42.66667 V 448 a 64.07,64.07 0 0 1 64,-64 v 21.33333 A 42.70887,42.70887 0 0 0 64,448 Z"
       style="fill:#d2c9a5"
       id="path22" />
    <rect
       x="106.66667"
       y="448"
       width="42.666672"
       height="42.666672"
       style="fill:#b3a555"
       id="rect23" />
    <rect
       x="192"
       y="448"
       width="42.666672"
       height="42.666672"
       style="fill:#b3a555"
       id="rect24" />
    <rect
       x="21.33333"
       y="448"
       width="42.666672"
       height="42.666672"
       style="fill:#b3a555"
       id="rect25" />
    <rect
       x="277.33334"
       y="448"
       width="213.33333"
       height="42.666672"
       style="fill:#b3a555"
       id="rect26" />
    <rect
       x="320"
       y="448"
       width="42.666672"
       height="42.666672"
       style="fill:#77743b"
       id="rect27" />
    <rect
       x="405.33334"
       y="448"
       width="42.666672"
       height="42.666672"
       style="fill:#77743b"
       id="rect28" />
    <rect
       x="362.66666"
       y="405.33334"
       width="42.666672"
       height="42.666672"
       style="fill:#77743b"
       id="rect29" />
    <rect
       x="42.666672"
       y="448"
       width="21.33333"
       height="42.666672"
       style="fill:#b3a555"
       id="rect30" />
    <rect
       x="405.33334"
       y="405.33334"
       width="42.666672"
       height="42.666672"
       style="fill:#b3a555"
       id="rect31" />
    <rect
       x="320"
       y="405.33334"
       width="42.666672"
       height="42.666672"
       style="fill:#b3a555"
       id="rect32" />
    <polygon
       points="426.667,490.667 405.333,362.667 362.667,362.667 362.667,448 149.653,448 149.333,362.667 106.667,362.667 85.333,490.667 "
       style="fill:#4b726e"
       id="polygon32" />
    <rect
       x="106.66667"
       y="362.66666"
       width="42.666672"
       height="21.33333"
       style="fill:#4b726e"
       id="rect33" />
    <rect
       x="149.33333"
       y="448"
       width="213.33333"
       height="21.33333"
       style="fill:#4b726e"
       id="rect34" />
    <rect
       x="128"
       y="384"
       width="21.33333"
       height="64"
       style="fill:#4b726e"
       id="rect35" />
    <rect
       x="362.66666"
       y="362.66666"
       width="21.33333"
       height="85.333328"
       style="fill:#4b726e;fill-opacity:1"
       id="rect36" />
    <path
       d="M 89.89583,160 C 123.10807,179.11068 184.974,192 256,192 327.026,192 388.89193,179.11068 422.10417,160 388.89193,128.14844 327.026,106.66667 256,106.66667 184.974,106.66667 123.10807,128.14844 89.89583,160 Z"
       style="fill:#8caba1"
       id="path36" />
    <path
       d="m 256,192 c -59.32292,0 -114.33333,-8.9375 -150.92708,-24.51042 l 8.35416,-19.625 c 33.55209,14.28125 86.84375,22.80209 142.57292,22.80209 55.72917,0 109.02083,-8.52084 142.57292,-22.80209 l 8.35416,19.625 C 370.33333,183.0625 315.32292,192 256,192 Z"
       style="fill:#4b726e"
       id="path37" />
    <path
       d="m 153.32292,146.01042 -7.77084,-19.85417 C 178.09375,113.40625 216.28125,106.66667 256,106.66667 V 128 c -37.08333,0 -72.58333,6.22917 -102.67708,18.01042 z"
       style="fill:#8caba1"
       id="path38" />
    <path
       d="m 173.80208,110.61458 -19.8125,-7.89583 C 177.44792,43.88542 217.53125,23.30208 219.22917,22.45833 L 228.77083,41.54167 224,32 l 4.8125,9.52083 c -0.34375,0.17709 -34.72917,18.25 -55.01042,69.09375 z"
       style="fill:#4b726e"
       id="path39" />
  </g>
</svg>
