<svg xmlns="http://www.w3.org/2000/svg" viewBox="0 0 512 512" preserveAspectRatio="xMidYMid meet">
  <title>Male Scientist</title>
  <g id="male-scientist" data-name="Male Scientist">
    <path
       d="M 405.33333,170.66667 H 448 c 0,-42.66667 -42.66667,-64 -42.66667,-64 h 21.33334 C 405.33333,64 341.33333,21.33333 256,21.33333 170.66667,21.33333 106.66667,64 85.33333,106.66667 h 21.33334 c 0,0 -42.66667,21.33333 -42.66667,64 h 42.66667 C 106.66667,170.66667 64,213.33333 64,256 h 42.66667 c 0,0 -21.33334,42.66667 -21.33334,85.33333 L 128,320 106.66667,384 H 405.33333 L 384,320 426.66667,341.33333 C 426.66667,298.66667 405.33333,256 405.33333,256 H 448 c 0,-42.66667 -42.66667,-85.33333 -42.66667,-85.33333 z"
       style="fill:#ab9b8e"
       id="path1" />
    <path
       d="m 405.33333,106.66667 h 21.33334 C 406.69792,66.72786 349.07812,27.25781 271.83854,22.3138 263.3138,32.65234 256,46.40885 256,64 c 0,42.66667 42.66667,64 42.66667,64 v 234.66667 h 99.556 L 384,320 426.66667,341.33333 C 426.66667,298.66667 405.33333,256 405.33333,256 H 448 c 0,-42.66667 -42.66667,-85.33333 -42.66667,-85.33333 H 448 c 0,-42.66667 -42.66667,-64 -42.66667,-64 z"
       style="fill:#847875;fill-opacity:1"
       id="path2" />
    <rect
       x="341.33334"
       y="192"
       width="42.666672"
       height="64"
       rx="21.333309"
       ry="21.333309"
       style="fill:#c77b58"
       id="rect2" />
    <rect
       x="128"
       y="192"
       width="42.666672"
       height="64"
       rx="21.333309"
       ry="21.333309"
       style="fill:#c77b58"
       id="rect3" />
    <path
       d="m 192,277.33333 v 64 a 21.33334,21.33334 0 0 1 -21.33333,21.33334 h -64 A 85.33333,85.33333 0 0 0 21.33333,448 v 42.66667 H 490.66667 V 448 a 85.33333,85.33333 0 0 0 -85.33334,-85.33333 h -64 A 21.33334,21.33334 0 0 1 320,341.33333 v -64 z"
       style="fill:#c77b58"
       id="path3" />
    <path
       d="M 341.33333,362.66667 A 21.33356,21.33356 0 0 1 320,341.33333 v -64 h -64 v 85.33334 h 21.33333 V 384 h -42.66666 v 21.33331 a 21.33333,21.33333 0 1 0 42.66666,0 h 85.33334 v -42.66664 z"
       style="fill:#c77b58"
       id="path4" />
    <path
       d="m 234.66667,426.66667 v 64 h 256 V 448 a 85.33333,85.33333 0 0 0 -85.33334,-85.33333 h -64 L 320,341.33333 298.66667,362.66667 Z"
       style="fill:#4b3d44;fill-opacity:1"
       id="path5" />
    <polygon
       points="256,490.667 256,405.333 298.667,362.667 362.667,362.667 362.667,426.667 277.333,490.667 "
       style="fill:#4b3d44;fill-opacity:1"
       id="polygon5" />
    <path
       d="m 192,341.33333 21.33333,21.33334 64,64 v 64 h -256 V 448 a 85.33333,85.33333 0 0 1 85.33334,-85.33333 h 64 z"
       style="fill:#847875;fill-opacity:1"
       id="path6" />
    <path
       d="M 170.66667,341.33333 H 192 l -21.33333,21.33334 v 128 H 21.33333 V 448 a 85.33333,85.33333 0 0 1 85.33334,-85.33333 h 42.66669 z"
       style="fill:#4b726e;fill-opacity:1"
       id="path7" />
    <path
       d="m 320,341.33333 21.33333,21.33329 v 128 H 490.66667 V 448 a 85.33333,85.33333 0 0 0 -85.33334,-85.33333 h -42.66669 l -21.33331,-21.33334 z"
       style="fill:#4b726e;fill-opacity:1"
       id="path8" />
    <path
       d="m 362.66664,362.66667 c 0,0 85.33336,21.33333 106.66669,128 H 362.66666 Z"
       style="fill:#4b726e"
       id="path9" />
    <path
       d="m 341.33333,341.33333 c 0,0 64,21.33334 85.33334,85.33334 L 384,448 l 42.66667,42.66667 h -85.33334 z"
       style="fill:#8caba1"
       id="path10" />
    <path
       d="m 170.66667,341.33333 c 0,0 -64,21.33334 -85.33334,85.33334 L 128,448 85.33333,490.66667 h 85.33334 z"
       style="fill:#8caba1"
       id="path11" />
    <polygon
       points="170.667,490.667 149.333,490.667 149.333,384 170.667,362.667 "
       style="fill:#8caba1"
       id="polygon11" />
    <polygon
       points="362.667,490.667 341.333,490.667 341.333,362.667 362.667,384 "
       style="fill:#8caba1"
       id="polygon12" />
    <path
       d="M 64,490.66667 H 42.66667 V 448 a 64.07,64.07 0 0 1 64,-64 v 21.33333 A 42.70887,42.70887 0 0 0 64,448 Z"
       style="fill:#8caba1;fill-opacity:1"
       id="path12" />
    <polygon
       points="192,426.667 277.333,426.667 234.667,384 192,384 "
       style="fill:#847875;fill-opacity:1"
       id="polygon13" />
    <rect
       x="149.33333"
       y="42.666672"
       width="213.33333"
       height="298.66656"
       rx="106.66656"
       ry="106.66656"
       style="fill:#d1b187"
       id="rect13" />
    <path
       d="m 320,64.48307 v 84.85026 h -42.66667 v 21.33334 H 320 v 42.66659 a 21.33333,21.33333 0 0 1 21.33333,21.33333 v 8e-5 A 21.33333,21.33333 0 0 1 320,256 h -64 v 64 h 21.33333 v 19.18359 a 106.69065,106.69065 0 0 0 85.33334,-104.51692 v -85.33334 c 0,-34.78385 -16.90105,-65.3789 -42.66667,-84.85026 z"
       style="fill:#c77b58"
       id="path13" />
    <circle
       cx="202.66667"
       cy="202.66667"
       r="32"
       style="fill:#8caba1"
       id="circle13" />
    <polygon
       points="277.333,256 277.333,192 320,192 320,170.667 256,170.667 256,234.667 234.667,234.667 234.667,256 "
       style="fill:#c77b58"
       id="polygon14" />
    <path
       d="m 234.66667,277.33333 h 42.66667 v 21.33335 A 21.33331,21.33331 0 0 1 256,320 v 0 a 21.33331,21.33331 0 0 1 -21.33331,-21.33331 v -21.33336 z"
       style="fill:#79444a"
       id="path14" />
    <rect
       x="192"
       y="149.33333"
       width="64"
       height="21.33333"
       style="fill:#c77b58"
       id="rect15" />
    <rect
       x="213.33333"
       y="106.66667"
       width="85.333328"
       height="21.33333"
       style="fill:#c77b58"
       id="rect16" />
    <rect
       x="192"
       y="128"
       width="128"
       height="21.33333"
       style="fill:#d1b187"
       id="rect17" />
    <rect
       x="213.33333"
       y="277.33334"
       width="21.33333"
       height="21.33333"
       style="fill:#c77b58"
       id="rect18" />
    <rect
       x="277.33334"
       y="277.33334"
       width="21.33333"
       height="21.33333"
       style="fill:#c77b58"
       id="rect19" />
    <circle
       cx="309.33334"
       cy="202.66667"
       r="32"
       style="fill:#8caba1"
       id="circle19" />
    <polygon
       points="170.667,405.333 234.667,384 192,341.333 170.667,362.667 "
       style="fill:#ab9b8e;fill-opacity:1"
       id="polygon20" />
    <circle
       cx="245.33333"
       cy="437.33334"
       r="10.66667"
       style="fill:#4b3d44;fill-opacity:1"
       id="circle20" />
    <polygon
       points="341.333,362.667 320,341.333 277.333,384 341.333,405.333 "
       style="fill:#ab9b8e;fill-opacity:1"
       id="polygon21" />
    <rect
       x="256"
       y="448"
       width="21.33333"
       height="42.666672"
       style="fill:#847875;fill-opacity:1"
       id="rect21" />
    <path
       d="m 149.33333,213.33333 21.33334,-42.66666 V 128 L 192,106.66667 H 320 L 341.33333,128 v 42.66667 L 362.66667,213.33333 384,192 V 170.66654 A 127.99987,127.99987 0 0 0 256.00013,42.66667 h -2.6e-4 A 127.99987,127.99987 0 0 0 128,170.66654 V 192 Z"
       style="fill:#ab9b8e"
       id="path21" />
    <path
       d="M 260.11068,42.875 A 60.08155,60.08155 0 0 0 256,64 c 0,18.17318 7.80469,32.23438 16.69141,42.66667 H 320 L 341.33333,128 v 42.66667 L 362.66667,213.33333 384,192 V 170.66667 A 127.90741,127.90741 0 0 0 260.11068,42.875 Z"
       style="fill:#847875;fill-opacity:1"
       id="path22" />
    <rect
       x="170.66667"
       y="85.333328"
       width="85.333328"
       height="21.33333"
       style="fill:#ab9b8e;fill-opacity:1"
       id="rect22" />
    <rect
       x="277.33334"
       y="85.333328"
       width="64"
       height="21.33333"
       style="fill:#847875;fill-opacity:1"
       id="rect23" />
    <rect
       x="128"
       y="170.66667"
       width="21.33333"
       height="21.33333"
       style="fill:#ab9b8e"
       id="rect24" />
    <rect
       x="362.66666"
       y="170.66667"
       width="21.33333"
       height="21.33333"
       style="fill:#847875;fill-opacity:1"
       id="rect25" />
    <rect
       x="149.33333"
       y="128"
       width="21.33333"
       height="21.33333"
       style="fill:#ab9b8e"
       id="rect26" />
    <rect
       x="362.66666"
       y="128"
       width="21.33333"
       height="21.33333"
       style="fill:#847875;fill-opacity:1"
       id="rect27" />
    <rect
       x="341.33334"
       y="128"
       width="21.33333"
       height="42.666672"
       style="fill:#ab9b8e;fill-opacity:1"
       id="rect28" />
    <path
       d="M 146.20833,103.54167 131.125,88.45833 c 1.86458,-1.875 46.57292,-45.79166 114.20833,-45.79166 V 64 c -58.89583,0 -98.72916,39.14583 -99.125,39.54167 z"
       style="fill:#847875;fill-opacity:1"
       id="path28" />
    <path
       d="M 106.66667,170.66667 H 85.33333 c 0,-1.48959 0.28125,-36.69792 24.45834,-60.875 L 124.875,124.875 c -18,18 -18.20833,45.52083 -18.20833,45.79167 z"
       style="fill:#847875;fill-opacity:1"
       id="path29" />
    <path
       d="M 106.66667,256 H 85.33333 c 0,-1.48958 0.28125,-36.69792 24.45834,-60.875 l 15.08333,15.08333 c -18,18 -18.20833,45.52084 -18.20833,45.79167 z"
       style="fill:#847875;fill-opacity:1"
       id="path30" />
    <path
       d="m 128,320 h -21.33333 c 0,-1.48958 0.28125,-36.69792 24.45833,-60.875 l 15.08333,15.08333 C 128.20833,292.20833 128,319.72917 128,320 Z"
       style="fill:#847875;fill-opacity:1"
       id="path31" />
    <path
       d="M 365.79167,103.54167 C 327.11458,64.86458 288.33333,64 287.94792,64 L 288,42.66667 c 1.92708,0 47.60417,0.52083 92.875,45.79166 z"
       style="fill:#ab9b8e;fill-opacity:1"
       id="path32" />
  </g>
</svg>
