<svg xmlns="http://www.w3.org/2000/svg" viewBox="0 0 512 512" preserveAspectRatio="xMidYMid meet">
  <title>Male Muslim</title>
  <g id="male-muslim" data-name="Male Muslim">    <rect
       x="341.33334"
       y="192"
       width="42.666672"
       height="64"
       rx="21.333309"
       ry="21.333309"
       style="fill:#c77b58"
       id="rect1" />
    <rect
       x="128"
       y="192"
       width="42.666672"
       height="64"
       rx="21.333309"
       ry="21.333309"
       style="fill:#c77b58"
       id="rect2" />
    <path
       d="m 192,277.33333 v 64 a 21.33334,21.33334 0 0 1 -21.33333,21.33334 h -64 A 85.33333,85.33333 0 0 0 21.33333,448 v 42.66667 H 490.66667 V 448 a 85.33333,85.33333 0 0 0 -85.33334,-85.33333 h -64 A 21.33334,21.33334 0 0 1 320,341.33333 v -64 z"
       style="fill:#c77b58"
       id="path2" />
    <rect
       x="149.33333"
       y="405.33334"
       width="85.333328"
       height="42.666672"
       rx="21.333309"
       ry="21.333309"
       style="fill:#d1b187"
       id="rect3" />
    <circle
       cx="213.33333"
       cy="426.66666"
       r="21.33333"
       style="fill:#d1b187"
       id="circle3" />
    <path
       d="M 341.33333,362.66667 A 21.33356,21.33356 0 0 1 320,341.33333 v -64 h -64 v 85.33334 h 21.33333 V 384 h -42.66666 v 21.33333 a 21.33333,21.33333 0 1 0 42.66666,0 h 85.33334 v -42.66666 z"
       style="fill:#c77b58"
       id="path3" />
    <path
       d="m 341.33333,362.66667 v -21.33334 h -64 v 21.33334 h -42.66666 v 128 h 256 V 448 a 85.33333,85.33333 0 0 0 -85.33334,-85.33333 z"
       style="fill:#77743b;fill-opacity:1"
       id="path4" />
    <rect
       x="426.66666"
       y="448"
       width="21.33333"
       height="42.666672"
       style="fill:#77743b"
       id="rect4" />
    <rect
       x="384"
       y="448"
       width="42.666672"
       height="42.666672"
       style="fill:#77743b;fill-opacity:1"
       id="rect5" />
    <rect
       x="256"
       y="384"
       width="42.666672"
       height="106.66667"
       style="fill:#77743b"
       id="rect6" />
    <path
       d="m 170.66667,362.66667 v -21.33334 h 64 v 21.33334 h 42.66666 v 128 h -256 V 448 a 85.33333,85.33333 0 0 1 85.33334,-85.33333 z"
       style="fill:#b3a555"
       id="path6" />
    <rect
       x="149.33333"
       y="42.666672"
       width="213.33333"
       height="298.66656"
       rx="106.66656"
       ry="106.66656"
       style="fill:#d1b187"
       id="rect7" />
    <path
       d="m 320,64.48307 v 84.85026 h -42.66667 v 21.33334 H 320 v 42.66659 a 21.33333,21.33333 0 0 1 21.33333,21.33333 v 8e-5 A 21.33333,21.33333 0 0 1 320,256 h -64 v 64 h 21.33333 v 19.18359 a 106.69065,106.69065 0 0 0 85.33334,-104.51692 v -85.33334 c 0,-34.78385 -16.90104,-65.3789 -42.66667,-84.85026 z"
       style="fill:#c77b58"
       id="path7" />
    <path
       d="m 179.95833,157.25 -5.25,-20.6875 C 211.66667,127.20833 254.375,128.04167 256.22917,128 l -0.4375,21.33333 c -0.4375,-0.0312 -41.70834,-0.72916 -75.83334,7.91667 z"
       style="fill:#c77b58"
       id="path8" />
    <polygon
       points="277.333,256 277.333,192 320,192 320,170.667 256,170.667 256,234.667 234.667,234.667 234.667,256 "
       style="fill:#c77b58"
       id="polygon8" />
    <rect
       x="298.66666"
       y="192"
       width="21.33333"
       height="21.33333"
       style="fill:#4d4539"
       id="rect8" />
    <rect
       x="192"
       y="192"
       width="21.33333"
       height="21.33333"
       style="fill:#4d4539"
       id="rect9" />
    <rect
       x="234.66667"
       y="277.33334"
       width="42.666672"
       height="21.33333"
       style="fill:#79444a"
       id="rect10" />
    <path
       d="M 64,490.66667 H 42.66667 V 448 a 64.07,64.07 0 0 1 64,-64 v 21.33333 A 42.71555,42.71555 0 0 0 64,448 Z"
       style="fill:#77743b;fill-opacity:1"
       id="path10" />
    <path
       d="m 341.33333,128 v 85.33331 h 21.33334 V 192 c 0,0 21.33333,0 21.33333,-21.33333 v -21.33334 z"
       style="fill:#ae5d40;fill-opacity:1"
       id="path11" />
    <path
       d="m 128,149.33333 v 21.33334 C 128,192 149.33333,192 149.33333,192 v 21.33333 h 21.33334 V 128 Z"
       style="fill:#ae5d40"
       id="path12" />
    <path
       d="m 255.99987,21.33333 h 2.6e-4 A 127.99987,127.99987 0 0 1 384,149.33321 v 1.2e-4 C 384,149.33333 341.33333,128 256,128 c -85.33333,0 -128,21.33333 -128,21.33333 v -1.2e-4 A 127.99987,127.99987 0 0 1 255.99987,21.33333 Z"
       style="fill:#4b726e;fill-opacity:1"
       id="path13" />
    <path
       d="M 247.58073,21.75911 C 252.82031,33.14974 256,46.96875 256,64 c 0,24.3138 -7.3138,48.349 -25.11719,64.76693 C 162.47786,132.34766 128,149.33333 128,149.33333 A 127.90224,127.90224 0 0 1 247.58073,21.75911 Z"
       style="fill:#8caba1"
       id="path14" />
    <circle
       cx="266.66666"
       cy="394.66666"
       r="10.66667"
       style="fill:#77743b;fill-opacity:1"
       id="circle14" />
    <circle
       cx="266.66666"
       cy="458.66666"
       r="10.66667"
       style="fill:#77743b;fill-opacity:1"
       id="circle15" />
    <rect
       x="341.33334"
       y="362.66666"
       width="64"
       height="21.33333"
       style="fill:#77743b;fill-opacity:1"
       id="rect15" />
    <rect
       x="106.66667"
       y="362.66666"
       width="64"
       height="21.33333"
       style="fill:#77743b;fill-opacity:1"
       id="rect16" />
    <rect
       x="170.66667"
       y="341.33334"
       width="21.33333"
       height="21.33333"
       style="fill:#77743b;fill-opacity:1"
       id="rect17" />
    <rect
       x="320"
       y="341.33334"
       width="21.33333"
       height="21.33333"
       style="fill:#77743b"
       id="rect18" />
    <circle
       cx="288"
       cy="96"
       r="10.66667"
       style="fill:#8caba1;fill-opacity:1"
       id="circle18" />
    <circle
       cx="202.66667"
       cy="96"
       r="10.66667"
       style="fill:#4b726e;fill-opacity:1"
       id="circle19" />
    <circle
       cx="202.66667"
       cy="53.333328"
       r="10.66667"
       style="fill:#4b726e;fill-opacity:1"
       id="circle20" />
    <circle
       cx="330.66666"
       cy="74.666672"
       r="10.66667"
       style="fill:#8caba1;fill-opacity:1"
       id="circle21" />
    <circle
       cx="288"
       cy="53.333328"
       r="10.66667"
       style="fill:#8caba1;fill-opacity:1"
       id="circle22" />
    <circle
       cx="352"
       cy="117.33333"
       r="10.66667"
       style="fill:#8caba1;fill-opacity:1"
       id="circle23" />
    <circle
       cx="245.33333"
       cy="74.666672"
       r="10.66667"
       style="fill:#4b726e;fill-opacity:1"
       id="circle24" />
    <circle
       cx="160"
       cy="117.33333"
       r="10.66667"
       style="fill:#4b726e;fill-opacity:1"
       id="circle25" />
  </g>
</svg>
