<svg xmlns="http://www.w3.org/2000/svg" viewBox="0 0 512 512" preserveAspectRatio="xMidYMid meet">
  <title>Muslim Man</title>
  <g id="muslim-man" data-name="Muslim Man">
    <rect
       x="341.33334"
       y="192"
       width="42.666672"
       height="64"
       rx="21.333309"
       ry="21.333309"
       style="fill:#79444a;fill-opacity:1"
       id="rect1" />
    <rect
       x="128"
       y="192"
       width="42.666672"
       height="64"
       rx="21.333309"
       ry="21.333309"
       style="fill:#79444a;fill-opacity:1"
       id="rect2" />
    <path
       d="m 192,277.33333 v 64 a 21.33334,21.33334 0 0 1 -21.33333,21.33334 h -64 A 85.33333,85.33333 0 0 0 21.33333,448 v 42.66667 H 490.66667 V 448 a 85.33333,85.33333 0 0 0 -85.33334,-85.33333 h -64 A 21.33334,21.33334 0 0 1 320,341.33333 v -64 z"
       style="fill:#79444a;fill-opacity:1"
       id="path2" />
    <rect
       x="149.33333"
       y="405.33334"
       width="85.333328"
       height="42.666672"
       rx="21.333309"
       ry="21.333309"
       style="fill:#ae5d40"
       id="rect3" />
    <circle
       cx="213.33333"
       cy="426.66666"
       r="21.33333"
       style="fill:#c77b58"
       id="circle3" />
    <path
       d="M 341.33333,362.66667 A 21.33356,21.33356 0 0 1 320,341.33333 v -64 h -85.33333 v 128 a 21.33333,21.33333 0 1 0 42.66666,0 h 85.33334 v -42.66666 z"
       style="fill:#79444a;fill-opacity:1"
       id="path3" />
    <path
       d="m 405.33333,362.66667 h -63.9999 v 9e-5 a 42.66667,42.66667 0 0 1 -42.66667,42.66657 h -85.33352 a 42.66667,42.66667 0 0 1 -42.66667,-42.66662 v 0 h -63.9999 A 85.33333,85.33333 0 0 0 21.33333,448 v 42.66667 H 490.66667 V 448 a 85.33333,85.33333 0 0 0 -85.33334,-85.33333 z"
       style="fill:#ab9b8e;fill-opacity:1"
       id="path4" />
    <path
       d="m 405.33333,362.66667 h -64 a 42.6671,42.6671 0 0 1 -42.66666,42.66666 v 85.33334 h 192 V 448 a 85.33255,85.33255 0 0 0 -85.33334,-85.33333 z"
       style="fill:#ab9b8e;fill-opacity:1"
       id="path5" />
    <rect
       x="405.33334"
       y="426.66666"
       width="42.666672"
       height="64"
       style="fill:#847875;fill-opacity:1"
       id="rect5" />
    <path
       d="M 64,490.66667 H 42.66667 V 448 a 64.07,64.07 0 0 1 64,-64 v 21.33333 A 42.71556,42.71556 0 0 0 64,448 Z"
       style="fill:#847875;fill-opacity:1"
       id="path6" />
    <path
       d="M 320,448 V 426.66667 A 42.71556,42.71556 0 0 0 362.66667,384 V 362.66667 H 384 V 384 a 64.07,64.07 0 0 1 -64,64 z"
       style="fill:#847875;fill-opacity:1"
       id="path7" />
    <rect
       x="85.333328"
       y="362.66666"
       width="85.333328"
       height="128"
       style="fill:#ae5d40"
       id="rect7" />
    <rect
       x="149.33333"
       y="384"
       width="21.33333"
       height="106.66667"
       style="fill:#79444a;fill-opacity:1"
       id="rect8" />
    <rect
       x="341.33334"
       y="362.66666"
       width="85.333328"
       height="128"
       style="fill:#ae5d40;fill-opacity:1"
       id="rect9" />
    <rect
       x="149.33333"
       y="42.666672"
       width="213.33333"
       height="298.66656"
       rx="106.66656"
       ry="106.66656"
       style="fill:#ae5d40"
       id="rect10" />
    <path
       d="m 320,64.48307 v 84.85026 h -42.66667 v 21.33334 H 320 v 42.66659 a 21.33333,21.33333 0 0 1 21.33333,21.33333 v 8e-5 A 21.33333,21.33333 0 0 1 320,256 h -64 v 64 h 21.33333 v 19.18359 a 106.69065,106.69065 0 0 0 85.33334,-104.51692 v -85.33334 c 0,-34.78385 -16.90104,-65.3789 -42.66667,-84.85026 z"
       style="fill:#79444a;fill-opacity:1"
       id="path10" />
    <rect
       x="341.33334"
       y="213.33333"
       width="21.33333"
       height="42.666672"
       style="fill:#4b726e"
       id="rect11" />
    <rect
       x="234.66667"
       y="256"
       width="42.666672"
       height="21.33333"
       style="fill:#4b726e"
       id="rect12" />
    <rect
       x="256"
       y="256"
       width="21.33333"
       height="21.33333"
       style="fill:#4b726e"
       id="rect13" />
    <rect
       x="213.33333"
       y="277.33334"
       width="21.33333"
       height="21.33333"
       style="fill:#4b726e"
       id="rect14" />
    <rect
       x="213.33333"
       y="256"
       width="21.33333"
       height="21.33333"
       style="fill:#ae5d40;fill-opacity:1"
       id="rect15" />
    <rect
       x="277.33334"
       y="277.33334"
       width="21.33333"
       height="21.33333"
       style="fill:#4b726e"
       id="rect16" />
    <rect
       x="277.33334"
       y="256"
       width="21.33333"
       height="21.33333"
       style="fill:#79444a;fill-opacity:1"
       id="rect17" />
    <path
       d="m 128,174.32691 a 42.66661,42.66661 0 0 0 12.49676,30.16985 l 8.83657,8.83657 h 21.33334 V 128 h -5e-5 A 42.66662,42.66662 0 0 0 128,170.66662 Z"
       style="fill:#4b726e"
       id="path17" />
    <rect
       x="149.33333"
       y="192"
       width="21.33333"
       height="42.666672"
       style="fill:#4b726e"
       id="rect18" />
    <path
       d="m 341.33333,128 v 85.33331 h 21.33334 l 8.83657,-8.83657 A 42.66661,42.66661 0 0 0 384,174.32691 v -3.66029 A 42.66662,42.66662 0 0 0 341.33338,128 Z"
       style="fill:#4b726e"
       id="path18" />
    <rect
       x="341.33334"
       y="149.33333"
       width="21.33333"
       height="42.666672"
       style="fill:#4b726e"
       id="rect19" />
    <rect
       x="149.33333"
       y="149.33333"
       width="21.33333"
       height="21.33333"
       style="fill:#4b726e"
       id="rect20" />
    <rect
       x="192"
       y="149.33333"
       width="42.666672"
       height="21.33333"
       style="fill:#79444a;fill-opacity:1"
       id="rect21" />
    <polygon
       points="277.333,256 277.333,192 320,192 320,170.667 256,170.667 256,234.667 234.667,234.667 234.667,256 "
       style="fill:#79444a;fill-opacity:1"
       id="polygon21" />
    <rect
       x="298.66666"
       y="192"
       width="21.33333"
       height="21.33333"
       style="fill:#4b3d44"
       id="rect22" />
    <rect
       x="192"
       y="192"
       width="21.33333"
       height="21.33333"
       style="fill:#4b3d44"
       id="rect23" />
    <rect
       x="234.66667"
       y="277.33334"
       width="42.666672"
       height="21.33333"
       style="fill:#4b3d44;fill-opacity:1"
       id="rect24" />
    <path
       d="m 128,213.33331 c 0,0 21.33333,0 128,-85.33331 85.33333,0 128,85.33331 128,85.33331 v -62.463 C 384,80.89543 328.51858,22.04578 258.5472,21.34607 Q 257.27985,21.33339 256,21.33335 q -1.27985,-4e-5 -2.5473,0.01272 C 183.48142,22.04576 128,80.89541 128,150.87029 Z"
       style="fill:#ab9b8e"
       id="path24" />
    <path
       d="M 330.80339,45.60156 C 304.10937,95.8737 256,128 256,128 c 85.33333,0 128,85.33333 128,85.33333 V 150.86979 A 130.739,130.739 0 0 0 330.80339,45.60156 Z"
       style="fill:#847875;fill-opacity:1"
       id="path25" />
    <path
       d="m 365.79167,167.54167 c -40.80209,-40.79167 -78.625,-60.16667 -79,-60.35417 l 9.59375,-19.04167 c 1.66666,0.83334 41.10416,20.9375 84.48958,64.3125 z"
       style="fill:#ab9b8e;fill-opacity:1"
       id="path26" />
    <path
       d="m 384,160 h -21.33333 c 0,-56.8125 -44.38542,-83.8125 -46.28125,-84.9375 L 327.1875,56.66667 C 329.5,58.02083 384,90.66667 384,160 Z"
       style="fill:#ab9b8e;fill-opacity:1"
       id="path27" />
    <path
       d="m 142.04167,170.125 -6.75,-20.25 c 1.25,-0.41667 125.04166,-42.27083 165.16666,-102.45833 l 17.75,11.83333 c -44.1875,66.29167 -170.80208,109.08333 -176.16666,110.875 z"
       style="fill:#847875;fill-opacity:1"
       id="path28" />
    <path
       d="m 142.625,127.22917 -7.91667,-19.79167 c 1.04167,-0.41667 105.13542,-42.375 145.75,-82.97917 l 15.08334,15.08334 C 251.83333,83.25 147.0625,125.45833 142.625,127.22917 Z"
       style="fill:#847875;fill-opacity:1"
       id="path29" />
    <rect
       x="234.66667"
       y="298.66666"
       width="42.666672"
       height="64"
       rx="21.333309"
       ry="21.333309"
       style="fill:#4b726e"
       id="rect29" />
    <path
       d="M 256,362.66667 A 117.47279,117.47279 0 0 1 138.66667,245.33333 H 160 a 96,96 0 0 0 192,0 h 21.33333 A 117.47279,117.47279 0 0 1 256,362.66667 Z"
       style="fill:#4b726e"
       id="path30" />
    <path
       d="m 279.45833,360.33333 -4.25,-20.91666 A 96.26155,96.26155 0 0 0 352,245.33333 h 21.33333 a 117.684,117.684 0 0 1 -93.875,115 z"
       style="fill:#4b726e"
       id="path31" />
    <path
       d="m 149.33331,234.66667 v 0 c 0,0 21.33336,-0.47683 21.33336,21.33333 C 192,277.33333 192,298.66667 192,298.66667 c 0,0 21.33333,0 21.33333,21.33333 0,0 0,21.33333 -21.33333,21.33333 l -3.28423,-1.09474 A 88.79535,88.79535 0 0 1 128,256 v -6e-5 c 0,-21.33338 21.33331,-21.33327 21.33331,-21.33327 z"
       style="fill:#4b726e"
       id="path32" />
    <path
       d="m 362.66667,234.66667 v 0 c 0,0 -21.33334,-0.47683 -21.33334,21.33333 C 320,277.33333 320,298.66667 320,298.66667 c 0,0 -21.33333,0 -21.33333,21.33333 0,0 0,21.33333 21.33333,21.33333 l 3.28423,-1.09474 A 88.79535,88.79535 0 0 0 384,256 v -6e-5 c 0,-21.33338 -21.33333,-21.33327 -21.33333,-21.33327 z"
       style="fill:#4b726e"
       id="path33" />
    <rect
       x="170.66667"
       y="298.66666"
       width="21.33333"
       height="21.33333"
       style="fill:#4b726e"
       id="rect33" />
    <rect
       x="320"
       y="298.66666"
       width="21.33333"
       height="21.33333"
       style="fill:#4b726e"
       id="rect34" />
    <rect
       x="341.33334"
       y="256"
       width="21.33333"
       height="21.33333"
       style="fill:#4b726e"
       id="rect35" />
    <rect
       x="149.33333"
       y="256"
       width="21.33333"
       height="21.33333"
       style="fill:#4b726e"
       id="rect36" />
    <rect
       x="256"
       y="320"
       width="21.33333"
       height="21.33333"
       style="fill:#4b726e"
       id="rect37" />
    <rect
       x="149.33333"
       y="213.33333"
       width="21.33333"
       height="42.666672"
       style="fill:#4b726e"
       id="rect38" />
    <circle
       cx="266.66666"
       cy="437.33334"
       r="10.66667"
       style="fill:#79444a;fill-opacity:1"
       id="circle38" />
    <circle
       cx="266.66666"
       cy="480"
       r="10.66667"
       style="fill:#79444a;fill-opacity:1"
       id="circle39" />
    <rect
       x="277.33334"
       y="426.66666"
       width="21.33333"
       height="64"
       style="fill:#847875;fill-opacity:1"
       id="rect39" />
    <rect
       x="106.66667"
       y="362.66666"
       width="42.666672"
       height="21.33333"
       style="fill:#ae5d40;fill-opacity:1"
       id="rect40" />
    <rect
       x="341.33334"
       y="384"
       width="21.33333"
       height="106.66667"
       style="fill:#79444a;fill-opacity:1"
       id="rect41" />
  </g>
</svg>
