<svg xmlns="http://www.w3.org/2000/svg" viewBox="0 0 512 512" preserveAspectRatio="xMidYMid meet">
  <title>Old Business Man</title>
  <g id="old-business-man" data-name="Old Business Man">
    <circle
       cx="288"
       cy="74.666672"
       r="53.333328"
       style="fill:#847875;fill-opacity:1"
       id="circle1" />
    <circle
       cx="224"
       cy="74.666672"
       r="53.333328"
       style="fill:#ab9b8e"
       id="circle2" />
    <circle
       cx="309.33334"
       cy="138.66667"
       r="74.666672"
       style="fill:#847875;fill-opacity:1"
       id="circle3" />
    <circle
       cx="202.66667"
       cy="138.66667"
       r="74.666672"
       style="fill:#ab9b8e"
       id="circle4" />
    <rect
       x="341.33334"
       y="192"
       width="42.666672"
       height="64"
       rx="21.333309"
       ry="21.333309"
       style="fill:#c77b58"
       id="rect4" />
    <rect
       x="128"
       y="192"
       width="42.666672"
       height="64"
       rx="21.333309"
       ry="21.333309"
       style="fill:#c77b58"
       id="rect5" />
    <path
       d="m 192,277.33333 v 64 a 21.33334,21.33334 0 0 1 -21.33333,21.33334 h -64 A 85.33333,85.33333 0 0 0 21.33333,448 v 42.66667 H 490.66667 V 448 a 85.33333,85.33333 0 0 0 -85.33334,-85.33333 h -64 A 21.33334,21.33334 0 0 1 320,341.33333 v -64 z"
       style="fill:#c77b58"
       id="path5" />
    <path
       d="M 341.33333,362.66667 A 21.33356,21.33356 0 0 1 320,341.33333 v -64 h -64 v 85.33334 h 21.33333 V 384 h -42.66666 v 21.33331 a 21.33333,21.33333 0 1 0 42.66666,0 h 85.33334 v -42.66664 z"
       style="fill:#c77b58"
       id="path6" />
    <path
       d="M 256,384 V 490.66667 H 490.66667 V 448 a 85.33333,85.33333 0 0 0 -85.33334,-85.33333 h -64 L 320,341.33333 Z"
       style="fill:#4b3d44;fill-opacity:1"
       id="path7" />
    <polygon
       points="277.333,405.333 341.333,405.333 298.667,448 298.667,490.667 256,490.667 256,426.667 "
       style="fill:#927441;fill-opacity:1"
       id="polygon7"
       transform="matrix(2.3579388,0,0,1,-347.63235,0)" />
    <path
       d="M 192,341.33333 256,384 V 490.66667 H 21.33333 V 448 a 85.33333,85.33333 0 0 1 85.33334,-85.33333 h 64 z"
       style="fill:#927441;fill-opacity:1"
       id="path8" />
    <rect
       x="170.66667"
       y="405.33334"
       width="21.33333"
       height="85.333328"
       style="fill:#927441;fill-opacity:1"
       id="rect8" />
    <polygon
       points="213.333,490.667 298.667,490.667 277.333,426.667 301.334,406.667 256,384 213.333,405.333 234.667,426.667 "
       style="fill:#79444a"
       id="polygon8" />
    <rect
       x="234.66667"
       y="384"
       width="42.666672"
       height="21.33333"
       style="fill:#79444a"
       id="rect9" />
    <rect
       x="234.66667"
       y="448"
       width="21.33333"
       height="42.666672"
       style="fill:#79444a"
       id="rect10" />
    <rect
       x="234.66667"
       y="426.66666"
       width="42.666672"
       height="21.33333"
       style="fill:#79444a"
       id="rect12" />
    <rect
       x="256"
       y="405.33334"
       width="21.33333"
       height="21.33333"
       style="fill:#79444a"
       id="rect13" />
    <path
       d="M 170.66667,341.33333 H 192 l -21.33333,21.33334 v 128 H 21.33333 V 448 a 85.33333,85.33333 0 0 1 85.33334,-85.33333 h 42.66669 z"
       style="fill:#4b3d44;fill-opacity:1"
       id="path13" />
    <path
       d="M 64,490.66667 H 42.66667 V 448 a 64.07,64.07 0 0 1 64,-64 v 21.33333 A 42.71555,42.71555 0 0 0 64,448 Z"
       style="fill:#4b3d44;fill-opacity:1"
       id="path14" />
    <path
       d="m 320,341.33333 21.33333,21.33329 v 128 H 490.66667 V 448 a 85.33333,85.33333 0 0 0 -85.33334,-85.33333 h -42.66669 l -21.33331,-21.33334 z"
       style="fill:#4b3d44;fill-opacity:1"
       id="path15" />
    <path
       d="m 362.66664,362.66667 c 0,0 85.33336,21.33333 106.66669,128 H 362.66666 Z"
       style="fill:#4b3d44;fill-opacity:1"
       id="path16" />
    <polygon
       points="170.667,426.667 256,384 192,341.333 170.667,362.667 "
       style="fill:#ab9b8e;fill-opacity:1"
       id="polygon16" />
    <polygon
       points="341.333,362.667 320,341.333 256,384 341.333,426.667 "
       style="fill:#ab9b8e;fill-opacity:1"
       id="polygon17" />
    <path
       d="m 170.66667,341.33333 c 0,0 -64,21.33334 -85.33334,85.33334 L 128,448 85.33333,490.66667 h 85.33334 z"
       style="fill:#847875;fill-opacity:1"
       id="path17" />
    <path
       d="m 341.33333,341.33333 c 0,0 64,21.33334 85.33334,85.33334 L 384,448 l 42.66667,42.66667 h -85.33334 z"
       style="fill:#847875;fill-opacity:1"
       id="path18" />
    <polygon
       points="170.667,490.667 149.333,490.667 149.333,384 170.667,362.667 "
       style="fill:#847875;fill-opacity:1"
       id="polygon18" />
    <polygon
       points="362.667,490.667 341.333,490.667 341.333,362.667 362.667,384 "
       style="fill:#847875;fill-opacity:1"
       id="polygon19" />
    <rect
       x="149.33333"
       y="42.666672"
       width="213.33333"
       height="298.66656"
       rx="106.66656"
       ry="106.66656"
       style="fill:#d1b187"
       id="rect19" />
    <path
       d="m 320,64.48307 v 84.85026 h -42.66667 v 21.33334 H 320 v 42.66659 a 21.33333,21.33333 0 0 1 21.33333,21.33333 v 8e-5 A 21.33333,21.33333 0 0 1 320,256 h -64 v 64 h 21.33333 v 19.18359 a 106.69065,106.69065 0 0 0 85.33334,-104.51692 v -85.33334 c 0,-34.78385 -16.90105,-65.3789 -42.66667,-84.85026 z"
       style="fill:#c77b58"
       id="path19" />
    <rect
       x="170.66667"
       y="213.33333"
       width="64"
       height="42.666672"
       rx="21.333309"
       ry="21.333309"
       style="fill:#8caba1"
       id="rect20" />
    <rect
       x="277.33334"
       y="213.33333"
       width="64"
       height="42.666672"
       rx="21.333309"
       ry="21.333309"
       style="fill:#8caba1"
       id="rect21" />
    <rect
       x="192"
       y="234.66667"
       width="21.33333"
       height="21.33333"
       style="fill:#8caba1"
       id="rect22" />
    <rect
       x="298.66666"
       y="234.66667"
       width="21.33333"
       height="21.33333"
       style="fill:#8caba1"
       id="rect23" />
    <polygon
       points="277.333,256 277.333,192 320,192 320,170.667 256,170.667 256,234.667 234.667,234.667 234.667,256 "
       style="fill:#c77b58"
       id="polygon23" />
    <rect
       x="298.66666"
       y="192"
       width="21.33333"
       height="21.33333"
       style="fill:#4d4539"
       id="rect24" />
    <rect
       x="192"
       y="192"
       width="21.33333"
       height="21.33333"
       style="fill:#4d4539"
       id="rect25" />
    <rect
       x="234.66667"
       y="277.33334"
       width="42.666672"
       height="21.33333"
       style="fill:#79444a"
       id="rect26" />
    <rect
       x="192"
       y="149.33333"
       width="64"
       height="21.33333"
       style="fill:#c77b58"
       id="rect27" />
    <rect
       x="213.33333"
       y="106.66667"
       width="85.333328"
       height="21.33333"
       style="fill:#c77b58"
       id="rect28" />
    <rect
       x="192"
       y="128"
       width="128"
       height="21.33333"
       style="fill:#d1b187"
       id="rect29" />
    <rect
       x="277.33334"
       y="277.33334"
       width="21.33333"
       height="42.666672"
       style="fill:#c77b58"
       id="rect31" />
    <rect
       x="149.33333"
       y="85.333328"
       width="21.33333"
       height="128"
       style="fill:#ab9b8e"
       id="rect32" />
    <rect
       x="149.33333"
       y="85.333328"
       width="21.33333"
       height="21.33333"
       style="fill:#ab9b8e"
       id="rect33" />
    <rect
       x="149.33333"
       y="128"
       width="21.33333"
       height="21.33333"
       style="fill:#ab9b8e"
       id="rect34" />
    <rect
       x="341.33334"
       y="85.333328"
       width="21.33333"
       height="128"
       style="fill:#847875;fill-opacity:1"
       id="rect35" />
    <rect
       x="341.33334"
       y="85.333328"
       width="21.33333"
       height="21.33333"
       style="fill:#ab9b8e;fill-opacity:1"
       id="rect36" />
    <rect
       x="341.33334"
       y="128"
       width="21.33333"
       height="21.33333"
       style="fill:#ab9b8e;fill-opacity:1"
       id="rect37" />
  </g>
</svg>
