<svg xmlns="http://www.w3.org/2000/svg" viewBox="0 0 512 512" preserveAspectRatio="xMidYMid meet">
  <title>Old Woman</title>
  <g id="old-woman" data-name="Old Woman">
    <circle
       cx="341.33334"
       cy="213.33333"
       r="85.333328"
       style="fill:#ab9b8e"
       id="circle1" />
    <circle
       cx="170.66667"
       cy="106.66667"
       r="85.333328"
       style="fill:#ab9b8e"
       id="circle2" />
    <circle
       cx="170.66667"
       cy="213.33333"
       r="85.333328"
       style="fill:#ab9b8e"
       id="circle3" />
    <circle
       cx="362.66666"
       cy="149.33333"
       r="64"
       style="fill:#ab9b8e"
       id="circle4" />
    <circle
       cx="277.33334"
       cy="106.66667"
       r="85.333328"
       style="fill:#ab9b8e"
       id="circle5" />
    <rect
       x="341.33334"
       y="192"
       width="42.666672"
       height="64"
       rx="21.333309"
       ry="21.333309"
       style="fill:#c77b58"
       id="rect5" />
    <rect
       x="128"
       y="192"
       width="42.666672"
       height="64"
       rx="21.333309"
       ry="21.333309"
       style="fill:#c77b58"
       id="rect6" />
    <path
       d="m 192,277.33333 v 64 a 21.33334,21.33334 0 0 1 -21.33333,21.33334 h -64 A 85.33333,85.33333 0 0 0 21.33333,448 v 42.66667 H 490.66667 V 448 a 85.33333,85.33333 0 0 0 -85.33334,-85.33333 h -64 A 21.33334,21.33334 0 0 1 320,341.33333 v -64 z"
       style="fill:#c77b58"
       id="path6" />
    <path
       d="M 341.33333,362.66667 A 21.33356,21.33356 0 0 1 320,341.33333 v -64 h -85.33333 v 128 a 21.33333,21.33333 0 1 0 42.66666,0 h 85.33334 v -42.66666 z"
       style="fill:#c77b58"
       id="path7" />
    <rect
       x="149.33333"
       y="42.666672"
       width="213.33333"
       height="298.66656"
       rx="106.66656"
       ry="106.66656"
       style="fill:#d1b187"
       id="rect7" />
    <path
       d="m 320,64.48307 v 84.85026 h -42.66667 v 21.33334 H 320 v 42.66659 a 21.33333,21.33333 0 0 1 21.33333,21.33333 v 8e-5 A 21.33333,21.33333 0 0 1 320,256 h -64 v 64 h 21.33333 v 19.18359 a 106.69065,106.69065 0 0 0 85.33334,-104.51692 v -85.33334 c 0,-34.78385 -16.90105,-65.3789 -42.66667,-84.85026 z"
       style="fill:#c77b58"
       id="path8" />
    <polygon
       points="277.333,256 277.333,192 320,192 320,170.667 256,170.667 256,234.667 234.667,234.667 234.667,256 "
       style="fill:#c77b58"
       id="polygon8" />
    <rect
       x="298.66666"
       y="192"
       width="21.33333"
       height="21.33333"
       style="fill:#4d4539"
       id="rect8" />
    <rect
       x="192"
       y="192"
       width="21.33333"
       height="21.33333"
       style="fill:#4d4539"
       id="rect9" />
    <rect
       x="234.66667"
       y="277.33334"
       width="42.666672"
       height="21.33333"
       style="fill:#79444a"
       id="rect10" />
    <rect
       x="192"
       y="149.33333"
       width="64"
       height="21.33333"
       style="fill:#c77b58"
       id="rect11" />
    <rect
       x="213.33333"
       y="106.66667"
       width="85.333328"
       height="21.33333"
       style="fill:#c77b58"
       id="rect12" />
    <rect
       x="192"
       y="128"
       width="128"
       height="21.33333"
       style="fill:#d1b187"
       id="rect13" />
    <rect
       x="170.66667"
       y="213.33333"
       width="64"
       height="42.666672"
       rx="21.333309"
       ry="21.333309"
       style="fill:#8caba1"
       id="rect14" />
    <rect
       x="277.33334"
       y="213.33333"
       width="64"
       height="42.666672"
       rx="21.333309"
       ry="21.333309"
       style="fill:#8caba1"
       id="rect15" />
    <rect
       x="277.33334"
       y="277.33334"
       width="21.33333"
       height="42.666672"
       style="fill:#c77b58"
       id="rect17" />
    <path
       d="m 362.66667,362.66667 h 42.66667 A 85.33333,85.33333 0 0 1 490.66667,448 v 42.66667 h -128 z"
       style="fill:#4b3d44;fill-opacity:1"
       id="path18" />
    <path
       d="M 362.66667,362.66667 C 384,362.66667 384,384 384,384 c 0,0 0,21.33333 21.33333,21.33333 21.33333,0 21.33334,21.33334 21.33334,21.33334 C 426.66667,448 448,448 448,448 c 21.33333,0 21.33333,-21.33333 21.33333,-21.33333 0,0 0,-21.33334 -21.33333,-21.33334 -21.33333,0 -21.33333,-21.33333 -21.33333,-21.33333 0,0 0,-21.33333 -21.33334,-21.33333 z"
       style="fill:#79444a"
       id="path19" />
    <path
       d="m 21.33333,362.66667 h 128 v 42.66667 A 85.33333,85.33333 0 0 1 64,490.66667 H 21.33333 Z"
       transform="rotate(180,85.333335,426.66667)"
       style="fill:#4b3d44;fill-opacity:1"
       id="path20" />
    <path
       d="M 64,469.33333 C 85.33333,469.33333 85.33333,448 85.33333,448 c 0,-21.33333 21.33334,-21.33333 21.33334,-21.33333 C 128,426.66667 128,405.33333 128,405.33333 128,384 106.66667,384 106.66667,384 c 0,0 -21.33334,0 -21.33334,21.33333 C 85.33333,426.66666 64,426.66667 64,426.66667 42.66667,426.66667 42.66667,448 42.66667,448 c 0,21.33333 -21.33334,21.39583 -21.33334,21.39583 v 21.27084 H 42.66667 C 42.66667,469.33333 64,469.33333 64,469.33333 Z"
       style="fill:#79444a"
       id="path21" />
    <rect
       x="106.66667"
       y="362.66666"
       width="42.666672"
       height="128"
       style="fill:#79444a"
       id="rect21" />
    <rect
       x="362.66666"
       y="362.66666"
       width="42.666672"
       height="128"
       style="fill:#79444a"
       id="rect22" />
    <path
       d="m 106.66667,192 42.66666,21.33333 v -42.66677 l 21.33328,-21.33328 V 85.33333 H 256 v 5e-5 A 42.66665,42.66665 0 0 0 298.66662,128 h 42.66671 v 21.33333 l 21.33334,21.33334 v 42.66666 L 405.33333,192 v -1.5e-4 a 149.333,149.333 0 0 0 -149.333,-149.333 h -6e-4 a 149.333,149.333 0 0 0 -149.333,149.333 z"
       style="fill:#ab9b8e"
       id="path22" />
    <path
       d="m 170.66667,85.33333 a 42.66667,42.66667 0 0 1 85.33333,0 z"
       style="fill:#847875;fill-opacity:1"
       id="path23" />
    <rect
       x="106.66667"
       y="170.66667"
       width="42.666672"
       height="21.33333"
       style="fill:#847875;fill-opacity:1"
       id="rect23" />
    <path
       d="M 341.33333,106.66667 H 320 A 42.70887,42.70887 0 0 0 277.33333,64 V 42.66667 a 64.07,64.07 0 0 1 64,64 z"
       style="fill:#847875;fill-opacity:1"
       id="path24" />
    <path
       d="M 405.33333,149.33333 H 384 A 21.36113,21.36113 0 0 0 362.66667,128 v -21.33333 a 42.70885,42.70885 0 0 1 42.66666,42.66666 z"
       style="fill:#847875;fill-opacity:1"
       id="path25" />
    <path
       d="m 128,106.66667 h -21.33333 a 64.07,64.07 0 0 1 64,-64 V 64 A 42.70887,42.70887 0 0 0 128,106.66667 Z"
       style="fill:#847875;fill-opacity:1"
       id="path26" />
    <path
       d="m 128,469.33333 a 21.33356,21.33356 0 0 0 21.33333,21.33334 V 448 A 21.33272,21.33272 0 0 0 128,469.33333 Z"
       style="fill:#4b3d44;fill-opacity:1"
       id="path27" />
    <path
       d="M 106.66667,362.66667 C 128,362.66667 128,384 128,384 c 0,21.33333 21.33333,21.33333 21.33333,21.33333 v -42.66666 z"
       style="fill:#4b3d44;fill-opacity:1"
       id="path28" />
    <path
       d="m 362.66667,405.33333 c 0,21.33334 21.33333,21.33334 21.33333,21.33334 21.33333,0 21.33333,21.33333 21.33333,21.33333 0,0 0,21.33333 -21.33333,21.33333 C 362.66667,469.33333 362.66667,448 362.66667,448 Z"
       style="fill:#4b3d44;fill-opacity:1"
       id="path29" />
    <path
       d="m 448,469.33333 a 21.33272,21.33272 0 0 0 -21.33333,21.33334 h 42.66666 A 21.33272,21.33272 0 0 0 448,469.33333 Z"
       style="fill:#79444a"
       id="path30" />
    <rect
       x="192"
       y="234.66667"
       width="21.33333"
       height="21.33333"
       style="fill:#8caba1"
       id="rect30" />
    <rect
       x="298.66666"
       y="234.66667"
       width="21.33333"
       height="21.33333"
       style="fill:#8caba1"
       id="rect31" />
  </g>
</svg>
