<svg xmlns="http://www.w3.org/2000/svg" viewBox="0 0 512 512" preserveAspectRatio="xMidYMid meet">
  <title>Old Business Woman</title>
  <g id="old-business-woman" data-name="Old Business Woman">    <path
       d="m 106.66667,192 h 298.66666 v 85.33333 A 85.33333,85.33333 0 0 1 320,362.66667 H 192 a 85.33333,85.33333 0 0 1 -85.33333,-85.33333 z"
       style="fill:#847875;fill-opacity:1"
       id="path1" />
    <path
       d="M 298.66667,192 V 362.66667 H 320 a 85.33339,85.33339 0 0 0 85.33333,-85.33334 V 192 Z"
       style="fill:#847875;fill-opacity:1"
       id="path2" />
    <rect
       x="320"
       y="298.66666"
       width="21.33333"
       height="42.666672"
       style="fill:#ab9b8e;fill-opacity:1"
       id="rect2" />
    <rect
       x="128"
       y="224"
       width="21.33333"
       height="74.666672"
       style="fill:#ab9b8e;fill-opacity:1"
       id="rect3" />
    <rect
       x="362.66666"
       y="224"
       width="21.33333"
       height="74.666672"
       style="fill:#ab9b8e;fill-opacity:1"
       id="rect4" />
    <rect
       x="341.33334"
       y="192"
       width="42.666672"
       height="64"
       rx="21.333309"
       ry="21.333309"
       style="fill:#c77b58"
       id="rect5" />
    <rect
       x="128"
       y="192"
       width="42.666672"
       height="64"
       rx="21.333309"
       ry="21.333309"
       style="fill:#c77b58"
       id="rect6" />
    <path
       d="m 192,277.33333 v 64 a 21.33334,21.33334 0 0 1 -21.33333,21.33334 h -64 A 85.33333,85.33333 0 0 0 21.33333,448 v 42.66667 H 490.66667 V 448 a 85.33333,85.33333 0 0 0 -85.33334,-85.33333 h -64 A 21.33334,21.33334 0 0 1 320,341.33333 v -64 z"
       style="fill:#c77b58"
       id="path6" />
    <path
       d="M 341.33333,362.66667 A 21.33356,21.33356 0 0 1 320,341.33333 v -64 h -85.33333 v 128 a 21.33333,21.33333 0 1 0 42.66666,0 h 85.33334 v -42.66666 z"
       style="fill:#c77b58"
       id="path7" />
    <path
       d="M 362.66667,490.66667 H 149.33333 V 448 C 149.33333,448 192,469.33333 256,469.33333 320,469.33333 362.66667,448 362.66667,448 Z"
       style="fill:#79444a;fill-opacity:1"
       id="path8" />
    <path
       d="m 192,462.04557 v 28.6211 h 21.33333 v -24.651 c -7.6302,-1.1615 -14.88411,-2.47921 -21.33333,-3.9701 z"
       style="fill:#79444a;fill-opacity:1"
       id="path9" />
    <path
       d="m 106.66667,362.66667 h 64 v 128 H 21.33333 V 448 a 85.33333,85.33333 0 0 1 85.33334,-85.33333 z"
       style="fill:#847875;fill-opacity:1"
       id="path10" />
    <path
       d="m 192,341.33333 c 0,0 -64,21.33334 -85.33333,85.33334 L 149.33333,448 106.66667,490.66667 H 192 Z"
       style="fill:#4b3d44;fill-opacity:1"
       id="path11" />
    <path
       d="m 341.33333,362.66667 h 149.33334 v 128 h -64 a 85.33333,85.33333 0 0 1 -85.33333,-85.33333 v -42.66667 z"
       transform="rotate(180,416,426.66667)"
       style="fill:#847875;fill-opacity:1"
       id="path12" />
    <path
       d="m 341.33333,362.66667 c 0,0 42.66667,21.33333 85.33334,64 32,32 42.66666,64 42.66666,64 h -128 z"
       style="fill:#847875;fill-opacity:1"
       id="path13" />
    <path
       d="M 64,490.66667 H 42.66667 V 448 a 64.07,64.07 0 0 1 64,-64 v 21.33333 A 42.71555,42.71555 0 0 0 64,448 Z"
       style="fill:#847875;fill-opacity:1"
       id="path14" />
    <path
       d="m 320,341.33333 c 0,0 64,21.33334 85.33333,85.33334 L 362.66667,448 405.33333,490.66667 H 320 Z"
       style="fill:#4b3d44;fill-opacity:1"
       id="path15" />
    <rect
       x="170.66667"
       y="362.66666"
       width="21.33333"
       height="128"
       style="fill:#4b3d44;fill-opacity:1"
       id="rect15" />
    <rect
       x="320"
       y="362.66666"
       width="21.33333"
       height="128"
       style="fill:#4b3d44;fill-opacity:1"
       id="rect16" />
    <rect
       x="149.33333"
       y="42.666672"
       width="213.33333"
       height="298.66656"
       rx="106.66656"
       ry="106.66656"
       style="fill:#d1b187"
       id="rect17" />
    <path
       d="m 320,64.48307 v 84.85026 h -42.66667 v 21.33334 H 320 v 42.66659 a 21.33333,21.33333 0 0 1 21.33333,21.33333 v 8e-5 A 21.33333,21.33333 0 0 1 320,256 h -64 v 64 h 21.33333 v 19.18359 a 106.69065,106.69065 0 0 0 85.33334,-104.51692 v -85.33334 c 0,-34.78385 -16.90104,-65.3789 -42.66667,-84.85026 z"
       style="fill:#c77b58"
       id="path17" />
    <polygon
       points="277.333,256 277.333,192 320,192 320,170.667 256,170.667 256,234.667 234.667,234.667 234.667,256 "
       style="fill:#c77b58"
       id="polygon17" />
    <rect
       x="298.66666"
       y="192"
       width="21.33333"
       height="21.33333"
       style="fill:#4d4539"
       id="rect18" />
    <rect
       x="192"
       y="192"
       width="21.33333"
       height="21.33333"
       style="fill:#4d4539"
       id="rect19" />
    <rect
       x="234.66667"
       y="277.33334"
       width="42.666672"
       height="21.33333"
       style="fill:#79444a"
       id="rect20" />
    <rect
       x="192"
       y="149.33333"
       width="64"
       height="21.33333"
       style="fill:#c77b58"
       id="rect21" />
    <rect
       x="213.33333"
       y="106.66667"
       width="85.333328"
       height="21.33333"
       style="fill:#c77b58"
       id="rect22" />
    <rect
       x="192"
       y="128"
       width="128"
       height="21.33333"
       style="fill:#d1b187"
       id="rect23" />
    <rect
       x="277.33334"
       y="277.33334"
       width="21.33333"
       height="42.666672"
       style="fill:#c77b58"
       id="rect25" />
    <path
       d="m 256,106.66667 v 6e-5 a 63.99994,63.99994 0 0 1 -63.99994,63.99994 H 192 a 42.66662,42.66662 0 0 0 -42.66663,42.66662 v 21.33338 L 106.66667,256 V 170.66652 A 149.33319,149.33319 0 0 1 255.99985,21.33333 h 3e-4 A 149.33319,149.33319 0 0 1 405.33333,170.66652 V 256 L 362.66667,234.66667 V 213.33323 A 106.66656,106.66656 0 0 0 256.00011,106.66667 Z"
       style="fill:#ab9b8e"
       id="path25" />
    <path
       d="m 254.98307,116.75521 c -0.29427,1.76172 -0.71093,3.72526 -1.20442,5.77734 0.48697,-1.90234 0.89062,-3.8112 1.20442,-5.77734 z"
       style="fill:#ab9b8e"
       id="path26" />
    <path
       d="M 149.33333,213.33333 H 128 a 64.07,64.07 0 0 1 64,-64 42.71555,42.71555 0 0 0 42.66667,-42.66666 H 256 a 64.07,64.07 0 0 1 -64,64 42.71555,42.71555 0 0 0 -42.66667,42.66666 z"
       style="fill:#847875;fill-opacity:1"
       id="path27" />
    <path
       d="M 149.33333,170.66667 H 128 a 128.14,128.14 0 0 1 128,-128 V 64 A 106.79223,106.79223 0 0 0 149.33333,170.66667 Z"
       style="fill:#847875;fill-opacity:1"
       id="path28" />
    <path
       d="M 384,213.33333 H 362.66667 A 106.79223,106.79223 0 0 0 256,106.66667 V 85.33333 a 128.14,128.14 0 0 1 128,128 z"
       style="fill:#847875;fill-opacity:1"
       id="path29" />
    <rect
       x="277.33334"
       y="42.666672"
       width="21.33333"
       height="42.666672"
       style="fill:#847875;fill-opacity:1"
       id="rect29" />
  </g>
</svg>
