<svg xmlns="http://www.w3.org/2000/svg" viewBox="0 0 512 512" preserveAspectRatio="xMidYMid meet">
  <title>Old Man</title>
  <g id="old-man" data-name="Old Man">
    <rect
       x="341.33334"
       y="192"
       width="42.666672"
       height="64"
       rx="21.333309"
       ry="21.333309"
       style="fill:#c77b58"
       id="rect1" />
    <rect
       x="128"
       y="192"
       width="42.666672"
       height="64"
       rx="21.333309"
       ry="21.333309"
       style="fill:#c77b58"
       id="rect2" />
    <path
       d="m 192,277.33333 v 64 a 21.33334,21.33334 0 0 1 -21.33333,21.33334 h -64 A 85.33333,85.33333 0 0 0 21.33333,448 v 42.66667 H 490.66667 V 448 a 85.33333,85.33333 0 0 0 -85.33334,-85.33333 h -64 A 21.33334,21.33334 0 0 1 320,341.33333 v -64 z"
       style="fill:#c77b58"
       id="path2" />
    <path
       d="M 341.33333,362.66667 A 21.33356,21.33356 0 0 1 320,341.33333 v -64 h -64 v 85.33334 h 21.33333 V 384 h -42.66666 v 21.33331 a 21.33333,21.33333 0 1 0 42.66666,0 h 85.33334 v -42.66664 z"
       style="fill:#c77b58"
       id="path3" />
    <path
       d="m 234.66667,426.66667 v 64 h 256 V 448 a 85.33333,85.33333 0 0 0 -85.33334,-85.33333 h -64 L 320,341.33333 298.66667,362.66667 Z"
       style="fill:#4b726e"
       id="path4" />
    <polygon
       points="256,490.667 256,405.333 298.667,362.667 362.667,362.667 362.667,426.667 277.333,490.667 "
       style="fill:#4b3d44;fill-opacity:1"
       id="polygon4" />
    <path
       d="m 192,341.33333 21.33333,21.33334 64,64 v 64 h -256 V 448 a 85.33333,85.33333 0 0 1 85.33334,-85.33333 h 64 z"
       style="fill:#4b726e"
       id="path5" />
    <path
       d="M 64,490.66667 H 42.66667 V 448 a 64.07,64.07 0 0 1 64,-64 v 21.33333 A 42.70887,42.70887 0 0 0 64,448 Z"
       style="fill:#8caba1"
       id="path6" />
    <polygon
       points="192,426.667 277.333,426.667 234.667,384 192,384 "
       style="fill:#4b726e"
       id="polygon6" />
    <rect
       x="106.66667"
       y="362.66666"
       width="64"
       height="21.33333"
       style="fill:#4b726e"
       id="rect6" />
    <rect
       x="149.33333"
       y="42.666672"
       width="213.33333"
       height="298.66656"
       rx="106.66656"
       ry="106.66656"
       style="fill:#d1b187"
       id="rect7" />
    <path
       d="m 320,64.48307 v 84.85026 h -42.66667 v 21.33334 H 320 v 42.66659 a 21.33333,21.33333 0 0 1 21.33333,21.33333 v 8e-5 A 21.33333,21.33333 0 0 1 320,256 h -64 v 64 h 21.33333 v 19.18359 a 106.69065,106.69065 0 0 0 85.33334,-104.51692 v -85.33334 c 0,-34.78385 -16.90104,-65.3789 -42.66667,-84.85026 z"
       style="fill:#c77b58"
       id="path7" />
    <polygon
       points="277.333,256 277.333,192 320,192 320,170.667 256,170.667 256,234.667 234.667,234.667 234.667,256 "
       style="fill:#c77b58"
       id="polygon7" />
    <rect
       x="298.66666"
       y="192"
       width="21.33333"
       height="21.33333"
       style="fill:#4d4539"
       id="rect8" />
    <rect
       x="192"
       y="192"
       width="21.33333"
       height="21.33333"
       style="fill:#4d4539"
       id="rect9" />
    <rect
       x="234.66667"
       y="277.33334"
       width="42.666672"
       height="21.33333"
       style="fill:#79444a"
       id="rect10" />
    <rect
       x="192"
       y="149.33333"
       width="64"
       height="21.33333"
       style="fill:#c77b58"
       id="rect11" />
    <rect
       x="213.33333"
       y="106.66667"
       width="85.333328"
       height="21.33333"
       style="fill:#c77b58"
       id="rect12" />
    <rect
       x="192"
       y="128"
       width="128"
       height="21.33333"
       style="fill:#d1b187"
       id="rect13" />
    <rect
       x="277.33334"
       y="277.33334"
       width="21.33333"
       height="42.666672"
       style="fill:#c77b58"
       id="rect15" />
    <polygon
       points="170.667,405.333 234.667,384 192,341.333 170.667,362.667 "
       style="fill:#8caba1;fill-opacity:1"
       id="polygon15" />
    <path
       d="M 192,106.66667 H 170.66667 A 85.43111,85.43111 0 0 1 256,21.33333 h 21.33333 V 42.66667 H 256 a 64.07,64.07 0 0 0 -64,64 z"
       style="fill:#847875;fill-opacity:1"
       id="path15" />
    <path
       d="m 256,85.33333 h -21.33333 a 64.07,64.07 0 0 1 64,-64 V 42.66667 A 42.70886,42.70886 0 0 0 256,85.33333 Z"
       style="fill:#ab9b8e"
       id="path16" />
    <path
       d="M 362.66667,128 H 341.33333 A 42.70886,42.70886 0 0 0 298.66667,85.33333 V 64 a 64.07,64.07 0 0 1 64,64 z"
       style="fill:#ab9b8e"
       id="path17" />
    <rect
       x="128"
       y="106.66667"
       width="42.666672"
       height="85.333328"
       rx="21.333309"
       ry="21.333309"
       style="fill:#ab9b8e"
       id="rect17" />
    <rect
       x="149.33333"
       y="149.33333"
       width="21.33333"
       height="64"
       style="fill:#ab9b8e"
       id="rect18" />
    <rect
       x="341.33334"
       y="106.66667"
       width="42.666672"
       height="85.333328"
       rx="21.333309"
       ry="21.333309"
       transform="rotate(180,362.66667,149.33333)"
       style="fill:#ab9b8e"
       id="rect19" />
    <rect
       x="341.33334"
       y="149.33333"
       width="21.33333"
       height="64"
       transform="rotate(180,352,181.33333)"
       style="fill:#ab9b8e"
       id="rect20" />
    <circle
       cx="245.33333"
       cy="437.33334"
       r="10.66667"
       style="fill:#4b3d44;fill-opacity:1"
       id="circle20" />
    <polygon
       points="341.333,362.667 320,341.333 277.333,384 341.333,405.333 "
       style="fill:#8caba1;fill-opacity:1"
       id="polygon20" />
    <rect
       x="256"
       y="448"
       width="21.33333"
       height="42.666672"
       style="fill:#8caba1;fill-opacity:1"
       id="rect21" />
  </g>
</svg>
