<svg xmlns="http://www.w3.org/2000/svg" viewBox="0 0 512 512" preserveAspectRatio="xMidYMid meet">
  <title>Old Sport Man</title>
  <g id="old-sport-man" data-name="Old Sport Man">
    <rect
       x="341.33334"
       y="192"
       width="42.666672"
       height="64"
       rx="21.333309"
       ry="21.333309"
       style="fill:#c77b58"
       id="rect1" />
    <rect
       x="128"
       y="192"
       width="42.666672"
       height="64"
       rx="21.333309"
       ry="21.333309"
       style="fill:#c77b58"
       id="rect2" />
    <path
       d="m 192,277.33333 v 64 a 21.33334,21.33334 0 0 1 -21.33333,21.33334 h -64 A 85.33333,85.33333 0 0 0 21.33333,448 v 42.66667 H 490.66667 V 448 a 85.33333,85.33333 0 0 0 -85.33334,-85.33333 h -64 A 21.33334,21.33334 0 0 1 320,341.33333 v -64 z"
       style="fill:#c77b58"
       id="path2" />
    <rect
       x="405.33334"
       y="426.66666"
       width="42.666672"
       height="64"
       style="fill:#c77b58"
       id="rect3" />
    <path
       d="M 341.33333,362.66667 A 21.33356,21.33356 0 0 1 320,341.33333 v -64 h -64 v 85.33334 h 21.33333 V 384 h -42.66666 v 21.33331 a 21.33333,21.33333 0 1 0 42.66666,0 h 85.33334 v -42.66664 z"
       style="fill:#c77b58"
       id="path4" />
    <path
       d="m 407.14391,362.67904 -65.81058,-1.2719 c 0,47.59127 -38.20503,86.17152 -85.33333,86.17152 -47.1283,0 -85.33333,-38.58025 -85.33333,-86.17152 h -64 v 129.25734 l 301.07424,0.22485 z"
       style="fill:#79444a;stroke-width:1.0049"
       id="path5"
       />
    <path
       d="M 256,490.66667 V 469.33333 A 106.79223,106.79223 0 0 0 362.66667,362.66667 H 384 a 128.14,128.14 0 0 1 -128,128 z"
       style="fill:#79444a"
       id="path6" />
    <rect
       x="128"
       y="362.66666"
       width="42.666672"
       height="21.33333"
       style="fill:#79444a"
       id="rect6" />
    <path
       d="M 64,490.66667 H 42.66667 V 448 a 64.07,64.07 0 0 1 64,-64 v 21.33333 A 42.70887,42.70887 0 0 0 64,448 Z"
       style="fill:#d1b187"
       id="path7" />
    <rect
       x="149.33333"
       y="42.666672"
       width="213.33333"
       height="298.66656"
       rx="106.66656"
       ry="106.66656"
       style="fill:#d1b187"
       id="rect8" />
    <path
       d="m 320,64.48307 v 84.85026 h -42.66667 v 21.33334 H 320 v 42.66659 a 21.33333,21.33333 0 0 1 21.33333,21.33333 v 8e-5 A 21.33333,21.33333 0 0 1 320,256 h -64 v 64 h 21.33333 v 19.18359 a 106.69065,106.69065 0 0 0 85.33334,-104.51692 v -85.33334 c 0,-34.78385 -16.90104,-65.3789 -42.66667,-84.85026 z"
       style="fill:#c77b58"
       id="path8" />
    <polygon
       points="277.333,256 277.333,192 320,192 320,170.667 256,170.667 256,234.667 234.667,234.667 234.667,256 "
       style="fill:#c77b58"
       id="polygon8" />
    <rect
       x="298.66666"
       y="192"
       width="21.33333"
       height="21.33333"
       style="fill:#4d4539"
       id="rect9" />
    <rect
       x="192"
       y="192"
       width="21.33333"
       height="21.33333"
       style="fill:#4d4539"
       id="rect10" />
    <rect
       x="234.66667"
       y="277.33334"
       width="42.666672"
       height="21.33333"
       style="fill:#79444a"
       id="rect11" />
    <rect
       x="192"
       y="149.33333"
       width="64"
       height="21.33333"
       style="fill:#c77b58"
       id="rect12" />
    <rect
       x="213.33333"
       y="106.66667"
       width="85.333328"
       height="21.33333"
       style="fill:#c77b58"
       id="rect13" />
    <rect
       x="192"
       y="128"
       width="128"
       height="21.33333"
       style="fill:#d1b187"
       id="rect14" />
    <rect
       x="277.33334"
       y="277.33334"
       width="21.33333"
       height="42.666672"
       style="fill:#c77b58"
       id="rect16" />
    <path
       d="M 192,106.66667 H 170.66667 A 85.43111,85.43111 0 0 1 256,21.33333 h 21.33333 V 42.66667 H 256 a 64.07,64.07 0 0 0 -64,64 z"
       style="fill:#847875;fill-opacity:1"
       id="path16" />
    <path
       d="m 256,85.33333 h -21.33333 a 64.07,64.07 0 0 1 64,-64 V 42.66667 A 42.70886,42.70886 0 0 0 256,85.33333 Z"
       style="fill:#ab9b8e"
       id="path17" />
    <path
       d="M 362.66667,128 H 341.33333 A 42.70886,42.70886 0 0 0 298.66667,85.33333 V 64 a 64.07,64.07 0 0 1 64,64 z"
       style="fill:#ab9b8e"
       id="path18" />
    <rect
       x="128"
       y="106.66667"
       width="42.666672"
       height="85.333328"
       rx="21.333309"
       ry="21.333309"
       style="fill:#ab9b8e"
       id="rect18" />
    <rect
       x="149.33333"
       y="149.33333"
       width="21.33333"
       height="64"
       style="fill:#ab9b8e"
       id="rect19" />
    <rect
       x="341.33334"
       y="106.66667"
       width="42.666672"
       height="85.333328"
       rx="21.333309"
       ry="21.333309"
       transform="rotate(180,362.66667,149.33333)"
       style="fill:#ab9b8e"
       id="rect20" />
    <rect
       x="341.33334"
       y="149.33333"
       width="21.33333"
       height="64"
       transform="rotate(180,352,181.33333)"
       style="fill:#ab9b8e"
       id="rect21" />
  </g>
</svg>
