<svg xmlns="http://www.w3.org/2000/svg" viewBox="0 0 512 512" preserveAspectRatio="xMidYMid meet">
  <title>Old Female Farmer</title>
  <g id="old-female-farmer" data-name="Old Female Farmer">
    <rect
       x="341.33334"
       y="192"
       width="42.666672"
       height="64"
       rx="21.333309"
       ry="21.333309"
       style="fill:#c77b58"
       id="rect1" />
    <rect
       x="128"
       y="192"
       width="42.666672"
       height="64"
       rx="21.333309"
       ry="21.333309"
       style="fill:#c77b58"
       id="rect2" />
    <path
       d="m 192,277.33333 v 64 a 21.33334,21.33334 0 0 1 -21.33333,21.33334 h -64 A 85.33333,85.33333 0 0 0 21.33333,448 v 42.66667 H 490.66667 V 448 a 85.33333,85.33333 0 0 0 -85.33334,-85.33333 h -64 A 21.33334,21.33334 0 0 1 320,341.33333 v -64 z"
       style="fill:#c77b58"
       id="path2" />
    <path
       d="M 341.33333,362.66667 A 21.33356,21.33356 0 0 1 320,341.33333 v -64 h -85.33333 v 128 a 21.33333,21.33333 0 1 0 42.66666,0 h 85.33334 v -42.66666 z"
       style="fill:#c77b58"
       id="path3" />
    <rect
       x="149.33333"
       y="42.666672"
       width="213.33333"
       height="298.66656"
       rx="106.66656"
       ry="106.66656"
       style="fill:#d1b187"
       id="rect3" />
    <path
       d="m 320,64.48307 v 84.85026 h -42.66667 v 21.33334 H 320 v 42.66659 a 21.33333,21.33333 0 0 1 21.33333,21.33333 v 8e-5 A 21.33333,21.33333 0 0 1 320,256 h -64 v 64 h 21.33333 v 19.18359 a 106.69065,106.69065 0 0 0 85.33334,-104.51692 v -85.33334 c 0,-34.78385 -16.90105,-65.3789 -42.66667,-84.85026 z"
       style="fill:#c77b58"
       id="path4" />
    <polygon
       points="277.333,256 277.333,192 320,192 320,170.667 256,170.667 256,234.667 234.667,234.667 234.667,256 "
       style="fill:#c77b58"
       id="polygon4" />
    <rect
       x="298.66666"
       y="192"
       width="21.33333"
       height="21.33333"
       style="fill:#4d4539"
       id="rect4" />
    <rect
       x="192"
       y="192"
       width="21.33333"
       height="21.33333"
       style="fill:#4d4539"
       id="rect5" />
    <rect
       x="234.66667"
       y="277.33334"
       width="42.666672"
       height="21.33333"
       style="fill:#79444a"
       id="rect6" />
    <rect
       x="192"
       y="149.33333"
       width="64"
       height="21.33333"
       style="fill:#c77b58"
       id="rect7" />
    <rect
       x="213.33333"
       y="106.66667"
       width="85.333328"
       height="21.33333"
       style="fill:#c77b58"
       id="rect8" />
    <rect
       x="192"
       y="128"
       width="128"
       height="21.33333"
       style="fill:#d1b187"
       id="rect9" />
    <rect
       x="170.66667"
       y="213.33333"
       width="64"
       height="42.666672"
       rx="21.333309"
       ry="21.333309"
       style="fill:#8caba1"
       id="rect10" />
    <rect
       x="277.33334"
       y="213.33333"
       width="64"
       height="42.666672"
       rx="21.333309"
       ry="21.333309"
       style="fill:#8caba1"
       id="rect11" />
    <rect
       x="277.33334"
       y="277.33334"
       width="21.33333"
       height="42.666672"
       style="fill:#c77b58"
       id="rect13" />
    <path
       d="m 149.33333,362.66667 85.33334,128 H 21.33333 V 448 a 85.33333,85.33333 0 0 1 85.33334,-85.33333 z"
       style="fill:#4b726e;fill-opacity:1"
       id="path14" />
    <path
       d="M 64,469.33333 C 85.33333,469.33333 85.33333,448 85.33333,448 c 0,-21.33333 21.33334,-21.33333 21.33334,-21.33333 C 128,426.66667 128,405.33333 128,405.33333 128,384 106.66667,384 106.66667,384 c 0,0 -21.33334,0 -21.33334,21.33333 C 85.33333,426.66666 64,426.66667 64,426.66667 42.66667,426.66667 42.66667,448 42.66667,448 c 0,21.33333 -21.33334,21.39583 -21.33334,21.39583 v 21.27084 H 42.66667 C 42.66667,469.33333 64,469.33333 64,469.33333 Z"
       style="fill:#8caba1;fill-opacity:1"
       id="path15" />
    <polygon
       points="192,490.667 234.667,490.667 149.333,362.667 106.667,362.667 "
       style="fill:#8caba1"
       id="polygon15" />
    <path
       d="m 362.66667,362.66667 -85.33334,128 H 490.66667 V 448 a 85.33333,85.33333 0 0 0 -85.33334,-85.33333 z"
       style="fill:#4b726e"
       id="path16" />
    <path
       d="M 362.66667,362.66667 C 384,362.66667 384,384 384,384 c 0,0 0,21.33333 21.33333,21.33333 21.33333,0 21.33334,21.33334 21.33334,21.33334 C 426.66667,448 448,448 448,448 c 21.33333,0 21.33333,-21.33333 21.33333,-21.33333 0,0 0,-21.33334 -21.33333,-21.33334 -21.33333,0 -21.33333,-21.33333 -21.33333,-21.33333 0,0 0,-21.33333 -21.33334,-21.33333 z"
       style="fill:#8caba1;fill-opacity:1"
       id="path17" />
    <path
       d="m 448,469.33333 a 21.33272,21.33272 0 0 0 -21.33333,21.33334 h 42.66666 A 21.33272,21.33272 0 0 0 448,469.33333 Z"
       style="fill:#8caba1;fill-opacity:1"
       id="path18" />
    <polygon
       points="320,490.667 277.333,490.667 362.667,362.667 405.333,362.667 "
       style="fill:#8caba1"
       id="polygon18" />
    <rect
       x="192"
       y="234.66667"
       width="21.33333"
       height="21.33333"
       style="fill:#8caba1"
       id="rect18" />
    <rect
       x="298.66666"
       y="234.66667"
       width="21.33333"
       height="21.33333"
       style="fill:#8caba1"
       id="rect19" />
    <path
       d="m 149.33333,213.33333 v -42.66666 0 a 72.83646,72.83646 0 0 0 21.33332,-51.50318 v -12.4968 c 0,0 21.33335,-21.33336 85.33335,-21.33336 64,0 85.33333,21.33334 85.33333,21.33334 v 12.4968 a 72.83651,72.83651 0 0 0 21.33332,51.50318 v 0 42.66666 L 384,192 V 149.33321 A 127.99987,127.99987 0 0 0 256.00013,21.33333 h -2.6e-4 A 127.99987,127.99987 0 0 0 128,149.33321 V 192 Z"
       style="fill:#ab9b8e"
       id="path19" />
    <path
       d="M 283.29688,24.319 C 271.0599,28.48177 256,38.60677 256,64 a 43.7006,43.7006 0 0 0 5.24349,21.55078 c 59.65234,1.19531 80.08984,21.11589 80.08984,21.11589 v 12.49609 a 72.8361,72.8361 0 0 0 21.33334,51.50391 v 42.66666 L 384,192 V 149.33333 A 127.99893,127.99893 0 0 0 283.29688,24.319 Z"
       style="fill:#847875;fill-opacity:1"
       id="path20" />
    <path
       d="m 360.4375,124.42708 c -0.25,-0.27083 -25.54167,-27.90625 -74.29167,-36.51041 l 3.70834,-21 c 56.45833,9.95833 85.33333,41.98958 86.54166,43.35416 z"
       style="fill:#ab9b8e;fill-opacity:1"
       id="path21" />
    <path
       d="M 151.5625,124.4375 135.625,110.26042 c 1.35417,-1.53125 33.9375,-37.60417 97.64583,-44.96875 l 2.45834,21.1875 c -55.20834,6.38541 -83.875,37.63541 -84.16667,37.95833 z"
       style="fill:#847875;fill-opacity:1"
       id="path22" />
    <path
       d="M 170.66667,42.66667 C 170.66667,42.66667 128,64 128,149.33333 v 85.33359 a 127.99975,127.99975 0 0 0 127.99974,127.99975 h 1.3e-4 v -21.33344 h -8e-5 a 85.33312,85.33312 0 0 1 -85.33312,-85.33312 z"
       style="fill:#79444a"
       id="path23" />
    <path
       d="M 255.52083,362.66667 A 106.31434,106.31434 0 0 1 149.33333,256.47917 V 192 h 21.33334 v 64.47917 a 84.94651,84.94651 0 0 0 84.85416,84.85416 z"
       style="fill:#79444a"
       id="path24" />
    <path
       d="m 341.33321,42.66667 c 0,0 42.66666,21.33333 42.66666,106.66666 v 85.33359 A 127.99975,127.99975 0 0 1 256.00013,362.66667 H 256 v -21.33344 h 9e-5 a 85.33312,85.33312 0 0 0 85.33312,-85.33312 z"
       style="fill:#79444a"
       id="path25" />
    <path
       d="m 256.47917,362.66667 v -21.33334 a 84.94651,84.94651 0 0 0 84.85416,-84.85416 V 192 h 21.33334 v 64.47917 a 106.31434,106.31434 0 0 1 -106.1875,106.1875 z"
       style="fill:#79444a"
       id="path26" />
    <path
       d="m 256,341.33333 c 0,0 -85.33333,21.33334 -85.33333,106.66667 0,0 85.33333,-21.33333 85.33333,-106.66667 z"
       style="fill:#79444a"
       id="path27" />
    <path
       d="m 237.96875,401.19141 a 97.52081,97.52081 0 0 0 10.30078,-18.75521 21.26661,21.26661 0 0 1 -13.60286,-19.76953 h -21.33334 a 42.62091,42.62091 0 0 0 24.63542,38.52474 z"
       style="fill:#79444a"
       id="path28" />
    <circle
       cx="256"
       cy="362.66666"
       r="21.33333"
       style="fill:#79444a"
       id="circle28" />
    <path
       d="m 256,341.33333 c 0,0 85.33333,21.33334 85.33333,106.66667 C 341.33333,448 256,426.66667 256,341.33333 Z"
       style="fill:#79444a"
       id="path29" />
    <rect
       x="128"
       y="128"
       width="21.33333"
       height="64"
       style="fill:#79444a"
       id="rect29" />
    <rect
       x="362.66666"
       y="128"
       width="21.33333"
       height="64"
       style="fill:#79444a"
       id="rect30" />
    <path
       d="M 106.66667,490.66667 C 128,490.66667 128,469.33333 128,469.33333 c 0,0 0,-21.33333 21.33333,-21.33333 21.33333,0 21.33334,21.33333 21.33334,21.33333 0,21.33334 -21.33334,21.33334 -21.33334,21.33334 z"
       style="fill:#4b726e"
       id="path30" />
    <polygon
       points="426.667,490.667 405.333,362.667 362.667,362.667 362.667,448 149.653,448 149.333,362.667 106.667,362.667 85.333,490.667 "
       style="fill:#4b3d44"
       id="polygon30" />
    <rect
       x="106.66667"
       y="362.66666"
       width="42.666672"
       height="21.33333"
       style="fill:#4b3d44;fill-opacity:1"
       id="rect31" />
    <rect
       x="149.33333"
       y="448"
       width="213.33333"
       height="21.33333"
       style="fill:#4b3d44;fill-opacity:1"
       id="rect32" />
    <rect
       x="128"
       y="384"
       width="21.33333"
       height="64"
       style="fill:#4b3d44"
       id="rect33" />
    <rect
       x="362.66666"
       y="362.66666"
       width="21.33333"
       height="85.333328"
       style="fill:#4b3d44;fill-opacity:1"
       id="rect34" />
  </g>
</svg>
