<svg xmlns="http://www.w3.org/2000/svg" viewBox="0 0 512 512" preserveAspectRatio="xMidYMid meet">
  <title>Party Man</title>
  <g id="party-man" data-name="Party Man">
    <rect
       x="341.33334"
       y="192"
       width="42.666672"
       height="64"
       rx="21.333309"
       ry="21.333309"
       style="fill:#c77b58"
       id="rect1" />
    <rect
       x="128"
       y="192"
       width="42.666672"
       height="64"
       rx="21.333309"
       ry="21.333309"
       style="fill:#c77b58"
       id="rect2" />
    <path
       d="m 192,277.33333 v 64 a 21.33334,21.33334 0 0 1 -21.33333,21.33334 h -64 A 85.33333,85.33333 0 0 0 21.33333,448 v 42.66667 H 490.66667 V 448 a 85.33333,85.33333 0 0 0 -85.33334,-85.33333 h -64 A 21.33334,21.33334 0 0 1 320,341.33333 v -64 z"
       style="fill:#c77b58"
       id="path2" />
    <path
       d="M 341.33333,362.66667 A 21.33356,21.33356 0 0 1 320,341.33333 v -64 h -64 v 85.33334 h 21.33333 V 384 h -42.66666 v 21.33331 a 21.33333,21.33333 0 1 0 42.66666,0 h 85.33334 v -42.66664 z"
       style="fill:#c77b58"
       id="path3" />
    <path
       d="M 256,384 V 490.66667 H 490.66667 V 448 a 85.33333,85.33333 0 0 0 -85.33334,-85.33333 h -64 L 320,341.33333 Z"
       style="fill:#574852;fill-opacity:1"
       id="path4" />
    <rect
       x="234.66667"
       y="405.33334"
       width="42.666672"
       height="85.333328"
       style="fill:#4b3d44;fill-opacity:1"
       id="rect4" />
    <polygon
       points="320,384 253.595,426.667 320,469.333 "
       style="fill:#4b3d44;fill-opacity:1"
       id="polygon4" />
    <rect
       x="405.33334"
       y="448"
       width="42.666672"
       height="42.666672"
       style="fill:#574852;fill-opacity:1"
       id="rect5" />
    <path
       d="M 192,341.33333 256,384 V 490.66667 H 21.33333 V 448 a 85.33333,85.33333 0 0 1 85.33334,-85.33333 h 64 z"
       style="fill:#574852;fill-opacity:1"
       id="path5" />
    <path
       d="M 64,490.66667 H 42.66667 V 448 a 64.07,64.07 0 0 1 64,-64 v 21.33333 A 42.71555,42.71555 0 0 0 64,448 Z"
       style="fill:#574852;fill-opacity:1"
       id="path6" />
    <polygon
       points="256,384 192,341.333 192,384 "
       style="fill:#4b3d44;fill-opacity:1"
       id="polygon6" />
    <polygon
       points="320,341.333 256,384 320,384 "
       style="fill:#4b3d44;fill-opacity:1"
       id="polygon7" />
    <rect
       x="170.66667"
       y="405.33334"
       width="21.33333"
       height="85.333328"
       style="fill:#574852;fill-opacity:1"
       id="rect7" />
    <polygon
       points="85.333,490.667 85.333,362.667 170.667,362.667 192,490.667 "
       style="fill:#4b3d44;fill-opacity:1"
       id="polygon8" />
    <rect
       x="162.5204"
       y="404.81723"
       width="21.3342"
       height="75.698883"
       transform="rotate(-9.47269,173.18753,442.66676)"
       style="fill:#4b3d44;fill-opacity:1"
       id="rect8" />
    <polygon
       points="426.667,490.667 426.667,362.667 341.333,362.667 320,490.667 "
       style="fill:#4b3d44;fill-opacity:1"
       id="polygon9" />
    <circle
       cx="245.33333"
       cy="458.66666"
       r="10.66667"
       style="fill:#4b3d44;fill-opacity:1"
       id="circle9" />
    <rect
       x="362.66666"
       y="362.66666"
       width="42.666672"
       height="21.33333"
       style="fill:#4b3d44;fill-opacity:1"
       id="rect9" />
    <rect
       x="106.66667"
       y="362.66666"
       width="42.666672"
       height="21.33333"
       style="fill:#4b3d44;fill-opacity:1"
       id="rect10" />
    <rect
       x="300.96307"
       y="431.99957"
       width="75.698883"
       height="21.3342"
       transform="rotate(-80.50088,338.81254,442.66668)"
       style="fill:#4b3d44;fill-opacity:1"
       id="rect11" />
    <rect
       x="149.33333"
       y="42.666672"
       width="213.33333"
       height="298.66656"
       rx="106.66656"
       ry="106.66656"
       style="fill:#d1b187"
       id="rect12" />
    <path
       d="m 320,64.48307 v 84.85026 h -42.66667 v 21.33334 H 320 v 42.66659 a 21.33333,21.33333 0 0 1 21.33333,21.33333 v 8e-5 A 21.33333,21.33333 0 0 1 320,256 h -64 v 64 h 21.33333 v 19.18359 a 106.69065,106.69065 0 0 0 85.33334,-104.51692 v -85.33334 c 0,-34.78385 -16.90105,-65.3789 -42.66667,-84.85026 z"
       style="fill:#c77b58"
       id="path12" />
    <rect
       x="234.66667"
       y="256"
       width="42.666672"
       height="21.33333"
       style="fill:#79444a;fill-opacity:1"
       id="rect13" />
    <rect
       x="256"
       y="256"
       width="21.33333"
       height="21.33333"
       style="fill:#79444a;fill-opacity:1"
       id="rect14" />
    <path
       d="M 277.33333,320 V 298.66667 H 234.66667 V 320 h -21.33334 a 42.66667,42.66667 0 0 0 85.33334,0 z"
       style="fill:#79444a;fill-opacity:1"
       id="path14" />
    <rect
       x="256"
       y="298.66666"
       width="21.33333"
       height="42.666672"
       style="fill:#79444a;fill-opacity:1"
       id="rect15" />
    <rect
       x="213.33333"
       y="277.33334"
       width="21.33333"
       height="21.33333"
       style="fill:#79444a;fill-opacity:1"
       id="rect16" />
    <rect
       x="277.33334"
       y="277.33334"
       width="21.33333"
       height="21.33333"
       style="fill:#79444a;fill-opacity:1"
       id="rect18" />
    <polygon
       points="277.333,256 277.333,192 320,192 320,170.667 256,170.667 256,234.667 234.667,234.667 234.667,256 "
       style="fill:#c77b58"
       id="polygon19" />
    <rect
       x="298.66666"
       y="192"
       width="21.33333"
       height="21.33333"
       style="fill:#4d4539"
       id="rect20" />
    <rect
       x="192"
       y="192"
       width="21.33333"
       height="21.33333"
       style="fill:#4d4539"
       id="rect21" />
    <rect
       x="234.66667"
       y="277.33334"
       width="42.666672"
       height="21.33333"
       style="fill:#4b3d44;fill-opacity:1"
       id="rect22" />
    <polygon
       points="192,448 256,405.333 192,362.667 "
       style="fill:#ab9b8e;fill-opacity:1"
       id="polygon22" />
    <polygon
       points="192,384 240,416 256,405.333 192,362.667 "
       style="fill:#ab9b8e;fill-opacity:1"
       id="polygon23" />
    <polygon
       points="320,448 256,405.333 320,362.667 "
       style="fill:#ab9b8e;fill-opacity:1"
       id="polygon24" />
    <polygon
       points="272,394.667 320,426.667 320,362.667 "
       style="fill:#ab9b8e;fill-opacity:1"
       id="polygon25" />
    <rect
       x="234.66667"
       y="384"
       width="42.666672"
       height="42.666672"
       style="fill:#ab9b8e;fill-opacity:1"
       id="rect25" />
    <rect
       x="234.66667"
       y="384"
       width="42.666672"
       height="21.33333"
       style="fill:#ab9b8e;fill-opacity:1"
       id="rect26" />
    <rect
       x="256"
       y="405.33334"
       width="21.33333"
       height="21.33333"
       style="fill:#ab9b8e;fill-opacity:1"
       id="rect27" />
    <path
       d="m 170.66667,64 c 0,0 -21.33334,0 -21.33334,-21.33333 0,-21.33333 21.33334,-21.33334 21.33334,-21.33334 0,0 0,21.33334 21.33333,21.33334 21.33333,0 42.66667,-21.33334 85.33333,-21.33334 64,0 85.33334,42.66667 85.33334,64 0,0 42.66666,21.33334 42.66666,64 0,42.66666 -42.66666,42.66667 -42.66666,42.66667 v 21.33333 H 341.33333 V 106.66667 L 320,85.98824 c 0,0 -32,10.01176 -64,42.01176 0,0 -42.66667,0 -64,-42.66667 l -21.33333,21.33334 V 213.33331 H 149.33333 V 192 c 0,0 -42.66666,0 -42.66666,-42.66667 0,-64 64,-85.33333 64,-85.33333 z"
       style="fill:#4b3d44"
       id="path27" />
    <path
       d="m 248.35417,108.8125 -7.14584,-2.97917 c -28.5625,-11.97916 -47.14583,-46 -47.9375,-47.4375 l 18.77084,-10.13541 c 0.14583,0.26041 12.85416,23.375 31.08333,34.61458 11.72917,-11.5625 39.95833,-35.59375 75.52083,-40.125 l 2.70834,21.16667 C 283.39583,68.75 253.70833,102.625 253.41667,102.96875 Z"
       style="fill:#79444a;fill-opacity:1"
       id="path28" />
    <path
       d="M 106.66667,149.33333 C 106.66667,192 149.33333,192 149.33333,192 v 21.33333 h 21.33334 V 106.66667 L 192,85.33333 170.66667,64 c 0,0 -64,21.33333 -64,85.33333 z"
       style="fill:#79444a;fill-opacity:1"
       id="path29" />
    <rect
       x="149.33333"
       y="106.66667"
       width="21.33333"
       height="21.33333"
       style="fill:#79444a;fill-opacity:1"
       id="rect29" />
    <rect
       x="149.33333"
       y="149.33333"
       width="21.33333"
       height="21.33333"
       style="fill:#79444a;fill-opacity:1"
       id="rect30" />
    <rect
       x="341.33334"
       y="149.33333"
       width="21.33333"
       height="21.33333"
       style="fill:#4b3d44;fill-opacity:1"
       id="rect31" />
    <rect
       x="341.33334"
       y="106.66667"
       width="21.33333"
       height="21.33333"
       style="fill:#4b3d44;fill-opacity:1"
       id="rect32" />
  </g>
</svg>
