<svg xmlns="http://www.w3.org/2000/svg" viewBox="0 0 512 512" preserveAspectRatio="xMidYMid meet">
  <title>Party Woman</title>
  <g id="party-woman" data-name="Party Woman">
    <path
       d="m 128,170.66667 c 0,85.33333 -21.33333,128 -21.33333,128 0,0 42.66666,42.66666 149.33333,42.66666 V 170.66667"
       style="fill:#ae5d40"
       id="path1" />
    <path
       d="M 124.875,338.20833 109.79167,323.125 C 109.9375,322.96875 128,304.28125 128,277.33333 v -42.66666 h 21.33333 v 42.66666 c 0,36 -23.45833,59.875 -24.45833,60.875 z"
       style="fill:#4b3d44"
       id="path2" />
    <path
       d="M 167.54167,338.20833 152.45833,323.125 c 0.14584,-0.15625 18.20834,-18.84375 18.20834,-45.79167 V 234.66667 H 192 v 42.66666 c 0,36 -23.45833,59.875 -24.45833,60.875 z"
       style="fill:#4b3d44"
       id="path3" />
    <path
       d="m 384,170.66667 c 0,85.33333 21.33333,128 21.33333,128 0,0 -42.66666,42.66666 -149.33333,42.66666 V 170.66667"
       style="fill:#4b3d44"
       id="path4" />
    <rect
       x="341.33334"
       y="192"
       width="42.666672"
       height="64"
       rx="21.333309"
       ry="21.333309"
       style="fill:#c77b58"
       id="rect4" />
    <rect
       x="128"
       y="192"
       width="42.666672"
       height="64"
       rx="21.333309"
       ry="21.333309"
       style="fill:#c77b58"
       id="rect5" />
    <path
       d="m 192,277.33333 v 64 a 21.33334,21.33334 0 0 1 -21.33333,21.33334 h -64 A 85.33333,85.33333 0 0 0 21.33333,448 v 42.66667 H 490.66667 V 448 a 85.33333,85.33333 0 0 0 -85.33334,-85.33333 h -64 A 21.33334,21.33334 0 0 1 320,341.33333 v -64 z"
       style="fill:#c77b58"
       id="path5" />
    <rect
       x="405.33334"
       y="448"
       width="42.666672"
       height="42.666672"
       style="fill:#c77b58"
       id="rect6" />
    <path
       d="M 64,490.66667 H 42.66667 V 448 a 64.07,64.07 0 0 1 64,-64 v 21.33333 A 42.71555,42.71555 0 0 0 64,448 Z"
       style="fill:#c77b58;fill-opacity:1"
       id="path6" />
    <path
       d="M 341.33333,362.66667 A 21.33334,21.33334 0 0 1 320,341.33333 v -64 h -85.33333 v 128 a 21.33333,21.33333 0 1 0 42.66666,0 H 384 A 21.33331,21.33331 0 0 0 405.33333,384 v 0 A 21.33331,21.33331 0 0 0 384,362.66667 Z"
       style="fill:#c77b58"
       id="path7" />
    <polygon
       points="106.667,362.667 149.333,362.667 128,490.667 85.333,490.667 "
       style="fill:#4b3d44;fill-opacity:1"
       id="polygon7" />
    <polygon
       points="362.667,362.667 405.333,362.667 426.667,490.667 384,490.667 "
       style="fill:#4b3d44;fill-opacity:1"
       id="polygon8" />
    <path
       d="M 106.66667,448 C 192,448 256,490.66667 256,490.66667 256,490.66667 320,448 405.33333,448 v 42.66667 H 106.66667 Z"
       style="fill:#79444a"
       id="path8" />
    <rect
       x="128"
       y="469.33334"
       width="64"
       height="21.33333"
       style="fill:#79444a"
       id="rect8" />
    <path
       d="m 292.77083,489.54167 -9.54166,-19.08334 C 285.0625,469.54167 328.89583,448 394.66667,448 v 21.33333 c -60.77084,0 -101.5,20 -101.89584,20.20834 z"
       style="fill:#4b3d44;fill-opacity:1"
       id="path9" />
    <rect
       x="149.33333"
       y="42.666672"
       width="213.33333"
       height="298.66656"
       rx="106.66656"
       ry="106.66656"
       style="fill:#d1b187"
       id="rect9" />
    <path
       d="m 320,64.48307 v 84.85026 h -42.66667 v 21.33334 H 320 v 42.66659 a 21.33333,21.33333 0 0 1 21.33333,21.33333 v 8e-5 A 21.33333,21.33333 0 0 1 320,256 h -64 v 64 h 21.33333 v 19.18359 a 106.69065,106.69065 0 0 0 85.33334,-104.51692 v -85.33334 c 0,-34.78385 -16.90104,-65.3789 -42.66667,-84.85026 z"
       style="fill:#c77b58"
       id="path10" />
    <polygon
       points="277.333,256 277.333,192 320,192 320,170.667 256,170.667 256,234.667 234.667,234.667 234.667,256 "
       style="fill:#c77b58"
       id="polygon10" />
    <rect
       x="298.66666"
       y="192"
       width="21.33333"
       height="21.33333"
       style="fill:#4d4539"
       id="rect10" />
    <rect
       x="192"
       y="192"
       width="21.33333"
       height="21.33333"
       style="fill:#4d4539"
       id="rect11" />
    <rect
       x="234.66667"
       y="277.33334"
       width="42.666672"
       height="21.33333"
       style="fill:#79444a"
       id="rect12" />
    <path
       d="m 149.33333,234.66667 v -21.33334 l 128,-106.66656 v -1e-4 L 298.66667,106.46225 362.6666,192 h 7e-5 v 42.66667 L 384,213.33333 V 149.3332 A 127.99987,127.99987 0 0 0 256.00013,21.33333 h -2.6e-4 A 127.99988,127.99988 0 0 0 128,149.3332 v 64.00013 z"
       style="fill:#4b3d44;fill-opacity:1"
       id="path12" />
    <path
       d="m 277.33333,106.66667 h 21.33334 V 28.77344 A 127.71226,127.71226 0 0 0 128,149.33333 v 64 l 21.33333,21.33334 v -21.33334 z"
       style="fill:#ae5d40"
       id="path13" />
    <rect
       x="277.33334"
       y="85.333328"
       width="21.33333"
       height="21.33333"
       style="fill:#ae5d40;fill-opacity:1"
       id="rect13" />
    <polygon
       points="256,101.979 256,64.479 277.333,64.479 277.333,111.354 145.875,231.865 131.458,216.135 "
       style="fill:#4b3d44"
       id="polygon13" />
    <path
       d="M 149.33333,170.66667 H 128 a 128.14,128.14 0 0 1 128,-128 V 64 A 106.79223,106.79223 0 0 0 149.33333,170.66667 Z"
       style="fill:#c77b58"
       id="path14" />
    <polygon
       points="320,64 341.333,64 341.333,92.448 371.208,132.271 354.125,145.063 320,99.552 "
       style="fill:#ae5d40"
       id="polygon14" />
  </g>
</svg>
