<svg xmlns="http://www.w3.org/2000/svg" viewBox="0 0 512 512" preserveAspectRatio="xMidYMid meet">
  <title>Sport Woman</title>
  <g id="sport-woman" data-name="Sport Woman">
    <circle
       cx="192"
       cy="362.66666"
       r="64"
       style="fill:#4b3d44"
       id="circle1" />
    <path
       d="M 170.66667,362.66667 H 149.33333 A 42.70887,42.70887 0 0 1 192,320 v 21.33333 a 21.36112,21.36112 0 0 0 -21.33333,21.33334 z"
       style="fill:#4b3d44"
       id="path1" />
    <rect
       x="128"
       y="21.33333"
       width="256"
       height="319.99988"
       rx="127.99987"
       ry="127.99987"
       style="fill:#4b3d44"
       id="rect1" />
    <rect
       x="128"
       y="192"
       width="21.33333"
       height="21.33333"
       style="fill:#ae5d40"
       id="rect2" />
    <rect
       x="341.33334"
       y="192"
       width="42.666672"
       height="64"
       rx="21.333309"
       ry="21.333309"
       style="fill:#c77b58"
       id="rect3" />
    <rect
       x="128"
       y="192"
       width="42.666672"
       height="64"
       rx="21.333309"
       ry="21.333309"
       style="fill:#c77b58"
       id="rect4" />
    <path
       d="m 192,277.33333 v 64 a 21.33334,21.33334 0 0 1 -21.33333,21.33334 h -64 A 85.33333,85.33333 0 0 0 21.33333,448 v 42.66667 H 490.66667 V 448 a 85.33333,85.33333 0 0 0 -85.33334,-85.33333 h -64 A 21.33334,21.33334 0 0 1 320,341.33333 v -64 z"
       style="fill:#c77b58"
       id="path4" />
    <rect
       x="384"
       y="448"
       width="42.666672"
       height="42.666672"
       style="fill:#c77b58"
       id="rect5" />
    <path
       d="M 341.33333,362.66667 A 21.33334,21.33334 0 0 1 320,341.33333 v -64 h -85.33333 v 128 a 21.33333,21.33333 0 1 0 42.66666,0 h 85.33336 A 21.33331,21.33331 0 0 0 384,384 v 0 a 21.33331,21.33331 0 0 0 -21.33331,-21.33331 z"
       style="fill:#c77b58"
       id="path6" />
    <path
       d="m 362.66667,362.66667 h -21.33334 c 0,0 0,85.33333 -85.33333,85.33333 -85.33333,0 -85.33333,-85.33333 -85.33333,-85.33333 h -21.33334 c 0,0 0,85.33333 -42.66666,128 h 298.66666 c -42.66666,-42.66667 -42.66666,-128 -42.66666,-128 z"
       style="fill:#79444a"
       id="path7" />
    <path
       d="M 266.66667,490.66667 H 256 v -21.33334 h 10.66667 a 95.23965,95.23965 0 0 0 77,-38.65625 l 17.10416,12.75 a 117.9239,117.9239 0 0 1 -94.10416,47.23959 z"
       style="fill:#4b3d44;fill-opacity:1"
       id="path8" />
    <path
       d="M 64,490.66667 H 42.66667 V 448 a 64.07,64.07 0 0 1 64,-64 v 21.33333 A 42.70887,42.70887 0 0 0 64,448 Z"
       style="fill:#d1b187"
       id="path9" />
    <rect
       x="149.33333"
       y="42.666672"
       width="213.33333"
       height="298.66656"
       rx="106.66656"
       ry="106.66656"
       style="fill:#d1b187"
       id="rect9" />
    <path
       d="m 320,64.48307 v 84.85026 h -42.66667 v 21.33334 H 320 v 42.66659 a 21.33333,21.33333 0 0 1 21.33333,21.33333 v 8e-5 A 21.33333,21.33333 0 0 1 320,256 h -64 v 64 h 21.33333 v 19.18359 a 106.69065,106.69065 0 0 0 85.33334,-104.51692 v -85.33334 c 0,-34.78385 -16.90104,-65.3789 -42.66667,-84.85026 z"
       style="fill:#c77b58"
       id="path10" />
    <polygon
       points="277.333,256 277.333,192 320,192 320,170.667 256,170.667 256,234.667 234.667,234.667 234.667,256 "
       style="fill:#c77b58"
       id="polygon10" />
    <rect
       x="298.66666"
       y="192"
       width="21.33333"
       height="21.33333"
       style="fill:#4d4539"
       id="rect10" />
    <rect
       x="192"
       y="192"
       width="21.33333"
       height="21.33333"
       style="fill:#4d4539"
       id="rect11" />
    <rect
       x="234.66667"
       y="277.33334"
       width="42.666672"
       height="21.33333"
       style="fill:#79444a"
       id="rect12" />
    <path
       d="m 256.00013,21.33333 h -2.6e-4 A 127.99987,127.99987 0 0 0 128,149.33321 V 192 h 85.3335 a 85.33312,85.33312 0 0 0 85.33312,-85.33316 v -9e-5 -8e-5 H 320 c 0,0 0,26.87629 21.33092,48.63249 a 79.19065,79.19065 0 0 0 21.33575,15.36751 V 192 H 384 V 149.33321 A 127.99987,127.99987 0 0 0 256.00013,21.33333 Z"
       style="fill:#4b3d44"
       id="path12" />
    <path
       d="M 228.459,24.38708 C 168.77266,37.65634 128,93.31858 128,154.4621 V 192 h 85.3336 a 85.33307,85.33307 0 0 0 85.33307,-85.33307 V 28.77344 A 126.06565,126.06565 0 0 0 228.459,24.38708 Z"
       style="fill:#ae5d40"
       id="path13" />
    <rect
       x="298.66666"
       y="85.333328"
       width="21.33333"
       height="21.33333"
       style="fill:#4b3d44;fill-opacity:1"
       id="rect13" />
    <path
       d="M 170.66667,149.33333 H 149.33333 A 106.79223,106.79223 0 0 1 256,42.66667 V 64 a 85.4311,85.4311 0 0 0 -85.33333,85.33333 z"
       style="fill:#c77b58"
       id="path14" />
    <path
       d="m 213.33333,192 h -64 v -21.33333 h 64 a 64.07,64.07 0 0 0 64,-64 V 85.33333 h 21.33334 v 21.33334 A 85.43111,85.43111 0 0 1 213.33333,192 Z"
       style="fill:#4b3d44"
       id="path15" />
  </g>
</svg>
