<svg xmlns="http://www.w3.org/2000/svg" viewBox="0 0 512 512" preserveAspectRatio="xMidYMid meet">
  <title>Sport Man</title>
  <g id="sport-man" data-name="Sport Man">
    <rect
       x="341.33334"
       y="192"
       width="42.666672"
       height="64"
       rx="21.333309"
       ry="21.333309"
       style="fill:#c77b58"
       id="rect1" />
    <rect
       x="128"
       y="192"
       width="42.666672"
       height="64"
       rx="21.333309"
       ry="21.333309"
       style="fill:#c77b58"
       id="rect2" />
    <path
       d="m 192,277.33333 v 64 a 21.33334,21.33334 0 0 1 -21.33333,21.33334 h -64 A 85.33333,85.33333 0 0 0 21.33333,448 v 42.66667 H 490.66667 V 448 a 85.33333,85.33333 0 0 0 -85.33334,-85.33333 h -64 A 21.33334,21.33334 0 0 1 320,341.33333 v -64 z"
       style="fill:#c77b58"
       id="path2" />
    <rect
       x="405.33334"
       y="426.66666"
       width="42.666672"
       height="64"
       style="fill:#c77b58"
       id="rect3" />
    <path
       d="M 341.33333,362.66667 A 21.33356,21.33356 0 0 1 320,341.33333 v -64 h -64 v 85.33334 h 21.33333 V 384 h -42.66666 v 21.33333 a 21.33333,21.33333 0 1 0 42.66666,0 h 85.33334 v -42.66666 z"
       style="fill:#c77b58"
       id="path4" />
    <rect
       x="149.33333"
       y="42.666672"
       width="213.33333"
       height="298.66656"
       rx="106.66656"
       ry="106.66656"
       style="fill:#d1b187"
       id="rect5" />
    <path
       d="m 320,64.48307 v 84.85026 h -42.66667 v 21.33334 H 320 v 42.66659 a 21.33333,21.33333 0 0 1 21.33333,21.33333 v 8e-5 A 21.33333,21.33333 0 0 1 320,256 h -64 v 64 h 21.33333 v 19.18359 a 106.69065,106.69065 0 0 0 85.33334,-104.51692 v -85.33334 c 0,-34.78385 -16.90105,-65.3789 -42.66667,-84.85026 z"
       style="fill:#c77b58"
       id="path5" />
    <polygon
       points="277.333,256 277.333,192 320,192 320,170.667 256,170.667 256,234.667 234.667,234.667 234.667,256 "
       style="fill:#c77b58"
       id="polygon5" />
    <rect
       x="298.66666"
       y="192"
       width="21.33333"
       height="21.33333"
       style="fill:#4d4539"
       id="rect6" />
    <rect
       x="192"
       y="192"
       width="21.33333"
       height="21.33333"
       style="fill:#4d4539"
       id="rect7" />
    <rect
       x="234.66667"
       y="277.33334"
       width="42.666672"
       height="21.33333"
       style="fill:#79444a"
       id="rect8" />
    <path
       d="m 405.5695,361.72202 -64.23617,0.94465 c 0,47.12833 -38.20503,85.33329 -85.33333,85.33329 -47.1283,0 -85.33333,-38.20496 -85.33333,-85.33329 h -64 v 128 h 298.27306 z"
       style="fill:#79444a"
       id="path8"
       />
    <path
       d="M 64,490.66667 H 42.66667 V 448 a 64.07,64.07 0 0 1 64,-64 v 21.33333 A 42.70887,42.70887 0 0 0 64,448 Z"
       style="fill:#d1b187"
       id="path9" />
    <path
       d="M 256,490.66667 V 469.33333 A 106.79223,106.79223 0 0 0 362.66667,362.66667 H 384 a 128.14,128.14 0 0 1 -128,128 z"
       style="fill:#79444a"
       id="path10" />
    <path
       d="m 256,128 c 0,0 0,-21.33333 21.33333,-21.33333 21.33333,0 21.33334,21.33333 21.33334,21.33333 0,21.33333 21.33333,21.33333 21.33333,21.33333 0,0 21.33333,0 21.33333,21.33334 v 42.66664 h 21.33334 V 192 c 0,0 21.33333,0 21.33333,-21.33333 v 0 c 0,0 21.33333,0 21.33333,-21.33334 0,0 -21.33333,0 -21.33333,-21.33333 0,-42.66667 -42.66667,-106.66667 -128,-106.66667 -64,0 -128,42.66667 -128,128 C 128,192 149.33331,192 149.33331,192 v 21.33333 h 21.33334 v -42.66666 c 0,0 21.33335,0 21.33335,-21.33334 C 192,127.99999 213.33333,128 213.33333,128 c 0,0 0,21.33333 21.33334,21.33333 0,0 0,-21.33333 21.33333,-21.33333 z"
       style="fill:#ae5d40"
       id="path11" />
    <rect
       x="128"
       y="362.66666"
       width="42.666672"
       height="21.33333"
       style="fill:#79444a"
       id="rect11" />
    <path
       d="M 362.66667,160 A 31.88653,31.88653 0 0 0 330.86458,128 H 320.19792 L 320,117.33333 c -0.0625,-5.29166 -1.88542,-32 -32,-32 H 277.33333 V 74.66667 c 0,-30.11459 -26.70833,-31.9375 -32.0625,-32 -30.05208,0 -31.875,26.70833 -31.9375,32.0625 l -0.125,10.54166 -10.54166,0.0625 C 194.07292,85.33333 192.125,91.19792 192,96.125 l -0.26042,10.39583 -10.40625,0.14584 c -15.55208,0 -32,16.44791 -32,32 H 128 c 0,-24.32292 20.39583,-47.46875 44.14583,-52.375 2.64584,-8.82292 9.05209,-17.77084 20.69792,-21.02084 3.27083,-18.875 16.72917,-43.9375 52.48958,-43.9375 16.90625,0 47.60417,9.35417 52.625,43.375 28.14584,4.15625 39.40625,25.89584 42.45834,42.84375 A 53.22166,53.22166 0 0 1 384,159.80208 Z"
       style="fill:#c77b58"
       id="path12" />
    <path
       d="m 234.66667,96 h -21.33334 c -0.125,-4.80208 -2.07291,-10.66667 -10.66666,-10.66667 V 64 c 23.47916,0 32,19.13542 32,32 z"
       style="fill:#c77b58"
       id="path13" />
    <rect
       x="149.33333"
       y="170.66667"
       width="21.33333"
       height="21.33333"
       style="fill:#c77b58"
       id="rect13" />
    <rect
       x="341.33334"
       y="192"
       width="21.33333"
       height="21.33333"
       style="fill:#c77b58"
       id="rect14" />
  </g>
</svg>
