<svg xmlns="http://www.w3.org/2000/svg" viewBox="0 0 512 512" preserveAspectRatio="xMidYMid meet">
  <title>Young Man</title>
  <g id="young-man" data-name="Young Man">
    <rect
       x="341.33334"
       y="192"
       width="42.666672"
       height="64"
       rx="21.333309"
       ry="21.333309"
       style="fill:#c77b58"
       id="rect1" />
    <rect
       x="128"
       y="192"
       width="42.666672"
       height="64"
       rx="21.333309"
       ry="21.333309"
       style="fill:#c77b58"
       id="rect2" />
    <path
       d="m 192,277.33333 v 64 a 21.33334,21.33334 0 0 1 -21.33333,21.33334 h -64 A 85.33333,85.33333 0 0 0 21.33333,448 v 42.66667 H 490.66667 V 448 a 85.33333,85.33333 0 0 0 -85.33334,-85.33333 h -64 A 21.33334,21.33334 0 0 1 320,341.33333 v -64 z"
       style="fill:#c77b58"
       id="path2" />
    <path
       d="M 341.33333,362.66667 A 21.33356,21.33356 0 0 1 320,341.33333 v -64 h -64 v 85.33334 h 21.33333 V 384 h -42.66666 v 21.33333 a 21.33333,21.33333 0 1 0 42.66666,0 h 85.33334 v -42.66666 z"
       style="fill:#c77b58"
       id="path3" />
    <rect
       x="149.33333"
       y="42.666672"
       width="213.33333"
       height="298.66656"
       rx="106.66656"
       ry="106.66656"
       style="fill:#d1b187"
       id="rect4" />
    <path
       d="m 320,64.48307 v 84.85026 h -42.66667 v 21.33334 H 320 v 42.66659 a 21.33333,21.33333 0 0 1 21.33333,21.33333 v 8e-5 A 21.33333,21.33333 0 0 1 320,256 h -64 v 64 h 21.33333 v 19.18359 a 106.69065,106.69065 0 0 0 85.33334,-104.51692 v -85.33334 c 0,-34.78385 -16.90105,-65.3789 -42.66667,-84.85026 z"
       style="fill:#c77b58"
       id="path4" />
    <polygon
       points="277.333,256 277.333,192 320,192 320,170.667 256,170.667 256,234.667 234.667,234.667 234.667,256 "
       style="fill:#c77b58"
       id="polygon4" />
    <rect
       x="298.66666"
       y="192"
       width="21.33333"
       height="21.33333"
       style="fill:#4d4539"
       id="rect5" />
    <rect
       x="192"
       y="192"
       width="21.33333"
       height="21.33333"
       style="fill:#4d4539"
       id="rect6" />
    <rect
       x="234.66667"
       y="277.33334"
       width="42.666672"
       height="21.33333"
       style="fill:#79444a"
       id="rect7" />
    <path
       d="m 405.33333,362.66667 h -64 a 85.33333,85.33333 0 1 1 -170.66666,0 h -64 A 85.33255,85.33255 0 0 0 21.33333,448 v 42.66667 H 490.66667 V 448 a 85.33255,85.33255 0 0 0 -85.33334,-85.33333 z"
       style="fill:#847875;fill-opacity:1"
       id="path7" />
    <path
       d="M 64,490.66667 H 42.66667 V 448 a 64.07,64.07 0 0 1 64,-64 v 21.33333 A 42.71555,42.71555 0 0 0 64,448 Z"
       style="fill:#ab9b8e;fill-opacity:1"
       id="path8" />
    <path
       d="m 192,85.33333 c 0,0 0,42.66667 64,42.66667 0,0 0,-21.33333 21.33333,-21.33333 21.33333,0 21.33334,21.33333 64,21.33333 v 85.33331 h 21.33334 V 192 c 0,0 21.33333,0 21.33333,-21.33333 V 128 C 384,42.66667 298.66667,21.33333 256,21.33333 c -21.33333,0 -85.33333,0 -85.33333,42.66667 0,0 -42.66667,0 -42.66667,42.66667 v 64 C 128,192 149.33333,192 149.33333,192 v 21.33331 h 21.33334 V 106.66667 c 0,0 0,-21.33334 21.33333,-21.33334 z"
       style="fill:#4b3d44"
       id="path9" />
    <path
       d="m 128,106.66667 v 64 C 128,192 149.33333,192 149.33333,192 v 21.33333 h 21.33334 V 106.66667 c 0,0 0,-21.33334 21.33333,-21.33334 L 170.66667,64 C 170.66667,64 128,64 128,106.66667 Z"
       style="fill:#79444a;fill-opacity:1"
       id="path10" />
    <path
       d="M 256,490.66667 V 469.33333 A 106.79223,106.79223 0 0 0 362.66667,362.66667 H 384 a 128.14,128.14 0 0 1 -128,128 z"
       style="fill:#4b3d44;fill-opacity:1"
       id="path11" />
    <rect
       x="149.33333"
       y="149.33333"
       width="21.33333"
       height="21.33333"
       style="fill:#4b3d44;fill-opacity:1"
       id="rect11" />
    <rect
       x="341.33334"
       y="149.33333"
       width="21.33333"
       height="21.33333"
       style="fill:#79444a;fill-opacity:1"
       id="rect12" />
    <rect
       x="149.33333"
       y="106.66667"
       width="21.33333"
       height="21.33333"
       style="fill:#4b3d44;fill-opacity:1"
       id="rect13" />
    <path
       d="m 252.35417,106.97917 h -6.70834 c -28.79166,0 -40.83333,-21.41667 -42.70833,-38.29167 L 195.125,60.875 210.20833,45.79167 224,59.58333 V 64 c 0.0625,4.48958 1.52083,18.30208 16.04167,21.13542 5.79166,-8.15625 17.97916,-20.97917 37.29166,-20.97917 12.4375,0 21.64584,5.29167 30.52084,10.40625 9.625,5.54167 18.70833,10.77083 33.47916,10.77083 h 21.33334 v 21.33334 h -21.33334 c -20.45833,0 -33.58333,-7.54167 -44.10416,-13.61459 -7.35417,-4.21875 -13.16667,-7.5625 -19.89584,-7.5625 -14.22916,0 -22,15.30209 -22.08333,15.44792 z"
       style="fill:#79444a;fill-opacity:1"
       id="path13" />
  </g>
</svg>
